%TF.GenerationSoftware,KiCad,Pcbnew,6.0.4-6f826c9f35~116~ubuntu21.10.1*%
%TF.CreationDate,2022-06-29T09:00:01+02:00*%
%TF.ProjectId,mHz_oscillator,6d487a5f-6f73-4636-996c-6c61746f722e,rev?*%
%TF.SameCoordinates,Original*%
%TF.FileFunction,Legend,Bot*%
%TF.FilePolarity,Positive*%
%FSLAX46Y46*%
G04 Gerber Fmt 4.6, Leading zero omitted, Abs format (unit mm)*
G04 Created by KiCad (PCBNEW 6.0.4-6f826c9f35~116~ubuntu21.10.1) date 2022-06-29 09:00:01*
%MOMM*%
%LPD*%
G01*
G04 APERTURE LIST*
%ADD10C,0.500000*%
%ADD11C,0.150000*%
%ADD12C,0.375000*%
%ADD13C,0.120000*%
G04 APERTURE END LIST*
D10*
X7032476Y2270071D02*
X7032476Y651023D01*
X7127714Y460547D01*
X7222952Y365309D01*
X7413428Y270071D01*
X7699142Y270071D01*
X7889619Y365309D01*
X7032476Y1031976D02*
X7222952Y936738D01*
X7603904Y936738D01*
X7794380Y1031976D01*
X7889619Y1127214D01*
X7984857Y1317690D01*
X7984857Y1889119D01*
X7889619Y2079595D01*
X7794380Y2174833D01*
X7603904Y2270071D01*
X7222952Y2270071D01*
X7032476Y2174833D01*
X6175333Y1031976D02*
X5984857Y936738D01*
X5603904Y936738D01*
X5413428Y1031976D01*
X5318190Y1222452D01*
X5318190Y1317690D01*
X5413428Y1508166D01*
X5603904Y1603404D01*
X5889619Y1603404D01*
X6080095Y1698642D01*
X6175333Y1889119D01*
X6175333Y1984357D01*
X6080095Y2174833D01*
X5889619Y2270071D01*
X5603904Y2270071D01*
X5413428Y2174833D01*
X4556285Y1031976D02*
X4365809Y936738D01*
X3984857Y936738D01*
X3794380Y1031976D01*
X3699142Y1222452D01*
X3699142Y1317690D01*
X3794380Y1508166D01*
X3984857Y1603404D01*
X4270571Y1603404D01*
X4461047Y1698642D01*
X4556285Y1889119D01*
X4556285Y1984357D01*
X4461047Y2174833D01*
X4270571Y2270071D01*
X3984857Y2270071D01*
X3794380Y2174833D01*
D11*
X9976904Y3040119D02*
X9976904Y4040119D01*
X9643571Y3325833D01*
X9310238Y4040119D01*
X9310238Y3040119D01*
X8405476Y3040119D02*
X8405476Y3563928D01*
X8453095Y3659166D01*
X8548333Y3706785D01*
X8738809Y3706785D01*
X8834047Y3659166D01*
X8405476Y3087738D02*
X8500714Y3040119D01*
X8738809Y3040119D01*
X8834047Y3087738D01*
X8881666Y3182976D01*
X8881666Y3278214D01*
X8834047Y3373452D01*
X8738809Y3421071D01*
X8500714Y3421071D01*
X8405476Y3468690D01*
X7929285Y3040119D02*
X7929285Y3706785D01*
X7929285Y3516309D02*
X7881666Y3611547D01*
X7834047Y3659166D01*
X7738809Y3706785D01*
X7643571Y3706785D01*
X6881666Y3087738D02*
X6976904Y3040119D01*
X7167380Y3040119D01*
X7262619Y3087738D01*
X7310238Y3135357D01*
X7357857Y3230595D01*
X7357857Y3516309D01*
X7310238Y3611547D01*
X7262619Y3659166D01*
X7167380Y3706785D01*
X6976904Y3706785D01*
X6881666Y3659166D01*
X6453095Y3040119D02*
X6453095Y4040119D01*
X6024523Y3040119D02*
X6024523Y3563928D01*
X6072142Y3659166D01*
X6167380Y3706785D01*
X6310238Y3706785D01*
X6405476Y3659166D01*
X6453095Y3611547D01*
X4834047Y3944880D02*
X4786428Y3992500D01*
X4691190Y4040119D01*
X4453095Y4040119D01*
X4357857Y3992500D01*
X4310238Y3944880D01*
X4262619Y3849642D01*
X4262619Y3754404D01*
X4310238Y3611547D01*
X4881666Y3040119D01*
X4262619Y3040119D01*
X3643571Y4040119D02*
X3548333Y4040119D01*
X3453095Y3992500D01*
X3405476Y3944880D01*
X3357857Y3849642D01*
X3310238Y3659166D01*
X3310238Y3421071D01*
X3357857Y3230595D01*
X3405476Y3135357D01*
X3453095Y3087738D01*
X3548333Y3040119D01*
X3643571Y3040119D01*
X3738809Y3087738D01*
X3786428Y3135357D01*
X3834047Y3230595D01*
X3881666Y3421071D01*
X3881666Y3659166D01*
X3834047Y3849642D01*
X3786428Y3944880D01*
X3738809Y3992500D01*
X3643571Y4040119D01*
X2929285Y3944880D02*
X2881666Y3992500D01*
X2786428Y4040119D01*
X2548333Y4040119D01*
X2453095Y3992500D01*
X2405476Y3944880D01*
X2357857Y3849642D01*
X2357857Y3754404D01*
X2405476Y3611547D01*
X2976904Y3040119D01*
X2357857Y3040119D01*
X1976904Y3944880D02*
X1929285Y3992500D01*
X1834047Y4040119D01*
X1595952Y4040119D01*
X1500714Y3992500D01*
X1453095Y3944880D01*
X1405476Y3849642D01*
X1405476Y3754404D01*
X1453095Y3611547D01*
X2024523Y3040119D01*
X1405476Y3040119D01*
D12*
X13643571Y42120428D02*
X13643571Y43120428D01*
X13643571Y42977571D02*
X13572142Y43049000D01*
X13429285Y43120428D01*
X13214999Y43120428D01*
X13072142Y43049000D01*
X13000714Y42906142D01*
X13000714Y42120428D01*
X13000714Y42906142D02*
X12929285Y43049000D01*
X12786428Y43120428D01*
X12572142Y43120428D01*
X12429285Y43049000D01*
X12357857Y42906142D01*
X12357857Y42120428D01*
X11643571Y42120428D02*
X11643571Y43620428D01*
X11643571Y42906142D02*
X10786428Y42906142D01*
X10786428Y42120428D02*
X10786428Y43620428D01*
X10214999Y43120428D02*
X9429285Y43120428D01*
X10214999Y42120428D01*
X9429285Y42120428D01*
X7500714Y42120428D02*
X7643571Y42191857D01*
X7714999Y42263285D01*
X7786428Y42406142D01*
X7786428Y42834714D01*
X7714999Y42977571D01*
X7643571Y43049000D01*
X7500714Y43120428D01*
X7286428Y43120428D01*
X7143571Y43049000D01*
X7072142Y42977571D01*
X7000714Y42834714D01*
X7000714Y42406142D01*
X7072142Y42263285D01*
X7143571Y42191857D01*
X7286428Y42120428D01*
X7500714Y42120428D01*
X6429285Y42191857D02*
X6286428Y42120428D01*
X6000714Y42120428D01*
X5857857Y42191857D01*
X5786428Y42334714D01*
X5786428Y42406142D01*
X5857857Y42549000D01*
X6000714Y42620428D01*
X6214999Y42620428D01*
X6357857Y42691857D01*
X6429285Y42834714D01*
X6429285Y42906142D01*
X6357857Y43049000D01*
X6214999Y43120428D01*
X6000714Y43120428D01*
X5857857Y43049000D01*
X4500714Y42191857D02*
X4643571Y42120428D01*
X4929285Y42120428D01*
X5072142Y42191857D01*
X5143571Y42263285D01*
X5214999Y42406142D01*
X5214999Y42834714D01*
X5143571Y42977571D01*
X5072142Y43049000D01*
X4929285Y43120428D01*
X4643571Y43120428D01*
X4500714Y43049000D01*
X3857857Y42120428D02*
X3857857Y43120428D01*
X3857857Y43620428D02*
X3929285Y43549000D01*
X3857857Y43477571D01*
X3786428Y43549000D01*
X3857857Y43620428D01*
X3857857Y43477571D01*
X2929285Y42120428D02*
X3072142Y42191857D01*
X3143571Y42334714D01*
X3143571Y43620428D01*
X2143571Y42120428D02*
X2286428Y42191857D01*
X2357857Y42334714D01*
X2357857Y43620428D01*
X929285Y42120428D02*
X929285Y42906142D01*
X1000714Y43049000D01*
X1143571Y43120428D01*
X1429285Y43120428D01*
X1572142Y43049000D01*
X929285Y42191857D02*
X1072142Y42120428D01*
X1429285Y42120428D01*
X1572142Y42191857D01*
X1643571Y42334714D01*
X1643571Y42477571D01*
X1572142Y42620428D01*
X1429285Y42691857D01*
X1072142Y42691857D01*
X929285Y42763285D01*
X429285Y43120428D02*
X-142142Y43120428D01*
X214999Y43620428D02*
X214999Y42334714D01*
X143571Y42191857D01*
X714Y42120428D01*
X-142142Y42120428D01*
X-856428Y42120428D02*
X-713571Y42191857D01*
X-642142Y42263285D01*
X-570714Y42406142D01*
X-570714Y42834714D01*
X-642142Y42977571D01*
X-713571Y43049000D01*
X-856428Y43120428D01*
X-1070714Y43120428D01*
X-1213571Y43049000D01*
X-1285000Y42977571D01*
X-1356428Y42834714D01*
X-1356428Y42406142D01*
X-1285000Y42263285D01*
X-1213571Y42191857D01*
X-1070714Y42120428D01*
X-856428Y42120428D01*
X-1999285Y42120428D02*
X-1999285Y43120428D01*
X-1999285Y42834714D02*
X-2070714Y42977571D01*
X-2142142Y43049000D01*
X-2285000Y43120428D01*
X-2427857Y43120428D01*
D11*
X10500714Y40822619D02*
X10500714Y41489285D01*
X10500714Y41822619D02*
X10548333Y41775000D01*
X10500714Y41727380D01*
X10453095Y41775000D01*
X10500714Y41822619D01*
X10500714Y41727380D01*
X10024523Y41489285D02*
X10024523Y40822619D01*
X10024523Y41394047D02*
X9976904Y41441666D01*
X9881666Y41489285D01*
X9738809Y41489285D01*
X9643571Y41441666D01*
X9595952Y41346428D01*
X9595952Y40822619D01*
X9262619Y41489285D02*
X8881666Y41489285D01*
X9119761Y41822619D02*
X9119761Y40965476D01*
X9072142Y40870238D01*
X8976904Y40822619D01*
X8881666Y40822619D01*
X8167380Y40870238D02*
X8262619Y40822619D01*
X8453095Y40822619D01*
X8548333Y40870238D01*
X8595952Y40965476D01*
X8595952Y41346428D01*
X8548333Y41441666D01*
X8453095Y41489285D01*
X8262619Y41489285D01*
X8167380Y41441666D01*
X8119761Y41346428D01*
X8119761Y41251190D01*
X8595952Y41155952D01*
X7691190Y40822619D02*
X7691190Y41489285D01*
X7691190Y41298809D02*
X7643571Y41394047D01*
X7595952Y41441666D01*
X7500714Y41489285D01*
X7405476Y41489285D01*
X7215000Y41489285D02*
X6834047Y41489285D01*
X7072142Y40822619D02*
X7072142Y41679761D01*
X7024523Y41775000D01*
X6929285Y41822619D01*
X6834047Y41822619D01*
X6072142Y40822619D02*
X6072142Y41346428D01*
X6119761Y41441666D01*
X6215000Y41489285D01*
X6405476Y41489285D01*
X6500714Y41441666D01*
X6072142Y40870238D02*
X6167380Y40822619D01*
X6405476Y40822619D01*
X6500714Y40870238D01*
X6548333Y40965476D01*
X6548333Y41060714D01*
X6500714Y41155952D01*
X6405476Y41203571D01*
X6167380Y41203571D01*
X6072142Y41251190D01*
X5167380Y40870238D02*
X5262619Y40822619D01*
X5453095Y40822619D01*
X5548333Y40870238D01*
X5595952Y40917857D01*
X5643571Y41013095D01*
X5643571Y41298809D01*
X5595952Y41394047D01*
X5548333Y41441666D01*
X5453095Y41489285D01*
X5262619Y41489285D01*
X5167380Y41441666D01*
X4357857Y40870238D02*
X4453095Y40822619D01*
X4643571Y40822619D01*
X4738809Y40870238D01*
X4786428Y40965476D01*
X4786428Y41346428D01*
X4738809Y41441666D01*
X4643571Y41489285D01*
X4453095Y41489285D01*
X4357857Y41441666D01*
X4310238Y41346428D01*
X4310238Y41251190D01*
X4786428Y41155952D01*
X3119761Y41489285D02*
X3119761Y40489285D01*
X3119761Y41441666D02*
X3024523Y41489285D01*
X2834047Y41489285D01*
X2738809Y41441666D01*
X2691190Y41394047D01*
X2643571Y41298809D01*
X2643571Y41013095D01*
X2691190Y40917857D01*
X2738809Y40870238D01*
X2834047Y40822619D01*
X3024523Y40822619D01*
X3119761Y40870238D01*
X1786428Y40870238D02*
X1881666Y40822619D01*
X2072142Y40822619D01*
X2167380Y40870238D01*
X2214999Y40917857D01*
X2262619Y41013095D01*
X2262619Y41298809D01*
X2214999Y41394047D01*
X2167380Y41441666D01*
X2072142Y41489285D01*
X1881666Y41489285D01*
X1786428Y41441666D01*
X1357857Y40822619D02*
X1357857Y41822619D01*
X1357857Y41441666D02*
X1262619Y41489285D01*
X1072142Y41489285D01*
X976904Y41441666D01*
X929285Y41394047D01*
X881666Y41298809D01*
X881666Y41013095D01*
X929285Y40917857D01*
X976904Y40870238D01*
X1072142Y40822619D01*
X1262619Y40822619D01*
X1357857Y40870238D01*
%TO.C,J7*%
X-1423333Y22663095D02*
X-1423333Y22091666D01*
X-1385238Y21977380D01*
X-1309047Y21901190D01*
X-1194761Y21863095D01*
X-1118571Y21863095D01*
X-1728095Y22663095D02*
X-2261428Y22663095D01*
X-1918571Y21863095D01*
%TO.C,J5*%
X-5130833Y74098095D02*
X-5130833Y73526666D01*
X-5092738Y73412380D01*
X-5016547Y73336190D01*
X-4902261Y73298095D01*
X-4826071Y73298095D01*
X-5892738Y74098095D02*
X-5511785Y74098095D01*
X-5473690Y73717142D01*
X-5511785Y73755238D01*
X-5587976Y73793333D01*
X-5778452Y73793333D01*
X-5854642Y73755238D01*
X-5892738Y73717142D01*
X-5930833Y73640952D01*
X-5930833Y73450476D01*
X-5892738Y73374285D01*
X-5854642Y73336190D01*
X-5778452Y73298095D01*
X-5587976Y73298095D01*
X-5511785Y73336190D01*
X-5473690Y73374285D01*
%TO.C,J1*%
X4076666Y-7816904D02*
X4076666Y-8388333D01*
X4114761Y-8502619D01*
X4190952Y-8578809D01*
X4305238Y-8616904D01*
X4381428Y-8616904D01*
X3276666Y-8616904D02*
X3733809Y-8616904D01*
X3505238Y-8616904D02*
X3505238Y-7816904D01*
X3581428Y-7931190D01*
X3657619Y-8007380D01*
X3733809Y-8045476D01*
%TO.C,J3*%
X-7035833Y14833095D02*
X-7035833Y14261666D01*
X-6997738Y14147380D01*
X-6921547Y14071190D01*
X-6807261Y14033095D01*
X-6731071Y14033095D01*
X-7340595Y14833095D02*
X-7835833Y14833095D01*
X-7569166Y14528333D01*
X-7683452Y14528333D01*
X-7759642Y14490238D01*
X-7797738Y14452142D01*
X-7835833Y14375952D01*
X-7835833Y14185476D01*
X-7797738Y14109285D01*
X-7759642Y14071190D01*
X-7683452Y14033095D01*
X-7454880Y14033095D01*
X-7378690Y14071190D01*
X-7340595Y14109285D01*
%TO.C,J9*%
X14871666Y75158095D02*
X14871666Y74586666D01*
X14909761Y74472380D01*
X14985952Y74396190D01*
X15100238Y74358095D01*
X15176428Y74358095D01*
X14452619Y74358095D02*
X14300238Y74358095D01*
X14224047Y74396190D01*
X14185952Y74434285D01*
X14109761Y74548571D01*
X14071666Y74700952D01*
X14071666Y75005714D01*
X14109761Y75081904D01*
X14147857Y75120000D01*
X14224047Y75158095D01*
X14376428Y75158095D01*
X14452619Y75120000D01*
X14490714Y75081904D01*
X14528809Y75005714D01*
X14528809Y74815238D01*
X14490714Y74739047D01*
X14452619Y74700952D01*
X14376428Y74662857D01*
X14224047Y74662857D01*
X14147857Y74700952D01*
X14109761Y74739047D01*
X14071666Y74815238D01*
D13*
%TO.C,J7*%
X1910000Y23555000D02*
X1910000Y20895000D01*
X1910000Y23555000D02*
X12130000Y23555000D01*
X640000Y23555000D02*
X-690000Y23555000D01*
X12130000Y23555000D02*
X12130000Y20895000D01*
X1910000Y20895000D02*
X12130000Y20895000D01*
X-690000Y23555000D02*
X-690000Y22225000D01*
%TO.C,J5*%
X-4505000Y60960000D02*
X-4505000Y59630000D01*
X-4505000Y74990000D02*
X-1845000Y74990000D01*
X-4505000Y62230000D02*
X-4505000Y74990000D01*
X-4505000Y62230000D02*
X-1845000Y62230000D01*
X-1845000Y62230000D02*
X-1845000Y74990000D01*
X-4505000Y59630000D02*
X-3175000Y59630000D01*
%TO.C,   *%
X-1143000Y6350000D02*
X-127000Y7366000D01*
X4953000Y5334000D02*
X4699000Y5842000D01*
X5715000Y5842000D02*
X5461000Y5334000D01*
X6985000Y6858000D02*
X6985000Y5334000D01*
X11557000Y6350000D02*
X10541000Y7366000D01*
X5207000Y5842000D02*
X4953000Y5334000D01*
X10541000Y7366000D02*
X10541000Y5334000D01*
X-127000Y6858000D02*
X-127000Y6350000D01*
X5969000Y5334000D02*
X5715000Y5842000D01*
X-1651000Y6858000D02*
X-1143000Y7366000D01*
X6477000Y5334000D02*
X6223000Y5842000D01*
X6731000Y5842000D02*
X6477000Y5334000D01*
X4445000Y5334000D02*
X4445000Y6858000D01*
X10541000Y5334000D02*
X8509000Y8382000D01*
X11557000Y7366000D02*
X11557000Y6858000D01*
X-1143000Y7366000D02*
X-1143000Y6350000D01*
X889000Y7366000D02*
X889000Y5334000D01*
X13081000Y6858000D02*
X12573000Y7366000D01*
X11557000Y6858000D02*
X11557000Y6350000D01*
X6985000Y5334000D02*
X6731000Y5842000D01*
X-127000Y7366000D02*
X-127000Y6858000D01*
X4699000Y5842000D02*
X4445000Y5334000D01*
X12573000Y6350000D02*
X11557000Y7366000D01*
X5461000Y5334000D02*
X5207000Y5842000D01*
X12573000Y7366000D02*
X12573000Y6350000D01*
X889000Y5334000D02*
X2921000Y8382000D01*
X-127000Y6350000D02*
X889000Y7366000D01*
X6223000Y5842000D02*
X5969000Y5334000D01*
X2921000Y8382000D02*
G75*
G03*
X4445000Y6858000I1524000J0D01*
G01*
X6985000Y6858000D02*
G75*
G03*
X8509000Y8382000I1J1523999D01*
G01*
X3280210Y6350000D02*
G75*
G03*
X3280210Y6350000I-359210J0D01*
G01*
X8868210Y6350000D02*
G75*
G03*
X8868210Y6350000I-359210J0D01*
G01*
%TO.C,J1*%
X17462500Y-9585000D02*
X4702500Y-9585000D01*
X17462500Y-9585000D02*
X17462500Y-6925000D01*
X17462500Y-6925000D02*
X4702500Y-6925000D01*
X4702500Y-9585000D02*
X4702500Y-6925000D01*
X20062500Y-9585000D02*
X20062500Y-8255000D01*
X18732500Y-9585000D02*
X20062500Y-9585000D01*
%TO.C,J3*%
X-5972500Y-1965000D02*
X-8632500Y-1965000D01*
X-5972500Y13395000D02*
X-7302500Y13395000D01*
X-8632500Y10795000D02*
X-8632500Y-1965000D01*
X-5972500Y10795000D02*
X-5972500Y-1965000D01*
X-5972500Y10795000D02*
X-8632500Y10795000D01*
X-5972500Y12065000D02*
X-5972500Y13395000D01*
%TO.C,   *%
X-1651000Y58102500D02*
X-1143000Y58610500D01*
X889000Y56578500D02*
X2921000Y59626500D01*
X12573000Y58610500D02*
X12573000Y57594500D01*
X-127000Y58610500D02*
X-127000Y58102500D01*
X5715000Y57086500D02*
X5461000Y56578500D01*
X-1143000Y58610500D02*
X-1143000Y57594500D01*
X6223000Y57086500D02*
X5969000Y56578500D01*
X6477000Y56578500D02*
X6223000Y57086500D01*
X13081000Y58102500D02*
X12573000Y58610500D01*
X12573000Y57594500D02*
X11557000Y58610500D01*
X4699000Y57086500D02*
X4445000Y56578500D01*
X5207000Y57086500D02*
X4953000Y56578500D01*
X889000Y58610500D02*
X889000Y56578500D01*
X5461000Y56578500D02*
X5207000Y57086500D01*
X11557000Y57594500D02*
X10541000Y58610500D01*
X4953000Y56578500D02*
X4699000Y57086500D01*
X11557000Y58610500D02*
X11557000Y58102500D01*
X-127000Y57594500D02*
X889000Y58610500D01*
X11557000Y58102500D02*
X11557000Y57594500D01*
X6985000Y58102500D02*
X6985000Y56578500D01*
X-1143000Y57594500D02*
X-127000Y58610500D01*
X4445000Y56578500D02*
X4445000Y58102500D01*
X5969000Y56578500D02*
X5715000Y57086500D01*
X-127000Y58102500D02*
X-127000Y57594500D01*
X6985000Y56578500D02*
X6731000Y57086500D01*
X10541000Y56578500D02*
X8509000Y59626500D01*
X6731000Y57086500D02*
X6477000Y56578500D01*
X10541000Y58610500D02*
X10541000Y56578500D01*
X2921000Y59626500D02*
G75*
G03*
X4445000Y58102500I1524000J0D01*
G01*
X6985000Y58102500D02*
G75*
G03*
X8509000Y59626500I1J1523999D01*
G01*
X3280210Y57594500D02*
G75*
G03*
X3280210Y57594500I-359210J0D01*
G01*
X8868210Y57594500D02*
G75*
G03*
X8868210Y57594500I-359210J0D01*
G01*
%TO.C,J9*%
X15935000Y71120000D02*
X15935000Y60900000D01*
X15935000Y73720000D02*
X14605000Y73720000D01*
X13275000Y71120000D02*
X13275000Y60900000D01*
X15935000Y60900000D02*
X13275000Y60900000D01*
X15935000Y71120000D02*
X13275000Y71120000D01*
X15935000Y72390000D02*
X15935000Y73720000D01*
%TD*%
M02*
