%TF.GenerationSoftware,KiCad,Pcbnew,6.0.4-6f826c9f35~116~ubuntu21.10.1*%
%TF.CreationDate,2022-06-29T09:00:01+02:00*%
%TF.ProjectId,mHz_oscillator,6d487a5f-6f73-4636-996c-6c61746f722e,rev?*%
%TF.SameCoordinates,Original*%
%TF.FileFunction,Copper,L1,Top*%
%TF.FilePolarity,Positive*%
%FSLAX46Y46*%
G04 Gerber Fmt 4.6, Leading zero omitted, Abs format (unit mm)*
G04 Created by KiCad (PCBNEW 6.0.4-6f826c9f35~116~ubuntu21.10.1) date 2022-06-29 09:00:01*
%MOMM*%
%LPD*%
G01*
G04 APERTURE LIST*
G04 Aperture macros list*
%AMRotRect*
0 Rectangle, with rotation*
0 The origin of the aperture is its center*
0 $1 length*
0 $2 width*
0 $3 Rotation angle, in degrees counterclockwise*
0 Add horizontal line*
21,1,$1,$2,0,0,$3*%
G04 Aperture macros list end*
%TA.AperFunction,WasherPad*%
%ADD10C,4.000000*%
%TD*%
%TA.AperFunction,ComponentPad*%
%ADD11C,1.800000*%
%TD*%
%TA.AperFunction,ComponentPad*%
%ADD12RotRect,1.800000X1.800000X225.000000*%
%TD*%
%TA.AperFunction,ComponentPad*%
%ADD13RotRect,1.800000X1.800000X45.000000*%
%TD*%
%TA.AperFunction,ComponentPad*%
%ADD14O,3.000000X1.200000*%
%TD*%
%TA.AperFunction,ComponentPad*%
%ADD15O,1.200000X3.200000*%
%TD*%
%TA.AperFunction,ComponentPad*%
%ADD16O,3.300000X2.000000*%
%TD*%
%TA.AperFunction,ComponentPad*%
%ADD17O,1.200000X3.000000*%
%TD*%
%TA.AperFunction,ComponentPad*%
%ADD18O,3.200000X1.200000*%
%TD*%
%TA.AperFunction,ComponentPad*%
%ADD19O,2.500000X1.500000*%
%TD*%
%TA.AperFunction,ComponentPad*%
%ADD20R,1.700000X1.700000*%
%TD*%
%TA.AperFunction,ComponentPad*%
%ADD21O,1.700000X1.700000*%
%TD*%
%TA.AperFunction,Conductor*%
%ADD22C,0.250000*%
%TD*%
G04 APERTURE END LIST*
D10*
%TO.P,RV7,*%
%TO.N,*%
X10115000Y65076700D03*
X1315000Y65076700D03*
D11*
%TO.P,RV7,1,1*%
%TO.N,/interface_pcb/Freq_CW*%
X3215000Y72076700D03*
%TO.P,RV7,2,2*%
%TO.N,/interface_pcb/Freq_Wiper*%
X5715000Y72076700D03*
%TO.P,RV7,3,3*%
%TO.N,/interface_pcb/Freq_CCW*%
X8215000Y72076700D03*
%TD*%
D12*
%TO.P,D11,1,K*%
%TO.N,/interface_pcb/Sine_LEDCathode*%
X18364061Y-3225938D03*
D11*
%TO.P,D11,2,A*%
%TO.N,/interface_pcb/Sine_LEDAnode*%
X16568010Y-5021989D03*
%TD*%
D13*
%TO.P,D8,1,K*%
%TO.N,/interface_pcb/Saw_LEDCathode*%
X1320939Y9258438D03*
D11*
%TO.P,D8,2,A*%
%TO.N,/interface_pcb/Saw_LEDAnode*%
X3116990Y11054489D03*
%TD*%
D14*
%TO.P,J14,R*%
%TO.N,unconnected-(J14-PadR)*%
X13335000Y16787500D03*
D15*
%TO.P,J14,S*%
%TO.N,/interface_pcb/0V*%
X10835000Y14287500D03*
D14*
%TO.P,J14,T*%
%TO.N,/interface_pcb/Triangle*%
X13335000Y11787500D03*
%TD*%
D13*
%TO.P,D9,1,K*%
%TO.N,/interface_pcb/Square_LEDCathode*%
X1320939Y-5029062D03*
D11*
%TO.P,D9,2,A*%
%TO.N,/interface_pcb/Square_LEDAnode*%
X3116990Y-3233011D03*
%TD*%
D14*
%TO.P,J17,R*%
%TO.N,unconnected-(J17-PadR)*%
X13335000Y82500000D03*
D15*
%TO.P,J17,S*%
%TO.N,/interface_pcb/0V*%
X10835000Y80000000D03*
D14*
%TO.P,J17,T*%
%TO.N,/interface_pcb/CV_in*%
X13335000Y77500000D03*
%TD*%
D16*
%TO.P,SW1,1,1*%
%TO.N,/interface_pcb/PushButton_2*%
X-1905000Y34720000D03*
%TO.P,SW1,2,2*%
%TO.N,/interface_pcb/PushButton_1*%
X-1905000Y31320000D03*
%TD*%
D10*
%TO.P,RV6,*%
%TO.N,*%
X8935000Y33030800D03*
X17735000Y33030800D03*
D11*
%TO.P,RV6,1,1*%
%TO.N,/interface_pcb/PWM_CW*%
X15835000Y26030800D03*
%TO.P,RV6,2,2*%
%TO.N,/interface_pcb/PWM_Wiper*%
X13335000Y26030800D03*
%TO.P,RV6,3,3*%
%TO.N,/interface_pcb/PWM_CCW*%
X10835000Y26030800D03*
%TD*%
D14*
%TO.P,J12,R*%
%TO.N,unconnected-(J12-PadR)*%
X-1905000Y16787500D03*
D15*
%TO.P,J12,S*%
%TO.N,/interface_pcb/0V*%
X-4405000Y14287500D03*
D14*
%TO.P,J12,T*%
%TO.N,/interface_pcb/Saw*%
X-1905000Y11787500D03*
%TD*%
D17*
%TO.P,J15,R*%
%TO.N,unconnected-(J15-PadR)*%
X15835000Y0D03*
D18*
%TO.P,J15,S*%
%TO.N,/interface_pcb/0V*%
X13335000Y2500000D03*
D17*
%TO.P,J15,T*%
%TO.N,/interface_pcb/Sine*%
X10835000Y0D03*
%TD*%
D13*
%TO.P,D10,1,K*%
%TO.N,/interface_pcb/Triangle_LEDCathode*%
X16560939Y9258438D03*
D11*
%TO.P,D10,2,A*%
%TO.N,/interface_pcb/Triangle_LEDAnode*%
X18356990Y11054489D03*
%TD*%
D17*
%TO.P,J16,R*%
%TO.N,unconnected-(J16-PadR)*%
X-4405000Y80000000D03*
D18*
%TO.P,J16,S*%
%TO.N,/interface_pcb/0V*%
X-1905000Y77500000D03*
D17*
%TO.P,J16,T*%
%TO.N,/interface_pcb/Trigger_input*%
X595000Y80000000D03*
%TD*%
D19*
%TO.P,SW2,1,A*%
%TO.N,/interface_pcb/Freq_Low*%
X-1905000Y47347500D03*
%TO.P,SW2,2,B*%
%TO.N,/interface_pcb/Freq_Switch_Output*%
X-1905000Y49847500D03*
%TO.P,SW2,3,C*%
%TO.N,/interface_pcb/Freq_High*%
X-1905000Y52347500D03*
%TD*%
D14*
%TO.P,J13,R*%
%TO.N,unconnected-(J13-PadR)*%
X-1905000Y2500000D03*
D15*
%TO.P,J13,S*%
%TO.N,/interface_pcb/0V*%
X-4405000Y0D03*
D14*
%TO.P,J13,T*%
%TO.N,/interface_pcb/Square*%
X-1905000Y-2500000D03*
%TD*%
D19*
%TO.P,SW3,1,A*%
%TO.N,/interface_pcb/0V*%
X13335000Y52347500D03*
%TO.P,SW3,2,B*%
%TO.N,/interface_pcb/SMTS_Output*%
X13335000Y49847500D03*
%TO.P,SW3,3,C*%
%TO.N,/interface_pcb/SMTS_OneShot*%
X13335000Y47347500D03*
%TD*%
D20*
%TO.P,J7,1,Pin_1*%
%TO.N,/interface_pcb/PushButton_1*%
X640000Y22225000D03*
D21*
%TO.P,J7,2,Pin_2*%
%TO.N,/interface_pcb/PushButton_2*%
X3180000Y22225000D03*
%TO.P,J7,3,Pin_3*%
%TO.N,/interface_pcb/PWM_Wiper*%
X5720000Y22225000D03*
%TO.P,J7,4,Pin_4*%
%TO.N,/interface_pcb/PWM_CCW*%
X8260000Y22225000D03*
%TO.P,J7,5,Pin_5*%
%TO.N,/interface_pcb/PWM_CW*%
X10800000Y22225000D03*
%TD*%
D20*
%TO.P,J5,1,Pin_1*%
%TO.N,/interface_pcb/Freq_Switch_Output*%
X-3175000Y60960000D03*
D21*
%TO.P,J5,2,Pin_2*%
%TO.N,/interface_pcb/Freq_High*%
X-3175000Y63500000D03*
%TO.P,J5,3,Pin_3*%
%TO.N,/interface_pcb/Freq_Low*%
X-3175000Y66040000D03*
%TO.P,J5,4,Pin_4*%
%TO.N,/interface_pcb/SMTS_OneShot*%
X-3175000Y68580000D03*
%TO.P,J5,5,Pin_5*%
%TO.N,/interface_pcb/SMTS_Output*%
X-3175000Y71120000D03*
%TO.P,J5,6,Pin_6*%
%TO.N,/interface_pcb/0V*%
X-3175000Y73660000D03*
%TD*%
D20*
%TO.P,J1,1,Pin_1*%
%TO.N,/interface_pcb/Triangle_LEDAnode*%
X18732500Y-8255000D03*
D21*
%TO.P,J1,2,Pin_2*%
%TO.N,/interface_pcb/Triangle_LEDCathode*%
X16192500Y-8255000D03*
%TO.P,J1,3,Pin_3*%
%TO.N,/interface_pcb/Triangle*%
X13652500Y-8255000D03*
%TO.P,J1,4,Pin_4*%
%TO.N,/interface_pcb/Sine_LEDAnode*%
X11112500Y-8255000D03*
%TO.P,J1,5,Pin_5*%
%TO.N,/interface_pcb/Sine_LEDCathode*%
X8572500Y-8255000D03*
%TO.P,J1,6,Pin_6*%
%TO.N,/interface_pcb/Sine*%
X6032500Y-8255000D03*
%TD*%
D20*
%TO.P,J3,1,Pin_1*%
%TO.N,/interface_pcb/Saw_LEDAnode*%
X-7302500Y12065000D03*
D21*
%TO.P,J3,2,Pin_2*%
%TO.N,/interface_pcb/Saw_LEDCathode*%
X-7302500Y9525000D03*
%TO.P,J3,3,Pin_3*%
%TO.N,/interface_pcb/Saw*%
X-7302500Y6985000D03*
%TO.P,J3,4,Pin_4*%
%TO.N,/interface_pcb/Square_LEDAnode*%
X-7302500Y4445000D03*
%TO.P,J3,5,Pin_5*%
%TO.N,/interface_pcb/Square_LEDCathode*%
X-7302500Y1905000D03*
%TO.P,J3,6,Pin_6*%
%TO.N,/interface_pcb/Square*%
X-7302500Y-635000D03*
%TD*%
D20*
%TO.P,J9,1,Pin_1*%
%TO.N,/interface_pcb/CV_in*%
X14605000Y72390000D03*
D21*
%TO.P,J9,2,Pin_2*%
%TO.N,/interface_pcb/Trigger_input*%
X14605000Y69850000D03*
%TO.P,J9,3,Pin_3*%
%TO.N,/interface_pcb/Freq_Wiper*%
X14605000Y67310000D03*
%TO.P,J9,4,Pin_4*%
%TO.N,/interface_pcb/Freq_CCW*%
X14605000Y64770000D03*
%TO.P,J9,5,Pin_5*%
%TO.N,/interface_pcb/Freq_CW*%
X14605000Y62230000D03*
%TD*%
D22*
%TO.N,/interface_pcb/PushButton_1*%
X640000Y28775000D02*
X-1905000Y31320000D01*
X640000Y22225000D02*
X640000Y28775000D01*
%TO.N,/interface_pcb/PushButton_2*%
X3180000Y29635000D02*
X-1905000Y34720000D01*
X3180000Y22225000D02*
X3180000Y29635000D01*
%TO.N,/interface_pcb/Square_LEDCathode*%
X-2220426Y-5029062D02*
X-5715000Y-1534488D01*
X1320939Y-5029062D02*
X-2220426Y-5029062D01*
X-5715000Y-1534488D02*
X-5715000Y317500D01*
X-5715000Y317500D02*
X-7302500Y1905000D01*
%TO.N,/interface_pcb/Square_LEDAnode*%
X1328011Y-3233011D02*
X-6350000Y4445000D01*
X3116990Y-3233011D02*
X1328011Y-3233011D01*
X-6350000Y4445000D02*
X-7302500Y4445000D01*
%TO.N,/interface_pcb/Sine_LEDCathode*%
X13601562Y-3225938D02*
X18364061Y-3225938D01*
X8572500Y-8255000D02*
X13601562Y-3225938D01*
%TO.N,/interface_pcb/Sine_LEDAnode*%
X16568010Y-5021989D02*
X14345511Y-5021989D01*
X14345511Y-5021989D02*
X11112500Y-8255000D01*
%TO.N,/interface_pcb/Saw*%
X-1905000Y11787500D02*
X-2500000Y11787500D01*
X-2500000Y11787500D02*
X-7302500Y6985000D01*
%TO.N,/interface_pcb/Sine*%
X10835000Y0D02*
X10835000Y-3452500D01*
X10835000Y-3452500D02*
X6032500Y-8255000D01*
%TO.N,/interface_pcb/Freq_Switch_Output*%
X-3175000Y60960000D02*
X-3810000Y60325000D01*
X-3810000Y51752500D02*
X-1905000Y49847500D01*
X-3810000Y60325000D02*
X-3810000Y51752500D01*
%TO.N,/interface_pcb/Freq_High*%
X-1905000Y52347500D02*
X-1905000Y62230000D01*
X-1905000Y62230000D02*
X-3175000Y63500000D01*
%TO.N,/interface_pcb/Freq_Low*%
X-3175000Y66040000D02*
X-3175000Y65722500D01*
X0Y62547500D02*
X0Y49252500D01*
X-3175000Y65722500D02*
X0Y62547500D01*
X0Y49252500D02*
X-1905000Y47347500D01*
%TO.N,/interface_pcb/PWM_CCW*%
X8260000Y22225000D02*
X8260000Y23455800D01*
X8260000Y23455800D02*
X10835000Y26030800D01*
%TO.N,/interface_pcb/PWM_CW*%
X12029200Y22225000D02*
X15835000Y26030800D01*
X10800000Y22225000D02*
X12029200Y22225000D01*
%TO.N,/interface_pcb/CV_in*%
X13335000Y77500000D02*
X13335000Y73660000D01*
X13335000Y73660000D02*
X14605000Y72390000D01*
%TO.N,/interface_pcb/Trigger_input*%
X14605000Y69850000D02*
X4455000Y80000000D01*
X4455000Y80000000D02*
X595000Y80000000D01*
%TO.N,/interface_pcb/Freq_Wiper*%
X6345800Y72076700D02*
X11112500Y67310000D01*
X5715000Y72076700D02*
X6345800Y72076700D01*
X11112500Y67310000D02*
X14605000Y67310000D01*
%TO.N,/interface_pcb/Freq_CW*%
X3215000Y72076700D02*
X3215000Y68540000D01*
X9525000Y62230000D02*
X14605000Y62230000D01*
X3215000Y68540000D02*
X9525000Y62230000D01*
%TD*%
%TA.AperFunction,Conductor*%
%TO.N,/interface_pcb/0V*%
G36*
X20078691Y84235593D02*
G01*
X20114655Y84186093D01*
X20119500Y84155500D01*
X20119500Y33319682D01*
X20100593Y33261491D01*
X20051093Y33225527D01*
X19989907Y33225527D01*
X19940407Y33261491D01*
X19922075Y33312205D01*
X19921991Y33312194D01*
X19921941Y33312575D01*
X19921712Y33313208D01*
X19921568Y33315410D01*
X19921567Y33315415D01*
X19921356Y33318639D01*
X19865081Y33601553D01*
X19772359Y33874702D01*
X19644778Y34133411D01*
X19484520Y34373254D01*
X19294327Y34590127D01*
X19077454Y34780320D01*
X19026160Y34814594D01*
X18840315Y34938771D01*
X18837611Y34940578D01*
X18578902Y35068159D01*
X18305753Y35160881D01*
X18022839Y35217156D01*
X18019617Y35217367D01*
X18019611Y35217368D01*
X17738234Y35235810D01*
X17735000Y35236022D01*
X17731766Y35235810D01*
X17450389Y35217368D01*
X17450383Y35217367D01*
X17447161Y35217156D01*
X17164247Y35160881D01*
X16891098Y35068159D01*
X16632389Y34940578D01*
X16629685Y34938771D01*
X16443841Y34814594D01*
X16392546Y34780320D01*
X16175673Y34590127D01*
X15985480Y34373254D01*
X15825222Y34133411D01*
X15697641Y33874702D01*
X15604919Y33601553D01*
X15548644Y33318639D01*
X15548433Y33315417D01*
X15548432Y33315411D01*
X15544898Y33261491D01*
X15529778Y33030800D01*
X15529990Y33027566D01*
X15548223Y32749390D01*
X15548644Y32742961D01*
X15604919Y32460047D01*
X15697641Y32186898D01*
X15825222Y31928189D01*
X15985480Y31688346D01*
X16175673Y31471473D01*
X16392546Y31281280D01*
X16632389Y31121022D01*
X16891098Y30993441D01*
X17164247Y30900719D01*
X17447161Y30844444D01*
X17450383Y30844233D01*
X17450389Y30844232D01*
X17731766Y30825790D01*
X17735000Y30825578D01*
X17738234Y30825790D01*
X18019611Y30844232D01*
X18019617Y30844233D01*
X18022839Y30844444D01*
X18305753Y30900719D01*
X18578902Y30993441D01*
X18837611Y31121022D01*
X19077454Y31281280D01*
X19294327Y31471473D01*
X19484520Y31688346D01*
X19644778Y31928189D01*
X19772359Y32186898D01*
X19865081Y32460047D01*
X19921356Y32742961D01*
X19921712Y32748392D01*
X19921929Y32748936D01*
X19921991Y32749406D01*
X19922110Y32749390D01*
X19944384Y32805222D01*
X19996130Y32837872D01*
X20057185Y32833870D01*
X20104227Y32794746D01*
X20119500Y32741918D01*
X20119500Y-9543000D01*
X20100593Y-9601191D01*
X20051093Y-9637155D01*
X20020500Y-9642000D01*
X-8590500Y-9642000D01*
X-8648691Y-9623093D01*
X-8684655Y-9573593D01*
X-8689500Y-9543000D01*
X-8689500Y-8240262D01*
X4977020Y-8240262D01*
X4994259Y-8445553D01*
X5051044Y-8643586D01*
X5145212Y-8826818D01*
X5273177Y-8988270D01*
X5276857Y-8991402D01*
X5276859Y-8991404D01*
X5389517Y-9087283D01*
X5430064Y-9121791D01*
X5434287Y-9124151D01*
X5434291Y-9124154D01*
X5473842Y-9146258D01*
X5609898Y-9222297D01*
X5614496Y-9223791D01*
X5801224Y-9284463D01*
X5801226Y-9284464D01*
X5805829Y-9285959D01*
X6010394Y-9310351D01*
X6015216Y-9309980D01*
X6015219Y-9309980D01*
X6085759Y-9304552D01*
X6215800Y-9294546D01*
X6414225Y-9239145D01*
X6418538Y-9236966D01*
X6418544Y-9236964D01*
X6593789Y-9148441D01*
X6593791Y-9148440D01*
X6598110Y-9146258D01*
X6633443Y-9118653D01*
X6756635Y-9022406D01*
X6756639Y-9022402D01*
X6760451Y-9019424D01*
X6895064Y-8863472D01*
X6913731Y-8830613D01*
X6994434Y-8688550D01*
X6994435Y-8688547D01*
X6996823Y-8684344D01*
X7010382Y-8643586D01*
X7060324Y-8493454D01*
X7060324Y-8493452D01*
X7061851Y-8488863D01*
X7087671Y-8284474D01*
X7088083Y-8255000D01*
X7086638Y-8240262D01*
X7517020Y-8240262D01*
X7534259Y-8445553D01*
X7591044Y-8643586D01*
X7685212Y-8826818D01*
X7813177Y-8988270D01*
X7816857Y-8991402D01*
X7816859Y-8991404D01*
X7929517Y-9087283D01*
X7970064Y-9121791D01*
X7974287Y-9124151D01*
X7974291Y-9124154D01*
X8013842Y-9146258D01*
X8149898Y-9222297D01*
X8154496Y-9223791D01*
X8341224Y-9284463D01*
X8341226Y-9284464D01*
X8345829Y-9285959D01*
X8550394Y-9310351D01*
X8555216Y-9309980D01*
X8555219Y-9309980D01*
X8625759Y-9304552D01*
X8755800Y-9294546D01*
X8954225Y-9239145D01*
X8958538Y-9236966D01*
X8958544Y-9236964D01*
X9133789Y-9148441D01*
X9133791Y-9148440D01*
X9138110Y-9146258D01*
X9173443Y-9118653D01*
X9296635Y-9022406D01*
X9296639Y-9022402D01*
X9300451Y-9019424D01*
X9435064Y-8863472D01*
X9453731Y-8830613D01*
X9534434Y-8688550D01*
X9534435Y-8688547D01*
X9536823Y-8684344D01*
X9550382Y-8643586D01*
X9600324Y-8493454D01*
X9600324Y-8493452D01*
X9601851Y-8488863D01*
X9627671Y-8284474D01*
X9628083Y-8255000D01*
X9626638Y-8240262D01*
X10057020Y-8240262D01*
X10074259Y-8445553D01*
X10131044Y-8643586D01*
X10225212Y-8826818D01*
X10353177Y-8988270D01*
X10356857Y-8991402D01*
X10356859Y-8991404D01*
X10469517Y-9087283D01*
X10510064Y-9121791D01*
X10514287Y-9124151D01*
X10514291Y-9124154D01*
X10553842Y-9146258D01*
X10689898Y-9222297D01*
X10694496Y-9223791D01*
X10881224Y-9284463D01*
X10881226Y-9284464D01*
X10885829Y-9285959D01*
X11090394Y-9310351D01*
X11095216Y-9309980D01*
X11095219Y-9309980D01*
X11165759Y-9304552D01*
X11295800Y-9294546D01*
X11494225Y-9239145D01*
X11498538Y-9236966D01*
X11498544Y-9236964D01*
X11673789Y-9148441D01*
X11673791Y-9148440D01*
X11678110Y-9146258D01*
X11713443Y-9118653D01*
X11836635Y-9022406D01*
X11836639Y-9022402D01*
X11840451Y-9019424D01*
X11975064Y-8863472D01*
X11993731Y-8830613D01*
X12074434Y-8688550D01*
X12074435Y-8688547D01*
X12076823Y-8684344D01*
X12090382Y-8643586D01*
X12140324Y-8493454D01*
X12140324Y-8493452D01*
X12141851Y-8488863D01*
X12167671Y-8284474D01*
X12168083Y-8255000D01*
X12166638Y-8240262D01*
X12597020Y-8240262D01*
X12614259Y-8445553D01*
X12671044Y-8643586D01*
X12765212Y-8826818D01*
X12893177Y-8988270D01*
X12896857Y-8991402D01*
X12896859Y-8991404D01*
X13009517Y-9087283D01*
X13050064Y-9121791D01*
X13054287Y-9124151D01*
X13054291Y-9124154D01*
X13093842Y-9146258D01*
X13229898Y-9222297D01*
X13234496Y-9223791D01*
X13421224Y-9284463D01*
X13421226Y-9284464D01*
X13425829Y-9285959D01*
X13630394Y-9310351D01*
X13635216Y-9309980D01*
X13635219Y-9309980D01*
X13705759Y-9304552D01*
X13835800Y-9294546D01*
X14034225Y-9239145D01*
X14038538Y-9236966D01*
X14038544Y-9236964D01*
X14213789Y-9148441D01*
X14213791Y-9148440D01*
X14218110Y-9146258D01*
X14253443Y-9118653D01*
X14376635Y-9022406D01*
X14376639Y-9022402D01*
X14380451Y-9019424D01*
X14515064Y-8863472D01*
X14533731Y-8830613D01*
X14614434Y-8688550D01*
X14614435Y-8688547D01*
X14616823Y-8684344D01*
X14630382Y-8643586D01*
X14680324Y-8493454D01*
X14680324Y-8493452D01*
X14681851Y-8488863D01*
X14707671Y-8284474D01*
X14708083Y-8255000D01*
X14706638Y-8240262D01*
X15137020Y-8240262D01*
X15154259Y-8445553D01*
X15211044Y-8643586D01*
X15305212Y-8826818D01*
X15433177Y-8988270D01*
X15436857Y-8991402D01*
X15436859Y-8991404D01*
X15549517Y-9087283D01*
X15590064Y-9121791D01*
X15594287Y-9124151D01*
X15594291Y-9124154D01*
X15633842Y-9146258D01*
X15769898Y-9222297D01*
X15774496Y-9223791D01*
X15961224Y-9284463D01*
X15961226Y-9284464D01*
X15965829Y-9285959D01*
X16170394Y-9310351D01*
X16175216Y-9309980D01*
X16175219Y-9309980D01*
X16245759Y-9304552D01*
X16375800Y-9294546D01*
X16574225Y-9239145D01*
X16578538Y-9236966D01*
X16578544Y-9236964D01*
X16753789Y-9148441D01*
X16753791Y-9148440D01*
X16758110Y-9146258D01*
X16785642Y-9124748D01*
X17682000Y-9124748D01*
X17693633Y-9183231D01*
X17737948Y-9249552D01*
X17804269Y-9293867D01*
X17813832Y-9295769D01*
X17813834Y-9295770D01*
X17836505Y-9300279D01*
X17862752Y-9305500D01*
X19602248Y-9305500D01*
X19628495Y-9300279D01*
X19651166Y-9295770D01*
X19651168Y-9295769D01*
X19660731Y-9293867D01*
X19727052Y-9249552D01*
X19771367Y-9183231D01*
X19783000Y-9124748D01*
X19783000Y-7385252D01*
X19771367Y-7326769D01*
X19727052Y-7260448D01*
X19660731Y-7216133D01*
X19651168Y-7214231D01*
X19651166Y-7214230D01*
X19628495Y-7209721D01*
X19602248Y-7204500D01*
X17862752Y-7204500D01*
X17836505Y-7209721D01*
X17813834Y-7214230D01*
X17813832Y-7214231D01*
X17804269Y-7216133D01*
X17737948Y-7260448D01*
X17693633Y-7326769D01*
X17682000Y-7385252D01*
X17682000Y-9124748D01*
X16785642Y-9124748D01*
X16793443Y-9118653D01*
X16916635Y-9022406D01*
X16916639Y-9022402D01*
X16920451Y-9019424D01*
X17055064Y-8863472D01*
X17073731Y-8830613D01*
X17154434Y-8688550D01*
X17154435Y-8688547D01*
X17156823Y-8684344D01*
X17170382Y-8643586D01*
X17220324Y-8493454D01*
X17220324Y-8493452D01*
X17221851Y-8488863D01*
X17247671Y-8284474D01*
X17248083Y-8255000D01*
X17227980Y-8049970D01*
X17168435Y-7852749D01*
X17071718Y-7670849D01*
X16941511Y-7511200D01*
X16795139Y-7390110D01*
X16786502Y-7382965D01*
X16786500Y-7382964D01*
X16782775Y-7379882D01*
X16601555Y-7281897D01*
X16532264Y-7260448D01*
X16409375Y-7222407D01*
X16409371Y-7222406D01*
X16404754Y-7220977D01*
X16399946Y-7220472D01*
X16399943Y-7220471D01*
X16204685Y-7199949D01*
X16204683Y-7199949D01*
X16199869Y-7199443D01*
X16144300Y-7204500D01*
X15999522Y-7217675D01*
X15999517Y-7217676D01*
X15994703Y-7218114D01*
X15797072Y-7276280D01*
X15792788Y-7278519D01*
X15792787Y-7278520D01*
X15781928Y-7284197D01*
X15614502Y-7371726D01*
X15610731Y-7374758D01*
X15457720Y-7497781D01*
X15457717Y-7497783D01*
X15453947Y-7500815D01*
X15450833Y-7504526D01*
X15450832Y-7504527D01*
X15442085Y-7514952D01*
X15321524Y-7658630D01*
X15319189Y-7662878D01*
X15319188Y-7662879D01*
X15312455Y-7675126D01*
X15222276Y-7839162D01*
X15220813Y-7843775D01*
X15220811Y-7843779D01*
X15217966Y-7852749D01*
X15159984Y-8035532D01*
X15159444Y-8040344D01*
X15159444Y-8040345D01*
X15158365Y-8049970D01*
X15137020Y-8240262D01*
X14706638Y-8240262D01*
X14687980Y-8049970D01*
X14628435Y-7852749D01*
X14531718Y-7670849D01*
X14401511Y-7511200D01*
X14255139Y-7390110D01*
X14246502Y-7382965D01*
X14246500Y-7382964D01*
X14242775Y-7379882D01*
X14061555Y-7281897D01*
X13992264Y-7260448D01*
X13869375Y-7222407D01*
X13869371Y-7222406D01*
X13864754Y-7220977D01*
X13859946Y-7220472D01*
X13859943Y-7220471D01*
X13664685Y-7199949D01*
X13664683Y-7199949D01*
X13659869Y-7199443D01*
X13604300Y-7204500D01*
X13459522Y-7217675D01*
X13459517Y-7217676D01*
X13454703Y-7218114D01*
X13257072Y-7276280D01*
X13252788Y-7278519D01*
X13252787Y-7278520D01*
X13241928Y-7284197D01*
X13074502Y-7371726D01*
X13070731Y-7374758D01*
X12917720Y-7497781D01*
X12917717Y-7497783D01*
X12913947Y-7500815D01*
X12910833Y-7504526D01*
X12910832Y-7504527D01*
X12902085Y-7514952D01*
X12781524Y-7658630D01*
X12779189Y-7662878D01*
X12779188Y-7662879D01*
X12772455Y-7675126D01*
X12682276Y-7839162D01*
X12680813Y-7843775D01*
X12680811Y-7843779D01*
X12677966Y-7852749D01*
X12619984Y-8035532D01*
X12619444Y-8040344D01*
X12619444Y-8040345D01*
X12618365Y-8049970D01*
X12597020Y-8240262D01*
X12166638Y-8240262D01*
X12147980Y-8049970D01*
X12088435Y-7852749D01*
X12083477Y-7843423D01*
X12072851Y-7783170D01*
X12100884Y-7726942D01*
X14451341Y-5376485D01*
X14505858Y-5348708D01*
X14521345Y-5347489D01*
X15442793Y-5347489D01*
X15500984Y-5366396D01*
X15532699Y-5405041D01*
X15610866Y-5574596D01*
X15727598Y-5739769D01*
X15872476Y-5880902D01*
X16040647Y-5993271D01*
X16226480Y-6073111D01*
X16423750Y-6117749D01*
X16625852Y-6125689D01*
X16679387Y-6117927D01*
X16821529Y-6097318D01*
X16821532Y-6097317D01*
X16826017Y-6096667D01*
X16921779Y-6064160D01*
X17013244Y-6033112D01*
X17013247Y-6033110D01*
X17017541Y-6031653D01*
X17194011Y-5932826D01*
X17349515Y-5803494D01*
X17478847Y-5647990D01*
X17577674Y-5471520D01*
X17642688Y-5279996D01*
X17671710Y-5079831D01*
X17673225Y-5021989D01*
X17666687Y-4950831D01*
X17655133Y-4825098D01*
X17654718Y-4820580D01*
X17599817Y-4625915D01*
X17510361Y-4444516D01*
X17389345Y-4282456D01*
X17240822Y-4145163D01*
X17218135Y-4130848D01*
X17073604Y-4039656D01*
X17069767Y-4037235D01*
X16881908Y-3962287D01*
X16683536Y-3922828D01*
X16583940Y-3921524D01*
X16485836Y-3920240D01*
X16485831Y-3920240D01*
X16481296Y-3920181D01*
X16476823Y-3920950D01*
X16476818Y-3920950D01*
X16378255Y-3937887D01*
X16281959Y-3954433D01*
X16092203Y-4024438D01*
X15918381Y-4127851D01*
X15914966Y-4130846D01*
X15914963Y-4130848D01*
X15895129Y-4148242D01*
X15766315Y-4261209D01*
X15763507Y-4264771D01*
X15712914Y-4328949D01*
X15641099Y-4420046D01*
X15546924Y-4599042D01*
X15539845Y-4621841D01*
X15538290Y-4626848D01*
X15502976Y-4676814D01*
X15443743Y-4696489D01*
X14364045Y-4696489D01*
X14355416Y-4696112D01*
X14325333Y-4693480D01*
X14316704Y-4692725D01*
X14308337Y-4694967D01*
X14279162Y-4702785D01*
X14270727Y-4704655D01*
X14240994Y-4709897D01*
X14240992Y-4709898D01*
X14232466Y-4711401D01*
X14224967Y-4715731D01*
X14219482Y-4717727D01*
X14214195Y-4720193D01*
X14205827Y-4722435D01*
X14176455Y-4743002D01*
X14174000Y-4744721D01*
X14166719Y-4749360D01*
X14133056Y-4768795D01*
X14127489Y-4775430D01*
X14108080Y-4798560D01*
X14102246Y-4804928D01*
X11641056Y-7266118D01*
X11586539Y-7293895D01*
X11530980Y-7284404D01*
X11530277Y-7286076D01*
X11525815Y-7284200D01*
X11521555Y-7281897D01*
X11510646Y-7278520D01*
X11329375Y-7222407D01*
X11329371Y-7222406D01*
X11324754Y-7220977D01*
X11319946Y-7220472D01*
X11319943Y-7220471D01*
X11124685Y-7199949D01*
X11124683Y-7199949D01*
X11119869Y-7199443D01*
X11064300Y-7204500D01*
X10919522Y-7217675D01*
X10919517Y-7217676D01*
X10914703Y-7218114D01*
X10717072Y-7276280D01*
X10712788Y-7278519D01*
X10712787Y-7278520D01*
X10701928Y-7284197D01*
X10534502Y-7371726D01*
X10530731Y-7374758D01*
X10377720Y-7497781D01*
X10377717Y-7497783D01*
X10373947Y-7500815D01*
X10370833Y-7504526D01*
X10370832Y-7504527D01*
X10362085Y-7514952D01*
X10241524Y-7658630D01*
X10239189Y-7662878D01*
X10239188Y-7662879D01*
X10232455Y-7675126D01*
X10142276Y-7839162D01*
X10140813Y-7843775D01*
X10140811Y-7843779D01*
X10137966Y-7852749D01*
X10079984Y-8035532D01*
X10079444Y-8040344D01*
X10079444Y-8040345D01*
X10078365Y-8049970D01*
X10057020Y-8240262D01*
X9626638Y-8240262D01*
X9607980Y-8049970D01*
X9548435Y-7852749D01*
X9543477Y-7843423D01*
X9532851Y-7783170D01*
X9560884Y-7726942D01*
X13707392Y-3580434D01*
X13761909Y-3552657D01*
X13777396Y-3551438D01*
X17092211Y-3551438D01*
X17150402Y-3570345D01*
X17162215Y-3580434D01*
X18236250Y-4654469D01*
X18285830Y-4687597D01*
X18364061Y-4703158D01*
X18373623Y-4701256D01*
X18432730Y-4689499D01*
X18442292Y-4687597D01*
X18491872Y-4654469D01*
X19792592Y-3353749D01*
X19825720Y-3304169D01*
X19841281Y-3225938D01*
X19825720Y-3147707D01*
X19792592Y-3098127D01*
X18491872Y-1797407D01*
X18442292Y-1764279D01*
X18364061Y-1748718D01*
X18285830Y-1764279D01*
X18236250Y-1797407D01*
X17162215Y-2871442D01*
X17107698Y-2899219D01*
X17092211Y-2900438D01*
X13620096Y-2900438D01*
X13611467Y-2900061D01*
X13581384Y-2897429D01*
X13572755Y-2896674D01*
X13564388Y-2898916D01*
X13535213Y-2906734D01*
X13526778Y-2908604D01*
X13497045Y-2913846D01*
X13497043Y-2913847D01*
X13488517Y-2915350D01*
X13481018Y-2919680D01*
X13475533Y-2921676D01*
X13470246Y-2924142D01*
X13461878Y-2926384D01*
X13432506Y-2946951D01*
X13430051Y-2948670D01*
X13422770Y-2953309D01*
X13389107Y-2972744D01*
X13366316Y-2999905D01*
X13364131Y-3002509D01*
X13358297Y-3008877D01*
X9101056Y-7266118D01*
X9046539Y-7293895D01*
X8990980Y-7284404D01*
X8990277Y-7286076D01*
X8985815Y-7284200D01*
X8981555Y-7281897D01*
X8970646Y-7278520D01*
X8789375Y-7222407D01*
X8789371Y-7222406D01*
X8784754Y-7220977D01*
X8779946Y-7220472D01*
X8779943Y-7220471D01*
X8584685Y-7199949D01*
X8584683Y-7199949D01*
X8579869Y-7199443D01*
X8524300Y-7204500D01*
X8379522Y-7217675D01*
X8379517Y-7217676D01*
X8374703Y-7218114D01*
X8177072Y-7276280D01*
X8172788Y-7278519D01*
X8172787Y-7278520D01*
X8161928Y-7284197D01*
X7994502Y-7371726D01*
X7990731Y-7374758D01*
X7837720Y-7497781D01*
X7837717Y-7497783D01*
X7833947Y-7500815D01*
X7830833Y-7504526D01*
X7830832Y-7504527D01*
X7822085Y-7514952D01*
X7701524Y-7658630D01*
X7699189Y-7662878D01*
X7699188Y-7662879D01*
X7692455Y-7675126D01*
X7602276Y-7839162D01*
X7600813Y-7843775D01*
X7600811Y-7843779D01*
X7597966Y-7852749D01*
X7539984Y-8035532D01*
X7539444Y-8040344D01*
X7539444Y-8040345D01*
X7538365Y-8049970D01*
X7517020Y-8240262D01*
X7086638Y-8240262D01*
X7067980Y-8049970D01*
X7008435Y-7852749D01*
X7003477Y-7843423D01*
X6992851Y-7783170D01*
X7020884Y-7726942D01*
X11052057Y-3695769D01*
X11058425Y-3689934D01*
X11062514Y-3686503D01*
X11088194Y-3664955D01*
X11107629Y-3631292D01*
X11112268Y-3624011D01*
X11127723Y-3601939D01*
X11134554Y-3592184D01*
X11136796Y-3583816D01*
X11139262Y-3578529D01*
X11141258Y-3573044D01*
X11145588Y-3565545D01*
X11147861Y-3552657D01*
X11152334Y-3527284D01*
X11154204Y-3518849D01*
X11162022Y-3489674D01*
X11164264Y-3481307D01*
X11160877Y-3442591D01*
X11160500Y-3433963D01*
X11160500Y-1694988D01*
X11179407Y-1636797D01*
X11207625Y-1610667D01*
X11216816Y-1605013D01*
X11330955Y-1534794D01*
X11337443Y-1528441D01*
X11455315Y-1413012D01*
X11459268Y-1409141D01*
X11556554Y-1258183D01*
X11617978Y-1089422D01*
X11635500Y-950717D01*
X11635500Y-945155D01*
X15034500Y-945155D01*
X15049454Y-1078472D01*
X15051276Y-1083704D01*
X15094149Y-1206818D01*
X15108515Y-1248073D01*
X15117738Y-1262833D01*
X15186311Y-1372572D01*
X15203684Y-1400375D01*
X15212389Y-1409141D01*
X15325731Y-1523276D01*
X15330230Y-1527807D01*
X15334904Y-1530773D01*
X15334905Y-1530774D01*
X15470719Y-1616964D01*
X15481864Y-1624037D01*
X15651049Y-1684281D01*
X15656536Y-1684935D01*
X15656539Y-1684936D01*
X15823880Y-1704890D01*
X15823883Y-1704890D01*
X15829376Y-1705545D01*
X16007983Y-1686773D01*
X16013223Y-1684989D01*
X16013224Y-1684989D01*
X16172751Y-1630682D01*
X16172755Y-1630680D01*
X16177993Y-1628897D01*
X16182703Y-1625999D01*
X16182708Y-1625997D01*
X16326246Y-1537691D01*
X16330955Y-1534794D01*
X16337443Y-1528441D01*
X16455315Y-1413012D01*
X16459268Y-1409141D01*
X16556554Y-1258183D01*
X16617978Y-1089422D01*
X16635500Y-950717D01*
X16635500Y945155D01*
X16620546Y1078472D01*
X16561485Y1248073D01*
X16489583Y1363140D01*
X16469247Y1395685D01*
X16469245Y1395687D01*
X16466316Y1400375D01*
X16339770Y1527807D01*
X16334855Y1530926D01*
X16192810Y1621071D01*
X16192809Y1621072D01*
X16188136Y1624037D01*
X16018951Y1684281D01*
X16013464Y1684935D01*
X16013461Y1684936D01*
X15846120Y1704890D01*
X15846117Y1704890D01*
X15840624Y1705545D01*
X15662017Y1686773D01*
X15656777Y1684989D01*
X15656776Y1684989D01*
X15497249Y1630682D01*
X15497245Y1630680D01*
X15492007Y1628897D01*
X15487297Y1625999D01*
X15487292Y1625997D01*
X15343907Y1537785D01*
X15339045Y1534794D01*
X15335096Y1530926D01*
X15335095Y1530926D01*
X15320276Y1516414D01*
X15210732Y1409141D01*
X15113446Y1258183D01*
X15052022Y1089422D01*
X15034500Y950717D01*
X15034500Y-945155D01*
X11635500Y-945155D01*
X11635500Y945155D01*
X11620546Y1078472D01*
X11561485Y1248073D01*
X11489583Y1363140D01*
X11469247Y1395685D01*
X11469245Y1395687D01*
X11466316Y1400375D01*
X11339770Y1527807D01*
X11334855Y1530926D01*
X11192810Y1621071D01*
X11192809Y1621072D01*
X11188136Y1624037D01*
X11018951Y1684281D01*
X11013464Y1684935D01*
X11013461Y1684936D01*
X10846120Y1704890D01*
X10846117Y1704890D01*
X10840624Y1705545D01*
X10662017Y1686773D01*
X10656777Y1684989D01*
X10656776Y1684989D01*
X10497249Y1630682D01*
X10497245Y1630680D01*
X10492007Y1628897D01*
X10487297Y1625999D01*
X10487292Y1625997D01*
X10343907Y1537785D01*
X10339045Y1534794D01*
X10335096Y1530926D01*
X10335095Y1530926D01*
X10320276Y1516414D01*
X10210732Y1409141D01*
X10113446Y1258183D01*
X10052022Y1089422D01*
X10034500Y950717D01*
X10034500Y-945155D01*
X10049454Y-1078472D01*
X10051276Y-1083704D01*
X10094149Y-1206818D01*
X10108515Y-1248073D01*
X10117738Y-1262833D01*
X10186311Y-1372572D01*
X10203684Y-1400375D01*
X10212389Y-1409141D01*
X10325731Y-1523276D01*
X10330230Y-1527807D01*
X10334904Y-1530773D01*
X10334905Y-1530774D01*
X10463547Y-1612413D01*
X10502548Y-1659557D01*
X10509500Y-1696001D01*
X10509500Y-3276666D01*
X10490593Y-3334857D01*
X10480504Y-3346670D01*
X6561056Y-7266118D01*
X6506539Y-7293895D01*
X6450980Y-7284404D01*
X6450277Y-7286076D01*
X6445815Y-7284200D01*
X6441555Y-7281897D01*
X6430646Y-7278520D01*
X6249375Y-7222407D01*
X6249371Y-7222406D01*
X6244754Y-7220977D01*
X6239946Y-7220472D01*
X6239943Y-7220471D01*
X6044685Y-7199949D01*
X6044683Y-7199949D01*
X6039869Y-7199443D01*
X5984300Y-7204500D01*
X5839522Y-7217675D01*
X5839517Y-7217676D01*
X5834703Y-7218114D01*
X5637072Y-7276280D01*
X5632788Y-7278519D01*
X5632787Y-7278520D01*
X5621928Y-7284197D01*
X5454502Y-7371726D01*
X5450731Y-7374758D01*
X5297720Y-7497781D01*
X5297717Y-7497783D01*
X5293947Y-7500815D01*
X5290833Y-7504526D01*
X5290832Y-7504527D01*
X5282085Y-7514952D01*
X5161524Y-7658630D01*
X5159189Y-7662878D01*
X5159188Y-7662879D01*
X5152455Y-7675126D01*
X5062276Y-7839162D01*
X5060813Y-7843775D01*
X5060811Y-7843779D01*
X5057966Y-7852749D01*
X4999984Y-8035532D01*
X4999444Y-8040344D01*
X4999444Y-8040345D01*
X4998365Y-8049970D01*
X4977020Y-8240262D01*
X-8689500Y-8240262D01*
X-8689500Y-620262D01*
X-8357980Y-620262D01*
X-8340741Y-825553D01*
X-8339408Y-830201D01*
X-8339408Y-830202D01*
X-8305655Y-947911D01*
X-8283956Y-1023586D01*
X-8189788Y-1206818D01*
X-8061823Y-1368270D01*
X-8058143Y-1371402D01*
X-8058141Y-1371404D01*
X-8019488Y-1404300D01*
X-7904936Y-1501791D01*
X-7900713Y-1504151D01*
X-7900709Y-1504154D01*
X-7794888Y-1563295D01*
X-7725102Y-1602297D01*
X-7720504Y-1603791D01*
X-7533776Y-1664463D01*
X-7533774Y-1664464D01*
X-7529171Y-1665959D01*
X-7324606Y-1690351D01*
X-7319784Y-1689980D01*
X-7319781Y-1689980D01*
X-7245719Y-1684281D01*
X-7119200Y-1674546D01*
X-6920775Y-1619145D01*
X-6916462Y-1616966D01*
X-6916456Y-1616964D01*
X-6741211Y-1528441D01*
X-6741209Y-1528440D01*
X-6736890Y-1526258D01*
X-6701557Y-1498653D01*
X-6578365Y-1402406D01*
X-6578361Y-1402402D01*
X-6574549Y-1399424D01*
X-6571321Y-1395685D01*
X-6456648Y-1262833D01*
X-6439936Y-1243472D01*
X-6421269Y-1210613D01*
X-6340566Y-1068550D01*
X-6340565Y-1068547D01*
X-6338177Y-1064344D01*
X-6333314Y-1049728D01*
X-6274676Y-873454D01*
X-6274676Y-873452D01*
X-6273149Y-868863D01*
X-6247329Y-664474D01*
X-6246917Y-635000D01*
X-6267020Y-429970D01*
X-6326565Y-232749D01*
X-6423282Y-50849D01*
X-6553489Y108800D01*
X-6593217Y141666D01*
X-6708498Y237035D01*
X-6708500Y237036D01*
X-6712225Y240118D01*
X-6893445Y338103D01*
X-6956645Y357667D01*
X-7085625Y397593D01*
X-7085629Y397594D01*
X-7090246Y399023D01*
X-7095054Y399528D01*
X-7095057Y399529D01*
X-7290315Y420051D01*
X-7290317Y420051D01*
X-7295131Y420557D01*
X-7355146Y415095D01*
X-7495478Y402325D01*
X-7495483Y402324D01*
X-7500297Y401886D01*
X-7697928Y343720D01*
X-7702212Y341481D01*
X-7702213Y341480D01*
X-7713072Y335803D01*
X-7880498Y248274D01*
X-7884269Y245242D01*
X-8037280Y122219D01*
X-8037283Y122217D01*
X-8041053Y119185D01*
X-8044167Y115474D01*
X-8044168Y115473D01*
X-8140222Y1000D01*
X-8173476Y-38630D01*
X-8175811Y-42878D01*
X-8175812Y-42879D01*
X-8182545Y-55126D01*
X-8272724Y-219162D01*
X-8335016Y-415532D01*
X-8335556Y-420344D01*
X-8335556Y-420345D01*
X-8336635Y-429970D01*
X-8357980Y-620262D01*
X-8689500Y-620262D01*
X-8689500Y1919738D01*
X-8357980Y1919738D01*
X-8356974Y1907756D01*
X-8345947Y1776447D01*
X-8340741Y1714447D01*
X-8339408Y1709799D01*
X-8339408Y1709798D01*
X-8287114Y1527429D01*
X-8283956Y1516414D01*
X-8189788Y1333182D01*
X-8061823Y1171730D01*
X-7904936Y1038209D01*
X-7900713Y1035849D01*
X-7900709Y1035846D01*
X-7827301Y994820D01*
X-7725102Y937703D01*
X-7720504Y936209D01*
X-7533776Y875537D01*
X-7533774Y875536D01*
X-7529171Y874041D01*
X-7324606Y849649D01*
X-7319784Y850020D01*
X-7319781Y850020D01*
X-7251959Y855239D01*
X-7119200Y865454D01*
X-6920775Y920855D01*
X-6890336Y936231D01*
X-6829871Y945592D01*
X-6775695Y917869D01*
X-6069496Y211670D01*
X-6041719Y157153D01*
X-6040500Y141666D01*
X-6040500Y-1515954D01*
X-6040877Y-1524583D01*
X-6044264Y-1563295D01*
X-6042022Y-1571662D01*
X-6034204Y-1600837D01*
X-6032334Y-1609271D01*
X-6025588Y-1647533D01*
X-6021258Y-1655032D01*
X-6019262Y-1660517D01*
X-6016796Y-1665804D01*
X-6014554Y-1674172D01*
X-5993987Y-1703544D01*
X-5992268Y-1705999D01*
X-5987629Y-1713280D01*
X-5968194Y-1746943D01*
X-5947534Y-1764279D01*
X-5938429Y-1771919D01*
X-5932061Y-1777753D01*
X-2463695Y-5246119D01*
X-2457861Y-5252486D01*
X-2432881Y-5282256D01*
X-2399221Y-5301689D01*
X-2391937Y-5306330D01*
X-2360110Y-5328616D01*
X-2351742Y-5330858D01*
X-2346455Y-5333324D01*
X-2340970Y-5335320D01*
X-2333471Y-5339650D01*
X-2324945Y-5341153D01*
X-2324943Y-5341154D01*
X-2295210Y-5346396D01*
X-2286776Y-5348266D01*
X-2249233Y-5358326D01*
X-2240604Y-5357571D01*
X-2210521Y-5354939D01*
X-2201892Y-5354562D01*
X49089Y-5354562D01*
X107280Y-5373469D01*
X119093Y-5383558D01*
X1193128Y-6457593D01*
X1242708Y-6490721D01*
X1320939Y-6506282D01*
X1330501Y-6504380D01*
X1389608Y-6492623D01*
X1399170Y-6490721D01*
X1448750Y-6457593D01*
X2749470Y-5156873D01*
X2782598Y-5107293D01*
X2798159Y-5029062D01*
X2782598Y-4950831D01*
X2749470Y-4901251D01*
X1575734Y-3727515D01*
X1547957Y-3672998D01*
X1557528Y-3612566D01*
X1600793Y-3569301D01*
X1645738Y-3558511D01*
X1991773Y-3558511D01*
X2049964Y-3577418D01*
X2081679Y-3616063D01*
X2159846Y-3785618D01*
X2276578Y-3950791D01*
X2421456Y-4091924D01*
X2589627Y-4204293D01*
X2775460Y-4284133D01*
X2972730Y-4328771D01*
X3174832Y-4336711D01*
X3228367Y-4328949D01*
X3370509Y-4308340D01*
X3370512Y-4308339D01*
X3374997Y-4307689D01*
X3511922Y-4261209D01*
X3562224Y-4244134D01*
X3562227Y-4244132D01*
X3566521Y-4242675D01*
X3742991Y-4143848D01*
X3898495Y-4014516D01*
X4027827Y-3859012D01*
X4126654Y-3682542D01*
X4191668Y-3491018D01*
X4197162Y-3453130D01*
X4220273Y-3293728D01*
X4220690Y-3290853D01*
X4222205Y-3233011D01*
X4221606Y-3226485D01*
X4204113Y-3036120D01*
X4203698Y-3031602D01*
X4148797Y-2836937D01*
X4059341Y-2655538D01*
X3938325Y-2493478D01*
X3789802Y-2356185D01*
X3770741Y-2344158D01*
X3622584Y-2250678D01*
X3618747Y-2248257D01*
X3430888Y-2173309D01*
X3232516Y-2133850D01*
X3132920Y-2132546D01*
X3034816Y-2131262D01*
X3034811Y-2131262D01*
X3030276Y-2131203D01*
X3025803Y-2131972D01*
X3025798Y-2131972D01*
X2939133Y-2146864D01*
X2830939Y-2165455D01*
X2641183Y-2235460D01*
X2467361Y-2338873D01*
X2463946Y-2341868D01*
X2463943Y-2341870D01*
X2447620Y-2356185D01*
X2315295Y-2472231D01*
X2190079Y-2631068D01*
X2095904Y-2810064D01*
X2088825Y-2832863D01*
X2087270Y-2837870D01*
X2051956Y-2887836D01*
X1992723Y-2907511D01*
X1503846Y-2907511D01*
X1445655Y-2888604D01*
X1433842Y-2878515D01*
X-2981419Y1536746D01*
X-3009196Y1591263D01*
X-2999625Y1651695D01*
X-2956360Y1694960D01*
X-2899008Y1704969D01*
X-2855717Y1699500D01*
X-959845Y1699500D01*
X-957091Y1699809D01*
X-957089Y1699809D01*
X-929709Y1702880D01*
X-826528Y1714454D01*
X-680572Y1765281D01*
X-662153Y1771695D01*
X-662152Y1771695D01*
X-656927Y1773515D01*
X-619021Y1797201D01*
X-509315Y1865753D01*
X-509313Y1865755D01*
X-504625Y1868684D01*
X-377193Y1995230D01*
X-365258Y2014036D01*
X-283929Y2142190D01*
X-283928Y2142191D01*
X-280963Y2146864D01*
X-220719Y2316049D01*
X-219641Y2325085D01*
X-212228Y2387254D01*
X11438858Y2387254D01*
X11473257Y2225425D01*
X11476445Y2215613D01*
X11549176Y2052256D01*
X11554329Y2043331D01*
X11659440Y1898659D01*
X11666339Y1890996D01*
X11799224Y1771346D01*
X11807571Y1765281D01*
X11962428Y1675875D01*
X11971860Y1671676D01*
X12141910Y1616423D01*
X12152010Y1614276D01*
X12285272Y1600270D01*
X12290417Y1600000D01*
X13219320Y1600000D01*
X13232005Y1604122D01*
X13235000Y1608243D01*
X13235000Y1615680D01*
X13435000Y1615680D01*
X13439122Y1602995D01*
X13443243Y1600000D01*
X14379583Y1600000D01*
X14384728Y1600270D01*
X14517990Y1614276D01*
X14528090Y1616423D01*
X14698140Y1671676D01*
X14707572Y1675875D01*
X14862429Y1765281D01*
X14870776Y1771346D01*
X15003658Y1890994D01*
X15010565Y1898665D01*
X15115666Y2043324D01*
X15120825Y2052259D01*
X15193555Y2215613D01*
X15196743Y2225425D01*
X15230591Y2384662D01*
X15229215Y2397750D01*
X15220818Y2400000D01*
X13450680Y2400000D01*
X13437995Y2395878D01*
X13435000Y2391757D01*
X13435000Y1615680D01*
X13235000Y1615680D01*
X13235000Y2384320D01*
X13230878Y2397005D01*
X13226757Y2400000D01*
X11451829Y2400000D01*
X11439313Y2395933D01*
X11438858Y2387254D01*
X-212228Y2387254D01*
X-200110Y2488880D01*
X-200110Y2488883D01*
X-199455Y2494376D01*
X-212168Y2615338D01*
X11439409Y2615338D01*
X11440785Y2602250D01*
X11449182Y2600000D01*
X13219320Y2600000D01*
X13232005Y2604122D01*
X13235000Y2608243D01*
X13235000Y2615680D01*
X13435000Y2615680D01*
X13439122Y2602995D01*
X13443243Y2600000D01*
X15218171Y2600000D01*
X15230687Y2604067D01*
X15231142Y2612746D01*
X15196743Y2774575D01*
X15193555Y2784387D01*
X15120824Y2947744D01*
X15115671Y2956669D01*
X15010560Y3101341D01*
X15003661Y3109004D01*
X14870776Y3228654D01*
X14862429Y3234719D01*
X14707572Y3324125D01*
X14698140Y3328324D01*
X14528090Y3383577D01*
X14517990Y3385724D01*
X14384728Y3399730D01*
X14379583Y3400000D01*
X13450680Y3400000D01*
X13437995Y3395878D01*
X13435000Y3391757D01*
X13435000Y2615680D01*
X13235000Y2615680D01*
X13235000Y3384320D01*
X13230878Y3397005D01*
X13226757Y3400000D01*
X12290417Y3400000D01*
X12285272Y3399730D01*
X12152010Y3385724D01*
X12141910Y3383577D01*
X11971860Y3328324D01*
X11962428Y3324125D01*
X11807571Y3234719D01*
X11799224Y3228654D01*
X11666342Y3109006D01*
X11659435Y3101335D01*
X11554334Y2956676D01*
X11549175Y2947741D01*
X11476445Y2784387D01*
X11473257Y2774575D01*
X11439409Y2615338D01*
X-212168Y2615338D01*
X-218227Y2672983D01*
X-223734Y2689160D01*
X-274318Y2837751D01*
X-274320Y2837755D01*
X-276103Y2842993D01*
X-279001Y2847703D01*
X-279003Y2847708D01*
X-367309Y2991246D01*
X-370206Y2995955D01*
X-495859Y3124268D01*
X-646817Y3221554D01*
X-815578Y3282978D01*
X-954283Y3300500D01*
X-2850155Y3300500D01*
X-2852909Y3300191D01*
X-2852911Y3300191D01*
X-2880291Y3297120D01*
X-2983472Y3285546D01*
X-2988704Y3283724D01*
X-3146844Y3228654D01*
X-3153073Y3226485D01*
X-3157766Y3223553D01*
X-3157765Y3223553D01*
X-3300685Y3134247D01*
X-3300687Y3134245D01*
X-3305375Y3131316D01*
X-3432807Y3004770D01*
X-3435773Y3000096D01*
X-3435774Y3000095D01*
X-3513192Y2878103D01*
X-3529037Y2853136D01*
X-3589281Y2683951D01*
X-3589935Y2678464D01*
X-3589936Y2678461D01*
X-3609890Y2511120D01*
X-3610545Y2505624D01*
X-3608785Y2488880D01*
X-3599865Y2404005D01*
X-3612587Y2344157D01*
X-3658057Y2303216D01*
X-3718907Y2296821D01*
X-3768327Y2323653D01*
X-6106731Y4662057D01*
X-6112566Y4668425D01*
X-6113118Y4669083D01*
X-6137545Y4698194D01*
X-6171208Y4717629D01*
X-6178489Y4722268D01*
X-6180944Y4723987D01*
X-6210316Y4744554D01*
X-6218684Y4746796D01*
X-6223971Y4749262D01*
X-6229456Y4751258D01*
X-6236955Y4755588D01*
X-6245483Y4757092D01*
X-6253625Y4760055D01*
X-6252874Y4762119D01*
X-6296422Y4785278D01*
X-6319975Y4825427D01*
X-6325165Y4842615D01*
X-6325166Y4842618D01*
X-6326565Y4847251D01*
X-6423282Y5029151D01*
X-6553489Y5188800D01*
X-6712225Y5320118D01*
X-6893445Y5418103D01*
X-6956645Y5437667D01*
X-7085625Y5477593D01*
X-7085629Y5477594D01*
X-7090246Y5479023D01*
X-7095054Y5479528D01*
X-7095057Y5479529D01*
X-7290315Y5500051D01*
X-7290317Y5500051D01*
X-7295131Y5500557D01*
X-7355146Y5495095D01*
X-7495478Y5482325D01*
X-7495483Y5482324D01*
X-7500297Y5481886D01*
X-7697928Y5423720D01*
X-7702212Y5421481D01*
X-7702213Y5421480D01*
X-7713072Y5415803D01*
X-7880498Y5328274D01*
X-7884269Y5325242D01*
X-8037280Y5202219D01*
X-8037283Y5202217D01*
X-8041053Y5199185D01*
X-8044167Y5195474D01*
X-8044168Y5195473D01*
X-8052915Y5185048D01*
X-8173476Y5041370D01*
X-8175811Y5037122D01*
X-8175812Y5037121D01*
X-8182545Y5024874D01*
X-8272724Y4860838D01*
X-8274187Y4856225D01*
X-8274189Y4856221D01*
X-8304694Y4760055D01*
X-8335016Y4664468D01*
X-8357980Y4459738D01*
X-8340741Y4254447D01*
X-8283956Y4056414D01*
X-8189788Y3873182D01*
X-8061823Y3711730D01*
X-8058143Y3708598D01*
X-8058141Y3708596D01*
X-7945483Y3612717D01*
X-7904936Y3578209D01*
X-7900713Y3575849D01*
X-7900709Y3575846D01*
X-7861158Y3553742D01*
X-7725102Y3477703D01*
X-7720504Y3476209D01*
X-7533776Y3415537D01*
X-7533774Y3415536D01*
X-7529171Y3414041D01*
X-7324606Y3389649D01*
X-7319784Y3390020D01*
X-7319781Y3390020D01*
X-7251959Y3395239D01*
X-7119200Y3405454D01*
X-6920775Y3460855D01*
X-6916462Y3463034D01*
X-6916456Y3463036D01*
X-6741211Y3551559D01*
X-6741209Y3551560D01*
X-6736890Y3553742D01*
X-6701557Y3581347D01*
X-6578365Y3677594D01*
X-6578361Y3677598D01*
X-6574549Y3680576D01*
X-6439936Y3836528D01*
X-6419113Y3873182D01*
X-6417874Y3875363D01*
X-6372691Y3916619D01*
X-6311887Y3923439D01*
X-6261791Y3896465D01*
X-4433879Y2068553D01*
X-4406102Y2014036D01*
X-4415673Y1953604D01*
X-4458938Y1910339D01*
X-4493539Y1900091D01*
X-4504665Y1898922D01*
X-4679575Y1861743D01*
X-4689387Y1858555D01*
X-4852744Y1785824D01*
X-4861669Y1780671D01*
X-5006341Y1675560D01*
X-5014004Y1668661D01*
X-5133654Y1535776D01*
X-5139719Y1527429D01*
X-5229125Y1372572D01*
X-5233324Y1363140D01*
X-5288577Y1193090D01*
X-5290724Y1182990D01*
X-5304730Y1049728D01*
X-5305000Y1044583D01*
X-5305000Y610685D01*
X-5323907Y552494D01*
X-5373407Y516530D01*
X-5434593Y516530D01*
X-5467636Y534847D01*
X-5491571Y554931D01*
X-5497939Y560765D01*
X-6313577Y1376403D01*
X-6341354Y1430920D01*
X-6337512Y1477656D01*
X-6326052Y1512104D01*
X-6287200Y1628897D01*
X-6274676Y1666546D01*
X-6274676Y1666548D01*
X-6273149Y1671137D01*
X-6271488Y1684281D01*
X-6247677Y1872772D01*
X-6247329Y1875526D01*
X-6246917Y1905000D01*
X-6248833Y1924546D01*
X-6266548Y2105220D01*
X-6266549Y2105224D01*
X-6267020Y2110030D01*
X-6279714Y2152076D01*
X-6325167Y2302620D01*
X-6326565Y2307251D01*
X-6423282Y2489151D01*
X-6553489Y2648800D01*
X-6602276Y2689160D01*
X-6708498Y2777035D01*
X-6708500Y2777036D01*
X-6712225Y2780118D01*
X-6893445Y2878103D01*
X-6956645Y2897667D01*
X-7085625Y2937593D01*
X-7085629Y2937594D01*
X-7090246Y2939023D01*
X-7095054Y2939528D01*
X-7095057Y2939529D01*
X-7290315Y2960051D01*
X-7290317Y2960051D01*
X-7295131Y2960557D01*
X-7337777Y2956676D01*
X-7495478Y2942325D01*
X-7495483Y2942324D01*
X-7500297Y2941886D01*
X-7697928Y2883720D01*
X-7702212Y2881481D01*
X-7702213Y2881480D01*
X-7713072Y2875803D01*
X-7880498Y2788274D01*
X-7884269Y2785242D01*
X-8037280Y2662219D01*
X-8037283Y2662217D01*
X-8041053Y2659185D01*
X-8044167Y2655474D01*
X-8044168Y2655473D01*
X-8169906Y2505624D01*
X-8173476Y2501370D01*
X-8175811Y2497122D01*
X-8175812Y2497121D01*
X-8180342Y2488880D01*
X-8272724Y2320838D01*
X-8274187Y2316225D01*
X-8274189Y2316221D01*
X-8275679Y2311524D01*
X-8335016Y2124468D01*
X-8335556Y2119656D01*
X-8335556Y2119655D01*
X-8354181Y1953604D01*
X-8357980Y1919738D01*
X-8689500Y1919738D01*
X-8689500Y6999738D01*
X-8357980Y6999738D01*
X-8340741Y6794447D01*
X-8283956Y6596414D01*
X-8189788Y6413182D01*
X-8061823Y6251730D01*
X-8058143Y6248598D01*
X-8058141Y6248596D01*
X-7945483Y6152717D01*
X-7904936Y6118209D01*
X-7900713Y6115849D01*
X-7900709Y6115846D01*
X-7861158Y6093742D01*
X-7725102Y6017703D01*
X-7720504Y6016209D01*
X-7533776Y5955537D01*
X-7533774Y5955536D01*
X-7529171Y5954041D01*
X-7324606Y5929649D01*
X-7319784Y5930020D01*
X-7319781Y5930020D01*
X-7251959Y5935239D01*
X-7119200Y5945454D01*
X-6920775Y6000855D01*
X-6916462Y6003034D01*
X-6916456Y6003036D01*
X-6741211Y6091559D01*
X-6741209Y6091560D01*
X-6736890Y6093742D01*
X-6701557Y6121347D01*
X-6578365Y6217594D01*
X-6578361Y6217598D01*
X-6574549Y6220576D01*
X-6439936Y6376528D01*
X-6421269Y6409387D01*
X-6340566Y6551450D01*
X-6340565Y6551453D01*
X-6338177Y6555656D01*
X-6324618Y6596414D01*
X-6274676Y6746546D01*
X-6274676Y6746548D01*
X-6273149Y6751137D01*
X-6247329Y6955526D01*
X-6246917Y6985000D01*
X-6267020Y7190030D01*
X-6326565Y7387251D01*
X-6331523Y7396577D01*
X-6342149Y7456830D01*
X-6314116Y7513058D01*
X-4568736Y9258438D01*
X-156281Y9258438D01*
X-140720Y9180207D01*
X-107592Y9130627D01*
X1193128Y7829907D01*
X1242708Y7796779D01*
X1320939Y7781218D01*
X1330501Y7783120D01*
X1389608Y7794877D01*
X1399170Y7796779D01*
X1448750Y7829907D01*
X2749470Y9130627D01*
X2782598Y9180207D01*
X2798159Y9258438D01*
X15083719Y9258438D01*
X15099280Y9180207D01*
X15132408Y9130627D01*
X16433128Y7829907D01*
X16482708Y7796779D01*
X16560939Y7781218D01*
X16570501Y7783120D01*
X16629608Y7794877D01*
X16639170Y7796779D01*
X16688750Y7829907D01*
X17989470Y9130627D01*
X18022598Y9180207D01*
X18038159Y9258438D01*
X18022598Y9336669D01*
X17989470Y9386249D01*
X16688750Y10686969D01*
X16639170Y10720097D01*
X16560939Y10735658D01*
X16482708Y10720097D01*
X16433128Y10686969D01*
X15132408Y9386249D01*
X15099280Y9336669D01*
X15083719Y9258438D01*
X2798159Y9258438D01*
X2782598Y9336669D01*
X2749470Y9386249D01*
X1448750Y10686969D01*
X1399170Y10720097D01*
X1320939Y10735658D01*
X1242708Y10720097D01*
X1193128Y10686969D01*
X-107592Y9386249D01*
X-140720Y9336669D01*
X-156281Y9258438D01*
X-4568736Y9258438D01*
X-2869170Y10958004D01*
X-2814653Y10985781D01*
X-2799166Y10987000D01*
X-959845Y10987000D01*
X-957091Y10987309D01*
X-957089Y10987309D01*
X-929709Y10990380D01*
X-826528Y11001954D01*
X-656927Y11061015D01*
X-621072Y11083420D01*
X2012154Y11083420D01*
X2025382Y10881595D01*
X2075168Y10685561D01*
X2159846Y10501882D01*
X2276578Y10336709D01*
X2421456Y10195576D01*
X2589627Y10083207D01*
X2775460Y10003367D01*
X2972730Y9958729D01*
X3174832Y9950789D01*
X3228367Y9958551D01*
X3370509Y9979160D01*
X3370512Y9979161D01*
X3374997Y9979811D01*
X3470759Y10012318D01*
X3562224Y10043366D01*
X3562227Y10043368D01*
X3566521Y10044825D01*
X3742991Y10143652D01*
X3898495Y10272984D01*
X4027827Y10428488D01*
X4126654Y10604958D01*
X4191668Y10796482D01*
X4220690Y10996647D01*
X4222205Y11054489D01*
X4221606Y11061015D01*
X4208824Y11200110D01*
X4203698Y11255898D01*
X4148797Y11450563D01*
X4059341Y11631962D01*
X3938996Y11793124D01*
X11629455Y11793124D01*
X11648227Y11614517D01*
X11650011Y11609277D01*
X11650011Y11609276D01*
X11693527Y11481450D01*
X11706103Y11444507D01*
X11709001Y11439797D01*
X11709003Y11439792D01*
X11715218Y11429690D01*
X11800206Y11291545D01*
X11804074Y11287596D01*
X11804074Y11287595D01*
X11885065Y11204889D01*
X11925859Y11163232D01*
X12076817Y11065946D01*
X12245578Y11004522D01*
X12384283Y10987000D01*
X14280155Y10987000D01*
X14282909Y10987309D01*
X14282911Y10987309D01*
X14310291Y10990380D01*
X14413472Y11001954D01*
X14583073Y11061015D01*
X14618928Y11083420D01*
X17252154Y11083420D01*
X17265382Y10881595D01*
X17315168Y10685561D01*
X17399846Y10501882D01*
X17516578Y10336709D01*
X17661456Y10195576D01*
X17829627Y10083207D01*
X18015460Y10003367D01*
X18212730Y9958729D01*
X18414832Y9950789D01*
X18468367Y9958551D01*
X18610509Y9979160D01*
X18610512Y9979161D01*
X18614997Y9979811D01*
X18710759Y10012318D01*
X18802224Y10043366D01*
X18802227Y10043368D01*
X18806521Y10044825D01*
X18982991Y10143652D01*
X19138495Y10272984D01*
X19267827Y10428488D01*
X19366654Y10604958D01*
X19431668Y10796482D01*
X19460690Y10996647D01*
X19462205Y11054489D01*
X19461606Y11061015D01*
X19448824Y11200110D01*
X19443698Y11255898D01*
X19388797Y11450563D01*
X19299341Y11631962D01*
X19178325Y11794022D01*
X19029802Y11931315D01*
X19007115Y11945630D01*
X18862584Y12036822D01*
X18858747Y12039243D01*
X18670888Y12114191D01*
X18472516Y12153650D01*
X18372920Y12154954D01*
X18274816Y12156238D01*
X18274811Y12156238D01*
X18270276Y12156297D01*
X18265803Y12155528D01*
X18265798Y12155528D01*
X18179133Y12140636D01*
X18070939Y12122045D01*
X17881183Y12052040D01*
X17707361Y11948627D01*
X17703946Y11945632D01*
X17703943Y11945630D01*
X17687620Y11931315D01*
X17555295Y11815269D01*
X17430079Y11656432D01*
X17335904Y11477436D01*
X17334559Y11473105D01*
X17334558Y11473102D01*
X17302031Y11368345D01*
X17275927Y11284276D01*
X17271452Y11246467D01*
X17257509Y11128660D01*
X17252154Y11083420D01*
X14618928Y11083420D01*
X14626136Y11087924D01*
X14730685Y11153253D01*
X14730687Y11153255D01*
X14735375Y11156184D01*
X14862807Y11282730D01*
X14865774Y11287405D01*
X14956071Y11429690D01*
X14956072Y11429691D01*
X14959037Y11434364D01*
X15019281Y11603549D01*
X15022184Y11627890D01*
X15039890Y11776380D01*
X15039890Y11776383D01*
X15040545Y11781876D01*
X15021773Y11960483D01*
X14994961Y12039243D01*
X14965682Y12125251D01*
X14965680Y12125255D01*
X14963897Y12130493D01*
X14960999Y12135203D01*
X14960997Y12135208D01*
X14872691Y12278746D01*
X14869794Y12283455D01*
X14744141Y12411768D01*
X14593183Y12509054D01*
X14424422Y12570478D01*
X14285717Y12588000D01*
X12389845Y12588000D01*
X12387091Y12587691D01*
X12387089Y12587691D01*
X12359709Y12584620D01*
X12256528Y12573046D01*
X12086927Y12513985D01*
X12082234Y12511053D01*
X12082235Y12511053D01*
X11939315Y12421747D01*
X11939313Y12421745D01*
X11934625Y12418816D01*
X11807193Y12292270D01*
X11804227Y12287596D01*
X11804226Y12287595D01*
X11718660Y12152764D01*
X11710963Y12140636D01*
X11709107Y12135425D01*
X11709107Y12135424D01*
X11704343Y12122045D01*
X11650719Y11971451D01*
X11650065Y11965964D01*
X11650064Y11965961D01*
X11631671Y11811707D01*
X11629455Y11793124D01*
X3938996Y11793124D01*
X3938325Y11794022D01*
X3789802Y11931315D01*
X3767115Y11945630D01*
X3622584Y12036822D01*
X3618747Y12039243D01*
X3430888Y12114191D01*
X3232516Y12153650D01*
X3132920Y12154954D01*
X3034816Y12156238D01*
X3034811Y12156238D01*
X3030276Y12156297D01*
X3025803Y12155528D01*
X3025798Y12155528D01*
X2939133Y12140636D01*
X2830939Y12122045D01*
X2641183Y12052040D01*
X2467361Y11948627D01*
X2463946Y11945632D01*
X2463943Y11945630D01*
X2447620Y11931315D01*
X2315295Y11815269D01*
X2190079Y11656432D01*
X2095904Y11477436D01*
X2094559Y11473105D01*
X2094558Y11473102D01*
X2062031Y11368345D01*
X2035927Y11284276D01*
X2031452Y11246467D01*
X2017509Y11128660D01*
X2012154Y11083420D01*
X-621072Y11083420D01*
X-613864Y11087924D01*
X-509315Y11153253D01*
X-509313Y11153255D01*
X-504625Y11156184D01*
X-377193Y11282730D01*
X-374226Y11287405D01*
X-283929Y11429690D01*
X-283928Y11429691D01*
X-280963Y11434364D01*
X-220719Y11603549D01*
X-217816Y11627890D01*
X-200110Y11776380D01*
X-200110Y11776383D01*
X-199455Y11781876D01*
X-218227Y11960483D01*
X-245039Y12039243D01*
X-274318Y12125251D01*
X-274320Y12125255D01*
X-276103Y12130493D01*
X-279001Y12135203D01*
X-279003Y12135208D01*
X-367309Y12278746D01*
X-370206Y12283455D01*
X-495859Y12411768D01*
X-646817Y12509054D01*
X-815578Y12570478D01*
X-954283Y12588000D01*
X-2850155Y12588000D01*
X-2852909Y12587691D01*
X-2852911Y12587691D01*
X-2880291Y12584620D01*
X-2983472Y12573046D01*
X-3153073Y12513985D01*
X-3157766Y12511053D01*
X-3157765Y12511053D01*
X-3300685Y12421747D01*
X-3300687Y12421745D01*
X-3305375Y12418816D01*
X-3432807Y12292270D01*
X-3435773Y12287596D01*
X-3435774Y12287595D01*
X-3521340Y12152764D01*
X-3529037Y12140636D01*
X-3530893Y12135425D01*
X-3530893Y12135424D01*
X-3535657Y12122045D01*
X-3589281Y11971451D01*
X-3589935Y11965964D01*
X-3589936Y11965961D01*
X-3608329Y11811707D01*
X-3610545Y11793124D01*
X-3591773Y11614517D01*
X-3589989Y11609277D01*
X-3589989Y11609276D01*
X-3545107Y11477436D01*
X-3533897Y11444507D01*
X-3487042Y11368345D01*
X-3472655Y11308876D01*
X-3495971Y11252307D01*
X-3501359Y11246467D01*
X-6773944Y7973882D01*
X-6828461Y7946105D01*
X-6884020Y7955596D01*
X-6884723Y7953924D01*
X-6889185Y7955800D01*
X-6893445Y7958103D01*
X-6904354Y7961480D01*
X-7085625Y8017593D01*
X-7085629Y8017594D01*
X-7090246Y8019023D01*
X-7095054Y8019528D01*
X-7095057Y8019529D01*
X-7290315Y8040051D01*
X-7290317Y8040051D01*
X-7295131Y8040557D01*
X-7355146Y8035095D01*
X-7495478Y8022325D01*
X-7495483Y8022324D01*
X-7500297Y8021886D01*
X-7697928Y7963720D01*
X-7702212Y7961481D01*
X-7702213Y7961480D01*
X-7713468Y7955596D01*
X-7880498Y7868274D01*
X-7884269Y7865242D01*
X-8037280Y7742219D01*
X-8037283Y7742217D01*
X-8041053Y7739185D01*
X-8173476Y7581370D01*
X-8272724Y7400838D01*
X-8274187Y7396225D01*
X-8274189Y7396221D01*
X-8277034Y7387251D01*
X-8335016Y7204468D01*
X-8335556Y7199656D01*
X-8335556Y7199655D01*
X-8336635Y7190030D01*
X-8357980Y6999738D01*
X-8689500Y6999738D01*
X-8689500Y9539738D01*
X-8357980Y9539738D01*
X-8357575Y9534918D01*
X-8341608Y9344776D01*
X-8340741Y9334447D01*
X-8339408Y9329799D01*
X-8339408Y9329798D01*
X-8296513Y9180207D01*
X-8283956Y9136414D01*
X-8189788Y8953182D01*
X-8061823Y8791730D01*
X-8058143Y8788598D01*
X-8058141Y8788596D01*
X-7945483Y8692717D01*
X-7904936Y8658209D01*
X-7900713Y8655849D01*
X-7900709Y8655846D01*
X-7861158Y8633742D01*
X-7725102Y8557703D01*
X-7720504Y8556209D01*
X-7533776Y8495537D01*
X-7533774Y8495536D01*
X-7529171Y8494041D01*
X-7324606Y8469649D01*
X-7319784Y8470020D01*
X-7319781Y8470020D01*
X-7251959Y8475239D01*
X-7119200Y8485454D01*
X-6920775Y8540855D01*
X-6916462Y8543034D01*
X-6916456Y8543036D01*
X-6741211Y8631559D01*
X-6741209Y8631560D01*
X-6736890Y8633742D01*
X-6701557Y8661347D01*
X-6578365Y8757594D01*
X-6578361Y8757598D01*
X-6574549Y8760576D01*
X-6439936Y8916528D01*
X-6421269Y8949387D01*
X-6340566Y9091450D01*
X-6340565Y9091453D01*
X-6338177Y9095656D01*
X-6326543Y9130627D01*
X-6274676Y9286546D01*
X-6274676Y9286548D01*
X-6273149Y9291137D01*
X-6261644Y9382205D01*
X-6247677Y9492772D01*
X-6247329Y9495526D01*
X-6246917Y9525000D01*
X-6267020Y9730030D01*
X-6326565Y9927251D01*
X-6423282Y10109151D01*
X-6553489Y10268800D01*
X-6557218Y10271885D01*
X-6708498Y10397035D01*
X-6708500Y10397036D01*
X-6712225Y10400118D01*
X-6893445Y10498103D01*
X-6956645Y10517667D01*
X-7085625Y10557593D01*
X-7085629Y10557594D01*
X-7090246Y10559023D01*
X-7095054Y10559528D01*
X-7095057Y10559529D01*
X-7290315Y10580051D01*
X-7290317Y10580051D01*
X-7295131Y10580557D01*
X-7355146Y10575095D01*
X-7495478Y10562325D01*
X-7495483Y10562324D01*
X-7500297Y10561886D01*
X-7697928Y10503720D01*
X-7702212Y10501481D01*
X-7702213Y10501480D01*
X-7713072Y10495803D01*
X-7880498Y10408274D01*
X-7884269Y10405242D01*
X-8037280Y10282219D01*
X-8037283Y10282217D01*
X-8041053Y10279185D01*
X-8044167Y10275474D01*
X-8044168Y10275473D01*
X-8052915Y10265048D01*
X-8173476Y10121370D01*
X-8175811Y10117122D01*
X-8175812Y10117121D01*
X-8182545Y10104874D01*
X-8272724Y9940838D01*
X-8335016Y9744468D01*
X-8335556Y9739656D01*
X-8335556Y9739655D01*
X-8336635Y9730030D01*
X-8357980Y9539738D01*
X-8689500Y9539738D01*
X-8689500Y11195252D01*
X-8353000Y11195252D01*
X-8352052Y11190488D01*
X-8346034Y11160234D01*
X-8341367Y11136769D01*
X-8297052Y11070448D01*
X-8230731Y11026133D01*
X-8221168Y11024231D01*
X-8221166Y11024230D01*
X-8198495Y11019721D01*
X-8172248Y11014500D01*
X-6432752Y11014500D01*
X-6406505Y11019721D01*
X-6383834Y11024230D01*
X-6383832Y11024231D01*
X-6374269Y11026133D01*
X-6307948Y11070448D01*
X-6263633Y11136769D01*
X-6258965Y11160234D01*
X-6252948Y11190488D01*
X-6252000Y11195252D01*
X-6252000Y12934748D01*
X-6263633Y12993231D01*
X-6307948Y13059552D01*
X-6374269Y13103867D01*
X-6383832Y13105769D01*
X-6383834Y13105770D01*
X-6406505Y13110279D01*
X-6432752Y13115500D01*
X-8172248Y13115500D01*
X-8198495Y13110279D01*
X-8221166Y13105770D01*
X-8221168Y13105769D01*
X-8230731Y13103867D01*
X-8297052Y13059552D01*
X-8341367Y12993231D01*
X-8353000Y12934748D01*
X-8353000Y11195252D01*
X-8689500Y11195252D01*
X-8689500Y13242917D01*
X-5305000Y13242917D01*
X-5304730Y13237772D01*
X-5290724Y13104510D01*
X-5288577Y13094410D01*
X-5233324Y12924360D01*
X-5229125Y12914928D01*
X-5139719Y12760071D01*
X-5133654Y12751724D01*
X-5014006Y12618842D01*
X-5006335Y12611935D01*
X-4861676Y12506834D01*
X-4852741Y12501675D01*
X-4689387Y12428945D01*
X-4679575Y12425757D01*
X-4520338Y12391909D01*
X-4507250Y12393285D01*
X-4505000Y12401682D01*
X-4505000Y12404329D01*
X-4305000Y12404329D01*
X-4300933Y12391813D01*
X-4292254Y12391358D01*
X-4130425Y12425757D01*
X-4120613Y12428945D01*
X-3957256Y12501676D01*
X-3948331Y12506829D01*
X-3803659Y12611940D01*
X-3795996Y12618839D01*
X-3676346Y12751724D01*
X-3670281Y12760071D01*
X-3580875Y12914928D01*
X-3576676Y12924360D01*
X-3521423Y13094410D01*
X-3519276Y13104510D01*
X-3505270Y13237772D01*
X-3505000Y13242917D01*
X9935000Y13242917D01*
X9935270Y13237772D01*
X9949276Y13104510D01*
X9951423Y13094410D01*
X10006676Y12924360D01*
X10010875Y12914928D01*
X10100281Y12760071D01*
X10106346Y12751724D01*
X10225994Y12618842D01*
X10233665Y12611935D01*
X10378324Y12506834D01*
X10387259Y12501675D01*
X10550613Y12428945D01*
X10560425Y12425757D01*
X10719662Y12391909D01*
X10732750Y12393285D01*
X10735000Y12401682D01*
X10735000Y12404329D01*
X10935000Y12404329D01*
X10939067Y12391813D01*
X10947746Y12391358D01*
X11109575Y12425757D01*
X11119387Y12428945D01*
X11282744Y12501676D01*
X11291669Y12506829D01*
X11436341Y12611940D01*
X11444004Y12618839D01*
X11563654Y12751724D01*
X11569719Y12760071D01*
X11659125Y12914928D01*
X11663324Y12924360D01*
X11718577Y13094410D01*
X11720724Y13104510D01*
X11734730Y13237772D01*
X11735000Y13242917D01*
X11735000Y14171820D01*
X11730878Y14184505D01*
X11726757Y14187500D01*
X10950680Y14187500D01*
X10937995Y14183378D01*
X10935000Y14179257D01*
X10935000Y12404329D01*
X10735000Y12404329D01*
X10735000Y14171820D01*
X10730878Y14184505D01*
X10726757Y14187500D01*
X9950680Y14187500D01*
X9937995Y14183378D01*
X9935000Y14179257D01*
X9935000Y13242917D01*
X-3505000Y13242917D01*
X-3505000Y14171820D01*
X-3509122Y14184505D01*
X-3513243Y14187500D01*
X-4289320Y14187500D01*
X-4302005Y14183378D01*
X-4305000Y14179257D01*
X-4305000Y12404329D01*
X-4505000Y12404329D01*
X-4505000Y14171820D01*
X-4509122Y14184505D01*
X-4513243Y14187500D01*
X-5289320Y14187500D01*
X-5302005Y14183378D01*
X-5305000Y14179257D01*
X-5305000Y13242917D01*
X-8689500Y13242917D01*
X-8689500Y14403180D01*
X-5305000Y14403180D01*
X-5300878Y14390495D01*
X-5296757Y14387500D01*
X-4520680Y14387500D01*
X-4507995Y14391622D01*
X-4505000Y14395743D01*
X-4505000Y14403180D01*
X-4305000Y14403180D01*
X-4300878Y14390495D01*
X-4296757Y14387500D01*
X-3520680Y14387500D01*
X-3507995Y14391622D01*
X-3505000Y14395743D01*
X-3505000Y14403180D01*
X9935000Y14403180D01*
X9939122Y14390495D01*
X9943243Y14387500D01*
X10719320Y14387500D01*
X10732005Y14391622D01*
X10735000Y14395743D01*
X10735000Y14403180D01*
X10935000Y14403180D01*
X10939122Y14390495D01*
X10943243Y14387500D01*
X11719320Y14387500D01*
X11732005Y14391622D01*
X11735000Y14395743D01*
X11735000Y15332083D01*
X11734730Y15337228D01*
X11720724Y15470490D01*
X11718577Y15480590D01*
X11663324Y15650640D01*
X11659125Y15660072D01*
X11569719Y15814929D01*
X11563654Y15823276D01*
X11444006Y15956158D01*
X11436335Y15963065D01*
X11291676Y16068166D01*
X11282741Y16073325D01*
X11119387Y16146055D01*
X11109575Y16149243D01*
X10950338Y16183091D01*
X10937250Y16181715D01*
X10935000Y16173318D01*
X10935000Y14403180D01*
X10735000Y14403180D01*
X10735000Y16170671D01*
X10730933Y16183187D01*
X10722254Y16183642D01*
X10560425Y16149243D01*
X10550613Y16146055D01*
X10387256Y16073324D01*
X10378331Y16068171D01*
X10233659Y15963060D01*
X10225996Y15956161D01*
X10106346Y15823276D01*
X10100281Y15814929D01*
X10010875Y15660072D01*
X10006676Y15650640D01*
X9951423Y15480590D01*
X9949276Y15470490D01*
X9935270Y15337228D01*
X9935000Y15332083D01*
X9935000Y14403180D01*
X-3505000Y14403180D01*
X-3505000Y15332083D01*
X-3505270Y15337228D01*
X-3519276Y15470490D01*
X-3521423Y15480590D01*
X-3576676Y15650640D01*
X-3580875Y15660072D01*
X-3670281Y15814929D01*
X-3676346Y15823276D01*
X-3795994Y15956158D01*
X-3803665Y15963065D01*
X-3948324Y16068166D01*
X-3957259Y16073325D01*
X-4120613Y16146055D01*
X-4130425Y16149243D01*
X-4289662Y16183091D01*
X-4302750Y16181715D01*
X-4305000Y16173318D01*
X-4305000Y14403180D01*
X-4505000Y14403180D01*
X-4505000Y16170671D01*
X-4509067Y16183187D01*
X-4517746Y16183642D01*
X-4679575Y16149243D01*
X-4689387Y16146055D01*
X-4852744Y16073324D01*
X-4861669Y16068171D01*
X-5006341Y15963060D01*
X-5014004Y15956161D01*
X-5133654Y15823276D01*
X-5139719Y15814929D01*
X-5229125Y15660072D01*
X-5233324Y15650640D01*
X-5288577Y15480590D01*
X-5290724Y15470490D01*
X-5304730Y15337228D01*
X-5305000Y15332083D01*
X-5305000Y14403180D01*
X-8689500Y14403180D01*
X-8689500Y16793124D01*
X-3610545Y16793124D01*
X-3591773Y16614517D01*
X-3533897Y16444507D01*
X-3530999Y16439797D01*
X-3530997Y16439792D01*
X-3524782Y16429690D01*
X-3439794Y16291545D01*
X-3314141Y16163232D01*
X-3163183Y16065946D01*
X-2994422Y16004522D01*
X-2855717Y15987000D01*
X-959845Y15987000D01*
X-957091Y15987309D01*
X-957089Y15987309D01*
X-929709Y15990380D01*
X-826528Y16001954D01*
X-656927Y16061015D01*
X-619021Y16084701D01*
X-509315Y16153253D01*
X-509313Y16153255D01*
X-504625Y16156184D01*
X-377193Y16282730D01*
X-374226Y16287405D01*
X-283929Y16429690D01*
X-283928Y16429691D01*
X-280963Y16434364D01*
X-220719Y16603549D01*
X-199455Y16781876D01*
X-200637Y16793124D01*
X11629455Y16793124D01*
X11648227Y16614517D01*
X11706103Y16444507D01*
X11709001Y16439797D01*
X11709003Y16439792D01*
X11715218Y16429690D01*
X11800206Y16291545D01*
X11925859Y16163232D01*
X12076817Y16065946D01*
X12245578Y16004522D01*
X12384283Y15987000D01*
X14280155Y15987000D01*
X14282909Y15987309D01*
X14282911Y15987309D01*
X14310291Y15990380D01*
X14413472Y16001954D01*
X14583073Y16061015D01*
X14620979Y16084701D01*
X14730685Y16153253D01*
X14730687Y16153255D01*
X14735375Y16156184D01*
X14862807Y16282730D01*
X14865774Y16287405D01*
X14956071Y16429690D01*
X14956072Y16429691D01*
X14959037Y16434364D01*
X15019281Y16603549D01*
X15040545Y16781876D01*
X15021773Y16960483D01*
X14963897Y17130493D01*
X14960999Y17135203D01*
X14960997Y17135208D01*
X14872691Y17278746D01*
X14869794Y17283455D01*
X14744141Y17411768D01*
X14593183Y17509054D01*
X14424422Y17570478D01*
X14285717Y17588000D01*
X12389845Y17588000D01*
X12387091Y17587691D01*
X12387089Y17587691D01*
X12359709Y17584620D01*
X12256528Y17573046D01*
X12086927Y17513985D01*
X12082234Y17511053D01*
X12082235Y17511053D01*
X11939315Y17421747D01*
X11939313Y17421745D01*
X11934625Y17418816D01*
X11807193Y17292270D01*
X11804227Y17287596D01*
X11804226Y17287595D01*
X11804106Y17287405D01*
X11710963Y17140636D01*
X11650719Y16971451D01*
X11629455Y16793124D01*
X-200637Y16793124D01*
X-218227Y16960483D01*
X-276103Y17130493D01*
X-279001Y17135203D01*
X-279003Y17135208D01*
X-367309Y17278746D01*
X-370206Y17283455D01*
X-495859Y17411768D01*
X-646817Y17509054D01*
X-815578Y17570478D01*
X-954283Y17588000D01*
X-2850155Y17588000D01*
X-2852909Y17587691D01*
X-2852911Y17587691D01*
X-2880291Y17584620D01*
X-2983472Y17573046D01*
X-3153073Y17513985D01*
X-3157766Y17511053D01*
X-3157765Y17511053D01*
X-3300685Y17421747D01*
X-3300687Y17421745D01*
X-3305375Y17418816D01*
X-3432807Y17292270D01*
X-3435773Y17287596D01*
X-3435774Y17287595D01*
X-3435894Y17287405D01*
X-3529037Y17140636D01*
X-3589281Y16971451D01*
X-3610545Y16793124D01*
X-8689500Y16793124D01*
X-8689500Y31225406D01*
X-3756926Y31225406D01*
X-3756157Y31220933D01*
X-3756157Y31220928D01*
X-3720332Y31012435D01*
X-3720330Y31012429D01*
X-3719562Y31007957D01*
X-3709995Y30982025D01*
X-3652357Y30825790D01*
X-3643196Y30800957D01*
X-3530386Y30611341D01*
X-3527391Y30607926D01*
X-3527389Y30607923D01*
X-3505287Y30582721D01*
X-3384910Y30445457D01*
X-3381348Y30442649D01*
X-3215205Y30311673D01*
X-3215202Y30311671D01*
X-3211640Y30308863D01*
X-3207622Y30306749D01*
X-3020391Y30208241D01*
X-3020388Y30208240D01*
X-3016380Y30206131D01*
X-2933126Y30180280D01*
X-2810006Y30142050D01*
X-2810003Y30142049D01*
X-2805667Y30140703D01*
X-2801157Y30140169D01*
X-2801156Y30140169D01*
X-2762520Y30135596D01*
X-2626524Y30119500D01*
X-1205834Y30119500D01*
X-1147643Y30100593D01*
X-1135830Y30090504D01*
X285504Y28669170D01*
X313281Y28614653D01*
X314500Y28599166D01*
X314500Y23374500D01*
X295593Y23316309D01*
X246093Y23280345D01*
X215500Y23275500D01*
X-229748Y23275500D01*
X-255995Y23270279D01*
X-278666Y23265770D01*
X-278668Y23265769D01*
X-288231Y23263867D01*
X-354552Y23219552D01*
X-398867Y23153231D01*
X-410500Y23094748D01*
X-410500Y21355252D01*
X-398867Y21296769D01*
X-354552Y21230448D01*
X-288231Y21186133D01*
X-278668Y21184231D01*
X-278666Y21184230D01*
X-255995Y21179721D01*
X-229748Y21174500D01*
X1509748Y21174500D01*
X1535995Y21179721D01*
X1558666Y21184230D01*
X1558668Y21184231D01*
X1568231Y21186133D01*
X1634552Y21230448D01*
X1678867Y21296769D01*
X1690500Y21355252D01*
X1690500Y23094748D01*
X1678867Y23153231D01*
X1634552Y23219552D01*
X1568231Y23263867D01*
X1558668Y23265769D01*
X1558666Y23265770D01*
X1535995Y23270279D01*
X1509748Y23275500D01*
X1064500Y23275500D01*
X1006309Y23294407D01*
X970345Y23343907D01*
X965500Y23374500D01*
X965500Y28756465D01*
X965877Y28765094D01*
X968509Y28795179D01*
X969264Y28803806D01*
X959205Y28841349D01*
X957336Y28849778D01*
X952092Y28879515D01*
X950588Y28888045D01*
X946257Y28895546D01*
X944259Y28901036D01*
X941796Y28906317D01*
X939554Y28914684D01*
X917268Y28946511D01*
X912627Y28953795D01*
X897523Y28979956D01*
X893194Y28987455D01*
X863429Y29012431D01*
X857061Y29018265D01*
X-429207Y30304533D01*
X-456984Y30359050D01*
X-447413Y30419482D01*
X-431901Y30441738D01*
X-301577Y30582721D01*
X-301576Y30582722D01*
X-298499Y30586051D01*
X-180764Y30772650D01*
X-99006Y30977579D01*
X-55962Y31193976D01*
X-53074Y31414594D01*
X-53843Y31419072D01*
X-89668Y31627565D01*
X-89670Y31627571D01*
X-90438Y31632043D01*
X-166804Y31839043D01*
X-279614Y32028659D01*
X-301792Y32053949D01*
X-422098Y32191131D01*
X-425090Y32194543D01*
X-441279Y32207305D01*
X-594795Y32328327D01*
X-594798Y32328329D01*
X-598360Y32331137D01*
X-630373Y32347980D01*
X-789609Y32431759D01*
X-789612Y32431760D01*
X-793620Y32433869D01*
X-888146Y32463220D01*
X-999994Y32497950D01*
X-999997Y32497951D01*
X-1004333Y32499297D01*
X-1008843Y32499831D01*
X-1008844Y32499831D01*
X-1056353Y32505454D01*
X-1183476Y32520500D01*
X-2610970Y32520500D01*
X-2774711Y32505454D01*
X-2779083Y32504221D01*
X-2924463Y32463220D01*
X-2987064Y32445565D01*
X-2991136Y32443557D01*
X-2991141Y32443555D01*
X-3155247Y32362627D01*
X-3184947Y32347980D01*
X-3361733Y32215967D01*
X-3511501Y32053949D01*
X-3629236Y31867350D01*
X-3710994Y31662421D01*
X-3754038Y31446024D01*
X-3756926Y31225406D01*
X-8689500Y31225406D01*
X-8689500Y34625406D01*
X-3756926Y34625406D01*
X-3756157Y34620933D01*
X-3756157Y34620928D01*
X-3720332Y34412435D01*
X-3720330Y34412429D01*
X-3719562Y34407957D01*
X-3643196Y34200957D01*
X-3530386Y34011341D01*
X-3527391Y34007926D01*
X-3527389Y34007923D01*
X-3505287Y33982721D01*
X-3384910Y33845457D01*
X-3381348Y33842649D01*
X-3215205Y33711673D01*
X-3215202Y33711671D01*
X-3211640Y33708863D01*
X-3207622Y33706749D01*
X-3020391Y33608241D01*
X-3020388Y33608240D01*
X-3016380Y33606131D01*
X-2933126Y33580280D01*
X-2810006Y33542050D01*
X-2810003Y33542049D01*
X-2805667Y33540703D01*
X-2801157Y33540169D01*
X-2801156Y33540169D01*
X-2762520Y33535596D01*
X-2626524Y33519500D01*
X-1205834Y33519500D01*
X-1147643Y33500593D01*
X-1135830Y33490504D01*
X2825504Y29529170D01*
X2853281Y29474653D01*
X2854500Y29459166D01*
X2854500Y23298239D01*
X2835593Y23240048D01*
X2792583Y23206447D01*
X2789216Y23205087D01*
X2784572Y23203720D01*
X2780287Y23201480D01*
X2780285Y23201479D01*
X2703507Y23161340D01*
X2602002Y23108274D01*
X2598231Y23105242D01*
X2445220Y22982219D01*
X2445217Y22982217D01*
X2441447Y22979185D01*
X2438333Y22975474D01*
X2438332Y22975473D01*
X2429585Y22965048D01*
X2309024Y22821370D01*
X2306689Y22817122D01*
X2306688Y22817121D01*
X2299955Y22804874D01*
X2209776Y22640838D01*
X2208313Y22636225D01*
X2208311Y22636221D01*
X2194802Y22593635D01*
X2147484Y22444468D01*
X2146944Y22439656D01*
X2146944Y22439655D01*
X2145865Y22430030D01*
X2124520Y22239738D01*
X2141759Y22034447D01*
X2143092Y22029799D01*
X2143092Y22029798D01*
X2181534Y21895736D01*
X2198544Y21836414D01*
X2292712Y21653182D01*
X2420677Y21491730D01*
X2424357Y21488598D01*
X2424359Y21488596D01*
X2537017Y21392717D01*
X2577564Y21358209D01*
X2581787Y21355849D01*
X2581791Y21355846D01*
X2621342Y21333742D01*
X2757398Y21257703D01*
X2761996Y21256209D01*
X2948724Y21195537D01*
X2948726Y21195536D01*
X2953329Y21194041D01*
X3157894Y21169649D01*
X3162716Y21170020D01*
X3162719Y21170020D01*
X3233259Y21175448D01*
X3363300Y21185454D01*
X3561725Y21240855D01*
X3566038Y21243034D01*
X3566044Y21243036D01*
X3741289Y21331559D01*
X3741291Y21331560D01*
X3745610Y21333742D01*
X3780943Y21361347D01*
X3904135Y21457594D01*
X3904139Y21457598D01*
X3907951Y21460576D01*
X4042564Y21616528D01*
X4061231Y21649387D01*
X4141934Y21791450D01*
X4141935Y21791453D01*
X4144323Y21795656D01*
X4145851Y21800247D01*
X4207824Y21986546D01*
X4207824Y21986548D01*
X4209351Y21991137D01*
X4211089Y22004890D01*
X4234823Y22192772D01*
X4235171Y22195526D01*
X4235583Y22225000D01*
X4234138Y22239738D01*
X4664520Y22239738D01*
X4681759Y22034447D01*
X4683092Y22029799D01*
X4683092Y22029798D01*
X4721534Y21895736D01*
X4738544Y21836414D01*
X4832712Y21653182D01*
X4960677Y21491730D01*
X4964357Y21488598D01*
X4964359Y21488596D01*
X5077017Y21392717D01*
X5117564Y21358209D01*
X5121787Y21355849D01*
X5121791Y21355846D01*
X5161342Y21333742D01*
X5297398Y21257703D01*
X5301996Y21256209D01*
X5488724Y21195537D01*
X5488726Y21195536D01*
X5493329Y21194041D01*
X5697894Y21169649D01*
X5702716Y21170020D01*
X5702719Y21170020D01*
X5773259Y21175448D01*
X5903300Y21185454D01*
X6101725Y21240855D01*
X6106038Y21243034D01*
X6106044Y21243036D01*
X6281289Y21331559D01*
X6281291Y21331560D01*
X6285610Y21333742D01*
X6320943Y21361347D01*
X6444135Y21457594D01*
X6444139Y21457598D01*
X6447951Y21460576D01*
X6582564Y21616528D01*
X6601231Y21649387D01*
X6681934Y21791450D01*
X6681935Y21791453D01*
X6684323Y21795656D01*
X6685851Y21800247D01*
X6747824Y21986546D01*
X6747824Y21986548D01*
X6749351Y21991137D01*
X6751089Y22004890D01*
X6774823Y22192772D01*
X6775171Y22195526D01*
X6775583Y22225000D01*
X6774138Y22239738D01*
X7204520Y22239738D01*
X7221759Y22034447D01*
X7223092Y22029799D01*
X7223092Y22029798D01*
X7261534Y21895736D01*
X7278544Y21836414D01*
X7372712Y21653182D01*
X7500677Y21491730D01*
X7504357Y21488598D01*
X7504359Y21488596D01*
X7617017Y21392717D01*
X7657564Y21358209D01*
X7661787Y21355849D01*
X7661791Y21355846D01*
X7701342Y21333742D01*
X7837398Y21257703D01*
X7841996Y21256209D01*
X8028724Y21195537D01*
X8028726Y21195536D01*
X8033329Y21194041D01*
X8237894Y21169649D01*
X8242716Y21170020D01*
X8242719Y21170020D01*
X8313259Y21175448D01*
X8443300Y21185454D01*
X8641725Y21240855D01*
X8646038Y21243034D01*
X8646044Y21243036D01*
X8821289Y21331559D01*
X8821291Y21331560D01*
X8825610Y21333742D01*
X8860943Y21361347D01*
X8984135Y21457594D01*
X8984139Y21457598D01*
X8987951Y21460576D01*
X9122564Y21616528D01*
X9141231Y21649387D01*
X9221934Y21791450D01*
X9221935Y21791453D01*
X9224323Y21795656D01*
X9225851Y21800247D01*
X9287824Y21986546D01*
X9287824Y21986548D01*
X9289351Y21991137D01*
X9291089Y22004890D01*
X9314823Y22192772D01*
X9315171Y22195526D01*
X9315583Y22225000D01*
X9314138Y22239738D01*
X9744520Y22239738D01*
X9761759Y22034447D01*
X9763092Y22029799D01*
X9763092Y22029798D01*
X9801534Y21895736D01*
X9818544Y21836414D01*
X9912712Y21653182D01*
X10040677Y21491730D01*
X10044357Y21488598D01*
X10044359Y21488596D01*
X10157017Y21392717D01*
X10197564Y21358209D01*
X10201787Y21355849D01*
X10201791Y21355846D01*
X10241342Y21333742D01*
X10377398Y21257703D01*
X10381996Y21256209D01*
X10568724Y21195537D01*
X10568726Y21195536D01*
X10573329Y21194041D01*
X10777894Y21169649D01*
X10782716Y21170020D01*
X10782719Y21170020D01*
X10853259Y21175448D01*
X10983300Y21185454D01*
X11181725Y21240855D01*
X11186038Y21243034D01*
X11186044Y21243036D01*
X11361289Y21331559D01*
X11361291Y21331560D01*
X11365610Y21333742D01*
X11400943Y21361347D01*
X11524135Y21457594D01*
X11524139Y21457598D01*
X11527951Y21460576D01*
X11662564Y21616528D01*
X11681231Y21649387D01*
X11761934Y21791450D01*
X11761935Y21791453D01*
X11764323Y21795656D01*
X11765850Y21800245D01*
X11765851Y21800247D01*
X11776329Y21831748D01*
X11812637Y21880996D01*
X11870268Y21899500D01*
X12010666Y21899500D01*
X12019295Y21899123D01*
X12058007Y21895736D01*
X12095550Y21905796D01*
X12103984Y21907666D01*
X12133717Y21912908D01*
X12133719Y21912909D01*
X12142245Y21914412D01*
X12149744Y21918742D01*
X12155229Y21920738D01*
X12160516Y21923204D01*
X12168884Y21925446D01*
X12200711Y21947732D01*
X12207995Y21952373D01*
X12241655Y21971806D01*
X12266631Y22001571D01*
X12272465Y22007939D01*
X15271673Y25007147D01*
X15326190Y25034924D01*
X15380754Y25028104D01*
X15493470Y24979678D01*
X15690740Y24935040D01*
X15892842Y24927100D01*
X15946377Y24934862D01*
X16088519Y24955471D01*
X16088522Y24955472D01*
X16093007Y24956122D01*
X16188769Y24988629D01*
X16280234Y25019677D01*
X16280237Y25019679D01*
X16284531Y25021136D01*
X16461001Y25119963D01*
X16616505Y25249295D01*
X16745837Y25404799D01*
X16844664Y25581269D01*
X16873520Y25666274D01*
X16908219Y25768496D01*
X16909678Y25772793D01*
X16938700Y25972958D01*
X16940215Y26030800D01*
X16921708Y26232209D01*
X16866807Y26426874D01*
X16777351Y26608273D01*
X16656335Y26770333D01*
X16507812Y26907626D01*
X16485125Y26921941D01*
X16340594Y27013133D01*
X16336757Y27015554D01*
X16148898Y27090502D01*
X15950526Y27129961D01*
X15850930Y27131265D01*
X15752826Y27132549D01*
X15752821Y27132549D01*
X15748286Y27132608D01*
X15743813Y27131839D01*
X15743808Y27131839D01*
X15645245Y27114902D01*
X15548949Y27098356D01*
X15359193Y27028351D01*
X15185371Y26924938D01*
X15181956Y26921943D01*
X15181953Y26921941D01*
X15165630Y26907626D01*
X15033305Y26791580D01*
X14908089Y26632743D01*
X14813914Y26453747D01*
X14753937Y26260587D01*
X14730164Y26059731D01*
X14743392Y25857906D01*
X14793178Y25661872D01*
X14831365Y25579038D01*
X14838557Y25518280D01*
X14811463Y25467589D01*
X11937509Y22593635D01*
X11882992Y22565858D01*
X11822560Y22575429D01*
X11779295Y22618694D01*
X11777034Y22623611D01*
X11775935Y22627251D01*
X11679218Y22809151D01*
X11549011Y22968800D01*
X11402639Y23089890D01*
X11394002Y23097035D01*
X11394000Y23097036D01*
X11390275Y23100118D01*
X11209055Y23198103D01*
X11124423Y23224301D01*
X11016875Y23257593D01*
X11016871Y23257594D01*
X11012254Y23259023D01*
X11007446Y23259528D01*
X11007443Y23259529D01*
X10812185Y23280051D01*
X10812183Y23280051D01*
X10807369Y23280557D01*
X10751800Y23275500D01*
X10607022Y23262325D01*
X10607017Y23262324D01*
X10602203Y23261886D01*
X10404572Y23203720D01*
X10400288Y23201481D01*
X10400287Y23201480D01*
X10389428Y23195803D01*
X10222002Y23108274D01*
X10218231Y23105242D01*
X10065220Y22982219D01*
X10065217Y22982217D01*
X10061447Y22979185D01*
X10058333Y22975474D01*
X10058332Y22975473D01*
X10049585Y22965048D01*
X9929024Y22821370D01*
X9926689Y22817122D01*
X9926688Y22817121D01*
X9919955Y22804874D01*
X9829776Y22640838D01*
X9828313Y22636225D01*
X9828311Y22636221D01*
X9814802Y22593635D01*
X9767484Y22444468D01*
X9766944Y22439656D01*
X9766944Y22439655D01*
X9765865Y22430030D01*
X9744520Y22239738D01*
X9314138Y22239738D01*
X9295480Y22430030D01*
X9235935Y22627251D01*
X9139218Y22809151D01*
X9009011Y22968800D01*
X8862639Y23089890D01*
X8854002Y23097035D01*
X8854000Y23097036D01*
X8850275Y23100118D01*
X8669055Y23198103D01*
X8664423Y23199537D01*
X8659967Y23201410D01*
X8660866Y23203549D01*
X8618220Y23233613D01*
X8598484Y23291528D01*
X8616559Y23349982D01*
X8627470Y23362944D01*
X10271673Y25007147D01*
X10326190Y25034924D01*
X10380754Y25028104D01*
X10493470Y24979678D01*
X10690740Y24935040D01*
X10892842Y24927100D01*
X10946377Y24934862D01*
X11088519Y24955471D01*
X11088522Y24955472D01*
X11093007Y24956122D01*
X11188769Y24988629D01*
X11280234Y25019677D01*
X11280237Y25019679D01*
X11284531Y25021136D01*
X11461001Y25119963D01*
X11616505Y25249295D01*
X11745837Y25404799D01*
X11844664Y25581269D01*
X11873520Y25666274D01*
X11908219Y25768496D01*
X11909678Y25772793D01*
X11938700Y25972958D01*
X11940215Y26030800D01*
X11937557Y26059731D01*
X12230164Y26059731D01*
X12243392Y25857906D01*
X12293178Y25661872D01*
X12377856Y25478193D01*
X12494588Y25313020D01*
X12639466Y25171887D01*
X12807637Y25059518D01*
X12993470Y24979678D01*
X13190740Y24935040D01*
X13392842Y24927100D01*
X13446377Y24934862D01*
X13588519Y24955471D01*
X13588522Y24955472D01*
X13593007Y24956122D01*
X13688769Y24988629D01*
X13780234Y25019677D01*
X13780237Y25019679D01*
X13784531Y25021136D01*
X13961001Y25119963D01*
X14116505Y25249295D01*
X14245837Y25404799D01*
X14344664Y25581269D01*
X14373520Y25666274D01*
X14408219Y25768496D01*
X14409678Y25772793D01*
X14438700Y25972958D01*
X14440215Y26030800D01*
X14421708Y26232209D01*
X14366807Y26426874D01*
X14277351Y26608273D01*
X14156335Y26770333D01*
X14007812Y26907626D01*
X13985125Y26921941D01*
X13840594Y27013133D01*
X13836757Y27015554D01*
X13648898Y27090502D01*
X13450526Y27129961D01*
X13350930Y27131265D01*
X13252826Y27132549D01*
X13252821Y27132549D01*
X13248286Y27132608D01*
X13243813Y27131839D01*
X13243808Y27131839D01*
X13145245Y27114902D01*
X13048949Y27098356D01*
X12859193Y27028351D01*
X12685371Y26924938D01*
X12681956Y26921943D01*
X12681953Y26921941D01*
X12665630Y26907626D01*
X12533305Y26791580D01*
X12408089Y26632743D01*
X12313914Y26453747D01*
X12253937Y26260587D01*
X12230164Y26059731D01*
X11937557Y26059731D01*
X11921708Y26232209D01*
X11866807Y26426874D01*
X11777351Y26608273D01*
X11656335Y26770333D01*
X11507812Y26907626D01*
X11485125Y26921941D01*
X11340594Y27013133D01*
X11336757Y27015554D01*
X11148898Y27090502D01*
X10950526Y27129961D01*
X10850930Y27131265D01*
X10752826Y27132549D01*
X10752821Y27132549D01*
X10748286Y27132608D01*
X10743813Y27131839D01*
X10743808Y27131839D01*
X10645245Y27114902D01*
X10548949Y27098356D01*
X10359193Y27028351D01*
X10185371Y26924938D01*
X10181956Y26921943D01*
X10181953Y26921941D01*
X10165630Y26907626D01*
X10033305Y26791580D01*
X9908089Y26632743D01*
X9813914Y26453747D01*
X9753937Y26260587D01*
X9730164Y26059731D01*
X9743392Y25857906D01*
X9793178Y25661872D01*
X9831365Y25579038D01*
X9838557Y25518280D01*
X9811463Y25467589D01*
X8042943Y23699069D01*
X8036576Y23693235D01*
X8006806Y23668255D01*
X8002477Y23660756D01*
X7987373Y23634595D01*
X7982732Y23627311D01*
X7960446Y23595484D01*
X7958204Y23587116D01*
X7955738Y23581829D01*
X7953742Y23576344D01*
X7949412Y23568845D01*
X7947909Y23560319D01*
X7947908Y23560317D01*
X7942666Y23530584D01*
X7940796Y23522150D01*
X7930736Y23484607D01*
X7931491Y23475978D01*
X7934123Y23445895D01*
X7934500Y23437266D01*
X7934500Y23298239D01*
X7915593Y23240048D01*
X7872583Y23206447D01*
X7869216Y23205087D01*
X7864572Y23203720D01*
X7860287Y23201480D01*
X7860285Y23201479D01*
X7783507Y23161340D01*
X7682002Y23108274D01*
X7678231Y23105242D01*
X7525220Y22982219D01*
X7525217Y22982217D01*
X7521447Y22979185D01*
X7518333Y22975474D01*
X7518332Y22975473D01*
X7509585Y22965048D01*
X7389024Y22821370D01*
X7386689Y22817122D01*
X7386688Y22817121D01*
X7379955Y22804874D01*
X7289776Y22640838D01*
X7288313Y22636225D01*
X7288311Y22636221D01*
X7274802Y22593635D01*
X7227484Y22444468D01*
X7226944Y22439656D01*
X7226944Y22439655D01*
X7225865Y22430030D01*
X7204520Y22239738D01*
X6774138Y22239738D01*
X6755480Y22430030D01*
X6695935Y22627251D01*
X6599218Y22809151D01*
X6469011Y22968800D01*
X6322639Y23089890D01*
X6314002Y23097035D01*
X6314000Y23097036D01*
X6310275Y23100118D01*
X6129055Y23198103D01*
X6044423Y23224301D01*
X5936875Y23257593D01*
X5936871Y23257594D01*
X5932254Y23259023D01*
X5927446Y23259528D01*
X5927443Y23259529D01*
X5732185Y23280051D01*
X5732183Y23280051D01*
X5727369Y23280557D01*
X5671800Y23275500D01*
X5527022Y23262325D01*
X5527017Y23262324D01*
X5522203Y23261886D01*
X5324572Y23203720D01*
X5320288Y23201481D01*
X5320287Y23201480D01*
X5309428Y23195803D01*
X5142002Y23108274D01*
X5138231Y23105242D01*
X4985220Y22982219D01*
X4985217Y22982217D01*
X4981447Y22979185D01*
X4978333Y22975474D01*
X4978332Y22975473D01*
X4969585Y22965048D01*
X4849024Y22821370D01*
X4846689Y22817122D01*
X4846688Y22817121D01*
X4839955Y22804874D01*
X4749776Y22640838D01*
X4748313Y22636225D01*
X4748311Y22636221D01*
X4734802Y22593635D01*
X4687484Y22444468D01*
X4686944Y22439656D01*
X4686944Y22439655D01*
X4685865Y22430030D01*
X4664520Y22239738D01*
X4234138Y22239738D01*
X4215480Y22430030D01*
X4155935Y22627251D01*
X4059218Y22809151D01*
X3929011Y22968800D01*
X3782639Y23089890D01*
X3774002Y23097035D01*
X3774000Y23097036D01*
X3770275Y23100118D01*
X3589055Y23198103D01*
X3575226Y23202384D01*
X3525229Y23237651D01*
X3505500Y23296956D01*
X3505500Y29616466D01*
X3505877Y29625095D01*
X3508509Y29655178D01*
X3509264Y29663807D01*
X3499204Y29701350D01*
X3497334Y29709784D01*
X3492092Y29739517D01*
X3492091Y29739519D01*
X3490588Y29748045D01*
X3486258Y29755544D01*
X3484262Y29761029D01*
X3481796Y29766316D01*
X3479554Y29774684D01*
X3457268Y29806511D01*
X3452627Y29813795D01*
X3437523Y29839956D01*
X3433194Y29847455D01*
X3403429Y29872431D01*
X3397061Y29878265D01*
X244526Y33030800D01*
X6729778Y33030800D01*
X6729990Y33027566D01*
X6748223Y32749390D01*
X6748644Y32742961D01*
X6804919Y32460047D01*
X6897641Y32186898D01*
X7025222Y31928189D01*
X7185480Y31688346D01*
X7375673Y31471473D01*
X7592546Y31281280D01*
X7832389Y31121022D01*
X8091098Y30993441D01*
X8364247Y30900719D01*
X8647161Y30844444D01*
X8650383Y30844233D01*
X8650389Y30844232D01*
X8931766Y30825790D01*
X8935000Y30825578D01*
X8938234Y30825790D01*
X9219611Y30844232D01*
X9219617Y30844233D01*
X9222839Y30844444D01*
X9505753Y30900719D01*
X9778902Y30993441D01*
X10037611Y31121022D01*
X10277454Y31281280D01*
X10494327Y31471473D01*
X10684520Y31688346D01*
X10844778Y31928189D01*
X10972359Y32186898D01*
X11065081Y32460047D01*
X11121356Y32742961D01*
X11121778Y32749390D01*
X11140010Y33027566D01*
X11140222Y33030800D01*
X11125102Y33261491D01*
X11121568Y33315411D01*
X11121567Y33315417D01*
X11121356Y33318639D01*
X11065081Y33601553D01*
X10972359Y33874702D01*
X10844778Y34133411D01*
X10684520Y34373254D01*
X10494327Y34590127D01*
X10277454Y34780320D01*
X10226160Y34814594D01*
X10040315Y34938771D01*
X10037611Y34940578D01*
X9778902Y35068159D01*
X9505753Y35160881D01*
X9222839Y35217156D01*
X9219617Y35217367D01*
X9219611Y35217368D01*
X8938234Y35235810D01*
X8935000Y35236022D01*
X8931766Y35235810D01*
X8650389Y35217368D01*
X8650383Y35217367D01*
X8647161Y35217156D01*
X8364247Y35160881D01*
X8091098Y35068159D01*
X7832389Y34940578D01*
X7829685Y34938771D01*
X7643841Y34814594D01*
X7592546Y34780320D01*
X7375673Y34590127D01*
X7185480Y34373254D01*
X7025222Y34133411D01*
X6897641Y33874702D01*
X6804919Y33601553D01*
X6748644Y33318639D01*
X6748433Y33315417D01*
X6748432Y33315411D01*
X6744898Y33261491D01*
X6729778Y33030800D01*
X244526Y33030800D01*
X-429207Y33704533D01*
X-456984Y33759050D01*
X-447413Y33819482D01*
X-431901Y33841738D01*
X-301577Y33982721D01*
X-301576Y33982722D01*
X-298499Y33986051D01*
X-180764Y34172650D01*
X-99006Y34377579D01*
X-55962Y34593976D01*
X-54539Y34702653D01*
X-53133Y34810054D01*
X-53133Y34810059D01*
X-53074Y34814594D01*
X-53843Y34819072D01*
X-89668Y35027565D01*
X-89670Y35027571D01*
X-90438Y35032043D01*
X-138201Y35161512D01*
X-165231Y35234780D01*
X-165232Y35234783D01*
X-166804Y35239043D01*
X-279614Y35428659D01*
X-301792Y35453949D01*
X-422098Y35591131D01*
X-425090Y35594543D01*
X-441279Y35607305D01*
X-594795Y35728327D01*
X-594798Y35728329D01*
X-598360Y35731137D01*
X-630373Y35747980D01*
X-789609Y35831759D01*
X-789612Y35831760D01*
X-793620Y35833869D01*
X-876874Y35859720D01*
X-999994Y35897950D01*
X-999997Y35897951D01*
X-1004333Y35899297D01*
X-1008843Y35899831D01*
X-1008844Y35899831D01*
X-1056353Y35905454D01*
X-1183476Y35920500D01*
X-2610970Y35920500D01*
X-2774711Y35905454D01*
X-2987064Y35845565D01*
X-2991136Y35843557D01*
X-2991141Y35843555D01*
X-3155247Y35762627D01*
X-3184947Y35747980D01*
X-3361733Y35615967D01*
X-3511501Y35453949D01*
X-3629236Y35267350D01*
X-3710994Y35062421D01*
X-3754038Y34846024D01*
X-3756926Y34625406D01*
X-8689500Y34625406D01*
X-8689500Y63514738D01*
X-4230480Y63514738D01*
X-4229009Y63497224D01*
X-4214473Y63324124D01*
X-4213241Y63309447D01*
X-4211908Y63304799D01*
X-4211908Y63304798D01*
X-4182747Y63203103D01*
X-4156456Y63111414D01*
X-4062288Y62928182D01*
X-3934323Y62766730D01*
X-3930643Y62763598D01*
X-3930641Y62763596D01*
X-3878253Y62719011D01*
X-3777436Y62633209D01*
X-3773213Y62630849D01*
X-3773209Y62630846D01*
X-3660182Y62567678D01*
X-3597602Y62532703D01*
X-3593004Y62531209D01*
X-3406276Y62470537D01*
X-3406274Y62470536D01*
X-3401671Y62469041D01*
X-3197106Y62444649D01*
X-3192284Y62445020D01*
X-3192281Y62445020D01*
X-3124459Y62450239D01*
X-2991700Y62460454D01*
X-2793275Y62515855D01*
X-2788958Y62518036D01*
X-2788952Y62518038D01*
X-2762834Y62531231D01*
X-2702369Y62540591D01*
X-2648194Y62512868D01*
X-2314830Y62179503D01*
X-2287053Y62124987D01*
X-2296624Y62064555D01*
X-2339889Y62021290D01*
X-2384834Y62010500D01*
X-4044748Y62010500D01*
X-4064480Y62006575D01*
X-4093666Y62000770D01*
X-4093668Y62000769D01*
X-4103231Y61998867D01*
X-4169552Y61954552D01*
X-4213867Y61888231D01*
X-4225500Y61829748D01*
X-4225500Y60090252D01*
X-4213867Y60031769D01*
X-4169552Y59965448D01*
X-4163713Y59961547D01*
X-4136719Y59908566D01*
X-4135500Y59893079D01*
X-4135500Y51771034D01*
X-4135877Y51762405D01*
X-4139264Y51723693D01*
X-4137022Y51715326D01*
X-4129204Y51686151D01*
X-4127334Y51677717D01*
X-4120588Y51639455D01*
X-4116258Y51631956D01*
X-4114262Y51626471D01*
X-4111796Y51621184D01*
X-4109554Y51612816D01*
X-4088987Y51583444D01*
X-4087268Y51580989D01*
X-4082629Y51573708D01*
X-4063194Y51540045D01*
X-4033429Y51515069D01*
X-4027061Y51509235D01*
X-3126840Y50609014D01*
X-3099063Y50554497D01*
X-3108634Y50494065D01*
X-3118619Y50478332D01*
X-3212156Y50357746D01*
X-3212159Y50357741D01*
X-3215227Y50353786D01*
X-3300481Y50180526D01*
X-3349155Y49993663D01*
X-3359261Y49800829D01*
X-3330386Y49609901D01*
X-3263710Y49428679D01*
X-3261070Y49424421D01*
X-3261069Y49424419D01*
X-3182034Y49296950D01*
X-3161955Y49264566D01*
X-3029279Y49124265D01*
X-3025174Y49121391D01*
X-3025171Y49121388D01*
X-2875208Y49016384D01*
X-2871102Y49013509D01*
X-2866506Y49011520D01*
X-2866504Y49011519D01*
X-2826417Y48994172D01*
X-2693885Y48936820D01*
X-2573221Y48911612D01*
X-2508592Y48898110D01*
X-2508590Y48898110D01*
X-2504867Y48897332D01*
X-2498532Y48897000D01*
X-1356741Y48897000D01*
X-1354253Y48897253D01*
X-1354248Y48897253D01*
X-1217877Y48911105D01*
X-1217873Y48911106D01*
X-1212890Y48911612D01*
X-1028627Y48969356D01*
X-1004920Y48982497D01*
X-944859Y48994172D01*
X-889406Y48968314D01*
X-859743Y48914800D01*
X-867200Y48854071D01*
X-886920Y48825906D01*
X-1385830Y48326996D01*
X-1440347Y48299219D01*
X-1455834Y48298000D01*
X-2453259Y48298000D01*
X-2455747Y48297747D01*
X-2455752Y48297747D01*
X-2592123Y48283895D01*
X-2592127Y48283894D01*
X-2597110Y48283388D01*
X-2781373Y48225644D01*
X-2950261Y48132028D01*
X-3096875Y48006364D01*
X-3099952Y48002397D01*
X-3212156Y47857746D01*
X-3212159Y47857741D01*
X-3215227Y47853786D01*
X-3300481Y47680526D01*
X-3349155Y47493663D01*
X-3359261Y47300829D01*
X-3330386Y47109901D01*
X-3263710Y46928679D01*
X-3261070Y46924421D01*
X-3261069Y46924419D01*
X-3209479Y46841214D01*
X-3161955Y46764566D01*
X-3029279Y46624265D01*
X-3025174Y46621391D01*
X-3025171Y46621388D01*
X-2946406Y46566237D01*
X-2871102Y46513509D01*
X-2866506Y46511520D01*
X-2866504Y46511519D01*
X-2774691Y46471788D01*
X-2693885Y46436820D01*
X-2573221Y46411612D01*
X-2508592Y46398110D01*
X-2508590Y46398110D01*
X-2504867Y46397332D01*
X-2498532Y46397000D01*
X-1356741Y46397000D01*
X-1354253Y46397253D01*
X-1354248Y46397253D01*
X-1217877Y46411105D01*
X-1217873Y46411106D01*
X-1212890Y46411612D01*
X-1028627Y46469356D01*
X-859739Y46562972D01*
X-713125Y46688636D01*
X-650920Y46768830D01*
X-597844Y46837254D01*
X-597841Y46837259D01*
X-594773Y46841214D01*
X-509519Y47014474D01*
X-460845Y47201337D01*
X-455631Y47300829D01*
X11880739Y47300829D01*
X11909614Y47109901D01*
X11976290Y46928679D01*
X11978930Y46924421D01*
X11978931Y46924419D01*
X12030521Y46841214D01*
X12078045Y46764566D01*
X12210721Y46624265D01*
X12214826Y46621391D01*
X12214829Y46621388D01*
X12293594Y46566237D01*
X12368898Y46513509D01*
X12373494Y46511520D01*
X12373496Y46511519D01*
X12465309Y46471788D01*
X12546115Y46436820D01*
X12666779Y46411612D01*
X12731408Y46398110D01*
X12731410Y46398110D01*
X12735133Y46397332D01*
X12741468Y46397000D01*
X13883259Y46397000D01*
X13885747Y46397253D01*
X13885752Y46397253D01*
X14022123Y46411105D01*
X14022127Y46411106D01*
X14027110Y46411612D01*
X14211373Y46469356D01*
X14380261Y46562972D01*
X14526875Y46688636D01*
X14589080Y46768830D01*
X14642156Y46837254D01*
X14642159Y46837259D01*
X14645227Y46841214D01*
X14730481Y47014474D01*
X14779155Y47201337D01*
X14789261Y47394171D01*
X14760386Y47585099D01*
X14693710Y47766321D01*
X14642266Y47849292D01*
X14594599Y47926170D01*
X14594598Y47926171D01*
X14591955Y47930434D01*
X14459279Y48070735D01*
X14455174Y48073609D01*
X14455171Y48073612D01*
X14305208Y48178616D01*
X14301102Y48181491D01*
X14296506Y48183480D01*
X14296504Y48183481D01*
X14128481Y48256191D01*
X14128482Y48256191D01*
X14123885Y48258180D01*
X13989062Y48286346D01*
X13938592Y48296890D01*
X13938590Y48296890D01*
X13934867Y48297668D01*
X13928532Y48298000D01*
X12786741Y48298000D01*
X12784253Y48297747D01*
X12784248Y48297747D01*
X12647877Y48283895D01*
X12647873Y48283894D01*
X12642890Y48283388D01*
X12458627Y48225644D01*
X12289739Y48132028D01*
X12143125Y48006364D01*
X12140048Y48002397D01*
X12027844Y47857746D01*
X12027841Y47857741D01*
X12024773Y47853786D01*
X11939519Y47680526D01*
X11890845Y47493663D01*
X11880739Y47300829D01*
X-455631Y47300829D01*
X-450739Y47394171D01*
X-479614Y47585099D01*
X-546290Y47766321D01*
X-597734Y47849292D01*
X-645401Y47926170D01*
X-645402Y47926171D01*
X-648045Y47930434D01*
X-651488Y47934075D01*
X-651495Y47934084D01*
X-685759Y47970317D01*
X-712004Y48025588D01*
X-700748Y48085729D01*
X-683832Y48108342D01*
X217057Y49009231D01*
X223425Y49015066D01*
X224996Y49016384D01*
X253194Y49040045D01*
X272629Y49073708D01*
X277268Y49080989D01*
X278987Y49083444D01*
X299554Y49112816D01*
X301796Y49121184D01*
X304262Y49126471D01*
X306258Y49131956D01*
X310588Y49139455D01*
X317334Y49177717D01*
X319204Y49186151D01*
X327022Y49215326D01*
X329264Y49223693D01*
X325877Y49262409D01*
X325500Y49271037D01*
X325500Y49800829D01*
X11880739Y49800829D01*
X11909614Y49609901D01*
X11976290Y49428679D01*
X11978930Y49424421D01*
X11978931Y49424419D01*
X12057966Y49296950D01*
X12078045Y49264566D01*
X12210721Y49124265D01*
X12214826Y49121391D01*
X12214829Y49121388D01*
X12364792Y49016384D01*
X12368898Y49013509D01*
X12373494Y49011520D01*
X12373496Y49011519D01*
X12413583Y48994172D01*
X12546115Y48936820D01*
X12666779Y48911612D01*
X12731408Y48898110D01*
X12731410Y48898110D01*
X12735133Y48897332D01*
X12741468Y48897000D01*
X13883259Y48897000D01*
X13885747Y48897253D01*
X13885752Y48897253D01*
X14022123Y48911105D01*
X14022127Y48911106D01*
X14027110Y48911612D01*
X14211373Y48969356D01*
X14380261Y49062972D01*
X14479445Y49147983D01*
X14523065Y49185370D01*
X14523067Y49185372D01*
X14526875Y49188636D01*
X14554068Y49223693D01*
X14642156Y49337254D01*
X14642159Y49337259D01*
X14645227Y49341214D01*
X14730481Y49514474D01*
X14779155Y49701337D01*
X14789261Y49894171D01*
X14760386Y50085099D01*
X14693710Y50266321D01*
X14642266Y50349292D01*
X14594599Y50426170D01*
X14594598Y50426171D01*
X14591955Y50430434D01*
X14459279Y50570735D01*
X14455174Y50573609D01*
X14455171Y50573612D01*
X14305208Y50678616D01*
X14301102Y50681491D01*
X14296506Y50683480D01*
X14296504Y50683481D01*
X14128481Y50756191D01*
X14128482Y50756191D01*
X14123885Y50758180D01*
X13989062Y50786346D01*
X13938592Y50796890D01*
X13938590Y50796890D01*
X13934867Y50797668D01*
X13928532Y50798000D01*
X12786741Y50798000D01*
X12784253Y50797747D01*
X12784248Y50797747D01*
X12647877Y50783895D01*
X12647873Y50783894D01*
X12642890Y50783388D01*
X12458627Y50725644D01*
X12289739Y50632028D01*
X12285930Y50628763D01*
X12182264Y50539910D01*
X12143125Y50506364D01*
X12140048Y50502397D01*
X12027844Y50357746D01*
X12027841Y50357741D01*
X12024773Y50353786D01*
X11939519Y50180526D01*
X11890845Y49993663D01*
X11880739Y49800829D01*
X325500Y49800829D01*
X325500Y52237487D01*
X11790627Y52237487D01*
X11798168Y52154617D01*
X11799974Y52145154D01*
X11855378Y51956907D01*
X11858991Y51947966D01*
X11949899Y51774073D01*
X11955184Y51765997D01*
X12078140Y51613071D01*
X12084881Y51606187D01*
X12235205Y51480051D01*
X12243159Y51474604D01*
X12415111Y51380073D01*
X12423976Y51376273D01*
X12611021Y51316939D01*
X12620449Y51314935D01*
X12773133Y51297809D01*
X12778662Y51297500D01*
X13219320Y51297500D01*
X13232005Y51301622D01*
X13235000Y51305743D01*
X13235000Y51313180D01*
X13435000Y51313180D01*
X13439122Y51300495D01*
X13443243Y51297500D01*
X13884404Y51297500D01*
X13889219Y51297735D01*
X14035123Y51312041D01*
X14044561Y51313910D01*
X14232428Y51370631D01*
X14241332Y51374301D01*
X14414599Y51466428D01*
X14422624Y51471760D01*
X14574693Y51595784D01*
X14581534Y51602578D01*
X14706619Y51753779D01*
X14712003Y51761762D01*
X14805340Y51934386D01*
X14809069Y51943257D01*
X14867100Y52130725D01*
X14869037Y52140159D01*
X14878680Y52231906D01*
X14875907Y52244952D01*
X14874055Y52246619D01*
X14869912Y52247500D01*
X13450680Y52247500D01*
X13437995Y52243378D01*
X13435000Y52239257D01*
X13435000Y51313180D01*
X13235000Y51313180D01*
X13235000Y52231820D01*
X13230878Y52244505D01*
X13226757Y52247500D01*
X11805396Y52247500D01*
X11792711Y52243378D01*
X11791028Y52241063D01*
X11790627Y52237487D01*
X325500Y52237487D01*
X325500Y52463094D01*
X11791320Y52463094D01*
X11794093Y52450048D01*
X11795945Y52448381D01*
X11800088Y52447500D01*
X13219320Y52447500D01*
X13232005Y52451622D01*
X13235000Y52455743D01*
X13235000Y52463180D01*
X13435000Y52463180D01*
X13439122Y52450495D01*
X13443243Y52447500D01*
X14864604Y52447500D01*
X14877289Y52451622D01*
X14878972Y52453937D01*
X14879373Y52457513D01*
X14871832Y52540383D01*
X14870026Y52549846D01*
X14814622Y52738093D01*
X14811009Y52747034D01*
X14720101Y52920927D01*
X14714816Y52929003D01*
X14591860Y53081929D01*
X14585119Y53088813D01*
X14434795Y53214949D01*
X14426841Y53220396D01*
X14254889Y53314927D01*
X14246024Y53318727D01*
X14058979Y53378061D01*
X14049551Y53380065D01*
X13896867Y53397191D01*
X13891338Y53397500D01*
X13450680Y53397500D01*
X13437995Y53393378D01*
X13435000Y53389257D01*
X13435000Y52463180D01*
X13235000Y52463180D01*
X13235000Y53381820D01*
X13230878Y53394505D01*
X13226757Y53397500D01*
X12785596Y53397500D01*
X12780781Y53397265D01*
X12634877Y53382959D01*
X12625439Y53381090D01*
X12437572Y53324369D01*
X12428668Y53320699D01*
X12255401Y53228572D01*
X12247376Y53223240D01*
X12095307Y53099216D01*
X12088466Y53092422D01*
X11963381Y52941221D01*
X11957997Y52933238D01*
X11864660Y52760614D01*
X11860931Y52751743D01*
X11802900Y52564275D01*
X11800963Y52554841D01*
X11791320Y52463094D01*
X325500Y52463094D01*
X325500Y62528966D01*
X325877Y62537595D01*
X328509Y62567678D01*
X329264Y62576307D01*
X319204Y62613850D01*
X317334Y62622284D01*
X312092Y62652017D01*
X312091Y62652019D01*
X310588Y62660545D01*
X306258Y62668044D01*
X304262Y62673529D01*
X301796Y62678816D01*
X299554Y62687184D01*
X277268Y62719011D01*
X272627Y62726295D01*
X257523Y62752456D01*
X253194Y62759955D01*
X223429Y62784931D01*
X217061Y62790765D01*
X-261781Y63269607D01*
X-289558Y63324124D01*
X-279987Y63384556D01*
X-236722Y63427821D01*
X-176290Y63437392D01*
X-126502Y63414043D01*
X-27454Y63327180D01*
X-24752Y63325375D01*
X-24750Y63325373D01*
X-8127Y63314266D01*
X212389Y63166922D01*
X471098Y63039341D01*
X744247Y62946619D01*
X1027161Y62890344D01*
X1030383Y62890133D01*
X1030389Y62890132D01*
X1311766Y62871690D01*
X1315000Y62871478D01*
X1318234Y62871690D01*
X1599611Y62890132D01*
X1599617Y62890133D01*
X1602839Y62890344D01*
X1885753Y62946619D01*
X2158902Y63039341D01*
X2417611Y63166922D01*
X2638127Y63314266D01*
X2654750Y63325373D01*
X2654752Y63325375D01*
X2657454Y63327180D01*
X2874327Y63517373D01*
X3064520Y63734246D01*
X3224778Y63974089D01*
X3352359Y64232798D01*
X3445081Y64505947D01*
X3501356Y64788861D01*
X3515886Y65010537D01*
X3520010Y65073466D01*
X3520222Y65076700D01*
X3513959Y65172251D01*
X3501568Y65361311D01*
X3501567Y65361317D01*
X3501356Y65364539D01*
X3445081Y65647453D01*
X3352359Y65920602D01*
X3224778Y66179311D01*
X3064520Y66419154D01*
X2881450Y66627905D01*
X2876473Y66633580D01*
X2874327Y66636027D01*
X2657454Y66826220D01*
X2417611Y66986478D01*
X2158902Y67114059D01*
X1885753Y67206781D01*
X1602839Y67263056D01*
X1599617Y67263267D01*
X1599611Y67263268D01*
X1318234Y67281710D01*
X1315000Y67281922D01*
X1311766Y67281710D01*
X1030389Y67263268D01*
X1030383Y67263267D01*
X1027161Y67263056D01*
X744247Y67206781D01*
X471098Y67114059D01*
X212389Y66986478D01*
X-27454Y66826220D01*
X-244327Y66636027D01*
X-246473Y66633580D01*
X-251450Y66627905D01*
X-434520Y66419154D01*
X-594778Y66179311D01*
X-722359Y65920602D01*
X-815081Y65647453D01*
X-871356Y65364539D01*
X-871567Y65361317D01*
X-871568Y65361311D01*
X-883959Y65172251D01*
X-890222Y65076700D01*
X-890010Y65073466D01*
X-885885Y65010537D01*
X-871356Y64788861D01*
X-815081Y64505947D01*
X-722359Y64232798D01*
X-594778Y63974089D01*
X-434520Y63734246D01*
X-432378Y63731804D01*
X-347657Y63635198D01*
X-323504Y63578982D01*
X-337008Y63519305D01*
X-383009Y63478963D01*
X-443938Y63473364D01*
X-492093Y63499919D01*
X-2299850Y65307676D01*
X-2327627Y65362193D01*
X-2318056Y65422625D01*
X-2313265Y65430567D01*
X-2312436Y65431528D01*
X-2210677Y65610656D01*
X-2200238Y65642035D01*
X-2147176Y65801546D01*
X-2147176Y65801548D01*
X-2145649Y65806137D01*
X-2143259Y65825051D01*
X-2120177Y66007772D01*
X-2119829Y66010526D01*
X-2119417Y66040000D01*
X-2121333Y66059546D01*
X-2139048Y66240220D01*
X-2139049Y66240224D01*
X-2139520Y66245030D01*
X-2149615Y66278468D01*
X-2192829Y66421596D01*
X-2199065Y66442251D01*
X-2295782Y66624151D01*
X-2425989Y66783800D01*
X-2537983Y66876450D01*
X-2580998Y66912035D01*
X-2581000Y66912036D01*
X-2584725Y66915118D01*
X-2765945Y67013103D01*
X-2829145Y67032667D01*
X-2958125Y67072593D01*
X-2958129Y67072594D01*
X-2962746Y67074023D01*
X-2967554Y67074528D01*
X-2967557Y67074529D01*
X-3162815Y67095051D01*
X-3162817Y67095051D01*
X-3167631Y67095557D01*
X-3227646Y67090095D01*
X-3367978Y67077325D01*
X-3367983Y67077324D01*
X-3372797Y67076886D01*
X-3570428Y67018720D01*
X-3574712Y67016481D01*
X-3574713Y67016480D01*
X-3585572Y67010803D01*
X-3752998Y66923274D01*
X-3756769Y66920242D01*
X-3909780Y66797219D01*
X-3909783Y66797217D01*
X-3913553Y66794185D01*
X-3916667Y66790474D01*
X-3916668Y66790473D01*
X-3987767Y66705740D01*
X-4045976Y66636370D01*
X-4048311Y66632122D01*
X-4048312Y66632121D01*
X-4055045Y66619874D01*
X-4145224Y66455838D01*
X-4146687Y66451225D01*
X-4146689Y66451221D01*
X-4181586Y66341209D01*
X-4207516Y66259468D01*
X-4208056Y66254656D01*
X-4208056Y66254655D01*
X-4209135Y66245030D01*
X-4230480Y66054738D01*
X-4213241Y65849447D01*
X-4211908Y65844799D01*
X-4211908Y65844798D01*
X-4182747Y65743103D01*
X-4156456Y65651414D01*
X-4062288Y65468182D01*
X-3934323Y65306730D01*
X-3777436Y65173209D01*
X-3773213Y65170849D01*
X-3773209Y65170846D01*
X-3656298Y65105507D01*
X-3597602Y65072703D01*
X-3593004Y65071209D01*
X-3406276Y65010537D01*
X-3406274Y65010536D01*
X-3401671Y65009041D01*
X-3197106Y64984649D01*
X-3192284Y64985020D01*
X-3192281Y64985020D01*
X-3124459Y64990239D01*
X-2991700Y65000454D01*
X-2986120Y65002012D01*
X-2985688Y65001994D01*
X-2982267Y65002597D01*
X-2982134Y65001845D01*
X-2924988Y64999452D01*
X-2889490Y64976664D01*
X-2350954Y64438128D01*
X-2323177Y64383611D01*
X-2329218Y64345465D01*
X-2280044Y64348215D01*
X-2235329Y64322503D01*
X-354496Y62441670D01*
X-326719Y62387153D01*
X-325500Y62371666D01*
X-325500Y52722013D01*
X-344407Y52663822D01*
X-393907Y52627858D01*
X-455093Y52627858D01*
X-504593Y52663822D01*
X-517411Y52687829D01*
X-517573Y52688269D01*
X-546290Y52766321D01*
X-597734Y52849292D01*
X-645401Y52926170D01*
X-645402Y52926171D01*
X-648045Y52930434D01*
X-780721Y53070735D01*
X-784826Y53073609D01*
X-784829Y53073612D01*
X-934792Y53178616D01*
X-938898Y53181491D01*
X-943494Y53183480D01*
X-943496Y53183481D01*
X-1111519Y53256191D01*
X-1111518Y53256191D01*
X-1116115Y53258180D01*
X-1250938Y53286346D01*
X-1301408Y53296890D01*
X-1301410Y53296890D01*
X-1305133Y53297668D01*
X-1311468Y53298000D01*
X-1480500Y53298000D01*
X-1538691Y53316907D01*
X-1574655Y53366407D01*
X-1579500Y53397000D01*
X-1579500Y62211474D01*
X-1579123Y62220102D01*
X-1576492Y62250180D01*
X-1575737Y62258807D01*
X-1577978Y62267170D01*
X-1577978Y62267173D01*
X-1585794Y62296344D01*
X-1587663Y62304772D01*
X-1592908Y62334515D01*
X-1594412Y62343045D01*
X-1598743Y62350546D01*
X-1600742Y62356040D01*
X-1603205Y62361322D01*
X-1605446Y62369684D01*
X-1627741Y62401525D01*
X-1632364Y62408781D01*
X-1651806Y62442455D01*
X-1681565Y62467426D01*
X-1687933Y62473260D01*
X-1933684Y62719011D01*
X-2186077Y62971403D01*
X-2213854Y63025920D01*
X-2210012Y63072656D01*
X-2198552Y63107104D01*
X-2145649Y63266137D01*
X-2143259Y63285051D01*
X-2120177Y63467772D01*
X-2119829Y63470526D01*
X-2119417Y63500000D01*
X-2139520Y63705030D01*
X-2147603Y63731804D01*
X-2191967Y63878742D01*
X-2199065Y63902251D01*
X-2295782Y64084151D01*
X-2382052Y64189928D01*
X-2404179Y64246972D01*
X-2396325Y64276697D01*
X-2436445Y64270343D01*
X-2484063Y64291843D01*
X-2580998Y64372035D01*
X-2581000Y64372036D01*
X-2584725Y64375118D01*
X-2765945Y64473103D01*
X-2829145Y64492667D01*
X-2958125Y64532593D01*
X-2958129Y64532594D01*
X-2962746Y64534023D01*
X-2967554Y64534528D01*
X-2967557Y64534529D01*
X-3162815Y64555051D01*
X-3162817Y64555051D01*
X-3167631Y64555557D01*
X-3227646Y64550095D01*
X-3367978Y64537325D01*
X-3367983Y64537324D01*
X-3372797Y64536886D01*
X-3570428Y64478720D01*
X-3574712Y64476481D01*
X-3574713Y64476480D01*
X-3585572Y64470803D01*
X-3752998Y64383274D01*
X-3760280Y64377419D01*
X-3909780Y64257219D01*
X-3909783Y64257217D01*
X-3913553Y64254185D01*
X-3916667Y64250474D01*
X-3916668Y64250473D01*
X-3987767Y64165740D01*
X-4045976Y64096370D01*
X-4048311Y64092122D01*
X-4048312Y64092121D01*
X-4055045Y64079874D01*
X-4145224Y63915838D01*
X-4146687Y63911225D01*
X-4146689Y63911221D01*
X-4181586Y63801209D01*
X-4207516Y63719468D01*
X-4208056Y63714656D01*
X-4208056Y63714655D01*
X-4216968Y63635198D01*
X-4230480Y63514738D01*
X-8689500Y63514738D01*
X-8689500Y68594738D01*
X-4230480Y68594738D01*
X-4230075Y68589918D01*
X-4215300Y68413971D01*
X-4213241Y68389447D01*
X-4211908Y68384799D01*
X-4211908Y68384798D01*
X-4182747Y68283103D01*
X-4156456Y68191414D01*
X-4062288Y68008182D01*
X-3934323Y67846730D01*
X-3930643Y67843598D01*
X-3930641Y67843596D01*
X-3817983Y67747717D01*
X-3777436Y67713209D01*
X-3773213Y67710849D01*
X-3773209Y67710846D01*
X-3656298Y67645507D01*
X-3597602Y67612703D01*
X-3593004Y67611209D01*
X-3406276Y67550537D01*
X-3406274Y67550536D01*
X-3401671Y67549041D01*
X-3197106Y67524649D01*
X-3192284Y67525020D01*
X-3192281Y67525020D01*
X-3124459Y67530239D01*
X-2991700Y67540454D01*
X-2793275Y67595855D01*
X-2788962Y67598034D01*
X-2788956Y67598036D01*
X-2613711Y67686559D01*
X-2613709Y67686560D01*
X-2609390Y67688742D01*
X-2581098Y67710846D01*
X-2450865Y67812594D01*
X-2450861Y67812598D01*
X-2447049Y67815576D01*
X-2312436Y67971528D01*
X-2293769Y68004387D01*
X-2213066Y68146450D01*
X-2213065Y68146453D01*
X-2210677Y68150656D01*
X-2200238Y68182035D01*
X-2147176Y68341546D01*
X-2147176Y68341548D01*
X-2145649Y68346137D01*
X-2143259Y68365051D01*
X-2120177Y68547772D01*
X-2119829Y68550526D01*
X-2119417Y68580000D01*
X-2121333Y68599546D01*
X-2139048Y68780220D01*
X-2139049Y68780224D01*
X-2139520Y68785030D01*
X-2149615Y68818468D01*
X-2191967Y68958742D01*
X-2199065Y68982251D01*
X-2295782Y69164151D01*
X-2425989Y69323800D01*
X-2537983Y69416450D01*
X-2580998Y69452035D01*
X-2581000Y69452036D01*
X-2584725Y69455118D01*
X-2765945Y69553103D01*
X-2829145Y69572667D01*
X-2958125Y69612593D01*
X-2958129Y69612594D01*
X-2962746Y69614023D01*
X-2967554Y69614528D01*
X-2967557Y69614529D01*
X-3162815Y69635051D01*
X-3162817Y69635051D01*
X-3167631Y69635557D01*
X-3227646Y69630095D01*
X-3367978Y69617325D01*
X-3367983Y69617324D01*
X-3372797Y69616886D01*
X-3570428Y69558720D01*
X-3574712Y69556481D01*
X-3574713Y69556480D01*
X-3585572Y69550803D01*
X-3752998Y69463274D01*
X-3756769Y69460242D01*
X-3909780Y69337219D01*
X-3909783Y69337217D01*
X-3913553Y69334185D01*
X-3916667Y69330474D01*
X-3916668Y69330473D01*
X-3987767Y69245740D01*
X-4045976Y69176370D01*
X-4048311Y69172122D01*
X-4048312Y69172121D01*
X-4055045Y69159874D01*
X-4145224Y68995838D01*
X-4146687Y68991225D01*
X-4146689Y68991221D01*
X-4181586Y68881209D01*
X-4207516Y68799468D01*
X-4208056Y68794656D01*
X-4208056Y68794655D01*
X-4209135Y68785030D01*
X-4230480Y68594738D01*
X-8689500Y68594738D01*
X-8689500Y71134738D01*
X-4230480Y71134738D01*
X-4230075Y71129918D01*
X-4216411Y70967201D01*
X-4213241Y70929447D01*
X-4211908Y70924799D01*
X-4211908Y70924798D01*
X-4181914Y70820198D01*
X-4156456Y70731414D01*
X-4062288Y70548182D01*
X-3934323Y70386730D01*
X-3930643Y70383598D01*
X-3930641Y70383596D01*
X-3860848Y70324198D01*
X-3777436Y70253209D01*
X-3773213Y70250849D01*
X-3773209Y70250846D01*
X-3733658Y70228742D01*
X-3597602Y70152703D01*
X-3593004Y70151209D01*
X-3406276Y70090537D01*
X-3406274Y70090536D01*
X-3401671Y70089041D01*
X-3197106Y70064649D01*
X-3192284Y70065020D01*
X-3192281Y70065020D01*
X-3124459Y70070239D01*
X-2991700Y70080454D01*
X-2793275Y70135855D01*
X-2788962Y70138034D01*
X-2788956Y70138036D01*
X-2613711Y70226559D01*
X-2613709Y70226560D01*
X-2609390Y70228742D01*
X-2581098Y70250846D01*
X-2450865Y70352594D01*
X-2450861Y70352598D01*
X-2447049Y70355576D01*
X-2312436Y70511528D01*
X-2293769Y70544387D01*
X-2213066Y70686450D01*
X-2213065Y70686453D01*
X-2210677Y70690656D01*
X-2200238Y70722035D01*
X-2147176Y70881546D01*
X-2147176Y70881548D01*
X-2145649Y70886137D01*
X-2143259Y70905051D01*
X-2120177Y71087772D01*
X-2119829Y71090526D01*
X-2119417Y71120000D01*
X-2124368Y71170496D01*
X-2139048Y71320220D01*
X-2139049Y71320224D01*
X-2139520Y71325030D01*
X-2158611Y71388264D01*
X-2197667Y71517620D01*
X-2199065Y71522251D01*
X-2295782Y71704151D01*
X-2425989Y71863800D01*
X-2481053Y71909353D01*
X-2580998Y71992035D01*
X-2581000Y71992036D01*
X-2584725Y71995118D01*
X-2765945Y72093103D01*
X-2806416Y72105631D01*
X2110164Y72105631D01*
X2110985Y72093103D01*
X2121328Y71935303D01*
X2123392Y71903806D01*
X2173178Y71707772D01*
X2257856Y71524093D01*
X2374588Y71358920D01*
X2519466Y71217787D01*
X2687637Y71105418D01*
X2691815Y71103623D01*
X2829579Y71044435D01*
X2875581Y71004093D01*
X2889500Y70953475D01*
X2889500Y68558534D01*
X2889123Y68549905D01*
X2885736Y68511193D01*
X2887978Y68502826D01*
X2895796Y68473651D01*
X2897666Y68465217D01*
X2904412Y68426955D01*
X2908742Y68419456D01*
X2910738Y68413971D01*
X2913204Y68408684D01*
X2915446Y68400316D01*
X2936013Y68370944D01*
X2937732Y68368489D01*
X2942371Y68361208D01*
X2961806Y68327545D01*
X2991571Y68302569D01*
X2997939Y68296735D01*
X9281731Y62012943D01*
X9287565Y62006576D01*
X9312545Y61976806D01*
X9341705Y61959971D01*
X9346205Y61957373D01*
X9353489Y61952732D01*
X9385316Y61930446D01*
X9393684Y61928204D01*
X9398971Y61925738D01*
X9404456Y61923742D01*
X9411955Y61919412D01*
X9420481Y61917909D01*
X9420483Y61917908D01*
X9450216Y61912666D01*
X9458650Y61910796D01*
X9496193Y61900736D01*
X9534908Y61904123D01*
X9543537Y61904500D01*
X13531794Y61904500D01*
X13589985Y61885593D01*
X13623127Y61842867D01*
X13623544Y61841414D01*
X13717712Y61658182D01*
X13845677Y61496730D01*
X13849357Y61493598D01*
X13849359Y61493596D01*
X13962017Y61397717D01*
X14002564Y61363209D01*
X14006787Y61360849D01*
X14006791Y61360846D01*
X14046342Y61338742D01*
X14182398Y61262703D01*
X14186996Y61261209D01*
X14373724Y61200537D01*
X14373726Y61200536D01*
X14378329Y61199041D01*
X14582894Y61174649D01*
X14587716Y61175020D01*
X14587719Y61175020D01*
X14655541Y61180239D01*
X14788300Y61190454D01*
X14986725Y61245855D01*
X14991038Y61248034D01*
X14991044Y61248036D01*
X15166289Y61336559D01*
X15166291Y61336560D01*
X15170610Y61338742D01*
X15205943Y61366347D01*
X15329135Y61462594D01*
X15329139Y61462598D01*
X15332951Y61465576D01*
X15467564Y61621528D01*
X15486231Y61654387D01*
X15566934Y61796450D01*
X15566935Y61796453D01*
X15569323Y61800656D01*
X15580586Y61834512D01*
X15632824Y61991546D01*
X15632824Y61991548D01*
X15634351Y61996137D01*
X15636166Y62010500D01*
X15659823Y62197772D01*
X15660171Y62200526D01*
X15660583Y62230000D01*
X15660313Y62232756D01*
X15640952Y62430220D01*
X15640951Y62430224D01*
X15640480Y62435030D01*
X15638476Y62441670D01*
X15582333Y62627620D01*
X15580935Y62632251D01*
X15484218Y62814151D01*
X15354011Y62973800D01*
X15337790Y62987219D01*
X15199002Y63102035D01*
X15199000Y63102036D01*
X15195275Y63105118D01*
X15014055Y63203103D01*
X14950855Y63222667D01*
X14821875Y63262593D01*
X14821871Y63262594D01*
X14817254Y63264023D01*
X14812446Y63264528D01*
X14812443Y63264529D01*
X14617185Y63285051D01*
X14617183Y63285051D01*
X14612369Y63285557D01*
X14552354Y63280095D01*
X14412022Y63267325D01*
X14412017Y63267324D01*
X14407203Y63266886D01*
X14209572Y63208720D01*
X14205288Y63206481D01*
X14205287Y63206480D01*
X14194428Y63200803D01*
X14027002Y63113274D01*
X14023231Y63110242D01*
X13870220Y62987219D01*
X13870217Y62987217D01*
X13866447Y62984185D01*
X13863333Y62980474D01*
X13863332Y62980473D01*
X13747564Y62842506D01*
X13734024Y62826370D01*
X13731689Y62822122D01*
X13731688Y62822121D01*
X13724955Y62809874D01*
X13634776Y62645838D01*
X13633313Y62641226D01*
X13633310Y62641219D01*
X13628028Y62624566D01*
X13592411Y62574816D01*
X13533662Y62555500D01*
X9700834Y62555500D01*
X9642643Y62574407D01*
X9630830Y62584496D01*
X9427337Y62787989D01*
X9399560Y62842506D01*
X9409131Y62902938D01*
X9452396Y62946203D01*
X9512828Y62955774D01*
X9529164Y62951739D01*
X9544247Y62946619D01*
X9827161Y62890344D01*
X9830383Y62890133D01*
X9830389Y62890132D01*
X10111766Y62871690D01*
X10115000Y62871478D01*
X10118234Y62871690D01*
X10399611Y62890132D01*
X10399617Y62890133D01*
X10402839Y62890344D01*
X10685753Y62946619D01*
X10958902Y63039341D01*
X11217611Y63166922D01*
X11438127Y63314266D01*
X11454750Y63325373D01*
X11454752Y63325375D01*
X11457454Y63327180D01*
X11674327Y63517373D01*
X11864520Y63734246D01*
X12024778Y63974089D01*
X12152359Y64232798D01*
X12245081Y64505947D01*
X12300536Y64784738D01*
X13549520Y64784738D01*
X13566759Y64579447D01*
X13568092Y64574799D01*
X13568092Y64574798D01*
X13607282Y64438128D01*
X13623544Y64381414D01*
X13717712Y64198182D01*
X13845677Y64036730D01*
X13849357Y64033598D01*
X13849359Y64033596D01*
X13915857Y63977002D01*
X14002564Y63903209D01*
X14006787Y63900849D01*
X14006791Y63900846D01*
X14046342Y63878742D01*
X14182398Y63802703D01*
X14186996Y63801209D01*
X14373724Y63740537D01*
X14373726Y63740536D01*
X14378329Y63739041D01*
X14582894Y63714649D01*
X14587716Y63715020D01*
X14587719Y63715020D01*
X14655541Y63720239D01*
X14788300Y63730454D01*
X14986725Y63785855D01*
X14991038Y63788034D01*
X14991044Y63788036D01*
X15166289Y63876559D01*
X15166291Y63876560D01*
X15170610Y63878742D01*
X15198902Y63900846D01*
X15329135Y64002594D01*
X15329139Y64002598D01*
X15332951Y64005576D01*
X15467564Y64161528D01*
X15469957Y64165740D01*
X15566934Y64336450D01*
X15566935Y64336453D01*
X15569323Y64340656D01*
X15575775Y64360049D01*
X15632824Y64531546D01*
X15632824Y64531548D01*
X15634351Y64536137D01*
X15636741Y64555051D01*
X15659823Y64737772D01*
X15660171Y64740526D01*
X15660583Y64770000D01*
X15640480Y64975030D01*
X15630385Y65008468D01*
X15582333Y65167620D01*
X15580935Y65172251D01*
X15484218Y65354151D01*
X15354011Y65513800D01*
X15242017Y65606450D01*
X15199002Y65642035D01*
X15199000Y65642036D01*
X15195275Y65645118D01*
X15014055Y65743103D01*
X14950855Y65762667D01*
X14821875Y65802593D01*
X14821871Y65802594D01*
X14817254Y65804023D01*
X14812446Y65804528D01*
X14812443Y65804529D01*
X14617185Y65825051D01*
X14617183Y65825051D01*
X14612369Y65825557D01*
X14552354Y65820095D01*
X14412022Y65807325D01*
X14412017Y65807324D01*
X14407203Y65806886D01*
X14209572Y65748720D01*
X14205288Y65746481D01*
X14205287Y65746480D01*
X14194428Y65740803D01*
X14027002Y65653274D01*
X14023231Y65650242D01*
X13870220Y65527219D01*
X13870217Y65527217D01*
X13866447Y65524185D01*
X13863333Y65520474D01*
X13863332Y65520473D01*
X13781228Y65422625D01*
X13734024Y65366370D01*
X13731689Y65362122D01*
X13731688Y65362121D01*
X13724955Y65349874D01*
X13634776Y65185838D01*
X13633313Y65181225D01*
X13633311Y65181221D01*
X13598414Y65071209D01*
X13572484Y64989468D01*
X13571944Y64984656D01*
X13571944Y64984655D01*
X13550345Y64792089D01*
X13549520Y64784738D01*
X12300536Y64784738D01*
X12301356Y64788861D01*
X12315886Y65010537D01*
X12320010Y65073466D01*
X12320222Y65076700D01*
X12313959Y65172251D01*
X12301568Y65361311D01*
X12301567Y65361317D01*
X12301356Y65364539D01*
X12245081Y65647453D01*
X12152359Y65920602D01*
X12024778Y66179311D01*
X11864520Y66419154D01*
X11681450Y66627905D01*
X11676473Y66633580D01*
X11674327Y66636027D01*
X11557842Y66738182D01*
X11474732Y66811068D01*
X11443448Y66863651D01*
X11449047Y66924580D01*
X11489389Y66970581D01*
X11540007Y66984500D01*
X13531794Y66984500D01*
X13589985Y66965593D01*
X13623127Y66922867D01*
X13623544Y66921414D01*
X13717712Y66738182D01*
X13845677Y66576730D01*
X13849357Y66573598D01*
X13849359Y66573596D01*
X13962017Y66477717D01*
X14002564Y66443209D01*
X14006787Y66440849D01*
X14006791Y66440846D01*
X14123702Y66375507D01*
X14182398Y66342703D01*
X14186996Y66341209D01*
X14373724Y66280537D01*
X14373726Y66280536D01*
X14378329Y66279041D01*
X14582894Y66254649D01*
X14587716Y66255020D01*
X14587719Y66255020D01*
X14655541Y66260239D01*
X14788300Y66270454D01*
X14986725Y66325855D01*
X14991038Y66328034D01*
X14991044Y66328036D01*
X15166289Y66416559D01*
X15166291Y66416560D01*
X15170610Y66418742D01*
X15198902Y66440846D01*
X15329135Y66542594D01*
X15329139Y66542598D01*
X15332951Y66545576D01*
X15467564Y66701528D01*
X15486231Y66734387D01*
X15566934Y66876450D01*
X15566935Y66876453D01*
X15569323Y66880656D01*
X15579762Y66912035D01*
X15632824Y67071546D01*
X15632824Y67071548D01*
X15634351Y67076137D01*
X15636741Y67095051D01*
X15659823Y67277772D01*
X15660171Y67280526D01*
X15660583Y67310000D01*
X15660313Y67312756D01*
X15640952Y67510220D01*
X15640951Y67510224D01*
X15640480Y67515030D01*
X15630385Y67548468D01*
X15588033Y67688742D01*
X15580935Y67712251D01*
X15484218Y67894151D01*
X15354011Y68053800D01*
X15242017Y68146450D01*
X15199002Y68182035D01*
X15199000Y68182036D01*
X15195275Y68185118D01*
X15014055Y68283103D01*
X14950855Y68302667D01*
X14821875Y68342593D01*
X14821871Y68342594D01*
X14817254Y68344023D01*
X14812446Y68344528D01*
X14812443Y68344529D01*
X14617185Y68365051D01*
X14617183Y68365051D01*
X14612369Y68365557D01*
X14552354Y68360095D01*
X14412022Y68347325D01*
X14412017Y68347324D01*
X14407203Y68346886D01*
X14209572Y68288720D01*
X14205288Y68286481D01*
X14205287Y68286480D01*
X14194428Y68280803D01*
X14027002Y68193274D01*
X14023231Y68190242D01*
X13870220Y68067219D01*
X13870217Y68067217D01*
X13866447Y68064185D01*
X13863333Y68060474D01*
X13863332Y68060473D01*
X13792233Y67975740D01*
X13734024Y67906370D01*
X13731689Y67902122D01*
X13731688Y67902121D01*
X13724955Y67889874D01*
X13634776Y67725838D01*
X13633313Y67721226D01*
X13633310Y67721219D01*
X13628028Y67704566D01*
X13592411Y67654816D01*
X13533662Y67635500D01*
X11288334Y67635500D01*
X11230143Y67654407D01*
X11218330Y67664496D01*
X8073839Y70808987D01*
X8046062Y70863504D01*
X8055633Y70923936D01*
X8098898Y70967201D01*
X8147729Y70977915D01*
X8230783Y70974652D01*
X8272842Y70973000D01*
X8326377Y70980762D01*
X8468519Y71001371D01*
X8468522Y71001372D01*
X8473007Y71002022D01*
X8597951Y71044435D01*
X8660234Y71065577D01*
X8660237Y71065579D01*
X8664531Y71067036D01*
X8841001Y71165863D01*
X8996505Y71295195D01*
X9125837Y71450699D01*
X9132037Y71461769D01*
X9164788Y71520252D01*
X9224664Y71627169D01*
X9253502Y71712121D01*
X9288219Y71814396D01*
X9289678Y71818693D01*
X9296666Y71866885D01*
X9315258Y71995118D01*
X9318700Y72018858D01*
X9319312Y72042216D01*
X9320139Y72073787D01*
X9320139Y72073792D01*
X9320215Y72076700D01*
X9318577Y72094532D01*
X9302123Y72273591D01*
X9301708Y72278109D01*
X9246807Y72472774D01*
X9157351Y72654173D01*
X9036335Y72816233D01*
X8887812Y72953526D01*
X8865125Y72967841D01*
X8720594Y73059033D01*
X8716757Y73061454D01*
X8528898Y73136402D01*
X8330526Y73175861D01*
X8230930Y73177165D01*
X8132826Y73178449D01*
X8132821Y73178449D01*
X8128286Y73178508D01*
X8123813Y73177739D01*
X8123808Y73177739D01*
X8025245Y73160802D01*
X7928949Y73144256D01*
X7739193Y73074251D01*
X7565371Y72970838D01*
X7561956Y72967843D01*
X7561953Y72967841D01*
X7492316Y72906771D01*
X7413305Y72837480D01*
X7410497Y72833918D01*
X7352172Y72759932D01*
X7288089Y72678643D01*
X7193914Y72499647D01*
X7133937Y72306487D01*
X7110164Y72105631D01*
X7110985Y72093103D01*
X7116315Y72011782D01*
X7101254Y71952479D01*
X7054212Y71913355D01*
X6993158Y71909353D01*
X6947523Y71935303D01*
X6846947Y72035879D01*
X6819170Y72090396D01*
X6818366Y72096824D01*
X6802123Y72273591D01*
X6801708Y72278109D01*
X6746807Y72472774D01*
X6657351Y72654173D01*
X6536335Y72816233D01*
X6387812Y72953526D01*
X6365125Y72967841D01*
X6220594Y73059033D01*
X6216757Y73061454D01*
X6028898Y73136402D01*
X5830526Y73175861D01*
X5730930Y73177165D01*
X5632826Y73178449D01*
X5632821Y73178449D01*
X5628286Y73178508D01*
X5623813Y73177739D01*
X5623808Y73177739D01*
X5525245Y73160802D01*
X5428949Y73144256D01*
X5239193Y73074251D01*
X5065371Y72970838D01*
X5061956Y72967843D01*
X5061953Y72967841D01*
X4992316Y72906771D01*
X4913305Y72837480D01*
X4910497Y72833918D01*
X4852172Y72759932D01*
X4788089Y72678643D01*
X4693914Y72499647D01*
X4633937Y72306487D01*
X4610164Y72105631D01*
X4610985Y72093103D01*
X4621328Y71935303D01*
X4623392Y71903806D01*
X4673178Y71707772D01*
X4757856Y71524093D01*
X4874588Y71358920D01*
X5019466Y71217787D01*
X5187637Y71105418D01*
X5373470Y71025578D01*
X5570740Y70980940D01*
X5772842Y70973000D01*
X5826377Y70980762D01*
X5968519Y71001371D01*
X5968522Y71001372D01*
X5973007Y71002022D01*
X6097951Y71044435D01*
X6160234Y71065577D01*
X6160237Y71065579D01*
X6164531Y71067036D01*
X6341001Y71165863D01*
X6496505Y71295195D01*
X6504523Y71304835D01*
X6556270Y71337483D01*
X6617324Y71333480D01*
X6650641Y71311533D01*
X10541913Y67420261D01*
X10569690Y67365744D01*
X10560119Y67305312D01*
X10516854Y67262047D01*
X10452595Y67253159D01*
X10402839Y67263056D01*
X10399617Y67263267D01*
X10399611Y67263268D01*
X10118234Y67281710D01*
X10115000Y67281922D01*
X10111766Y67281710D01*
X9830389Y67263268D01*
X9830383Y67263267D01*
X9827161Y67263056D01*
X9544247Y67206781D01*
X9271098Y67114059D01*
X9012389Y66986478D01*
X8772546Y66826220D01*
X8555673Y66636027D01*
X8553527Y66633580D01*
X8548550Y66627905D01*
X8365480Y66419154D01*
X8205222Y66179311D01*
X8077641Y65920602D01*
X7984919Y65647453D01*
X7928644Y65364539D01*
X7928433Y65361317D01*
X7928432Y65361311D01*
X7916041Y65172251D01*
X7909778Y65076700D01*
X7909990Y65073466D01*
X7914115Y65010537D01*
X7928644Y64788861D01*
X7984919Y64505947D01*
X7989960Y64491095D01*
X7990039Y64490864D01*
X7990840Y64429683D01*
X7955527Y64379717D01*
X7897589Y64360049D01*
X7839156Y64378193D01*
X7826289Y64389037D01*
X3569496Y68645830D01*
X3541719Y68700347D01*
X3540500Y68715834D01*
X3540500Y70953991D01*
X3559407Y71012182D01*
X3607678Y71047737D01*
X3660231Y71065576D01*
X3660234Y71065577D01*
X3664531Y71067036D01*
X3841001Y71165863D01*
X3996505Y71295195D01*
X4125837Y71450699D01*
X4132037Y71461769D01*
X4164788Y71520252D01*
X4224664Y71627169D01*
X4253502Y71712121D01*
X4288219Y71814396D01*
X4289678Y71818693D01*
X4296666Y71866885D01*
X4315258Y71995118D01*
X4318700Y72018858D01*
X4319312Y72042216D01*
X4320139Y72073787D01*
X4320139Y72073792D01*
X4320215Y72076700D01*
X4318577Y72094532D01*
X4302123Y72273591D01*
X4301708Y72278109D01*
X4246807Y72472774D01*
X4157351Y72654173D01*
X4036335Y72816233D01*
X3887812Y72953526D01*
X3865125Y72967841D01*
X3720594Y73059033D01*
X3716757Y73061454D01*
X3528898Y73136402D01*
X3330526Y73175861D01*
X3230930Y73177165D01*
X3132826Y73178449D01*
X3132821Y73178449D01*
X3128286Y73178508D01*
X3123813Y73177739D01*
X3123808Y73177739D01*
X3025245Y73160802D01*
X2928949Y73144256D01*
X2739193Y73074251D01*
X2565371Y72970838D01*
X2561956Y72967843D01*
X2561953Y72967841D01*
X2492316Y72906771D01*
X2413305Y72837480D01*
X2410497Y72833918D01*
X2352172Y72759932D01*
X2288089Y72678643D01*
X2193914Y72499647D01*
X2133937Y72306487D01*
X2110164Y72105631D01*
X-2806416Y72105631D01*
X-2829145Y72112667D01*
X-2958125Y72152593D01*
X-2958129Y72152594D01*
X-2962746Y72154023D01*
X-2967554Y72154528D01*
X-2967557Y72154529D01*
X-3162815Y72175051D01*
X-3162817Y72175051D01*
X-3167631Y72175557D01*
X-3227646Y72170095D01*
X-3367978Y72157325D01*
X-3367983Y72157324D01*
X-3372797Y72156886D01*
X-3570428Y72098720D01*
X-3574712Y72096481D01*
X-3574713Y72096480D01*
X-3585572Y72090803D01*
X-3752998Y72003274D01*
X-3756769Y72000242D01*
X-3909780Y71877219D01*
X-3909783Y71877217D01*
X-3913553Y71874185D01*
X-3916667Y71870474D01*
X-3916668Y71870473D01*
X-3960116Y71818693D01*
X-4045976Y71716370D01*
X-4048311Y71712122D01*
X-4048312Y71712121D01*
X-4052966Y71703655D01*
X-4145224Y71535838D01*
X-4146687Y71531225D01*
X-4146689Y71531221D01*
X-4172232Y71450699D01*
X-4207516Y71339468D01*
X-4208056Y71334656D01*
X-4208056Y71334655D01*
X-4221447Y71215266D01*
X-4230480Y71134738D01*
X-8689500Y71134738D01*
X-8689500Y73550596D01*
X-4320379Y73550596D01*
X-4316005Y73483855D01*
X-4314592Y73474936D01*
X-4264800Y73278879D01*
X-4261780Y73270351D01*
X-4177096Y73086659D01*
X-4172578Y73078833D01*
X-4055829Y72913637D01*
X-4049965Y72906771D01*
X-3905069Y72765619D01*
X-3898046Y72759932D01*
X-3729862Y72647554D01*
X-3721907Y72643236D01*
X-3536071Y72563394D01*
X-3527460Y72560596D01*
X-3330174Y72515956D01*
X-3321215Y72514776D01*
X-3290666Y72513576D01*
X-3277831Y72517195D01*
X-3275217Y72520511D01*
X-3275000Y72521728D01*
X-3275000Y72528071D01*
X-3075000Y72528071D01*
X-3070878Y72515386D01*
X-3069708Y72514535D01*
X-3063728Y72514025D01*
X-2909885Y72536332D01*
X-2901086Y72538444D01*
X-2709550Y72603462D01*
X-2701286Y72607142D01*
X-2524806Y72705974D01*
X-2517348Y72711100D01*
X-2361843Y72840432D01*
X-2355432Y72846843D01*
X-2226100Y73002348D01*
X-2220974Y73009806D01*
X-2122142Y73186286D01*
X-2118462Y73194550D01*
X-2053444Y73386086D01*
X-2051332Y73394885D01*
X-2029641Y73544482D01*
X-2031900Y73557628D01*
X-2032935Y73558637D01*
X-2038782Y73560000D01*
X-3059320Y73560000D01*
X-3072005Y73555878D01*
X-3075000Y73551757D01*
X-3075000Y72528071D01*
X-3275000Y72528071D01*
X-3275000Y73544320D01*
X-3279122Y73557005D01*
X-3283243Y73560000D01*
X-4305315Y73560000D01*
X-4318000Y73555878D01*
X-4320075Y73553022D01*
X-4320379Y73550596D01*
X-8689500Y73550596D01*
X-8689500Y73775572D01*
X-4319430Y73775572D01*
X-4316828Y73762490D01*
X-4315253Y73761034D01*
X-4310539Y73760000D01*
X-3290680Y73760000D01*
X-3277995Y73764122D01*
X-3275000Y73768243D01*
X-3275000Y73775680D01*
X-3075000Y73775680D01*
X-3070878Y73762995D01*
X-3066757Y73760000D01*
X-2044942Y73760000D01*
X-2032257Y73764122D01*
X-2030588Y73766418D01*
X-2030184Y73770035D01*
X-2038997Y73865952D01*
X-2040644Y73874836D01*
X-2095551Y74069519D01*
X-2098792Y74077963D01*
X-2188255Y74259376D01*
X-2192980Y74267086D01*
X-2314006Y74429160D01*
X-2320055Y74435878D01*
X-2468595Y74573186D01*
X-2475760Y74578685D01*
X-2646837Y74686626D01*
X-2654890Y74690729D01*
X-2842771Y74765686D01*
X-2851429Y74768251D01*
X-3049824Y74807714D01*
X-3058815Y74808659D01*
X-3059324Y74808666D01*
X-3072059Y74804711D01*
X-3074996Y74800778D01*
X-3075000Y74800754D01*
X-3075000Y73775680D01*
X-3275000Y73775680D01*
X-3275000Y74794074D01*
X-3279122Y74806759D01*
X-3279726Y74807198D01*
X-3286873Y74807714D01*
X-3469441Y74776343D01*
X-3478177Y74774002D01*
X-3667950Y74703991D01*
X-3676113Y74700098D01*
X-3849953Y74596674D01*
X-3857255Y74591369D01*
X-4009343Y74457990D01*
X-4015566Y74451432D01*
X-4140791Y74292585D01*
X-4145716Y74285002D01*
X-4239903Y74105982D01*
X-4243357Y74097642D01*
X-4303342Y73904462D01*
X-4305223Y73895612D01*
X-4319430Y73775572D01*
X-8689500Y73775572D01*
X-8689500Y77387254D01*
X-3801142Y77387254D01*
X-3766743Y77225425D01*
X-3763555Y77215613D01*
X-3690824Y77052256D01*
X-3685671Y77043331D01*
X-3580560Y76898659D01*
X-3573661Y76890996D01*
X-3440776Y76771346D01*
X-3432429Y76765281D01*
X-3277572Y76675875D01*
X-3268140Y76671676D01*
X-3098090Y76616423D01*
X-3087990Y76614276D01*
X-2954728Y76600270D01*
X-2949583Y76600000D01*
X-2020680Y76600000D01*
X-2007995Y76604122D01*
X-2005000Y76608243D01*
X-2005000Y76615680D01*
X-1805000Y76615680D01*
X-1800878Y76602995D01*
X-1796757Y76600000D01*
X-860417Y76600000D01*
X-855272Y76600270D01*
X-722010Y76614276D01*
X-711910Y76616423D01*
X-541860Y76671676D01*
X-532428Y76675875D01*
X-377571Y76765281D01*
X-369224Y76771346D01*
X-236342Y76890994D01*
X-229435Y76898665D01*
X-124334Y77043324D01*
X-119175Y77052259D01*
X-46445Y77215613D01*
X-43257Y77225425D01*
X-9409Y77384662D01*
X-10785Y77397750D01*
X-19182Y77400000D01*
X-1789320Y77400000D01*
X-1802005Y77395878D01*
X-1805000Y77391757D01*
X-1805000Y76615680D01*
X-2005000Y76615680D01*
X-2005000Y77384320D01*
X-2009122Y77397005D01*
X-2013243Y77400000D01*
X-3788171Y77400000D01*
X-3800687Y77395933D01*
X-3801142Y77387254D01*
X-8689500Y77387254D01*
X-8689500Y77615338D01*
X-3800591Y77615338D01*
X-3799215Y77602250D01*
X-3790818Y77600000D01*
X-2020680Y77600000D01*
X-2007995Y77604122D01*
X-2005000Y77608243D01*
X-2005000Y77615680D01*
X-1805000Y77615680D01*
X-1800878Y77602995D01*
X-1796757Y77600000D01*
X-21829Y77600000D01*
X-9313Y77604067D01*
X-8858Y77612746D01*
X-43257Y77774575D01*
X-46445Y77784387D01*
X-119176Y77947744D01*
X-124329Y77956669D01*
X-229440Y78101341D01*
X-236339Y78109004D01*
X-369224Y78228654D01*
X-377571Y78234719D01*
X-532428Y78324125D01*
X-541860Y78328324D01*
X-711910Y78383577D01*
X-722010Y78385724D01*
X-855272Y78399730D01*
X-860417Y78400000D01*
X-1789320Y78400000D01*
X-1802005Y78395878D01*
X-1805000Y78391757D01*
X-1805000Y77615680D01*
X-2005000Y77615680D01*
X-2005000Y78384320D01*
X-2009122Y78397005D01*
X-2013243Y78400000D01*
X-2949583Y78400000D01*
X-2954728Y78399730D01*
X-3087990Y78385724D01*
X-3098090Y78383577D01*
X-3268140Y78328324D01*
X-3277572Y78324125D01*
X-3432429Y78234719D01*
X-3440776Y78228654D01*
X-3573658Y78109006D01*
X-3580565Y78101335D01*
X-3685666Y77956676D01*
X-3690825Y77947741D01*
X-3763555Y77784387D01*
X-3766743Y77774575D01*
X-3800591Y77615338D01*
X-8689500Y77615338D01*
X-8689500Y79054845D01*
X-5205500Y79054845D01*
X-5190546Y78921528D01*
X-5131485Y78751927D01*
X-5122262Y78737167D01*
X-5053689Y78627428D01*
X-5036316Y78599625D01*
X-4909770Y78472193D01*
X-4905096Y78469227D01*
X-4905095Y78469226D01*
X-4783023Y78391757D01*
X-4758136Y78375963D01*
X-4588951Y78315719D01*
X-4583464Y78315065D01*
X-4583461Y78315064D01*
X-4416120Y78295110D01*
X-4416117Y78295110D01*
X-4410624Y78294455D01*
X-4232017Y78313227D01*
X-4226777Y78315011D01*
X-4226776Y78315011D01*
X-4067249Y78369318D01*
X-4067245Y78369320D01*
X-4062007Y78371103D01*
X-4057297Y78374001D01*
X-4057292Y78374003D01*
X-3913754Y78462309D01*
X-3909045Y78465206D01*
X-3780732Y78590859D01*
X-3683446Y78741817D01*
X-3622022Y78910578D01*
X-3604500Y79049283D01*
X-3604500Y79054845D01*
X-205500Y79054845D01*
X-190546Y78921528D01*
X-131485Y78751927D01*
X-122262Y78737167D01*
X-53689Y78627428D01*
X-36316Y78599625D01*
X90230Y78472193D01*
X94904Y78469227D01*
X94905Y78469226D01*
X216977Y78391757D01*
X241864Y78375963D01*
X411049Y78315719D01*
X416536Y78315065D01*
X416539Y78315064D01*
X583880Y78295110D01*
X583883Y78295110D01*
X589376Y78294455D01*
X767983Y78313227D01*
X773223Y78315011D01*
X773224Y78315011D01*
X932751Y78369318D01*
X932755Y78369320D01*
X937993Y78371103D01*
X942703Y78374001D01*
X942708Y78374003D01*
X1086246Y78462309D01*
X1090955Y78465206D01*
X1219268Y78590859D01*
X1316554Y78741817D01*
X1377978Y78910578D01*
X1395500Y79049283D01*
X1395500Y79575500D01*
X1414407Y79633691D01*
X1463907Y79669655D01*
X1494500Y79674500D01*
X4279166Y79674500D01*
X4337357Y79655593D01*
X4349170Y79645504D01*
X13615959Y70378715D01*
X13643736Y70324198D01*
X13636963Y70269816D01*
X13634776Y70265838D01*
X13572484Y70069468D01*
X13571944Y70064656D01*
X13571944Y70064655D01*
X13570865Y70055030D01*
X13549520Y69864738D01*
X13566759Y69659447D01*
X13568092Y69654799D01*
X13568092Y69654798D01*
X13597253Y69553103D01*
X13623544Y69461414D01*
X13717712Y69278182D01*
X13845677Y69116730D01*
X13849357Y69113598D01*
X13849359Y69113596D01*
X13962017Y69017717D01*
X14002564Y68983209D01*
X14006787Y68980849D01*
X14006791Y68980846D01*
X14046342Y68958742D01*
X14182398Y68882703D01*
X14186996Y68881209D01*
X14373724Y68820537D01*
X14373726Y68820536D01*
X14378329Y68819041D01*
X14582894Y68794649D01*
X14587716Y68795020D01*
X14587719Y68795020D01*
X14655541Y68800239D01*
X14788300Y68810454D01*
X14986725Y68865855D01*
X14991038Y68868034D01*
X14991044Y68868036D01*
X15166289Y68956559D01*
X15166291Y68956560D01*
X15170610Y68958742D01*
X15198902Y68980846D01*
X15329135Y69082594D01*
X15329139Y69082598D01*
X15332951Y69085576D01*
X15467564Y69241528D01*
X15486231Y69274387D01*
X15566934Y69416450D01*
X15566935Y69416453D01*
X15569323Y69420656D01*
X15579762Y69452035D01*
X15632824Y69611546D01*
X15632824Y69611548D01*
X15634351Y69616137D01*
X15636741Y69635051D01*
X15659823Y69817772D01*
X15660171Y69820526D01*
X15660583Y69850000D01*
X15640480Y70055030D01*
X15630385Y70088468D01*
X15588033Y70228742D01*
X15580935Y70252251D01*
X15484218Y70434151D01*
X15354011Y70593800D01*
X15242017Y70686450D01*
X15199002Y70722035D01*
X15199000Y70722036D01*
X15195275Y70725118D01*
X15014055Y70823103D01*
X14950855Y70842667D01*
X14821875Y70882593D01*
X14821871Y70882594D01*
X14817254Y70884023D01*
X14812446Y70884528D01*
X14812443Y70884529D01*
X14617185Y70905051D01*
X14617183Y70905051D01*
X14612369Y70905557D01*
X14552354Y70900095D01*
X14412022Y70887325D01*
X14412017Y70887324D01*
X14407203Y70886886D01*
X14209572Y70828720D01*
X14193271Y70820198D01*
X14132943Y70809993D01*
X14077399Y70837927D01*
X13744830Y71170496D01*
X13717053Y71225013D01*
X13726624Y71285445D01*
X13769889Y71328710D01*
X13814834Y71339500D01*
X15474748Y71339500D01*
X15500995Y71344721D01*
X15523666Y71349230D01*
X15523668Y71349231D01*
X15533231Y71351133D01*
X15599552Y71395448D01*
X15643867Y71461769D01*
X15655500Y71520252D01*
X15655500Y73259748D01*
X15643867Y73318231D01*
X15599552Y73384552D01*
X15533231Y73428867D01*
X15523668Y73430769D01*
X15523666Y73430770D01*
X15500995Y73435279D01*
X15474748Y73440500D01*
X14055834Y73440500D01*
X13997643Y73459407D01*
X13985830Y73469496D01*
X13689496Y73765830D01*
X13661719Y73820347D01*
X13660500Y73835834D01*
X13660500Y76600500D01*
X13679407Y76658691D01*
X13728907Y76694655D01*
X13759500Y76699500D01*
X14280155Y76699500D01*
X14282909Y76699809D01*
X14282911Y76699809D01*
X14310291Y76702880D01*
X14413472Y76714454D01*
X14559428Y76765281D01*
X14577847Y76771695D01*
X14577848Y76771695D01*
X14583073Y76773515D01*
X14620979Y76797201D01*
X14730685Y76865753D01*
X14730687Y76865755D01*
X14735375Y76868684D01*
X14862807Y76995230D01*
X14865774Y76999905D01*
X14956071Y77142190D01*
X14956072Y77142191D01*
X14959037Y77146864D01*
X15019281Y77316049D01*
X15028807Y77395933D01*
X15039890Y77488880D01*
X15039890Y77488883D01*
X15040545Y77494376D01*
X15021773Y77672983D01*
X15016266Y77689160D01*
X14965682Y77837751D01*
X14965680Y77837755D01*
X14963897Y77842993D01*
X14960999Y77847703D01*
X14960997Y77847708D01*
X14872691Y77991246D01*
X14869794Y77995955D01*
X14744141Y78124268D01*
X14593183Y78221554D01*
X14424422Y78282978D01*
X14285717Y78300500D01*
X12389845Y78300500D01*
X12387091Y78300191D01*
X12387089Y78300191D01*
X12359709Y78297120D01*
X12256528Y78285546D01*
X12251296Y78283724D01*
X12093156Y78228654D01*
X12086927Y78226485D01*
X12082234Y78223553D01*
X12082235Y78223553D01*
X11939315Y78134247D01*
X11939313Y78134245D01*
X11934625Y78131316D01*
X11807193Y78004770D01*
X11804227Y78000096D01*
X11804226Y78000095D01*
X11776672Y77956676D01*
X11710963Y77853136D01*
X11650719Y77683951D01*
X11650065Y77678464D01*
X11650064Y77678461D01*
X11630110Y77511120D01*
X11629455Y77505624D01*
X11648227Y77327017D01*
X11650011Y77321777D01*
X11650011Y77321776D01*
X11682812Y77225425D01*
X11706103Y77157007D01*
X11709001Y77152297D01*
X11709003Y77152292D01*
X11770546Y77052256D01*
X11800206Y77004045D01*
X11925859Y76875732D01*
X12076817Y76778446D01*
X12245578Y76717022D01*
X12384283Y76699500D01*
X12910500Y76699500D01*
X12968691Y76680593D01*
X13004655Y76631093D01*
X13009500Y76600500D01*
X13009500Y73678534D01*
X13009123Y73669905D01*
X13005736Y73631193D01*
X13007978Y73622826D01*
X13015796Y73593651D01*
X13017666Y73585216D01*
X13022839Y73555878D01*
X13024412Y73546955D01*
X13028742Y73539456D01*
X13030738Y73533971D01*
X13033204Y73528684D01*
X13035446Y73520316D01*
X13056013Y73490944D01*
X13057732Y73488489D01*
X13062371Y73481208D01*
X13081806Y73447545D01*
X13088442Y73441977D01*
X13088444Y73441974D01*
X13111576Y73422564D01*
X13117942Y73416731D01*
X13525503Y73009171D01*
X13553281Y72954654D01*
X13554500Y72939167D01*
X13554500Y71599834D01*
X13535593Y71541643D01*
X13486093Y71505679D01*
X13424907Y71505679D01*
X13385496Y71529830D01*
X5959909Y78955417D01*
X9935000Y78955417D01*
X9935270Y78950272D01*
X9949276Y78817010D01*
X9951423Y78806910D01*
X10006676Y78636860D01*
X10010875Y78627428D01*
X10100281Y78472571D01*
X10106346Y78464224D01*
X10225994Y78331342D01*
X10233665Y78324435D01*
X10378324Y78219334D01*
X10387259Y78214175D01*
X10550613Y78141445D01*
X10560425Y78138257D01*
X10719662Y78104409D01*
X10732750Y78105785D01*
X10735000Y78114182D01*
X10735000Y78116829D01*
X10935000Y78116829D01*
X10939067Y78104313D01*
X10947746Y78103858D01*
X11109575Y78138257D01*
X11119387Y78141445D01*
X11282744Y78214176D01*
X11291669Y78219329D01*
X11436341Y78324440D01*
X11444004Y78331339D01*
X11563654Y78464224D01*
X11569719Y78472571D01*
X11659125Y78627428D01*
X11663324Y78636860D01*
X11718577Y78806910D01*
X11720724Y78817010D01*
X11734730Y78950272D01*
X11735000Y78955417D01*
X11735000Y79884320D01*
X11730878Y79897005D01*
X11726757Y79900000D01*
X10950680Y79900000D01*
X10937995Y79895878D01*
X10935000Y79891757D01*
X10935000Y78116829D01*
X10735000Y78116829D01*
X10735000Y79884320D01*
X10730878Y79897005D01*
X10726757Y79900000D01*
X9950680Y79900000D01*
X9937995Y79895878D01*
X9935000Y79891757D01*
X9935000Y78955417D01*
X5959909Y78955417D01*
X4799646Y80115680D01*
X9935000Y80115680D01*
X9939122Y80102995D01*
X9943243Y80100000D01*
X10719320Y80100000D01*
X10732005Y80104122D01*
X10735000Y80108243D01*
X10735000Y80115680D01*
X10935000Y80115680D01*
X10939122Y80102995D01*
X10943243Y80100000D01*
X11719320Y80100000D01*
X11732005Y80104122D01*
X11735000Y80108243D01*
X11735000Y81044583D01*
X11734730Y81049728D01*
X11720724Y81182990D01*
X11718577Y81193090D01*
X11663324Y81363140D01*
X11659125Y81372572D01*
X11569719Y81527429D01*
X11563654Y81535776D01*
X11444006Y81668658D01*
X11436335Y81675565D01*
X11291676Y81780666D01*
X11282741Y81785825D01*
X11119387Y81858555D01*
X11109575Y81861743D01*
X10950338Y81895591D01*
X10937250Y81894215D01*
X10935000Y81885818D01*
X10935000Y80115680D01*
X10735000Y80115680D01*
X10735000Y81883171D01*
X10730933Y81895687D01*
X10722254Y81896142D01*
X10560425Y81861743D01*
X10550613Y81858555D01*
X10387256Y81785824D01*
X10378331Y81780671D01*
X10233659Y81675560D01*
X10225996Y81668661D01*
X10106346Y81535776D01*
X10100281Y81527429D01*
X10010875Y81372572D01*
X10006676Y81363140D01*
X9951423Y81193090D01*
X9949276Y81182990D01*
X9935270Y81049728D01*
X9935000Y81044583D01*
X9935000Y80115680D01*
X4799646Y80115680D01*
X4698269Y80217057D01*
X4692434Y80223425D01*
X4667455Y80253194D01*
X4633792Y80272629D01*
X4626511Y80277268D01*
X4624056Y80278987D01*
X4594684Y80299554D01*
X4586316Y80301796D01*
X4581029Y80304262D01*
X4575544Y80306258D01*
X4568045Y80310588D01*
X4559519Y80312091D01*
X4559517Y80312092D01*
X4529784Y80317334D01*
X4521349Y80319204D01*
X4492174Y80327022D01*
X4483807Y80329264D01*
X4475178Y80328509D01*
X4445095Y80325877D01*
X4436466Y80325500D01*
X1494500Y80325500D01*
X1436309Y80344407D01*
X1400345Y80393907D01*
X1395500Y80424500D01*
X1395500Y80945155D01*
X1380546Y81078472D01*
X1321485Y81248073D01*
X1249583Y81363140D01*
X1229247Y81395685D01*
X1229245Y81395687D01*
X1226316Y81400375D01*
X1099770Y81527807D01*
X1094855Y81530926D01*
X952810Y81621071D01*
X952809Y81621072D01*
X948136Y81624037D01*
X778951Y81684281D01*
X773464Y81684935D01*
X773461Y81684936D01*
X606120Y81704890D01*
X606117Y81704890D01*
X600624Y81705545D01*
X422017Y81686773D01*
X416777Y81684989D01*
X416776Y81684989D01*
X257249Y81630682D01*
X257245Y81630680D01*
X252007Y81628897D01*
X247297Y81625999D01*
X247292Y81625997D01*
X103907Y81537785D01*
X99045Y81534794D01*
X-29268Y81409141D01*
X-126554Y81258183D01*
X-187978Y81089422D01*
X-205500Y80950717D01*
X-205500Y79054845D01*
X-3604500Y79054845D01*
X-3604500Y80945155D01*
X-3619454Y81078472D01*
X-3678515Y81248073D01*
X-3750417Y81363140D01*
X-3770753Y81395685D01*
X-3770755Y81395687D01*
X-3773684Y81400375D01*
X-3900230Y81527807D01*
X-3905145Y81530926D01*
X-4047190Y81621071D01*
X-4047191Y81621072D01*
X-4051864Y81624037D01*
X-4221049Y81684281D01*
X-4226536Y81684935D01*
X-4226539Y81684936D01*
X-4393880Y81704890D01*
X-4393883Y81704890D01*
X-4399376Y81705545D01*
X-4577983Y81686773D01*
X-4583223Y81684989D01*
X-4583224Y81684989D01*
X-4742751Y81630682D01*
X-4742755Y81630680D01*
X-4747993Y81628897D01*
X-4752703Y81625999D01*
X-4752708Y81625997D01*
X-4896093Y81537785D01*
X-4900955Y81534794D01*
X-5029268Y81409141D01*
X-5126554Y81258183D01*
X-5187978Y81089422D01*
X-5205500Y80950717D01*
X-5205500Y79054845D01*
X-8689500Y79054845D01*
X-8689500Y82505624D01*
X11629455Y82505624D01*
X11648227Y82327017D01*
X11706103Y82157007D01*
X11709001Y82152297D01*
X11709003Y82152292D01*
X11715218Y82142190D01*
X11800206Y82004045D01*
X11925859Y81875732D01*
X12076817Y81778446D01*
X12245578Y81717022D01*
X12384283Y81699500D01*
X14280155Y81699500D01*
X14282909Y81699809D01*
X14282911Y81699809D01*
X14310291Y81702880D01*
X14413472Y81714454D01*
X14583073Y81773515D01*
X14620979Y81797201D01*
X14730685Y81865753D01*
X14730687Y81865755D01*
X14735375Y81868684D01*
X14862807Y81995230D01*
X14865774Y81999905D01*
X14956071Y82142190D01*
X14956072Y82142191D01*
X14959037Y82146864D01*
X15019281Y82316049D01*
X15040545Y82494376D01*
X15021773Y82672983D01*
X14963897Y82842993D01*
X14960999Y82847703D01*
X14960997Y82847708D01*
X14872691Y82991246D01*
X14869794Y82995955D01*
X14744141Y83124268D01*
X14593183Y83221554D01*
X14424422Y83282978D01*
X14285717Y83300500D01*
X12389845Y83300500D01*
X12387091Y83300191D01*
X12387089Y83300191D01*
X12359709Y83297120D01*
X12256528Y83285546D01*
X12086927Y83226485D01*
X12082234Y83223553D01*
X12082235Y83223553D01*
X11939315Y83134247D01*
X11939313Y83134245D01*
X11934625Y83131316D01*
X11807193Y83004770D01*
X11804227Y83000096D01*
X11804226Y83000095D01*
X11804106Y82999905D01*
X11710963Y82853136D01*
X11650719Y82683951D01*
X11629455Y82505624D01*
X-8689500Y82505624D01*
X-8689500Y84155500D01*
X-8670593Y84213691D01*
X-8621093Y84249655D01*
X-8590500Y84254500D01*
X20020500Y84254500D01*
X20078691Y84235593D01*
G37*
%TD.AperFunction*%
%TA.AperFunction,Conductor*%
G36*
X-3335996Y970669D02*
G01*
X-828581Y-1536746D01*
X-800804Y-1591263D01*
X-810375Y-1651695D01*
X-853640Y-1694960D01*
X-910992Y-1704969D01*
X-954283Y-1699500D01*
X-2850155Y-1699500D01*
X-2852909Y-1699809D01*
X-2852911Y-1699809D01*
X-2880291Y-1702880D01*
X-2983472Y-1714454D01*
X-2988704Y-1716276D01*
X-3142106Y-1769696D01*
X-3153073Y-1773515D01*
X-3157766Y-1776447D01*
X-3157765Y-1776447D01*
X-3300685Y-1865753D01*
X-3300687Y-1865755D01*
X-3305375Y-1868684D01*
X-3432807Y-1995230D01*
X-3435773Y-1999904D01*
X-3435774Y-1999905D01*
X-3521340Y-2134736D01*
X-3529037Y-2146864D01*
X-3530893Y-2152075D01*
X-3530893Y-2152076D01*
X-3535657Y-2165455D01*
X-3589281Y-2316049D01*
X-3589935Y-2321536D01*
X-3589936Y-2321539D01*
X-3608329Y-2475793D01*
X-3610545Y-2494376D01*
X-3591773Y-2672983D01*
X-3589989Y-2678223D01*
X-3589989Y-2678224D01*
X-3546472Y-2806053D01*
X-3533897Y-2842993D01*
X-3530999Y-2847703D01*
X-3530997Y-2847708D01*
X-3468884Y-2948670D01*
X-3439794Y-2995955D01*
X-3435926Y-2999904D01*
X-3435926Y-2999905D01*
X-3404886Y-3031602D01*
X-3314141Y-3124268D01*
X-3163183Y-3221554D01*
X-2994422Y-3282978D01*
X-2855717Y-3300500D01*
X-959845Y-3300500D01*
X-957091Y-3300191D01*
X-957089Y-3300191D01*
X-929709Y-3297120D01*
X-826528Y-3285546D01*
X-684032Y-3235924D01*
X-662153Y-3228305D01*
X-662152Y-3228305D01*
X-656927Y-3226485D01*
X-517882Y-3139600D01*
X-509315Y-3134247D01*
X-509313Y-3134245D01*
X-504625Y-3131316D01*
X-399814Y-3027234D01*
X-381121Y-3008671D01*
X-381120Y-3008669D01*
X-377193Y-3004770D01*
X-374226Y-3000095D01*
X-283929Y-2857810D01*
X-283928Y-2857809D01*
X-280963Y-2853136D01*
X-264197Y-2806053D01*
X-222574Y-2689160D01*
X-220719Y-2683951D01*
X-217816Y-2659610D01*
X-200110Y-2511120D01*
X-200110Y-2511117D01*
X-199455Y-2505624D01*
X-210135Y-2404006D01*
X-197413Y-2344158D01*
X-151944Y-2303217D01*
X-91093Y-2296821D01*
X-41673Y-2323654D01*
X1084747Y-3450074D01*
X1090582Y-3456442D01*
X1115556Y-3486205D01*
X1123055Y-3490535D01*
X1123058Y-3490537D01*
X1125482Y-3491936D01*
X1127817Y-3494529D01*
X1129690Y-3496101D01*
X1129469Y-3496364D01*
X1166422Y-3537407D01*
X1172816Y-3598257D01*
X1145984Y-3647675D01*
X119093Y-4674566D01*
X64576Y-4702343D01*
X49089Y-4703562D01*
X-2044592Y-4703562D01*
X-2102783Y-4684655D01*
X-2114596Y-4674566D01*
X-4757990Y-2031172D01*
X-4785767Y-1976655D01*
X-4776196Y-1916223D01*
X-4732931Y-1872958D01*
X-4667403Y-1864331D01*
X-4520339Y-1895591D01*
X-4507250Y-1894215D01*
X-4505000Y-1885818D01*
X-4505000Y-1883171D01*
X-4305000Y-1883171D01*
X-4300933Y-1895687D01*
X-4292254Y-1896142D01*
X-4130425Y-1861743D01*
X-4120613Y-1858555D01*
X-3957256Y-1785824D01*
X-3948331Y-1780671D01*
X-3803659Y-1675560D01*
X-3795996Y-1668661D01*
X-3676346Y-1535776D01*
X-3670281Y-1527429D01*
X-3580875Y-1372572D01*
X-3576676Y-1363140D01*
X-3521423Y-1193090D01*
X-3519276Y-1182990D01*
X-3505270Y-1049728D01*
X-3505000Y-1044583D01*
X-3505000Y-115680D01*
X-3509122Y-102995D01*
X-3513243Y-100000D01*
X-4289320Y-100000D01*
X-4302005Y-104122D01*
X-4305000Y-108243D01*
X-4305000Y-1883171D01*
X-4505000Y-1883171D01*
X-4505000Y1000D01*
X-4486093Y59191D01*
X-4436593Y95155D01*
X-4406000Y100000D01*
X-3520680Y100000D01*
X-3507995Y104122D01*
X-3505000Y108243D01*
X-3505000Y900665D01*
X-3486093Y958856D01*
X-3436593Y994820D01*
X-3375407Y994820D01*
X-3335996Y970669D01*
G37*
%TD.AperFunction*%
%TD*%
M02*
