%TF.GenerationSoftware,KiCad,Pcbnew,6.0.4-6f826c9f35~116~ubuntu21.10.1*%
%TF.CreationDate,2022-06-29T09:00:01+02:00*%
%TF.ProjectId,mHz_oscillator,6d487a5f-6f73-4636-996c-6c61746f722e,rev?*%
%TF.SameCoordinates,Original*%
%TF.FileFunction,Soldermask,Top*%
%TF.FilePolarity,Negative*%
%FSLAX46Y46*%
G04 Gerber Fmt 4.6, Leading zero omitted, Abs format (unit mm)*
G04 Created by KiCad (PCBNEW 6.0.4-6f826c9f35~116~ubuntu21.10.1) date 2022-06-29 09:00:01*
%MOMM*%
%LPD*%
G01*
G04 APERTURE LIST*
G04 Aperture macros list*
%AMRotRect*
0 Rectangle, with rotation*
0 The origin of the aperture is its center*
0 $1 length*
0 $2 width*
0 $3 Rotation angle, in degrees counterclockwise*
0 Add horizontal line*
21,1,$1,$2,0,0,$3*%
G04 Aperture macros list end*
%ADD10C,4.000000*%
%ADD11C,1.800000*%
%ADD12RotRect,1.800000X1.800000X225.000000*%
%ADD13RotRect,1.800000X1.800000X45.000000*%
%ADD14O,3.000000X1.200000*%
%ADD15O,1.200000X3.200000*%
%ADD16O,3.300000X2.000000*%
%ADD17O,1.200000X3.000000*%
%ADD18O,3.200000X1.200000*%
%ADD19O,2.500000X1.500000*%
%ADD20R,1.700000X1.700000*%
%ADD21O,1.700000X1.700000*%
G04 APERTURE END LIST*
D10*
%TO.C,RV7*%
X10115000Y65076700D03*
X1315000Y65076700D03*
D11*
X3215000Y72076700D03*
X5715000Y72076700D03*
X8215000Y72076700D03*
%TD*%
D12*
%TO.C,D11*%
X18364061Y-3225938D03*
D11*
X16568010Y-5021989D03*
%TD*%
D13*
%TO.C,D8*%
X1320939Y9258438D03*
D11*
X3116990Y11054489D03*
%TD*%
D14*
%TO.C,J14*%
X13335000Y16787500D03*
D15*
X10835000Y14287500D03*
D14*
X13335000Y11787500D03*
%TD*%
D13*
%TO.C,D9*%
X1320939Y-5029062D03*
D11*
X3116990Y-3233011D03*
%TD*%
D14*
%TO.C,J17*%
X13335000Y82500000D03*
D15*
X10835000Y80000000D03*
D14*
X13335000Y77500000D03*
%TD*%
D16*
%TO.C,SW1*%
X-1905000Y34720000D03*
X-1905000Y31320000D03*
%TD*%
D10*
%TO.C,RV6*%
X8935000Y33030800D03*
X17735000Y33030800D03*
D11*
X15835000Y26030800D03*
X13335000Y26030800D03*
X10835000Y26030800D03*
%TD*%
D14*
%TO.C,J12*%
X-1905000Y16787500D03*
D15*
X-4405000Y14287500D03*
D14*
X-1905000Y11787500D03*
%TD*%
D17*
%TO.C,J15*%
X15835000Y0D03*
D18*
X13335000Y2500000D03*
D17*
X10835000Y0D03*
%TD*%
D13*
%TO.C,D10*%
X16560939Y9258438D03*
D11*
X18356990Y11054489D03*
%TD*%
D17*
%TO.C,J16*%
X-4405000Y80000000D03*
D18*
X-1905000Y77500000D03*
D17*
X595000Y80000000D03*
%TD*%
D19*
%TO.C,SW2*%
X-1905000Y47347500D03*
X-1905000Y49847500D03*
X-1905000Y52347500D03*
%TD*%
D14*
%TO.C,J13*%
X-1905000Y2500000D03*
D15*
X-4405000Y0D03*
D14*
X-1905000Y-2500000D03*
%TD*%
D19*
%TO.C,SW3*%
X13335000Y52347500D03*
X13335000Y49847500D03*
X13335000Y47347500D03*
%TD*%
D20*
%TO.C,J7*%
X640000Y22225000D03*
D21*
X3180000Y22225000D03*
X5720000Y22225000D03*
X8260000Y22225000D03*
X10800000Y22225000D03*
%TD*%
D20*
%TO.C,J5*%
X-3175000Y60960000D03*
D21*
X-3175000Y63500000D03*
X-3175000Y66040000D03*
X-3175000Y68580000D03*
X-3175000Y71120000D03*
X-3175000Y73660000D03*
%TD*%
D20*
%TO.C,J1*%
X18732500Y-8255000D03*
D21*
X16192500Y-8255000D03*
X13652500Y-8255000D03*
X11112500Y-8255000D03*
X8572500Y-8255000D03*
X6032500Y-8255000D03*
%TD*%
D20*
%TO.C,J3*%
X-7302500Y12065000D03*
D21*
X-7302500Y9525000D03*
X-7302500Y6985000D03*
X-7302500Y4445000D03*
X-7302500Y1905000D03*
X-7302500Y-635000D03*
%TD*%
D20*
%TO.C,J9*%
X14605000Y72390000D03*
D21*
X14605000Y69850000D03*
X14605000Y67310000D03*
X14605000Y64770000D03*
X14605000Y62230000D03*
%TD*%
M02*
