M48
; DRILL file {KiCad 6.0.4-6f826c9f35~116~ubuntu21.10.1} date Mi 29 Jun 2022 08:59:56 CEST
; FORMAT={-:-/ absolute / inch / decimal}
; #@! TF.CreationDate,2022-06-29T08:59:56+02:00
; #@! TF.GenerationSoftware,Kicad,Pcbnew,6.0.4-6f826c9f35~116~ubuntu21.10.1
; #@! TF.FileFunction,Plated,1,2,PTH
FMAT,2
INCH
; #@! TA.AperFunction,Plated,PTH,ComponentDrill
T1C0.0315
; #@! TA.AperFunction,Plated,PTH,ComponentDrill
T2C0.0354
; #@! TA.AperFunction,Plated,PTH,ComponentDrill
T3C0.0394
%
G90
G05
T2
X0.052Y0.3645
X0.052Y-0.198
X0.1227Y0.4352
X0.1227Y-0.1273
X0.652Y0.3645
X0.6523Y-0.1977
X0.7227Y0.4352
X0.723Y-0.127
T3
X-0.2875Y0.475
X-0.2875Y0.375
X-0.2875Y0.275
X-0.2875Y0.175
X-0.2875Y0.075
X-0.2875Y-0.025
X-0.125Y2.9
X-0.125Y2.8
X-0.125Y2.7
X-0.125Y2.6
X-0.125Y2.5
X-0.125Y2.4
X0.0252Y0.875
X0.1252Y0.875
X0.1266Y2.8377
X0.225Y2.8377
X0.2252Y0.875
X0.2375Y-0.325
X0.3234Y2.8377
X0.3252Y0.875
X0.3375Y-0.325
X0.4252Y0.875
X0.4266Y1.0248
X0.4375Y-0.325
X0.525Y1.0248
X0.5375Y-0.325
X0.575Y2.85
X0.575Y2.75
X0.575Y2.65
X0.575Y2.55
X0.575Y2.45
X0.6234Y1.0248
X0.6375Y-0.325
X0.7375Y-0.325
T1
G00X-0.1734Y3.1142
M15
G01X-0.1734Y3.185
M16
G05
G00X-0.1734Y0.5231
M15
G01X-0.1734Y0.6019
M16
G05
G00X-0.1734Y-0.0394
M15
G01X-0.1734Y0.0394
M16
G05
G00X-0.0356Y3.0512
M15
G01X-0.1144Y3.0512
M16
G05
G00X-0.1104Y0.6609
M15
G01X-0.0396Y0.6609
M16
G05
G00X-0.1104Y0.4641
M15
G01X-0.0396Y0.4641
M16
G05
G00X-0.1104Y0.0984
M15
G01X-0.0396Y0.0984
M16
G05
G00X-0.1104Y-0.0984
M15
G01X-0.0396Y-0.0984
M16
G05
G00X0.0234Y3.1142
M15
G01X0.0234Y3.185
M16
G05
G00X0.4266Y3.1102
M15
G01X0.4266Y3.189
M16
G05
G00X0.4266Y0.5231
M15
G01X0.4266Y0.6019
M16
G05
G00X0.4266Y0.0354
M15
G01X0.4266Y-0.0354
M16
G05
G00X0.4896Y3.248
M15
G01X0.5604Y3.248
M16
G05
G00X0.4896Y3.0512
M15
G01X0.5604Y3.0512
M16
G05
G00X0.4896Y0.6609
M15
G01X0.5604Y0.6609
M16
G05
G00X0.4896Y0.4641
M15
G01X0.5604Y0.4641
M16
G05
G00X0.4856Y0.0984
M15
G01X0.5644Y0.0984
M16
G05
G00X0.6234Y0.0354
M15
G01X0.6234Y-0.0354
M16
G05
T3
G00X-0.0553Y2.0609
M15
G01X-0.0947Y2.0609
M16
G05
G00X-0.0553Y1.9625
M15
G01X-0.0947Y1.9625
M16
G05
G00X-0.0553Y1.8641
M15
G01X-0.0947Y1.8641
M16
G05
G00X-0.1006Y1.3669
M15
G01X-0.0494Y1.3669
M16
G05
G00X-0.1006Y1.2331
M15
G01X-0.0494Y1.2331
M16
G05
G00X0.5053Y2.0609
M15
G01X0.5447Y2.0609
M16
G05
G00X0.5053Y1.9625
M15
G01X0.5447Y1.9625
M16
G05
G00X0.5053Y1.8641
M15
G01X0.5447Y1.8641
M16
G05
T0
M30
