%TF.GenerationSoftware,KiCad,Pcbnew,6.0.4-6f826c9f35~116~ubuntu21.10.1*%
%TF.CreationDate,2022-06-29T09:00:01+02:00*%
%TF.ProjectId,mHz_oscillator,6d487a5f-6f73-4636-996c-6c61746f722e,rev?*%
%TF.SameCoordinates,Original*%
%TF.FileFunction,Copper,L2,Bot*%
%TF.FilePolarity,Positive*%
%FSLAX46Y46*%
G04 Gerber Fmt 4.6, Leading zero omitted, Abs format (unit mm)*
G04 Created by KiCad (PCBNEW 6.0.4-6f826c9f35~116~ubuntu21.10.1) date 2022-06-29 09:00:01*
%MOMM*%
%LPD*%
G01*
G04 APERTURE LIST*
G04 Aperture macros list*
%AMRotRect*
0 Rectangle, with rotation*
0 The origin of the aperture is its center*
0 $1 length*
0 $2 width*
0 $3 Rotation angle, in degrees counterclockwise*
0 Add horizontal line*
21,1,$1,$2,0,0,$3*%
G04 Aperture macros list end*
%TA.AperFunction,WasherPad*%
%ADD10C,4.000000*%
%TD*%
%TA.AperFunction,ComponentPad*%
%ADD11C,1.800000*%
%TD*%
%TA.AperFunction,ComponentPad*%
%ADD12RotRect,1.800000X1.800000X225.000000*%
%TD*%
%TA.AperFunction,ComponentPad*%
%ADD13RotRect,1.800000X1.800000X45.000000*%
%TD*%
%TA.AperFunction,ComponentPad*%
%ADD14O,3.000000X1.200000*%
%TD*%
%TA.AperFunction,ComponentPad*%
%ADD15O,1.200000X3.200000*%
%TD*%
%TA.AperFunction,ComponentPad*%
%ADD16O,3.300000X2.000000*%
%TD*%
%TA.AperFunction,ComponentPad*%
%ADD17O,1.200000X3.000000*%
%TD*%
%TA.AperFunction,ComponentPad*%
%ADD18O,3.200000X1.200000*%
%TD*%
%TA.AperFunction,ComponentPad*%
%ADD19O,2.500000X1.500000*%
%TD*%
%TA.AperFunction,ComponentPad*%
%ADD20R,1.700000X1.700000*%
%TD*%
%TA.AperFunction,ComponentPad*%
%ADD21O,1.700000X1.700000*%
%TD*%
%TA.AperFunction,Conductor*%
%ADD22C,0.250000*%
%TD*%
G04 APERTURE END LIST*
D10*
%TO.P,RV7,*%
%TO.N,*%
X10115000Y65076700D03*
X1315000Y65076700D03*
D11*
%TO.P,RV7,1,1*%
%TO.N,/interface_pcb/Freq_CW*%
X3215000Y72076700D03*
%TO.P,RV7,2,2*%
%TO.N,/interface_pcb/Freq_Wiper*%
X5715000Y72076700D03*
%TO.P,RV7,3,3*%
%TO.N,/interface_pcb/Freq_CCW*%
X8215000Y72076700D03*
%TD*%
D12*
%TO.P,D11,1,K*%
%TO.N,/interface_pcb/Sine_LEDCathode*%
X18364061Y-3225938D03*
D11*
%TO.P,D11,2,A*%
%TO.N,/interface_pcb/Sine_LEDAnode*%
X16568010Y-5021989D03*
%TD*%
D13*
%TO.P,D8,1,K*%
%TO.N,/interface_pcb/Saw_LEDCathode*%
X1320939Y9258438D03*
D11*
%TO.P,D8,2,A*%
%TO.N,/interface_pcb/Saw_LEDAnode*%
X3116990Y11054489D03*
%TD*%
D14*
%TO.P,J14,R*%
%TO.N,unconnected-(J14-PadR)*%
X13335000Y16787500D03*
D15*
%TO.P,J14,S*%
%TO.N,/interface_pcb/0V*%
X10835000Y14287500D03*
D14*
%TO.P,J14,T*%
%TO.N,/interface_pcb/Triangle*%
X13335000Y11787500D03*
%TD*%
D13*
%TO.P,D9,1,K*%
%TO.N,/interface_pcb/Square_LEDCathode*%
X1320939Y-5029062D03*
D11*
%TO.P,D9,2,A*%
%TO.N,/interface_pcb/Square_LEDAnode*%
X3116990Y-3233011D03*
%TD*%
D14*
%TO.P,J17,R*%
%TO.N,unconnected-(J17-PadR)*%
X13335000Y82500000D03*
D15*
%TO.P,J17,S*%
%TO.N,/interface_pcb/0V*%
X10835000Y80000000D03*
D14*
%TO.P,J17,T*%
%TO.N,/interface_pcb/CV_in*%
X13335000Y77500000D03*
%TD*%
D16*
%TO.P,SW1,1,1*%
%TO.N,/interface_pcb/PushButton_2*%
X-1905000Y34720000D03*
%TO.P,SW1,2,2*%
%TO.N,/interface_pcb/PushButton_1*%
X-1905000Y31320000D03*
%TD*%
D10*
%TO.P,RV6,*%
%TO.N,*%
X8935000Y33030800D03*
X17735000Y33030800D03*
D11*
%TO.P,RV6,1,1*%
%TO.N,/interface_pcb/PWM_CW*%
X15835000Y26030800D03*
%TO.P,RV6,2,2*%
%TO.N,/interface_pcb/PWM_Wiper*%
X13335000Y26030800D03*
%TO.P,RV6,3,3*%
%TO.N,/interface_pcb/PWM_CCW*%
X10835000Y26030800D03*
%TD*%
D14*
%TO.P,J12,R*%
%TO.N,unconnected-(J12-PadR)*%
X-1905000Y16787500D03*
D15*
%TO.P,J12,S*%
%TO.N,/interface_pcb/0V*%
X-4405000Y14287500D03*
D14*
%TO.P,J12,T*%
%TO.N,/interface_pcb/Saw*%
X-1905000Y11787500D03*
%TD*%
D17*
%TO.P,J15,R*%
%TO.N,unconnected-(J15-PadR)*%
X15835000Y0D03*
D18*
%TO.P,J15,S*%
%TO.N,/interface_pcb/0V*%
X13335000Y2500000D03*
D17*
%TO.P,J15,T*%
%TO.N,/interface_pcb/Sine*%
X10835000Y0D03*
%TD*%
D13*
%TO.P,D10,1,K*%
%TO.N,/interface_pcb/Triangle_LEDCathode*%
X16560939Y9258438D03*
D11*
%TO.P,D10,2,A*%
%TO.N,/interface_pcb/Triangle_LEDAnode*%
X18356990Y11054489D03*
%TD*%
D17*
%TO.P,J16,R*%
%TO.N,unconnected-(J16-PadR)*%
X-4405000Y80000000D03*
D18*
%TO.P,J16,S*%
%TO.N,/interface_pcb/0V*%
X-1905000Y77500000D03*
D17*
%TO.P,J16,T*%
%TO.N,/interface_pcb/Trigger_input*%
X595000Y80000000D03*
%TD*%
D19*
%TO.P,SW2,1,A*%
%TO.N,/interface_pcb/Freq_Low*%
X-1905000Y47347500D03*
%TO.P,SW2,2,B*%
%TO.N,/interface_pcb/Freq_Switch_Output*%
X-1905000Y49847500D03*
%TO.P,SW2,3,C*%
%TO.N,/interface_pcb/Freq_High*%
X-1905000Y52347500D03*
%TD*%
D14*
%TO.P,J13,R*%
%TO.N,unconnected-(J13-PadR)*%
X-1905000Y2500000D03*
D15*
%TO.P,J13,S*%
%TO.N,/interface_pcb/0V*%
X-4405000Y0D03*
D14*
%TO.P,J13,T*%
%TO.N,/interface_pcb/Square*%
X-1905000Y-2500000D03*
%TD*%
D19*
%TO.P,SW3,1,A*%
%TO.N,/interface_pcb/0V*%
X13335000Y52347500D03*
%TO.P,SW3,2,B*%
%TO.N,/interface_pcb/SMTS_Output*%
X13335000Y49847500D03*
%TO.P,SW3,3,C*%
%TO.N,/interface_pcb/SMTS_OneShot*%
X13335000Y47347500D03*
%TD*%
D20*
%TO.P,J7,1,Pin_1*%
%TO.N,/interface_pcb/PushButton_1*%
X640000Y22225000D03*
D21*
%TO.P,J7,2,Pin_2*%
%TO.N,/interface_pcb/PushButton_2*%
X3180000Y22225000D03*
%TO.P,J7,3,Pin_3*%
%TO.N,/interface_pcb/PWM_Wiper*%
X5720000Y22225000D03*
%TO.P,J7,4,Pin_4*%
%TO.N,/interface_pcb/PWM_CCW*%
X8260000Y22225000D03*
%TO.P,J7,5,Pin_5*%
%TO.N,/interface_pcb/PWM_CW*%
X10800000Y22225000D03*
%TD*%
D20*
%TO.P,J5,1,Pin_1*%
%TO.N,/interface_pcb/Freq_Switch_Output*%
X-3175000Y60960000D03*
D21*
%TO.P,J5,2,Pin_2*%
%TO.N,/interface_pcb/Freq_High*%
X-3175000Y63500000D03*
%TO.P,J5,3,Pin_3*%
%TO.N,/interface_pcb/Freq_Low*%
X-3175000Y66040000D03*
%TO.P,J5,4,Pin_4*%
%TO.N,/interface_pcb/SMTS_OneShot*%
X-3175000Y68580000D03*
%TO.P,J5,5,Pin_5*%
%TO.N,/interface_pcb/SMTS_Output*%
X-3175000Y71120000D03*
%TO.P,J5,6,Pin_6*%
%TO.N,/interface_pcb/0V*%
X-3175000Y73660000D03*
%TD*%
D20*
%TO.P,J1,1,Pin_1*%
%TO.N,/interface_pcb/Triangle_LEDAnode*%
X18732500Y-8255000D03*
D21*
%TO.P,J1,2,Pin_2*%
%TO.N,/interface_pcb/Triangle_LEDCathode*%
X16192500Y-8255000D03*
%TO.P,J1,3,Pin_3*%
%TO.N,/interface_pcb/Triangle*%
X13652500Y-8255000D03*
%TO.P,J1,4,Pin_4*%
%TO.N,/interface_pcb/Sine_LEDAnode*%
X11112500Y-8255000D03*
%TO.P,J1,5,Pin_5*%
%TO.N,/interface_pcb/Sine_LEDCathode*%
X8572500Y-8255000D03*
%TO.P,J1,6,Pin_6*%
%TO.N,/interface_pcb/Sine*%
X6032500Y-8255000D03*
%TD*%
D20*
%TO.P,J3,1,Pin_1*%
%TO.N,/interface_pcb/Saw_LEDAnode*%
X-7302500Y12065000D03*
D21*
%TO.P,J3,2,Pin_2*%
%TO.N,/interface_pcb/Saw_LEDCathode*%
X-7302500Y9525000D03*
%TO.P,J3,3,Pin_3*%
%TO.N,/interface_pcb/Saw*%
X-7302500Y6985000D03*
%TO.P,J3,4,Pin_4*%
%TO.N,/interface_pcb/Square_LEDAnode*%
X-7302500Y4445000D03*
%TO.P,J3,5,Pin_5*%
%TO.N,/interface_pcb/Square_LEDCathode*%
X-7302500Y1905000D03*
%TO.P,J3,6,Pin_6*%
%TO.N,/interface_pcb/Square*%
X-7302500Y-635000D03*
%TD*%
D20*
%TO.P,J9,1,Pin_1*%
%TO.N,/interface_pcb/CV_in*%
X14605000Y72390000D03*
D21*
%TO.P,J9,2,Pin_2*%
%TO.N,/interface_pcb/Trigger_input*%
X14605000Y69850000D03*
%TO.P,J9,3,Pin_3*%
%TO.N,/interface_pcb/Freq_Wiper*%
X14605000Y67310000D03*
%TO.P,J9,4,Pin_4*%
%TO.N,/interface_pcb/Freq_CCW*%
X14605000Y64770000D03*
%TO.P,J9,5,Pin_5*%
%TO.N,/interface_pcb/Freq_CW*%
X14605000Y62230000D03*
%TD*%
D22*
%TO.N,/interface_pcb/PWM_Wiper*%
X7625000Y24130000D02*
X11434200Y24130000D01*
%TO.N,/interface_pcb/Saw_LEDCathode*%
X-7035938Y9258438D02*
X-7302500Y9525000D01*
X1320939Y9258438D02*
X-7035938Y9258438D01*
%TO.N,/interface_pcb/Saw_LEDAnode*%
X576989Y11054489D02*
X0Y10477500D01*
X0Y10477500D02*
X-5715000Y10477500D01*
X3116990Y11054489D02*
X576989Y11054489D01*
X-5715000Y10477500D02*
X-7302500Y12065000D01*
%TO.N,/interface_pcb/Triangle_LEDCathode*%
X14605000Y1270000D02*
X16560939Y3225939D01*
X14605000Y-6667500D02*
X14605000Y1270000D01*
X16192500Y-8255000D02*
X14605000Y-6667500D01*
X16560939Y3225939D02*
X16560939Y9258438D01*
%TO.N,/interface_pcb/Triangle_LEDAnode*%
X18732500Y-5326111D02*
X16766749Y-3360360D01*
X16766749Y-2283251D02*
X18356990Y-693010D01*
X18732500Y-8255000D02*
X18732500Y-5326111D01*
X16766749Y-3360360D02*
X16766749Y-2283251D01*
X18356990Y-693010D02*
X18356990Y11054489D01*
%TO.N,/interface_pcb/Triangle*%
X13652500Y-8255000D02*
X13652500Y-317500D01*
X11112500Y9565000D02*
X13335000Y11787500D01*
X13652500Y-317500D02*
X11112500Y2222500D01*
X11112500Y2222500D02*
X11112500Y9565000D01*
%TO.N,/interface_pcb/Square*%
X-1905000Y-2500000D02*
X-5437500Y-2500000D01*
X-5437500Y-2500000D02*
X-7302500Y-635000D01*
%TO.N,/interface_pcb/SMTS_OneShot*%
X-1587500Y62270000D02*
X-1587500Y66992500D01*
X13335000Y47347500D02*
X-1587500Y62270000D01*
X-1587500Y66992500D02*
X-3175000Y68580000D01*
%TO.N,/interface_pcb/SMTS_Output*%
X-3175000Y71120000D02*
X-1016000Y68961000D01*
X-1016000Y62611000D02*
X11747500Y49847500D01*
X11747500Y49847500D02*
X13335000Y49847500D01*
X-1016000Y68961000D02*
X-1016000Y62611000D01*
%TO.N,/interface_pcb/PWM_Wiper*%
X11434200Y24130000D02*
X13335000Y26030800D01*
X5720000Y22225000D02*
X7625000Y24130000D01*
%TO.N,/interface_pcb/Freq_CCW*%
X8215000Y71160000D02*
X14605000Y64770000D01*
X8215000Y72076700D02*
X8215000Y71160000D01*
%TD*%
%TA.AperFunction,Conductor*%
%TO.N,/interface_pcb/0V*%
G36*
X20078691Y84235593D02*
G01*
X20114655Y84186093D01*
X20119500Y84155500D01*
X20119500Y33319682D01*
X20100593Y33261491D01*
X20051093Y33225527D01*
X19989907Y33225527D01*
X19940407Y33261491D01*
X19922075Y33312205D01*
X19921991Y33312194D01*
X19921941Y33312575D01*
X19921712Y33313208D01*
X19921568Y33315410D01*
X19921567Y33315415D01*
X19921356Y33318639D01*
X19865081Y33601553D01*
X19772359Y33874702D01*
X19644778Y34133411D01*
X19484520Y34373254D01*
X19294327Y34590127D01*
X19077454Y34780320D01*
X19026160Y34814594D01*
X18840315Y34938771D01*
X18837611Y34940578D01*
X18578902Y35068159D01*
X18305753Y35160881D01*
X18022839Y35217156D01*
X18019617Y35217367D01*
X18019611Y35217368D01*
X17738234Y35235810D01*
X17735000Y35236022D01*
X17731766Y35235810D01*
X17450389Y35217368D01*
X17450383Y35217367D01*
X17447161Y35217156D01*
X17164247Y35160881D01*
X16891098Y35068159D01*
X16632389Y34940578D01*
X16629685Y34938771D01*
X16443841Y34814594D01*
X16392546Y34780320D01*
X16175673Y34590127D01*
X15985480Y34373254D01*
X15825222Y34133411D01*
X15697641Y33874702D01*
X15604919Y33601553D01*
X15548644Y33318639D01*
X15548433Y33315417D01*
X15548432Y33315411D01*
X15544898Y33261491D01*
X15529778Y33030800D01*
X15529990Y33027566D01*
X15548223Y32749390D01*
X15548644Y32742961D01*
X15604919Y32460047D01*
X15697641Y32186898D01*
X15825222Y31928189D01*
X15985480Y31688346D01*
X16175673Y31471473D01*
X16392546Y31281280D01*
X16632389Y31121022D01*
X16891098Y30993441D01*
X17164247Y30900719D01*
X17447161Y30844444D01*
X17450383Y30844233D01*
X17450389Y30844232D01*
X17731766Y30825790D01*
X17735000Y30825578D01*
X17738234Y30825790D01*
X18019611Y30844232D01*
X18019617Y30844233D01*
X18022839Y30844444D01*
X18305753Y30900719D01*
X18578902Y30993441D01*
X18837611Y31121022D01*
X19077454Y31281280D01*
X19294327Y31471473D01*
X19484520Y31688346D01*
X19644778Y31928189D01*
X19772359Y32186898D01*
X19865081Y32460047D01*
X19921356Y32742961D01*
X19921712Y32748392D01*
X19921929Y32748936D01*
X19921991Y32749406D01*
X19922110Y32749390D01*
X19944384Y32805222D01*
X19996130Y32837872D01*
X20057185Y32833870D01*
X20104227Y32794746D01*
X20119500Y32741918D01*
X20119500Y-9543000D01*
X20100593Y-9601191D01*
X20051093Y-9637155D01*
X20020500Y-9642000D01*
X-8590500Y-9642000D01*
X-8648691Y-9623093D01*
X-8684655Y-9573593D01*
X-8689500Y-9543000D01*
X-8689500Y-8240262D01*
X4977020Y-8240262D01*
X4994259Y-8445553D01*
X5051044Y-8643586D01*
X5145212Y-8826818D01*
X5273177Y-8988270D01*
X5276857Y-8991402D01*
X5276859Y-8991404D01*
X5389517Y-9087283D01*
X5430064Y-9121791D01*
X5434287Y-9124151D01*
X5434291Y-9124154D01*
X5473842Y-9146258D01*
X5609898Y-9222297D01*
X5614496Y-9223791D01*
X5801224Y-9284463D01*
X5801226Y-9284464D01*
X5805829Y-9285959D01*
X6010394Y-9310351D01*
X6015216Y-9309980D01*
X6015219Y-9309980D01*
X6085759Y-9304552D01*
X6215800Y-9294546D01*
X6414225Y-9239145D01*
X6418538Y-9236966D01*
X6418544Y-9236964D01*
X6593789Y-9148441D01*
X6593791Y-9148440D01*
X6598110Y-9146258D01*
X6633443Y-9118653D01*
X6756635Y-9022406D01*
X6756639Y-9022402D01*
X6760451Y-9019424D01*
X6895064Y-8863472D01*
X6913731Y-8830613D01*
X6994434Y-8688550D01*
X6994435Y-8688547D01*
X6996823Y-8684344D01*
X7010382Y-8643586D01*
X7060324Y-8493454D01*
X7060324Y-8493452D01*
X7061851Y-8488863D01*
X7087671Y-8284474D01*
X7088083Y-8255000D01*
X7086638Y-8240262D01*
X7517020Y-8240262D01*
X7534259Y-8445553D01*
X7591044Y-8643586D01*
X7685212Y-8826818D01*
X7813177Y-8988270D01*
X7816857Y-8991402D01*
X7816859Y-8991404D01*
X7929517Y-9087283D01*
X7970064Y-9121791D01*
X7974287Y-9124151D01*
X7974291Y-9124154D01*
X8013842Y-9146258D01*
X8149898Y-9222297D01*
X8154496Y-9223791D01*
X8341224Y-9284463D01*
X8341226Y-9284464D01*
X8345829Y-9285959D01*
X8550394Y-9310351D01*
X8555216Y-9309980D01*
X8555219Y-9309980D01*
X8625759Y-9304552D01*
X8755800Y-9294546D01*
X8954225Y-9239145D01*
X8958538Y-9236966D01*
X8958544Y-9236964D01*
X9133789Y-9148441D01*
X9133791Y-9148440D01*
X9138110Y-9146258D01*
X9173443Y-9118653D01*
X9296635Y-9022406D01*
X9296639Y-9022402D01*
X9300451Y-9019424D01*
X9435064Y-8863472D01*
X9453731Y-8830613D01*
X9534434Y-8688550D01*
X9534435Y-8688547D01*
X9536823Y-8684344D01*
X9550382Y-8643586D01*
X9600324Y-8493454D01*
X9600324Y-8493452D01*
X9601851Y-8488863D01*
X9627671Y-8284474D01*
X9628083Y-8255000D01*
X9626638Y-8240262D01*
X10057020Y-8240262D01*
X10074259Y-8445553D01*
X10131044Y-8643586D01*
X10225212Y-8826818D01*
X10353177Y-8988270D01*
X10356857Y-8991402D01*
X10356859Y-8991404D01*
X10469517Y-9087283D01*
X10510064Y-9121791D01*
X10514287Y-9124151D01*
X10514291Y-9124154D01*
X10553842Y-9146258D01*
X10689898Y-9222297D01*
X10694496Y-9223791D01*
X10881224Y-9284463D01*
X10881226Y-9284464D01*
X10885829Y-9285959D01*
X11090394Y-9310351D01*
X11095216Y-9309980D01*
X11095219Y-9309980D01*
X11165759Y-9304552D01*
X11295800Y-9294546D01*
X11494225Y-9239145D01*
X11498538Y-9236966D01*
X11498544Y-9236964D01*
X11673789Y-9148441D01*
X11673791Y-9148440D01*
X11678110Y-9146258D01*
X11713443Y-9118653D01*
X11836635Y-9022406D01*
X11836639Y-9022402D01*
X11840451Y-9019424D01*
X11975064Y-8863472D01*
X11993731Y-8830613D01*
X12074434Y-8688550D01*
X12074435Y-8688547D01*
X12076823Y-8684344D01*
X12090382Y-8643586D01*
X12140324Y-8493454D01*
X12140324Y-8493452D01*
X12141851Y-8488863D01*
X12167671Y-8284474D01*
X12168083Y-8255000D01*
X12147980Y-8049970D01*
X12088435Y-7852749D01*
X11991718Y-7670849D01*
X11861511Y-7511200D01*
X11715139Y-7390110D01*
X11706502Y-7382965D01*
X11706500Y-7382964D01*
X11702775Y-7379882D01*
X11521555Y-7281897D01*
X11436923Y-7255699D01*
X11329375Y-7222407D01*
X11329371Y-7222406D01*
X11324754Y-7220977D01*
X11319946Y-7220472D01*
X11319943Y-7220471D01*
X11124685Y-7199949D01*
X11124683Y-7199949D01*
X11119869Y-7199443D01*
X11064300Y-7204500D01*
X10919522Y-7217675D01*
X10919517Y-7217676D01*
X10914703Y-7218114D01*
X10717072Y-7276280D01*
X10712788Y-7278519D01*
X10712787Y-7278520D01*
X10701928Y-7284197D01*
X10534502Y-7371726D01*
X10530731Y-7374758D01*
X10377720Y-7497781D01*
X10377717Y-7497783D01*
X10373947Y-7500815D01*
X10370833Y-7504526D01*
X10370832Y-7504527D01*
X10362085Y-7514952D01*
X10241524Y-7658630D01*
X10239189Y-7662878D01*
X10239188Y-7662879D01*
X10232455Y-7675126D01*
X10142276Y-7839162D01*
X10079984Y-8035532D01*
X10079444Y-8040344D01*
X10079444Y-8040345D01*
X10078365Y-8049970D01*
X10057020Y-8240262D01*
X9626638Y-8240262D01*
X9607980Y-8049970D01*
X9548435Y-7852749D01*
X9451718Y-7670849D01*
X9321511Y-7511200D01*
X9175139Y-7390110D01*
X9166502Y-7382965D01*
X9166500Y-7382964D01*
X9162775Y-7379882D01*
X8981555Y-7281897D01*
X8896923Y-7255699D01*
X8789375Y-7222407D01*
X8789371Y-7222406D01*
X8784754Y-7220977D01*
X8779946Y-7220472D01*
X8779943Y-7220471D01*
X8584685Y-7199949D01*
X8584683Y-7199949D01*
X8579869Y-7199443D01*
X8524300Y-7204500D01*
X8379522Y-7217675D01*
X8379517Y-7217676D01*
X8374703Y-7218114D01*
X8177072Y-7276280D01*
X8172788Y-7278519D01*
X8172787Y-7278520D01*
X8161928Y-7284197D01*
X7994502Y-7371726D01*
X7990731Y-7374758D01*
X7837720Y-7497781D01*
X7837717Y-7497783D01*
X7833947Y-7500815D01*
X7830833Y-7504526D01*
X7830832Y-7504527D01*
X7822085Y-7514952D01*
X7701524Y-7658630D01*
X7699189Y-7662878D01*
X7699188Y-7662879D01*
X7692455Y-7675126D01*
X7602276Y-7839162D01*
X7539984Y-8035532D01*
X7539444Y-8040344D01*
X7539444Y-8040345D01*
X7538365Y-8049970D01*
X7517020Y-8240262D01*
X7086638Y-8240262D01*
X7067980Y-8049970D01*
X7008435Y-7852749D01*
X6911718Y-7670849D01*
X6781511Y-7511200D01*
X6635139Y-7390110D01*
X6626502Y-7382965D01*
X6626500Y-7382964D01*
X6622775Y-7379882D01*
X6441555Y-7281897D01*
X6356923Y-7255699D01*
X6249375Y-7222407D01*
X6249371Y-7222406D01*
X6244754Y-7220977D01*
X6239946Y-7220472D01*
X6239943Y-7220471D01*
X6044685Y-7199949D01*
X6044683Y-7199949D01*
X6039869Y-7199443D01*
X5984300Y-7204500D01*
X5839522Y-7217675D01*
X5839517Y-7217676D01*
X5834703Y-7218114D01*
X5637072Y-7276280D01*
X5632788Y-7278519D01*
X5632787Y-7278520D01*
X5621928Y-7284197D01*
X5454502Y-7371726D01*
X5450731Y-7374758D01*
X5297720Y-7497781D01*
X5297717Y-7497783D01*
X5293947Y-7500815D01*
X5290833Y-7504526D01*
X5290832Y-7504527D01*
X5282085Y-7514952D01*
X5161524Y-7658630D01*
X5159189Y-7662878D01*
X5159188Y-7662879D01*
X5152455Y-7675126D01*
X5062276Y-7839162D01*
X4999984Y-8035532D01*
X4999444Y-8040344D01*
X4999444Y-8040345D01*
X4998365Y-8049970D01*
X4977020Y-8240262D01*
X-8689500Y-8240262D01*
X-8689500Y-5029062D01*
X-156281Y-5029062D01*
X-140720Y-5107293D01*
X-107592Y-5156873D01*
X1193128Y-6457593D01*
X1242708Y-6490721D01*
X1320939Y-6506282D01*
X1330501Y-6504380D01*
X1389608Y-6492623D01*
X1399170Y-6490721D01*
X1448750Y-6457593D01*
X2749470Y-5156873D01*
X2782598Y-5107293D01*
X2798159Y-5029062D01*
X2782598Y-4950831D01*
X2749470Y-4901251D01*
X1448750Y-3600531D01*
X1399170Y-3567403D01*
X1320939Y-3551842D01*
X1242708Y-3567403D01*
X1193128Y-3600531D01*
X-107592Y-4901251D01*
X-140720Y-4950831D01*
X-156281Y-5029062D01*
X-8689500Y-5029062D01*
X-8689500Y-620262D01*
X-8357980Y-620262D01*
X-8357575Y-625082D01*
X-8342378Y-806055D01*
X-8340741Y-825553D01*
X-8339408Y-830201D01*
X-8339408Y-830202D01*
X-8305655Y-947911D01*
X-8283956Y-1023586D01*
X-8189788Y-1206818D01*
X-8061823Y-1368270D01*
X-8058143Y-1371402D01*
X-8058141Y-1371404D01*
X-8024100Y-1400375D01*
X-7904936Y-1501791D01*
X-7900713Y-1504151D01*
X-7900709Y-1504154D01*
X-7840701Y-1537691D01*
X-7725102Y-1602297D01*
X-7720504Y-1603791D01*
X-7533776Y-1664463D01*
X-7533774Y-1664464D01*
X-7529171Y-1665959D01*
X-7324606Y-1690351D01*
X-7319784Y-1689980D01*
X-7319781Y-1689980D01*
X-7245719Y-1684281D01*
X-7119200Y-1674546D01*
X-6920775Y-1619145D01*
X-6890336Y-1603769D01*
X-6829871Y-1594408D01*
X-6775695Y-1622131D01*
X-6227621Y-2170206D01*
X-5680758Y-2717069D01*
X-5674935Y-2723424D01*
X-5649955Y-2753194D01*
X-5616281Y-2772636D01*
X-5609025Y-2777259D01*
X-5577184Y-2799554D01*
X-5568822Y-2801795D01*
X-5563540Y-2804258D01*
X-5558046Y-2806257D01*
X-5550545Y-2810588D01*
X-5512272Y-2817337D01*
X-5503844Y-2819206D01*
X-5474673Y-2827022D01*
X-5474670Y-2827022D01*
X-5466307Y-2829263D01*
X-5427604Y-2825877D01*
X-5418975Y-2825500D01*
X-3599988Y-2825500D01*
X-3541797Y-2844407D01*
X-3515668Y-2872624D01*
X-3439794Y-2995955D01*
X-3435926Y-2999904D01*
X-3435926Y-2999905D01*
X-3404886Y-3031602D01*
X-3314141Y-3124268D01*
X-3163183Y-3221554D01*
X-2994422Y-3282978D01*
X-2855717Y-3300500D01*
X-959845Y-3300500D01*
X-957091Y-3300191D01*
X-957089Y-3300191D01*
X-929709Y-3297120D01*
X-826528Y-3285546D01*
X-684032Y-3235924D01*
X-662153Y-3228305D01*
X-662152Y-3228305D01*
X-656927Y-3226485D01*
X-621072Y-3204080D01*
X2012154Y-3204080D01*
X2013742Y-3228305D01*
X2021964Y-3353749D01*
X2025382Y-3405905D01*
X2026498Y-3410298D01*
X2026498Y-3410300D01*
X2031726Y-3430885D01*
X2075168Y-3601939D01*
X2159846Y-3785618D01*
X2276578Y-3950791D01*
X2421456Y-4091924D01*
X2589627Y-4204293D01*
X2775460Y-4284133D01*
X2972730Y-4328771D01*
X3174832Y-4336711D01*
X3228367Y-4328949D01*
X3370509Y-4308340D01*
X3370512Y-4308339D01*
X3374997Y-4307689D01*
X3511922Y-4261209D01*
X3562224Y-4244134D01*
X3562227Y-4244132D01*
X3566521Y-4242675D01*
X3742991Y-4143848D01*
X3898495Y-4014516D01*
X4027827Y-3859012D01*
X4126654Y-3682542D01*
X4191668Y-3491018D01*
X4220690Y-3290853D01*
X4222205Y-3233011D01*
X4221606Y-3226485D01*
X4204113Y-3036120D01*
X4203698Y-3031602D01*
X4148797Y-2836937D01*
X4143908Y-2827022D01*
X4082451Y-2702400D01*
X4059341Y-2655538D01*
X3938325Y-2493478D01*
X3789802Y-2356185D01*
X3767115Y-2341870D01*
X3622584Y-2250678D01*
X3618747Y-2248257D01*
X3430888Y-2173309D01*
X3232516Y-2133850D01*
X3132920Y-2132546D01*
X3034816Y-2131262D01*
X3034811Y-2131262D01*
X3030276Y-2131203D01*
X3025803Y-2131972D01*
X3025798Y-2131972D01*
X2947048Y-2145504D01*
X2830939Y-2165455D01*
X2641183Y-2235460D01*
X2467361Y-2338873D01*
X2463946Y-2341868D01*
X2463943Y-2341870D01*
X2396639Y-2400894D01*
X2315295Y-2472231D01*
X2190079Y-2631068D01*
X2095904Y-2810064D01*
X2094559Y-2814395D01*
X2094558Y-2814398D01*
X2076479Y-2872625D01*
X2035927Y-3003224D01*
X2012154Y-3204080D01*
X-621072Y-3204080D01*
X-517882Y-3139600D01*
X-509315Y-3134247D01*
X-509313Y-3134245D01*
X-504625Y-3131316D01*
X-377193Y-3004770D01*
X-374226Y-3000095D01*
X-283929Y-2857810D01*
X-283928Y-2857809D01*
X-280963Y-2853136D01*
X-271256Y-2825877D01*
X-234779Y-2723437D01*
X-220719Y-2683951D01*
X-217816Y-2659610D01*
X-200110Y-2511120D01*
X-200110Y-2511117D01*
X-199455Y-2505624D01*
X-218227Y-2327017D01*
X-220011Y-2321776D01*
X-274318Y-2162249D01*
X-274320Y-2162245D01*
X-276103Y-2157007D01*
X-279001Y-2152297D01*
X-279003Y-2152292D01*
X-367309Y-2008754D01*
X-370206Y-2004045D01*
X-495859Y-1875732D01*
X-646817Y-1778446D01*
X-815578Y-1717022D01*
X-954283Y-1699500D01*
X-2850155Y-1699500D01*
X-2852909Y-1699809D01*
X-2852911Y-1699809D01*
X-2880291Y-1702880D01*
X-2983472Y-1714454D01*
X-2988704Y-1716276D01*
X-3142106Y-1769696D01*
X-3153073Y-1773515D01*
X-3157766Y-1776447D01*
X-3157765Y-1776447D01*
X-3300685Y-1865753D01*
X-3300687Y-1865755D01*
X-3305375Y-1868684D01*
X-3432807Y-1995230D01*
X-3435773Y-1999904D01*
X-3435774Y-1999905D01*
X-3517413Y-2128547D01*
X-3564557Y-2167548D01*
X-3601001Y-2174500D01*
X-5261665Y-2174500D01*
X-5319856Y-2155593D01*
X-5331669Y-2145504D01*
X-6313577Y-1163597D01*
X-6341354Y-1109080D01*
X-6337512Y-1062344D01*
X-6331603Y-1044583D01*
X-5305000Y-1044583D01*
X-5304730Y-1049728D01*
X-5290724Y-1182990D01*
X-5288577Y-1193090D01*
X-5233324Y-1363140D01*
X-5229125Y-1372572D01*
X-5139719Y-1527429D01*
X-5133654Y-1535776D01*
X-5014006Y-1668658D01*
X-5006335Y-1675565D01*
X-4861676Y-1780666D01*
X-4852741Y-1785825D01*
X-4689387Y-1858555D01*
X-4679575Y-1861743D01*
X-4520338Y-1895591D01*
X-4507250Y-1894215D01*
X-4505000Y-1885818D01*
X-4505000Y-1883171D01*
X-4305000Y-1883171D01*
X-4300933Y-1895687D01*
X-4292254Y-1896142D01*
X-4130425Y-1861743D01*
X-4120613Y-1858555D01*
X-3957256Y-1785824D01*
X-3948331Y-1780671D01*
X-3803659Y-1675560D01*
X-3795996Y-1668661D01*
X-3676346Y-1535776D01*
X-3670281Y-1527429D01*
X-3580875Y-1372572D01*
X-3576676Y-1363140D01*
X-3521423Y-1193090D01*
X-3519276Y-1182990D01*
X-3505270Y-1049728D01*
X-3505000Y-1044583D01*
X-3505000Y-945155D01*
X10034500Y-945155D01*
X10049454Y-1078472D01*
X10051276Y-1083704D01*
X10094149Y-1206818D01*
X10108515Y-1248073D01*
X10117738Y-1262833D01*
X10186311Y-1372572D01*
X10203684Y-1400375D01*
X10330230Y-1527807D01*
X10334904Y-1530773D01*
X10334905Y-1530774D01*
X10470719Y-1616964D01*
X10481864Y-1624037D01*
X10651049Y-1684281D01*
X10656536Y-1684935D01*
X10656539Y-1684936D01*
X10823880Y-1704890D01*
X10823883Y-1704890D01*
X10829376Y-1705545D01*
X11007983Y-1686773D01*
X11013223Y-1684989D01*
X11013224Y-1684989D01*
X11172751Y-1630682D01*
X11172755Y-1630680D01*
X11177993Y-1628897D01*
X11182703Y-1625999D01*
X11182708Y-1625997D01*
X11326246Y-1537691D01*
X11330955Y-1534794D01*
X11459268Y-1409141D01*
X11556554Y-1258183D01*
X11617978Y-1089422D01*
X11635500Y-950717D01*
X11635500Y945155D01*
X11629866Y995381D01*
X11642169Y1055316D01*
X11687351Y1096573D01*
X11748155Y1103394D01*
X11798253Y1076420D01*
X13298004Y-423331D01*
X13325781Y-477848D01*
X13327000Y-493335D01*
X13327000Y-7181761D01*
X13308093Y-7239952D01*
X13265083Y-7273553D01*
X13261716Y-7274913D01*
X13257072Y-7276280D01*
X13252787Y-7278520D01*
X13252785Y-7278521D01*
X13240771Y-7284802D01*
X13074502Y-7371726D01*
X13070731Y-7374758D01*
X12917720Y-7497781D01*
X12917717Y-7497783D01*
X12913947Y-7500815D01*
X12910833Y-7504526D01*
X12910832Y-7504527D01*
X12902085Y-7514952D01*
X12781524Y-7658630D01*
X12779189Y-7662878D01*
X12779188Y-7662879D01*
X12772455Y-7675126D01*
X12682276Y-7839162D01*
X12619984Y-8035532D01*
X12619444Y-8040344D01*
X12619444Y-8040345D01*
X12618365Y-8049970D01*
X12597020Y-8240262D01*
X12614259Y-8445553D01*
X12671044Y-8643586D01*
X12765212Y-8826818D01*
X12893177Y-8988270D01*
X12896857Y-8991402D01*
X12896859Y-8991404D01*
X13009517Y-9087283D01*
X13050064Y-9121791D01*
X13054287Y-9124151D01*
X13054291Y-9124154D01*
X13093842Y-9146258D01*
X13229898Y-9222297D01*
X13234496Y-9223791D01*
X13421224Y-9284463D01*
X13421226Y-9284464D01*
X13425829Y-9285959D01*
X13630394Y-9310351D01*
X13635216Y-9309980D01*
X13635219Y-9309980D01*
X13705759Y-9304552D01*
X13835800Y-9294546D01*
X14034225Y-9239145D01*
X14038538Y-9236966D01*
X14038544Y-9236964D01*
X14213789Y-9148441D01*
X14213791Y-9148440D01*
X14218110Y-9146258D01*
X14253443Y-9118653D01*
X14376635Y-9022406D01*
X14376639Y-9022402D01*
X14380451Y-9019424D01*
X14515064Y-8863472D01*
X14533731Y-8830613D01*
X14614434Y-8688550D01*
X14614435Y-8688547D01*
X14616823Y-8684344D01*
X14630382Y-8643586D01*
X14680324Y-8493454D01*
X14680324Y-8493452D01*
X14681851Y-8488863D01*
X14707671Y-8284474D01*
X14708083Y-8255000D01*
X14687980Y-8049970D01*
X14628435Y-7852749D01*
X14531718Y-7670849D01*
X14401511Y-7511200D01*
X14255139Y-7390110D01*
X14246502Y-7382965D01*
X14246500Y-7382964D01*
X14242775Y-7379882D01*
X14061555Y-7281897D01*
X14047726Y-7277616D01*
X13997729Y-7242349D01*
X13978000Y-7183044D01*
X13978000Y-336022D01*
X13978377Y-327393D01*
X13981008Y-297322D01*
X13981763Y-288693D01*
X13971705Y-251157D01*
X13969837Y-242731D01*
X13964932Y-214915D01*
X13963088Y-204455D01*
X13958755Y-196950D01*
X13956762Y-191473D01*
X13954295Y-186182D01*
X13952053Y-177816D01*
X13929764Y-145984D01*
X13925128Y-138706D01*
X13910024Y-112544D01*
X13910023Y-112542D01*
X13905694Y-105045D01*
X13875936Y-80075D01*
X13869568Y-74241D01*
X12364330Y1430997D01*
X12336553Y1485513D01*
X12346124Y1545945D01*
X12389389Y1589210D01*
X12434334Y1600000D01*
X13219320Y1600000D01*
X13232005Y1604122D01*
X13235000Y1608243D01*
X13235000Y1615680D01*
X13435000Y1615680D01*
X13439122Y1602995D01*
X13443243Y1600000D01*
X14248198Y1600000D01*
X14306389Y1581093D01*
X14342353Y1531593D01*
X14342353Y1470407D01*
X14333931Y1451494D01*
X14332369Y1448789D01*
X14327732Y1441511D01*
X14305446Y1409684D01*
X14303204Y1401316D01*
X14300738Y1396029D01*
X14298742Y1390544D01*
X14294412Y1383045D01*
X14292909Y1374519D01*
X14292908Y1374517D01*
X14287666Y1344784D01*
X14285796Y1336350D01*
X14275736Y1298807D01*
X14276491Y1290178D01*
X14279123Y1260095D01*
X14279500Y1251466D01*
X14279500Y-6648966D01*
X14279123Y-6657595D01*
X14275736Y-6696307D01*
X14277978Y-6704674D01*
X14285796Y-6733849D01*
X14287666Y-6742283D01*
X14294412Y-6780545D01*
X14298742Y-6788044D01*
X14300738Y-6793529D01*
X14303204Y-6798816D01*
X14305446Y-6807184D01*
X14326013Y-6836556D01*
X14327732Y-6839011D01*
X14332371Y-6846292D01*
X14351806Y-6879955D01*
X14381571Y-6904931D01*
X14387939Y-6910765D01*
X15203459Y-7726285D01*
X15231236Y-7780802D01*
X15224463Y-7835184D01*
X15222276Y-7839162D01*
X15159984Y-8035532D01*
X15159444Y-8040344D01*
X15159444Y-8040345D01*
X15158365Y-8049970D01*
X15137020Y-8240262D01*
X15154259Y-8445553D01*
X15211044Y-8643586D01*
X15305212Y-8826818D01*
X15433177Y-8988270D01*
X15436857Y-8991402D01*
X15436859Y-8991404D01*
X15549517Y-9087283D01*
X15590064Y-9121791D01*
X15594287Y-9124151D01*
X15594291Y-9124154D01*
X15633842Y-9146258D01*
X15769898Y-9222297D01*
X15774496Y-9223791D01*
X15961224Y-9284463D01*
X15961226Y-9284464D01*
X15965829Y-9285959D01*
X16170394Y-9310351D01*
X16175216Y-9309980D01*
X16175219Y-9309980D01*
X16245759Y-9304552D01*
X16375800Y-9294546D01*
X16574225Y-9239145D01*
X16578538Y-9236966D01*
X16578544Y-9236964D01*
X16753789Y-9148441D01*
X16753791Y-9148440D01*
X16758110Y-9146258D01*
X16793443Y-9118653D01*
X16916635Y-9022406D01*
X16916639Y-9022402D01*
X16920451Y-9019424D01*
X17055064Y-8863472D01*
X17073731Y-8830613D01*
X17154434Y-8688550D01*
X17154435Y-8688547D01*
X17156823Y-8684344D01*
X17170382Y-8643586D01*
X17220324Y-8493454D01*
X17220324Y-8493452D01*
X17221851Y-8488863D01*
X17247671Y-8284474D01*
X17248083Y-8255000D01*
X17227980Y-8049970D01*
X17168435Y-7852749D01*
X17071718Y-7670849D01*
X16941511Y-7511200D01*
X16795139Y-7390110D01*
X16786502Y-7382965D01*
X16786500Y-7382964D01*
X16782775Y-7379882D01*
X16601555Y-7281897D01*
X16516923Y-7255699D01*
X16409375Y-7222407D01*
X16409371Y-7222406D01*
X16404754Y-7220977D01*
X16399946Y-7220472D01*
X16399943Y-7220471D01*
X16204685Y-7199949D01*
X16204683Y-7199949D01*
X16199869Y-7199443D01*
X16144300Y-7204500D01*
X15999522Y-7217675D01*
X15999517Y-7217676D01*
X15994703Y-7218114D01*
X15797072Y-7276280D01*
X15780771Y-7284802D01*
X15720443Y-7295007D01*
X15664899Y-7267073D01*
X14959496Y-6561670D01*
X14931719Y-6507153D01*
X14930500Y-6491666D01*
X14930500Y-1308444D01*
X14949407Y-1250253D01*
X14998907Y-1214289D01*
X15060093Y-1214289D01*
X15109593Y-1250253D01*
X15113457Y-1255982D01*
X15186311Y-1372572D01*
X15203684Y-1400375D01*
X15330230Y-1527807D01*
X15334904Y-1530773D01*
X15334905Y-1530774D01*
X15470719Y-1616964D01*
X15481864Y-1624037D01*
X15651049Y-1684281D01*
X15656536Y-1684935D01*
X15656539Y-1684936D01*
X15823880Y-1704890D01*
X15823883Y-1704890D01*
X15829376Y-1705545D01*
X16007983Y-1686773D01*
X16013223Y-1684989D01*
X16013224Y-1684989D01*
X16172751Y-1630682D01*
X16172755Y-1630680D01*
X16177993Y-1628897D01*
X16182703Y-1625999D01*
X16182708Y-1625997D01*
X16326246Y-1537691D01*
X16330955Y-1534794D01*
X16459268Y-1409141D01*
X16556554Y-1258183D01*
X16617978Y-1089422D01*
X16635500Y-950717D01*
X16635500Y945155D01*
X16620546Y1078472D01*
X16561485Y1248073D01*
X16505610Y1337492D01*
X16469247Y1395685D01*
X16469245Y1395687D01*
X16466316Y1400375D01*
X16339770Y1527807D01*
X16333804Y1531593D01*
X16192810Y1621071D01*
X16192809Y1621072D01*
X16188136Y1624037D01*
X16018951Y1684281D01*
X16013464Y1684935D01*
X16013461Y1684936D01*
X15846120Y1704890D01*
X15846117Y1704890D01*
X15840624Y1705545D01*
X15786819Y1699890D01*
X15739005Y1694865D01*
X15679157Y1707587D01*
X15638216Y1753057D01*
X15631821Y1813907D01*
X15658653Y1863327D01*
X15871048Y2075721D01*
X16778008Y2982681D01*
X16784363Y2988504D01*
X16814133Y3013484D01*
X16833568Y3047147D01*
X16838208Y3054430D01*
X16855524Y3079160D01*
X16860492Y3086255D01*
X16862734Y3094621D01*
X16865201Y3099912D01*
X16867194Y3105389D01*
X16871527Y3112894D01*
X16878276Y3151170D01*
X16880145Y3159602D01*
X16890202Y3197132D01*
X16886816Y3235836D01*
X16886439Y3244464D01*
X16886439Y7986588D01*
X16905346Y8044779D01*
X16915435Y8056592D01*
X17862486Y9003643D01*
X17917003Y9031420D01*
X17977435Y9021849D01*
X18020700Y8978584D01*
X18031490Y8933639D01*
X18031490Y-517175D01*
X18012583Y-575366D01*
X18002494Y-587179D01*
X16549692Y-2039982D01*
X16543325Y-2045816D01*
X16513555Y-2070796D01*
X16509226Y-2078295D01*
X16494122Y-2104456D01*
X16489481Y-2111740D01*
X16467195Y-2143567D01*
X16464953Y-2151935D01*
X16462487Y-2157222D01*
X16460491Y-2162707D01*
X16456161Y-2170206D01*
X16454658Y-2178732D01*
X16454657Y-2178734D01*
X16449415Y-2208467D01*
X16447545Y-2216901D01*
X16437485Y-2254444D01*
X16438240Y-2263073D01*
X16440872Y-2293156D01*
X16441249Y-2301785D01*
X16441249Y-3341826D01*
X16440872Y-3350455D01*
X16437485Y-3389167D01*
X16439727Y-3397534D01*
X16447545Y-3426709D01*
X16449415Y-3435143D01*
X16456161Y-3473405D01*
X16460491Y-3480904D01*
X16462487Y-3486389D01*
X16464953Y-3491676D01*
X16467195Y-3500044D01*
X16487762Y-3529416D01*
X16489481Y-3531871D01*
X16494120Y-3539152D01*
X16513555Y-3572815D01*
X16543027Y-3597545D01*
X16543320Y-3597791D01*
X16549688Y-3603625D01*
X16699166Y-3753103D01*
X16726943Y-3807620D01*
X16717372Y-3868052D01*
X16674107Y-3911317D01*
X16627867Y-3922099D01*
X16485836Y-3920240D01*
X16485831Y-3920240D01*
X16481296Y-3920181D01*
X16476823Y-3920950D01*
X16476818Y-3920950D01*
X16378255Y-3937887D01*
X16281959Y-3954433D01*
X16092203Y-4024438D01*
X15918381Y-4127851D01*
X15914966Y-4130846D01*
X15914963Y-4130848D01*
X15834093Y-4201769D01*
X15766315Y-4261209D01*
X15763507Y-4264771D01*
X15712914Y-4328949D01*
X15641099Y-4420046D01*
X15546924Y-4599042D01*
X15545579Y-4603373D01*
X15545578Y-4603376D01*
X15529456Y-4655300D01*
X15486947Y-4792202D01*
X15463174Y-4993058D01*
X15468369Y-5072313D01*
X15475848Y-5186427D01*
X15476402Y-5194883D01*
X15477518Y-5199276D01*
X15477518Y-5199278D01*
X15502413Y-5297304D01*
X15526188Y-5390917D01*
X15610866Y-5574596D01*
X15727598Y-5739769D01*
X15872476Y-5880902D01*
X16040647Y-5993271D01*
X16226480Y-6073111D01*
X16423750Y-6117749D01*
X16625852Y-6125689D01*
X16679387Y-6117927D01*
X16821529Y-6097318D01*
X16821532Y-6097317D01*
X16826017Y-6096667D01*
X16921779Y-6064160D01*
X17013244Y-6033112D01*
X17013247Y-6033110D01*
X17017541Y-6031653D01*
X17194011Y-5932826D01*
X17349515Y-5803494D01*
X17478847Y-5647990D01*
X17577674Y-5471520D01*
X17581267Y-5460937D01*
X17623672Y-5336016D01*
X17642688Y-5279996D01*
X17671710Y-5079831D01*
X17673225Y-5021989D01*
X17672959Y-5019098D01*
X17672959Y-5019088D01*
X17668452Y-4970040D01*
X17681956Y-4910363D01*
X17727958Y-4870021D01*
X17788887Y-4864423D01*
X17837041Y-4890978D01*
X18378004Y-5431941D01*
X18405781Y-5486458D01*
X18407000Y-5501945D01*
X18407000Y-7105500D01*
X18388093Y-7163691D01*
X18338593Y-7199655D01*
X18308000Y-7204500D01*
X17862752Y-7204500D01*
X17836505Y-7209721D01*
X17813834Y-7214230D01*
X17813832Y-7214231D01*
X17804269Y-7216133D01*
X17737948Y-7260448D01*
X17693633Y-7326769D01*
X17682000Y-7385252D01*
X17682000Y-9124748D01*
X17693633Y-9183231D01*
X17737948Y-9249552D01*
X17804269Y-9293867D01*
X17813832Y-9295769D01*
X17813834Y-9295770D01*
X17836505Y-9300279D01*
X17862752Y-9305500D01*
X19602248Y-9305500D01*
X19628495Y-9300279D01*
X19651166Y-9295770D01*
X19651168Y-9295769D01*
X19660731Y-9293867D01*
X19727052Y-9249552D01*
X19771367Y-9183231D01*
X19783000Y-9124748D01*
X19783000Y-7385252D01*
X19771367Y-7326769D01*
X19727052Y-7260448D01*
X19660731Y-7216133D01*
X19651168Y-7214231D01*
X19651166Y-7214230D01*
X19628495Y-7209721D01*
X19602248Y-7204500D01*
X19157000Y-7204500D01*
X19098809Y-7185593D01*
X19062845Y-7136093D01*
X19058000Y-7105500D01*
X19058000Y-5344645D01*
X19058377Y-5336016D01*
X19061009Y-5305933D01*
X19061764Y-5297304D01*
X19058278Y-5284293D01*
X19051704Y-5259762D01*
X19049834Y-5251327D01*
X19044592Y-5221594D01*
X19044591Y-5221592D01*
X19043088Y-5213066D01*
X19038758Y-5205567D01*
X19036762Y-5200082D01*
X19034296Y-5194795D01*
X19032054Y-5186427D01*
X19009768Y-5154600D01*
X19005127Y-5147316D01*
X18990023Y-5121155D01*
X18985694Y-5113656D01*
X18955929Y-5088680D01*
X18949561Y-5082846D01*
X18576532Y-4709817D01*
X18548755Y-4655300D01*
X18558326Y-4594868D01*
X18576532Y-4569809D01*
X19792592Y-3353749D01*
X19825720Y-3304169D01*
X19841281Y-3225938D01*
X19825720Y-3147707D01*
X19792592Y-3098127D01*
X18491872Y-1797407D01*
X18442292Y-1764279D01*
X18364061Y-1748718D01*
X18285830Y-1764279D01*
X18236250Y-1797407D01*
X17261253Y-2772404D01*
X17206736Y-2800181D01*
X17146304Y-2790610D01*
X17103039Y-2747345D01*
X17092249Y-2702400D01*
X17092249Y-2459085D01*
X17111156Y-2400894D01*
X17121245Y-2389081D01*
X17834762Y-1675565D01*
X18574059Y-936268D01*
X18580414Y-930445D01*
X18610184Y-905465D01*
X18629619Y-871802D01*
X18634259Y-864519D01*
X18634581Y-864060D01*
X18656543Y-832694D01*
X18658785Y-824328D01*
X18661252Y-819037D01*
X18663245Y-813560D01*
X18667578Y-806055D01*
X18674327Y-767779D01*
X18676196Y-759347D01*
X18686253Y-721817D01*
X18682867Y-683113D01*
X18682490Y-674485D01*
X18682490Y9931780D01*
X18701397Y9989971D01*
X18749668Y10025526D01*
X18802221Y10043365D01*
X18802224Y10043366D01*
X18806521Y10044825D01*
X18982991Y10143652D01*
X19138495Y10272984D01*
X19267827Y10428488D01*
X19366654Y10604958D01*
X19431668Y10796482D01*
X19435355Y10821907D01*
X19459074Y10985504D01*
X19460690Y10996647D01*
X19462205Y11054489D01*
X19461606Y11061015D01*
X19444113Y11251380D01*
X19443698Y11255898D01*
X19388797Y11450563D01*
X19299341Y11631962D01*
X19178325Y11794022D01*
X19029802Y11931315D01*
X19007115Y11945630D01*
X18862584Y12036822D01*
X18858747Y12039243D01*
X18670888Y12114191D01*
X18472516Y12153650D01*
X18372920Y12154954D01*
X18274816Y12156238D01*
X18274811Y12156238D01*
X18270276Y12156297D01*
X18265803Y12155528D01*
X18265798Y12155528D01*
X18179133Y12140636D01*
X18070939Y12122045D01*
X17881183Y12052040D01*
X17707361Y11948627D01*
X17703946Y11945632D01*
X17703943Y11945630D01*
X17687620Y11931315D01*
X17555295Y11815269D01*
X17430079Y11656432D01*
X17335904Y11477436D01*
X17334559Y11473105D01*
X17334558Y11473102D01*
X17281135Y11301048D01*
X17275927Y11284276D01*
X17265965Y11200110D01*
X17257509Y11128660D01*
X17252154Y11083420D01*
X17253742Y11059195D01*
X17262829Y10920551D01*
X17265382Y10881595D01*
X17315168Y10685561D01*
X17399846Y10501882D01*
X17516578Y10336709D01*
X17661456Y10195576D01*
X17829627Y10083207D01*
X17833805Y10081412D01*
X17971569Y10022224D01*
X18017571Y9981882D01*
X18031490Y9931264D01*
X18031490Y9583237D01*
X18012583Y9525046D01*
X17963083Y9489082D01*
X17901897Y9489082D01*
X17862486Y9513233D01*
X16688750Y10686969D01*
X16639170Y10720097D01*
X16560939Y10735658D01*
X16482708Y10720097D01*
X16433128Y10686969D01*
X15132408Y9386249D01*
X15099280Y9336669D01*
X15083719Y9258438D01*
X15099280Y9180207D01*
X15132408Y9130627D01*
X16206443Y8056592D01*
X16234220Y8002075D01*
X16235439Y7986588D01*
X16235439Y3401774D01*
X16216532Y3343583D01*
X16206443Y3331770D01*
X15403553Y2528880D01*
X15349036Y2501103D01*
X15288604Y2510674D01*
X15245339Y2553939D01*
X15235091Y2588539D01*
X15233922Y2599666D01*
X15196743Y2774575D01*
X15193555Y2784387D01*
X15120824Y2947744D01*
X15115671Y2956669D01*
X15010560Y3101341D01*
X15003661Y3109004D01*
X14870776Y3228654D01*
X14862429Y3234719D01*
X14707572Y3324125D01*
X14698140Y3328324D01*
X14528090Y3383577D01*
X14517990Y3385724D01*
X14384728Y3399730D01*
X14379583Y3400000D01*
X13450680Y3400000D01*
X13437995Y3395878D01*
X13435000Y3391757D01*
X13435000Y1615680D01*
X13235000Y1615680D01*
X13235000Y3384320D01*
X13230878Y3397005D01*
X13226757Y3400000D01*
X12290417Y3400000D01*
X12285272Y3399730D01*
X12152010Y3385724D01*
X12141910Y3383577D01*
X11971860Y3328324D01*
X11962428Y3324125D01*
X11807571Y3234719D01*
X11799224Y3228654D01*
X11666342Y3109006D01*
X11659435Y3101335D01*
X11617092Y3043055D01*
X11567592Y3007091D01*
X11506407Y3007092D01*
X11456907Y3043056D01*
X11438000Y3101246D01*
X11438000Y9389166D01*
X11456907Y9447357D01*
X11466996Y9459170D01*
X12965830Y10958004D01*
X13020347Y10985781D01*
X13035834Y10987000D01*
X14280155Y10987000D01*
X14282909Y10987309D01*
X14282911Y10987309D01*
X14310291Y10990380D01*
X14413472Y11001954D01*
X14564333Y11054489D01*
X14577847Y11059195D01*
X14577848Y11059195D01*
X14583073Y11061015D01*
X14649474Y11102507D01*
X14730685Y11153253D01*
X14730687Y11153255D01*
X14735375Y11156184D01*
X14854619Y11274599D01*
X14858879Y11278829D01*
X14858880Y11278831D01*
X14862807Y11282730D01*
X14865774Y11287405D01*
X14956071Y11429690D01*
X14956072Y11429691D01*
X14959037Y11434364D01*
X14975803Y11481447D01*
X15017426Y11598340D01*
X15019281Y11603549D01*
X15022184Y11627890D01*
X15039890Y11776380D01*
X15039890Y11776383D01*
X15040545Y11781876D01*
X15021773Y11960483D01*
X14994961Y12039243D01*
X14965682Y12125251D01*
X14965680Y12125255D01*
X14963897Y12130493D01*
X14960999Y12135203D01*
X14960997Y12135208D01*
X14872691Y12278746D01*
X14869794Y12283455D01*
X14744141Y12411768D01*
X14593183Y12509054D01*
X14424422Y12570478D01*
X14285717Y12588000D01*
X12389845Y12588000D01*
X12387091Y12587691D01*
X12387089Y12587691D01*
X12359709Y12584620D01*
X12256528Y12573046D01*
X12086927Y12513985D01*
X12082234Y12511053D01*
X12082235Y12511053D01*
X11939315Y12421747D01*
X11939313Y12421745D01*
X11934625Y12418816D01*
X11807193Y12292270D01*
X11804227Y12287596D01*
X11804226Y12287595D01*
X11718660Y12152764D01*
X11710963Y12140636D01*
X11709107Y12135425D01*
X11709107Y12135424D01*
X11704343Y12122045D01*
X11650719Y11971451D01*
X11650065Y11965964D01*
X11650064Y11965961D01*
X11631671Y11811707D01*
X11629455Y11793124D01*
X11648227Y11614517D01*
X11650011Y11609277D01*
X11650011Y11609276D01*
X11695782Y11474826D01*
X11706103Y11444507D01*
X11709001Y11439797D01*
X11709003Y11439792D01*
X11787615Y11312012D01*
X11800206Y11291545D01*
X11804074Y11287596D01*
X11804074Y11287595D01*
X11835114Y11255898D01*
X11925859Y11163232D01*
X11966922Y11136769D01*
X12020086Y11102507D01*
X12058757Y11055092D01*
X12062173Y10994002D01*
X12036461Y10949287D01*
X10895443Y9808269D01*
X10889076Y9802435D01*
X10859306Y9777455D01*
X10839873Y9743795D01*
X10835232Y9736511D01*
X10812946Y9704684D01*
X10810704Y9696316D01*
X10808238Y9691029D01*
X10806242Y9685544D01*
X10801912Y9678045D01*
X10800409Y9669519D01*
X10800408Y9669517D01*
X10795166Y9639784D01*
X10793296Y9631350D01*
X10783236Y9593807D01*
X10783991Y9585178D01*
X10786623Y9555095D01*
X10787000Y9546466D01*
X10787000Y2241034D01*
X10786623Y2232405D01*
X10783236Y2193693D01*
X10785478Y2185326D01*
X10793296Y2156151D01*
X10795166Y2147716D01*
X10800114Y2119655D01*
X10801912Y2109455D01*
X10806242Y2101956D01*
X10808238Y2096471D01*
X10810704Y2091184D01*
X10812946Y2082816D01*
X10833513Y2053444D01*
X10835232Y2050989D01*
X10839871Y2043708D01*
X10859306Y2010045D01*
X10876962Y1995230D01*
X10889071Y1985069D01*
X10895439Y1979235D01*
X11011445Y1863229D01*
X11039222Y1808712D01*
X11029651Y1748280D01*
X10986386Y1705015D01*
X10929720Y1694921D01*
X10902701Y1698143D01*
X10846120Y1704890D01*
X10846117Y1704890D01*
X10840624Y1705545D01*
X10662017Y1686773D01*
X10656777Y1684989D01*
X10656776Y1684989D01*
X10497249Y1630682D01*
X10497245Y1630680D01*
X10492007Y1628897D01*
X10487297Y1625999D01*
X10487292Y1625997D01*
X10357171Y1545945D01*
X10339045Y1534794D01*
X10335096Y1530926D01*
X10335095Y1530926D01*
X10320276Y1516414D01*
X10210732Y1409141D01*
X10113446Y1258183D01*
X10052022Y1089422D01*
X10034500Y950717D01*
X10034500Y-945155D01*
X-3505000Y-945155D01*
X-3505000Y-115680D01*
X-3509122Y-102995D01*
X-3513243Y-100000D01*
X-4289320Y-100000D01*
X-4302005Y-104122D01*
X-4305000Y-108243D01*
X-4305000Y-1883171D01*
X-4505000Y-1883171D01*
X-4505000Y-115680D01*
X-4509122Y-102995D01*
X-4513243Y-100000D01*
X-5289320Y-100000D01*
X-5302005Y-104122D01*
X-5305000Y-108243D01*
X-5305000Y-1044583D01*
X-6331603Y-1044583D01*
X-6273149Y-868863D01*
X-6266854Y-819037D01*
X-6247677Y-667228D01*
X-6247329Y-664474D01*
X-6246917Y-635000D01*
X-6254449Y-558183D01*
X-6266548Y-434780D01*
X-6266549Y-434776D01*
X-6267020Y-429970D01*
X-6326565Y-232749D01*
X-6423282Y-50849D01*
X-6553489Y108800D01*
X-6561805Y115680D01*
X-5305000Y115680D01*
X-5300878Y102995D01*
X-5296757Y100000D01*
X-4520680Y100000D01*
X-4507995Y104122D01*
X-4505000Y108243D01*
X-4505000Y115680D01*
X-4305000Y115680D01*
X-4300878Y102995D01*
X-4296757Y100000D01*
X-3520680Y100000D01*
X-3507995Y104122D01*
X-3505000Y108243D01*
X-3505000Y1044583D01*
X-3505270Y1049728D01*
X-3519276Y1182990D01*
X-3521423Y1193090D01*
X-3576676Y1363140D01*
X-3580875Y1372572D01*
X-3670281Y1527429D01*
X-3676346Y1535776D01*
X-3795994Y1668658D01*
X-3803665Y1675565D01*
X-3948324Y1780666D01*
X-3957259Y1785825D01*
X-4120613Y1858555D01*
X-4130425Y1861743D01*
X-4289662Y1895591D01*
X-4302750Y1894215D01*
X-4305000Y1885818D01*
X-4305000Y115680D01*
X-4505000Y115680D01*
X-4505000Y1883171D01*
X-4509067Y1895687D01*
X-4517746Y1896142D01*
X-4679575Y1861743D01*
X-4689387Y1858555D01*
X-4852744Y1785824D01*
X-4861669Y1780671D01*
X-5006341Y1675560D01*
X-5014004Y1668661D01*
X-5133654Y1535776D01*
X-5139719Y1527429D01*
X-5229125Y1372572D01*
X-5233324Y1363140D01*
X-5288577Y1193090D01*
X-5290724Y1182990D01*
X-5304730Y1049728D01*
X-5305000Y1044583D01*
X-5305000Y115680D01*
X-6561805Y115680D01*
X-6712225Y240118D01*
X-6893445Y338103D01*
X-6956645Y357667D01*
X-7085625Y397593D01*
X-7085629Y397594D01*
X-7090246Y399023D01*
X-7095054Y399528D01*
X-7095057Y399529D01*
X-7290315Y420051D01*
X-7290317Y420051D01*
X-7295131Y420557D01*
X-7355146Y415095D01*
X-7495478Y402325D01*
X-7495483Y402324D01*
X-7500297Y401886D01*
X-7697928Y343720D01*
X-7702212Y341481D01*
X-7702213Y341480D01*
X-7713072Y335803D01*
X-7880498Y248274D01*
X-7884269Y245242D01*
X-8037280Y122219D01*
X-8037283Y122217D01*
X-8041053Y119185D01*
X-8044167Y115474D01*
X-8044168Y115473D01*
X-8053692Y104122D01*
X-8173476Y-38630D01*
X-8175811Y-42878D01*
X-8175812Y-42879D01*
X-8182545Y-55126D01*
X-8272724Y-219162D01*
X-8274187Y-223775D01*
X-8274189Y-223779D01*
X-8297518Y-297322D01*
X-8335016Y-415532D01*
X-8335556Y-420344D01*
X-8335556Y-420345D01*
X-8336635Y-429970D01*
X-8357980Y-620262D01*
X-8689500Y-620262D01*
X-8689500Y1919738D01*
X-8357980Y1919738D01*
X-8354500Y1878301D01*
X-8345947Y1776447D01*
X-8340741Y1714447D01*
X-8339408Y1709799D01*
X-8339408Y1709798D01*
X-8287114Y1527429D01*
X-8283956Y1516414D01*
X-8189788Y1333182D01*
X-8061823Y1171730D01*
X-8058143Y1168598D01*
X-8058141Y1168596D01*
X-8018870Y1135174D01*
X-7904936Y1038209D01*
X-7900713Y1035849D01*
X-7900709Y1035846D01*
X-7861158Y1013742D01*
X-7725102Y937703D01*
X-7720504Y936209D01*
X-7533776Y875537D01*
X-7533774Y875536D01*
X-7529171Y874041D01*
X-7324606Y849649D01*
X-7319784Y850020D01*
X-7319781Y850020D01*
X-7251959Y855239D01*
X-7119200Y865454D01*
X-6920775Y920855D01*
X-6916462Y923034D01*
X-6916456Y923036D01*
X-6741211Y1011559D01*
X-6741209Y1011560D01*
X-6736890Y1013742D01*
X-6697415Y1044583D01*
X-6578365Y1137594D01*
X-6578361Y1137598D01*
X-6574549Y1140576D01*
X-6537938Y1182990D01*
X-6477711Y1252765D01*
X-6439936Y1296528D01*
X-6421269Y1329387D01*
X-6340566Y1471450D01*
X-6340565Y1471453D01*
X-6338177Y1475656D01*
X-6324618Y1516414D01*
X-6274676Y1666546D01*
X-6274676Y1666548D01*
X-6273149Y1671137D01*
X-6271488Y1684281D01*
X-6249070Y1861743D01*
X-6247329Y1875526D01*
X-6246917Y1905000D01*
X-6248833Y1924546D01*
X-6266548Y2105220D01*
X-6266549Y2105224D01*
X-6267020Y2110030D01*
X-6279714Y2152076D01*
X-6325167Y2302620D01*
X-6326565Y2307251D01*
X-6423282Y2489151D01*
X-6436717Y2505624D01*
X-3610545Y2505624D01*
X-3591773Y2327017D01*
X-3589989Y2321777D01*
X-3589989Y2321776D01*
X-3549323Y2202322D01*
X-3533897Y2157007D01*
X-3530999Y2152297D01*
X-3530997Y2152292D01*
X-3468674Y2050989D01*
X-3439794Y2004045D01*
X-3314141Y1875732D01*
X-3163183Y1778446D01*
X-2994422Y1717022D01*
X-2855717Y1699500D01*
X-959845Y1699500D01*
X-957091Y1699809D01*
X-957089Y1699809D01*
X-929709Y1702880D01*
X-826528Y1714454D01*
X-729392Y1748280D01*
X-662153Y1771695D01*
X-662152Y1771695D01*
X-656927Y1773515D01*
X-592286Y1813907D01*
X-509315Y1865753D01*
X-509313Y1865755D01*
X-504625Y1868684D01*
X-393300Y1979235D01*
X-381121Y1991329D01*
X-381120Y1991331D01*
X-377193Y1995230D01*
X-374226Y1999905D01*
X-283929Y2142190D01*
X-283928Y2142191D01*
X-280963Y2146864D01*
X-220719Y2316049D01*
X-219641Y2325085D01*
X-200110Y2488880D01*
X-200110Y2488883D01*
X-199455Y2494376D01*
X-218227Y2672983D01*
X-223734Y2689160D01*
X-274318Y2837751D01*
X-274320Y2837755D01*
X-276103Y2842993D01*
X-279001Y2847703D01*
X-279003Y2847708D01*
X-367309Y2991246D01*
X-370206Y2995955D01*
X-495859Y3124268D01*
X-646817Y3221554D01*
X-815578Y3282978D01*
X-954283Y3300500D01*
X-2850155Y3300500D01*
X-2852909Y3300191D01*
X-2852911Y3300191D01*
X-2880291Y3297120D01*
X-2983472Y3285546D01*
X-2988704Y3283724D01*
X-3146844Y3228654D01*
X-3153073Y3226485D01*
X-3157766Y3223553D01*
X-3157765Y3223553D01*
X-3300685Y3134247D01*
X-3300687Y3134245D01*
X-3305375Y3131316D01*
X-3336610Y3100298D01*
X-3416480Y3020983D01*
X-3432807Y3004770D01*
X-3435773Y3000096D01*
X-3435774Y3000095D01*
X-3513192Y2878103D01*
X-3529037Y2853136D01*
X-3589281Y2683951D01*
X-3589935Y2678464D01*
X-3589936Y2678461D01*
X-3600658Y2588539D01*
X-3610545Y2505624D01*
X-6436717Y2505624D01*
X-6553489Y2648800D01*
X-6602276Y2689160D01*
X-6708498Y2777035D01*
X-6708500Y2777036D01*
X-6712225Y2780118D01*
X-6893445Y2878103D01*
X-6956645Y2897667D01*
X-7085625Y2937593D01*
X-7085629Y2937594D01*
X-7090246Y2939023D01*
X-7095054Y2939528D01*
X-7095057Y2939529D01*
X-7290315Y2960051D01*
X-7290317Y2960051D01*
X-7295131Y2960557D01*
X-7337854Y2956669D01*
X-7495478Y2942325D01*
X-7495483Y2942324D01*
X-7500297Y2941886D01*
X-7697928Y2883720D01*
X-7702212Y2881481D01*
X-7702213Y2881480D01*
X-7713072Y2875803D01*
X-7880498Y2788274D01*
X-7884269Y2785242D01*
X-8037280Y2662219D01*
X-8037283Y2662217D01*
X-8041053Y2659185D01*
X-8044167Y2655474D01*
X-8044168Y2655473D01*
X-8169906Y2505624D01*
X-8173476Y2501370D01*
X-8175811Y2497122D01*
X-8175812Y2497121D01*
X-8180342Y2488880D01*
X-8272724Y2320838D01*
X-8274187Y2316225D01*
X-8274189Y2316221D01*
X-8310319Y2202322D01*
X-8335016Y2124468D01*
X-8335556Y2119656D01*
X-8335556Y2119655D01*
X-8351306Y1979235D01*
X-8357980Y1919738D01*
X-8689500Y1919738D01*
X-8689500Y4459738D01*
X-8357980Y4459738D01*
X-8340741Y4254447D01*
X-8283956Y4056414D01*
X-8189788Y3873182D01*
X-8061823Y3711730D01*
X-8058143Y3708598D01*
X-8058141Y3708596D01*
X-7945483Y3612717D01*
X-7904936Y3578209D01*
X-7900713Y3575849D01*
X-7900709Y3575846D01*
X-7861158Y3553742D01*
X-7725102Y3477703D01*
X-7720504Y3476209D01*
X-7533776Y3415537D01*
X-7533774Y3415536D01*
X-7529171Y3414041D01*
X-7324606Y3389649D01*
X-7319784Y3390020D01*
X-7319781Y3390020D01*
X-7251959Y3395239D01*
X-7119200Y3405454D01*
X-6920775Y3460855D01*
X-6916462Y3463034D01*
X-6916456Y3463036D01*
X-6741211Y3551559D01*
X-6741209Y3551560D01*
X-6736890Y3553742D01*
X-6701557Y3581347D01*
X-6578365Y3677594D01*
X-6578361Y3677598D01*
X-6574549Y3680576D01*
X-6439936Y3836528D01*
X-6421269Y3869387D01*
X-6340566Y4011450D01*
X-6340565Y4011453D01*
X-6338177Y4015656D01*
X-6324618Y4056414D01*
X-6274676Y4206546D01*
X-6274676Y4206548D01*
X-6273149Y4211137D01*
X-6247329Y4415526D01*
X-6246917Y4445000D01*
X-6267020Y4650030D01*
X-6326565Y4847251D01*
X-6423282Y5029151D01*
X-6553489Y5188800D01*
X-6712225Y5320118D01*
X-6893445Y5418103D01*
X-6956645Y5437667D01*
X-7085625Y5477593D01*
X-7085629Y5477594D01*
X-7090246Y5479023D01*
X-7095054Y5479528D01*
X-7095057Y5479529D01*
X-7290315Y5500051D01*
X-7290317Y5500051D01*
X-7295131Y5500557D01*
X-7355146Y5495095D01*
X-7495478Y5482325D01*
X-7495483Y5482324D01*
X-7500297Y5481886D01*
X-7697928Y5423720D01*
X-7702212Y5421481D01*
X-7702213Y5421480D01*
X-7713072Y5415803D01*
X-7880498Y5328274D01*
X-7884269Y5325242D01*
X-8037280Y5202219D01*
X-8037283Y5202217D01*
X-8041053Y5199185D01*
X-8044167Y5195474D01*
X-8044168Y5195473D01*
X-8052915Y5185048D01*
X-8173476Y5041370D01*
X-8175811Y5037122D01*
X-8175812Y5037121D01*
X-8182545Y5024874D01*
X-8272724Y4860838D01*
X-8335016Y4664468D01*
X-8335556Y4659656D01*
X-8335556Y4659655D01*
X-8336635Y4650030D01*
X-8357980Y4459738D01*
X-8689500Y4459738D01*
X-8689500Y6999738D01*
X-8357980Y6999738D01*
X-8340741Y6794447D01*
X-8283956Y6596414D01*
X-8189788Y6413182D01*
X-8061823Y6251730D01*
X-8058143Y6248598D01*
X-8058141Y6248596D01*
X-7945483Y6152717D01*
X-7904936Y6118209D01*
X-7900713Y6115849D01*
X-7900709Y6115846D01*
X-7861158Y6093742D01*
X-7725102Y6017703D01*
X-7720504Y6016209D01*
X-7533776Y5955537D01*
X-7533774Y5955536D01*
X-7529171Y5954041D01*
X-7324606Y5929649D01*
X-7319784Y5930020D01*
X-7319781Y5930020D01*
X-7251959Y5935239D01*
X-7119200Y5945454D01*
X-6920775Y6000855D01*
X-6916462Y6003034D01*
X-6916456Y6003036D01*
X-6741211Y6091559D01*
X-6741209Y6091560D01*
X-6736890Y6093742D01*
X-6701557Y6121347D01*
X-6578365Y6217594D01*
X-6578361Y6217598D01*
X-6574549Y6220576D01*
X-6439936Y6376528D01*
X-6421269Y6409387D01*
X-6340566Y6551450D01*
X-6340565Y6551453D01*
X-6338177Y6555656D01*
X-6324618Y6596414D01*
X-6274676Y6746546D01*
X-6274676Y6746548D01*
X-6273149Y6751137D01*
X-6247329Y6955526D01*
X-6246917Y6985000D01*
X-6267020Y7190030D01*
X-6326565Y7387251D01*
X-6423282Y7569151D01*
X-6553489Y7728800D01*
X-6616851Y7781218D01*
X-6708498Y7857035D01*
X-6708500Y7857036D01*
X-6712225Y7860118D01*
X-6893445Y7958103D01*
X-6985465Y7986588D01*
X-7085625Y8017593D01*
X-7085629Y8017594D01*
X-7090246Y8019023D01*
X-7095054Y8019528D01*
X-7095057Y8019529D01*
X-7290315Y8040051D01*
X-7290317Y8040051D01*
X-7295131Y8040557D01*
X-7355146Y8035095D01*
X-7495478Y8022325D01*
X-7495483Y8022324D01*
X-7500297Y8021886D01*
X-7697928Y7963720D01*
X-7702212Y7961481D01*
X-7702213Y7961480D01*
X-7713072Y7955803D01*
X-7880498Y7868274D01*
X-7884269Y7865242D01*
X-8037280Y7742219D01*
X-8037283Y7742217D01*
X-8041053Y7739185D01*
X-8044167Y7735474D01*
X-8044168Y7735473D01*
X-8052915Y7725048D01*
X-8173476Y7581370D01*
X-8175811Y7577122D01*
X-8175812Y7577121D01*
X-8182545Y7564874D01*
X-8272724Y7400838D01*
X-8335016Y7204468D01*
X-8335556Y7199656D01*
X-8335556Y7199655D01*
X-8336635Y7190030D01*
X-8357980Y6999738D01*
X-8689500Y6999738D01*
X-8689500Y9539738D01*
X-8357980Y9539738D01*
X-8357575Y9534918D01*
X-8341608Y9344776D01*
X-8340741Y9334447D01*
X-8339408Y9329799D01*
X-8339408Y9329798D01*
X-8296513Y9180207D01*
X-8283956Y9136414D01*
X-8189788Y8953182D01*
X-8061823Y8791730D01*
X-8058143Y8788598D01*
X-8058141Y8788596D01*
X-7945483Y8692717D01*
X-7904936Y8658209D01*
X-7900713Y8655849D01*
X-7900709Y8655846D01*
X-7861158Y8633742D01*
X-7725102Y8557703D01*
X-7720504Y8556209D01*
X-7533776Y8495537D01*
X-7533774Y8495536D01*
X-7529171Y8494041D01*
X-7324606Y8469649D01*
X-7319784Y8470020D01*
X-7319781Y8470020D01*
X-7251959Y8475239D01*
X-7119200Y8485454D01*
X-6920775Y8540855D01*
X-6916462Y8543034D01*
X-6916456Y8543036D01*
X-6741211Y8631559D01*
X-6741209Y8631560D01*
X-6736890Y8633742D01*
X-6701557Y8661347D01*
X-6578365Y8757594D01*
X-6578361Y8757598D01*
X-6574549Y8760576D01*
X-6547657Y8791730D01*
X-6455388Y8898626D01*
X-6403052Y8930322D01*
X-6380445Y8932938D01*
X49089Y8932938D01*
X107280Y8914031D01*
X119093Y8903942D01*
X1193128Y7829907D01*
X1242708Y7796779D01*
X1320939Y7781218D01*
X1330501Y7783120D01*
X1389608Y7794877D01*
X1399170Y7796779D01*
X1448750Y7829907D01*
X2749470Y9130627D01*
X2782598Y9180207D01*
X2798159Y9258438D01*
X2782598Y9336669D01*
X2749470Y9386249D01*
X1575734Y10559985D01*
X1547957Y10614502D01*
X1557528Y10674934D01*
X1600793Y10718199D01*
X1645738Y10728989D01*
X1991773Y10728989D01*
X2049964Y10710082D01*
X2081679Y10671437D01*
X2107927Y10614502D01*
X2159846Y10501882D01*
X2276578Y10336709D01*
X2421456Y10195576D01*
X2589627Y10083207D01*
X2775460Y10003367D01*
X2972730Y9958729D01*
X3174832Y9950789D01*
X3228367Y9958551D01*
X3370509Y9979160D01*
X3370512Y9979161D01*
X3374997Y9979811D01*
X3499941Y10022224D01*
X3562224Y10043366D01*
X3562227Y10043368D01*
X3566521Y10044825D01*
X3742991Y10143652D01*
X3898495Y10272984D01*
X4027827Y10428488D01*
X4126654Y10604958D01*
X4191668Y10796482D01*
X4195355Y10821907D01*
X4219074Y10985504D01*
X4220690Y10996647D01*
X4222205Y11054489D01*
X4221606Y11061015D01*
X4204113Y11251380D01*
X4203698Y11255898D01*
X4148797Y11450563D01*
X4059341Y11631962D01*
X3938325Y11794022D01*
X3789802Y11931315D01*
X3767115Y11945630D01*
X3622584Y12036822D01*
X3618747Y12039243D01*
X3430888Y12114191D01*
X3232516Y12153650D01*
X3132920Y12154954D01*
X3034816Y12156238D01*
X3034811Y12156238D01*
X3030276Y12156297D01*
X3025803Y12155528D01*
X3025798Y12155528D01*
X2939133Y12140636D01*
X2830939Y12122045D01*
X2641183Y12052040D01*
X2467361Y11948627D01*
X2463946Y11945632D01*
X2463943Y11945630D01*
X2447620Y11931315D01*
X2315295Y11815269D01*
X2190079Y11656432D01*
X2095904Y11477436D01*
X2088825Y11454637D01*
X2087270Y11449630D01*
X2051956Y11399664D01*
X1992723Y11379989D01*
X595523Y11379989D01*
X586894Y11380366D01*
X556811Y11382998D01*
X548182Y11383753D01*
X539815Y11381511D01*
X510640Y11373693D01*
X502205Y11371823D01*
X472472Y11366581D01*
X472470Y11366580D01*
X463944Y11365077D01*
X456445Y11360747D01*
X450960Y11358751D01*
X445673Y11356285D01*
X437305Y11354043D01*
X407933Y11333476D01*
X405478Y11331757D01*
X398197Y11327118D01*
X364534Y11307683D01*
X348529Y11288609D01*
X339558Y11277918D01*
X333724Y11271550D01*
X-105830Y10831996D01*
X-160347Y10804219D01*
X-175834Y10803000D01*
X-829499Y10803000D01*
X-887690Y10821907D01*
X-923654Y10871407D01*
X-923654Y10932593D01*
X-887690Y10982093D01*
X-840534Y11000383D01*
X-826528Y11001954D01*
X-675667Y11054489D01*
X-662153Y11059195D01*
X-662152Y11059195D01*
X-656927Y11061015D01*
X-590526Y11102507D01*
X-509315Y11153253D01*
X-509313Y11153255D01*
X-504625Y11156184D01*
X-385381Y11274599D01*
X-381121Y11278829D01*
X-381120Y11278831D01*
X-377193Y11282730D01*
X-374226Y11287405D01*
X-283929Y11429690D01*
X-283928Y11429691D01*
X-280963Y11434364D01*
X-264197Y11481447D01*
X-222574Y11598340D01*
X-220719Y11603549D01*
X-217816Y11627890D01*
X-200110Y11776380D01*
X-200110Y11776383D01*
X-199455Y11781876D01*
X-218227Y11960483D01*
X-245039Y12039243D01*
X-274318Y12125251D01*
X-274320Y12125255D01*
X-276103Y12130493D01*
X-279001Y12135203D01*
X-279003Y12135208D01*
X-367309Y12278746D01*
X-370206Y12283455D01*
X-495859Y12411768D01*
X-646817Y12509054D01*
X-815578Y12570478D01*
X-954283Y12588000D01*
X-2850155Y12588000D01*
X-2852909Y12587691D01*
X-2852911Y12587691D01*
X-2880291Y12584620D01*
X-2983472Y12573046D01*
X-3153073Y12513985D01*
X-3157766Y12511053D01*
X-3157765Y12511053D01*
X-3300685Y12421747D01*
X-3300687Y12421745D01*
X-3305375Y12418816D01*
X-3432807Y12292270D01*
X-3435773Y12287596D01*
X-3435774Y12287595D01*
X-3521340Y12152764D01*
X-3529037Y12140636D01*
X-3530893Y12135425D01*
X-3530893Y12135424D01*
X-3535657Y12122045D01*
X-3589281Y11971451D01*
X-3589935Y11965964D01*
X-3589936Y11965961D01*
X-3608329Y11811707D01*
X-3610545Y11793124D01*
X-3591773Y11614517D01*
X-3589989Y11609277D01*
X-3589989Y11609276D01*
X-3544218Y11474826D01*
X-3533897Y11444507D01*
X-3530999Y11439797D01*
X-3530997Y11439792D01*
X-3452385Y11312012D01*
X-3439794Y11291545D01*
X-3435926Y11287596D01*
X-3435926Y11287595D01*
X-3404886Y11255898D01*
X-3314141Y11163232D01*
X-3163183Y11065946D01*
X-2994422Y11004522D01*
X-2988930Y11003828D01*
X-2988929Y11003828D01*
X-2960359Y11000219D01*
X-2904997Y10974168D01*
X-2875521Y10920551D01*
X-2883189Y10859848D01*
X-2925073Y10815246D01*
X-2972767Y10803000D01*
X-5539166Y10803000D01*
X-5597357Y10821907D01*
X-5609170Y10831996D01*
X-6223004Y11445830D01*
X-6250781Y11500347D01*
X-6252000Y11515834D01*
X-6252000Y12934748D01*
X-6263633Y12993231D01*
X-6307948Y13059552D01*
X-6374269Y13103867D01*
X-6383832Y13105769D01*
X-6383834Y13105770D01*
X-6406505Y13110279D01*
X-6432752Y13115500D01*
X-8172248Y13115500D01*
X-8198495Y13110279D01*
X-8221166Y13105770D01*
X-8221168Y13105769D01*
X-8230731Y13103867D01*
X-8297052Y13059552D01*
X-8341367Y12993231D01*
X-8353000Y12934748D01*
X-8353000Y11195252D01*
X-8352052Y11190488D01*
X-8346034Y11160234D01*
X-8341367Y11136769D01*
X-8297052Y11070448D01*
X-8230731Y11026133D01*
X-8221168Y11024231D01*
X-8221166Y11024230D01*
X-8198495Y11019721D01*
X-8172248Y11014500D01*
X-6753334Y11014500D01*
X-6695143Y10995593D01*
X-6683330Y10985504D01*
X-5958269Y10260443D01*
X-5952435Y10254076D01*
X-5927455Y10224306D01*
X-5893795Y10204873D01*
X-5886511Y10200232D01*
X-5854684Y10177946D01*
X-5846316Y10175704D01*
X-5841029Y10173238D01*
X-5835544Y10171242D01*
X-5828045Y10166912D01*
X-5819519Y10165409D01*
X-5819517Y10165408D01*
X-5789784Y10160166D01*
X-5781350Y10158296D01*
X-5743807Y10148236D01*
X-5735178Y10148991D01*
X-5705095Y10151623D01*
X-5696466Y10152000D01*
X-18534Y10152000D01*
X-9905Y10151623D01*
X28807Y10148236D01*
X66350Y10158296D01*
X74784Y10160166D01*
X104517Y10165408D01*
X104519Y10165409D01*
X113045Y10166912D01*
X120544Y10171242D01*
X126029Y10173238D01*
X131316Y10175704D01*
X139684Y10177946D01*
X171511Y10200232D01*
X178795Y10204873D01*
X212455Y10224306D01*
X237431Y10254071D01*
X243265Y10260439D01*
X682819Y10699993D01*
X737336Y10727770D01*
X752823Y10728989D01*
X996140Y10728989D01*
X1054331Y10710082D01*
X1090295Y10660582D01*
X1090295Y10599396D01*
X1066144Y10559985D01*
X119093Y9612934D01*
X64576Y9585157D01*
X49089Y9583938D01*
X-6162928Y9583938D01*
X-6221119Y9602845D01*
X-6257083Y9652345D01*
X-6261456Y9673278D01*
X-6266548Y9725211D01*
X-6267020Y9730030D01*
X-6326565Y9927251D01*
X-6423282Y10109151D01*
X-6553489Y10268800D01*
X-6557218Y10271885D01*
X-6708498Y10397035D01*
X-6708500Y10397036D01*
X-6712225Y10400118D01*
X-6893445Y10498103D01*
X-6956645Y10517667D01*
X-7085625Y10557593D01*
X-7085629Y10557594D01*
X-7090246Y10559023D01*
X-7095054Y10559528D01*
X-7095057Y10559529D01*
X-7290315Y10580051D01*
X-7290317Y10580051D01*
X-7295131Y10580557D01*
X-7355146Y10575095D01*
X-7495478Y10562325D01*
X-7495483Y10562324D01*
X-7500297Y10561886D01*
X-7697928Y10503720D01*
X-7702212Y10501481D01*
X-7702213Y10501480D01*
X-7713072Y10495803D01*
X-7880498Y10408274D01*
X-7884269Y10405242D01*
X-8037280Y10282219D01*
X-8037283Y10282217D01*
X-8041053Y10279185D01*
X-8044167Y10275474D01*
X-8044168Y10275473D01*
X-8149051Y10150478D01*
X-8173476Y10121370D01*
X-8175811Y10117122D01*
X-8175812Y10117121D01*
X-8182545Y10104874D01*
X-8272724Y9940838D01*
X-8274187Y9936225D01*
X-8274189Y9936221D01*
X-8275679Y9931524D01*
X-8335016Y9744468D01*
X-8335556Y9739656D01*
X-8335556Y9739655D01*
X-8357225Y9546466D01*
X-8357980Y9539738D01*
X-8689500Y9539738D01*
X-8689500Y13242917D01*
X-5305000Y13242917D01*
X-5304730Y13237772D01*
X-5290724Y13104510D01*
X-5288577Y13094410D01*
X-5233324Y12924360D01*
X-5229125Y12914928D01*
X-5139719Y12760071D01*
X-5133654Y12751724D01*
X-5014006Y12618842D01*
X-5006335Y12611935D01*
X-4861676Y12506834D01*
X-4852741Y12501675D01*
X-4689387Y12428945D01*
X-4679575Y12425757D01*
X-4520338Y12391909D01*
X-4507250Y12393285D01*
X-4505000Y12401682D01*
X-4505000Y12404329D01*
X-4305000Y12404329D01*
X-4300933Y12391813D01*
X-4292254Y12391358D01*
X-4130425Y12425757D01*
X-4120613Y12428945D01*
X-3957256Y12501676D01*
X-3948331Y12506829D01*
X-3803659Y12611940D01*
X-3795996Y12618839D01*
X-3676346Y12751724D01*
X-3670281Y12760071D01*
X-3580875Y12914928D01*
X-3576676Y12924360D01*
X-3521423Y13094410D01*
X-3519276Y13104510D01*
X-3505270Y13237772D01*
X-3505000Y13242917D01*
X9935000Y13242917D01*
X9935270Y13237772D01*
X9949276Y13104510D01*
X9951423Y13094410D01*
X10006676Y12924360D01*
X10010875Y12914928D01*
X10100281Y12760071D01*
X10106346Y12751724D01*
X10225994Y12618842D01*
X10233665Y12611935D01*
X10378324Y12506834D01*
X10387259Y12501675D01*
X10550613Y12428945D01*
X10560425Y12425757D01*
X10719662Y12391909D01*
X10732750Y12393285D01*
X10735000Y12401682D01*
X10735000Y12404329D01*
X10935000Y12404329D01*
X10939067Y12391813D01*
X10947746Y12391358D01*
X11109575Y12425757D01*
X11119387Y12428945D01*
X11282744Y12501676D01*
X11291669Y12506829D01*
X11436341Y12611940D01*
X11444004Y12618839D01*
X11563654Y12751724D01*
X11569719Y12760071D01*
X11659125Y12914928D01*
X11663324Y12924360D01*
X11718577Y13094410D01*
X11720724Y13104510D01*
X11734730Y13237772D01*
X11735000Y13242917D01*
X11735000Y14171820D01*
X11730878Y14184505D01*
X11726757Y14187500D01*
X10950680Y14187500D01*
X10937995Y14183378D01*
X10935000Y14179257D01*
X10935000Y12404329D01*
X10735000Y12404329D01*
X10735000Y14171820D01*
X10730878Y14184505D01*
X10726757Y14187500D01*
X9950680Y14187500D01*
X9937995Y14183378D01*
X9935000Y14179257D01*
X9935000Y13242917D01*
X-3505000Y13242917D01*
X-3505000Y14171820D01*
X-3509122Y14184505D01*
X-3513243Y14187500D01*
X-4289320Y14187500D01*
X-4302005Y14183378D01*
X-4305000Y14179257D01*
X-4305000Y12404329D01*
X-4505000Y12404329D01*
X-4505000Y14171820D01*
X-4509122Y14184505D01*
X-4513243Y14187500D01*
X-5289320Y14187500D01*
X-5302005Y14183378D01*
X-5305000Y14179257D01*
X-5305000Y13242917D01*
X-8689500Y13242917D01*
X-8689500Y14403180D01*
X-5305000Y14403180D01*
X-5300878Y14390495D01*
X-5296757Y14387500D01*
X-4520680Y14387500D01*
X-4507995Y14391622D01*
X-4505000Y14395743D01*
X-4505000Y14403180D01*
X-4305000Y14403180D01*
X-4300878Y14390495D01*
X-4296757Y14387500D01*
X-3520680Y14387500D01*
X-3507995Y14391622D01*
X-3505000Y14395743D01*
X-3505000Y14403180D01*
X9935000Y14403180D01*
X9939122Y14390495D01*
X9943243Y14387500D01*
X10719320Y14387500D01*
X10732005Y14391622D01*
X10735000Y14395743D01*
X10735000Y14403180D01*
X10935000Y14403180D01*
X10939122Y14390495D01*
X10943243Y14387500D01*
X11719320Y14387500D01*
X11732005Y14391622D01*
X11735000Y14395743D01*
X11735000Y15332083D01*
X11734730Y15337228D01*
X11720724Y15470490D01*
X11718577Y15480590D01*
X11663324Y15650640D01*
X11659125Y15660072D01*
X11569719Y15814929D01*
X11563654Y15823276D01*
X11444006Y15956158D01*
X11436335Y15963065D01*
X11291676Y16068166D01*
X11282741Y16073325D01*
X11119387Y16146055D01*
X11109575Y16149243D01*
X10950338Y16183091D01*
X10937250Y16181715D01*
X10935000Y16173318D01*
X10935000Y14403180D01*
X10735000Y14403180D01*
X10735000Y16170671D01*
X10730933Y16183187D01*
X10722254Y16183642D01*
X10560425Y16149243D01*
X10550613Y16146055D01*
X10387256Y16073324D01*
X10378331Y16068171D01*
X10233659Y15963060D01*
X10225996Y15956161D01*
X10106346Y15823276D01*
X10100281Y15814929D01*
X10010875Y15660072D01*
X10006676Y15650640D01*
X9951423Y15480590D01*
X9949276Y15470490D01*
X9935270Y15337228D01*
X9935000Y15332083D01*
X9935000Y14403180D01*
X-3505000Y14403180D01*
X-3505000Y15332083D01*
X-3505270Y15337228D01*
X-3519276Y15470490D01*
X-3521423Y15480590D01*
X-3576676Y15650640D01*
X-3580875Y15660072D01*
X-3670281Y15814929D01*
X-3676346Y15823276D01*
X-3795994Y15956158D01*
X-3803665Y15963065D01*
X-3948324Y16068166D01*
X-3957259Y16073325D01*
X-4120613Y16146055D01*
X-4130425Y16149243D01*
X-4289662Y16183091D01*
X-4302750Y16181715D01*
X-4305000Y16173318D01*
X-4305000Y14403180D01*
X-4505000Y14403180D01*
X-4505000Y16170671D01*
X-4509067Y16183187D01*
X-4517746Y16183642D01*
X-4679575Y16149243D01*
X-4689387Y16146055D01*
X-4852744Y16073324D01*
X-4861669Y16068171D01*
X-5006341Y15963060D01*
X-5014004Y15956161D01*
X-5133654Y15823276D01*
X-5139719Y15814929D01*
X-5229125Y15660072D01*
X-5233324Y15650640D01*
X-5288577Y15480590D01*
X-5290724Y15470490D01*
X-5304730Y15337228D01*
X-5305000Y15332083D01*
X-5305000Y14403180D01*
X-8689500Y14403180D01*
X-8689500Y16793124D01*
X-3610545Y16793124D01*
X-3591773Y16614517D01*
X-3533897Y16444507D01*
X-3530999Y16439797D01*
X-3530997Y16439792D01*
X-3524782Y16429690D01*
X-3439794Y16291545D01*
X-3314141Y16163232D01*
X-3163183Y16065946D01*
X-2994422Y16004522D01*
X-2855717Y15987000D01*
X-959845Y15987000D01*
X-957091Y15987309D01*
X-957089Y15987309D01*
X-929709Y15990380D01*
X-826528Y16001954D01*
X-656927Y16061015D01*
X-619021Y16084701D01*
X-509315Y16153253D01*
X-509313Y16153255D01*
X-504625Y16156184D01*
X-377193Y16282730D01*
X-374226Y16287405D01*
X-283929Y16429690D01*
X-283928Y16429691D01*
X-280963Y16434364D01*
X-220719Y16603549D01*
X-199455Y16781876D01*
X-200637Y16793124D01*
X11629455Y16793124D01*
X11648227Y16614517D01*
X11706103Y16444507D01*
X11709001Y16439797D01*
X11709003Y16439792D01*
X11715218Y16429690D01*
X11800206Y16291545D01*
X11925859Y16163232D01*
X12076817Y16065946D01*
X12245578Y16004522D01*
X12384283Y15987000D01*
X14280155Y15987000D01*
X14282909Y15987309D01*
X14282911Y15987309D01*
X14310291Y15990380D01*
X14413472Y16001954D01*
X14583073Y16061015D01*
X14620979Y16084701D01*
X14730685Y16153253D01*
X14730687Y16153255D01*
X14735375Y16156184D01*
X14862807Y16282730D01*
X14865774Y16287405D01*
X14956071Y16429690D01*
X14956072Y16429691D01*
X14959037Y16434364D01*
X15019281Y16603549D01*
X15040545Y16781876D01*
X15021773Y16960483D01*
X14963897Y17130493D01*
X14960999Y17135203D01*
X14960997Y17135208D01*
X14872691Y17278746D01*
X14869794Y17283455D01*
X14744141Y17411768D01*
X14593183Y17509054D01*
X14424422Y17570478D01*
X14285717Y17588000D01*
X12389845Y17588000D01*
X12387091Y17587691D01*
X12387089Y17587691D01*
X12359709Y17584620D01*
X12256528Y17573046D01*
X12086927Y17513985D01*
X12082234Y17511053D01*
X12082235Y17511053D01*
X11939315Y17421747D01*
X11939313Y17421745D01*
X11934625Y17418816D01*
X11807193Y17292270D01*
X11804227Y17287596D01*
X11804226Y17287595D01*
X11804106Y17287405D01*
X11710963Y17140636D01*
X11650719Y16971451D01*
X11629455Y16793124D01*
X-200637Y16793124D01*
X-218227Y16960483D01*
X-276103Y17130493D01*
X-279001Y17135203D01*
X-279003Y17135208D01*
X-367309Y17278746D01*
X-370206Y17283455D01*
X-495859Y17411768D01*
X-646817Y17509054D01*
X-815578Y17570478D01*
X-954283Y17588000D01*
X-2850155Y17588000D01*
X-2852909Y17587691D01*
X-2852911Y17587691D01*
X-2880291Y17584620D01*
X-2983472Y17573046D01*
X-3153073Y17513985D01*
X-3157766Y17511053D01*
X-3157765Y17511053D01*
X-3300685Y17421747D01*
X-3300687Y17421745D01*
X-3305375Y17418816D01*
X-3432807Y17292270D01*
X-3435773Y17287596D01*
X-3435774Y17287595D01*
X-3435894Y17287405D01*
X-3529037Y17140636D01*
X-3589281Y16971451D01*
X-3610545Y16793124D01*
X-8689500Y16793124D01*
X-8689500Y21355252D01*
X-410500Y21355252D01*
X-398867Y21296769D01*
X-354552Y21230448D01*
X-288231Y21186133D01*
X-278668Y21184231D01*
X-278666Y21184230D01*
X-255995Y21179721D01*
X-229748Y21174500D01*
X1509748Y21174500D01*
X1535995Y21179721D01*
X1558666Y21184230D01*
X1558668Y21184231D01*
X1568231Y21186133D01*
X1634552Y21230448D01*
X1678867Y21296769D01*
X1690500Y21355252D01*
X1690500Y22239738D01*
X2124520Y22239738D01*
X2141759Y22034447D01*
X2198544Y21836414D01*
X2292712Y21653182D01*
X2420677Y21491730D01*
X2424357Y21488598D01*
X2424359Y21488596D01*
X2537017Y21392717D01*
X2577564Y21358209D01*
X2581787Y21355849D01*
X2581791Y21355846D01*
X2621342Y21333742D01*
X2757398Y21257703D01*
X2761996Y21256209D01*
X2948724Y21195537D01*
X2948726Y21195536D01*
X2953329Y21194041D01*
X3157894Y21169649D01*
X3162716Y21170020D01*
X3162719Y21170020D01*
X3233259Y21175448D01*
X3363300Y21185454D01*
X3561725Y21240855D01*
X3566038Y21243034D01*
X3566044Y21243036D01*
X3741289Y21331559D01*
X3741291Y21331560D01*
X3745610Y21333742D01*
X3780943Y21361347D01*
X3904135Y21457594D01*
X3904139Y21457598D01*
X3907951Y21460576D01*
X4042564Y21616528D01*
X4061231Y21649387D01*
X4141934Y21791450D01*
X4141935Y21791453D01*
X4144323Y21795656D01*
X4157882Y21836414D01*
X4207824Y21986546D01*
X4207824Y21986548D01*
X4209351Y21991137D01*
X4235171Y22195526D01*
X4235583Y22225000D01*
X4234138Y22239738D01*
X4664520Y22239738D01*
X4681759Y22034447D01*
X4738544Y21836414D01*
X4832712Y21653182D01*
X4960677Y21491730D01*
X4964357Y21488598D01*
X4964359Y21488596D01*
X5077017Y21392717D01*
X5117564Y21358209D01*
X5121787Y21355849D01*
X5121791Y21355846D01*
X5161342Y21333742D01*
X5297398Y21257703D01*
X5301996Y21256209D01*
X5488724Y21195537D01*
X5488726Y21195536D01*
X5493329Y21194041D01*
X5697894Y21169649D01*
X5702716Y21170020D01*
X5702719Y21170020D01*
X5773259Y21175448D01*
X5903300Y21185454D01*
X6101725Y21240855D01*
X6106038Y21243034D01*
X6106044Y21243036D01*
X6281289Y21331559D01*
X6281291Y21331560D01*
X6285610Y21333742D01*
X6320943Y21361347D01*
X6444135Y21457594D01*
X6444139Y21457598D01*
X6447951Y21460576D01*
X6582564Y21616528D01*
X6601231Y21649387D01*
X6681934Y21791450D01*
X6681935Y21791453D01*
X6684323Y21795656D01*
X6697882Y21836414D01*
X6747824Y21986546D01*
X6747824Y21986548D01*
X6749351Y21991137D01*
X6775171Y22195526D01*
X6775583Y22225000D01*
X6774138Y22239738D01*
X7204520Y22239738D01*
X7221759Y22034447D01*
X7278544Y21836414D01*
X7372712Y21653182D01*
X7500677Y21491730D01*
X7504357Y21488598D01*
X7504359Y21488596D01*
X7617017Y21392717D01*
X7657564Y21358209D01*
X7661787Y21355849D01*
X7661791Y21355846D01*
X7701342Y21333742D01*
X7837398Y21257703D01*
X7841996Y21256209D01*
X8028724Y21195537D01*
X8028726Y21195536D01*
X8033329Y21194041D01*
X8237894Y21169649D01*
X8242716Y21170020D01*
X8242719Y21170020D01*
X8313259Y21175448D01*
X8443300Y21185454D01*
X8641725Y21240855D01*
X8646038Y21243034D01*
X8646044Y21243036D01*
X8821289Y21331559D01*
X8821291Y21331560D01*
X8825610Y21333742D01*
X8860943Y21361347D01*
X8984135Y21457594D01*
X8984139Y21457598D01*
X8987951Y21460576D01*
X9122564Y21616528D01*
X9141231Y21649387D01*
X9221934Y21791450D01*
X9221935Y21791453D01*
X9224323Y21795656D01*
X9237882Y21836414D01*
X9287824Y21986546D01*
X9287824Y21986548D01*
X9289351Y21991137D01*
X9315171Y22195526D01*
X9315583Y22225000D01*
X9314138Y22239738D01*
X9744520Y22239738D01*
X9761759Y22034447D01*
X9818544Y21836414D01*
X9912712Y21653182D01*
X10040677Y21491730D01*
X10044357Y21488598D01*
X10044359Y21488596D01*
X10157017Y21392717D01*
X10197564Y21358209D01*
X10201787Y21355849D01*
X10201791Y21355846D01*
X10241342Y21333742D01*
X10377398Y21257703D01*
X10381996Y21256209D01*
X10568724Y21195537D01*
X10568726Y21195536D01*
X10573329Y21194041D01*
X10777894Y21169649D01*
X10782716Y21170020D01*
X10782719Y21170020D01*
X10853259Y21175448D01*
X10983300Y21185454D01*
X11181725Y21240855D01*
X11186038Y21243034D01*
X11186044Y21243036D01*
X11361289Y21331559D01*
X11361291Y21331560D01*
X11365610Y21333742D01*
X11400943Y21361347D01*
X11524135Y21457594D01*
X11524139Y21457598D01*
X11527951Y21460576D01*
X11662564Y21616528D01*
X11681231Y21649387D01*
X11761934Y21791450D01*
X11761935Y21791453D01*
X11764323Y21795656D01*
X11777882Y21836414D01*
X11827824Y21986546D01*
X11827824Y21986548D01*
X11829351Y21991137D01*
X11855171Y22195526D01*
X11855583Y22225000D01*
X11835480Y22430030D01*
X11775935Y22627251D01*
X11679218Y22809151D01*
X11549011Y22968800D01*
X11402639Y23089890D01*
X11394002Y23097035D01*
X11394000Y23097036D01*
X11390275Y23100118D01*
X11209055Y23198103D01*
X11139764Y23219552D01*
X11016875Y23257593D01*
X11016871Y23257594D01*
X11012254Y23259023D01*
X11007446Y23259528D01*
X11007443Y23259529D01*
X10812185Y23280051D01*
X10812183Y23280051D01*
X10807369Y23280557D01*
X10751800Y23275500D01*
X10607022Y23262325D01*
X10607017Y23262324D01*
X10602203Y23261886D01*
X10404572Y23203720D01*
X10400288Y23201481D01*
X10400287Y23201480D01*
X10389428Y23195803D01*
X10222002Y23108274D01*
X10218231Y23105242D01*
X10065220Y22982219D01*
X10065217Y22982217D01*
X10061447Y22979185D01*
X10058333Y22975474D01*
X10058332Y22975473D01*
X10049585Y22965048D01*
X9929024Y22821370D01*
X9926689Y22817122D01*
X9926688Y22817121D01*
X9919955Y22804874D01*
X9829776Y22640838D01*
X9828313Y22636225D01*
X9828311Y22636221D01*
X9825466Y22627251D01*
X9767484Y22444468D01*
X9766944Y22439656D01*
X9766944Y22439655D01*
X9765865Y22430030D01*
X9744520Y22239738D01*
X9314138Y22239738D01*
X9295480Y22430030D01*
X9235935Y22627251D01*
X9139218Y22809151D01*
X9009011Y22968800D01*
X8862639Y23089890D01*
X8854002Y23097035D01*
X8854000Y23097036D01*
X8850275Y23100118D01*
X8669055Y23198103D01*
X8599764Y23219552D01*
X8476875Y23257593D01*
X8476871Y23257594D01*
X8472254Y23259023D01*
X8467446Y23259528D01*
X8467443Y23259529D01*
X8272185Y23280051D01*
X8272183Y23280051D01*
X8267369Y23280557D01*
X8211800Y23275500D01*
X8067022Y23262325D01*
X8067017Y23262324D01*
X8062203Y23261886D01*
X7864572Y23203720D01*
X7860288Y23201481D01*
X7860287Y23201480D01*
X7849428Y23195803D01*
X7682002Y23108274D01*
X7678231Y23105242D01*
X7525220Y22982219D01*
X7525217Y22982217D01*
X7521447Y22979185D01*
X7518333Y22975474D01*
X7518332Y22975473D01*
X7509585Y22965048D01*
X7389024Y22821370D01*
X7386689Y22817122D01*
X7386688Y22817121D01*
X7379955Y22804874D01*
X7289776Y22640838D01*
X7288313Y22636225D01*
X7288311Y22636221D01*
X7285466Y22627251D01*
X7227484Y22444468D01*
X7226944Y22439656D01*
X7226944Y22439655D01*
X7225865Y22430030D01*
X7204520Y22239738D01*
X6774138Y22239738D01*
X6755480Y22430030D01*
X6695935Y22627251D01*
X6690977Y22636577D01*
X6680351Y22696830D01*
X6708384Y22753058D01*
X7730830Y23775504D01*
X7785347Y23803281D01*
X7800834Y23804500D01*
X11415666Y23804500D01*
X11424295Y23804123D01*
X11463007Y23800736D01*
X11472505Y23803281D01*
X11500549Y23810796D01*
X11508984Y23812666D01*
X11538717Y23817908D01*
X11538719Y23817909D01*
X11547245Y23819412D01*
X11554744Y23823742D01*
X11560229Y23825738D01*
X11565516Y23828204D01*
X11573884Y23830446D01*
X11605711Y23852732D01*
X11612995Y23857373D01*
X11646655Y23876806D01*
X11671631Y23906571D01*
X11677465Y23912939D01*
X12771673Y25007147D01*
X12826190Y25034924D01*
X12880754Y25028104D01*
X12993470Y24979678D01*
X13190740Y24935040D01*
X13392842Y24927100D01*
X13446377Y24934862D01*
X13588519Y24955471D01*
X13588522Y24955472D01*
X13593007Y24956122D01*
X13688769Y24988629D01*
X13780234Y25019677D01*
X13780237Y25019679D01*
X13784531Y25021136D01*
X13961001Y25119963D01*
X14116505Y25249295D01*
X14245837Y25404799D01*
X14344664Y25581269D01*
X14373520Y25666274D01*
X14408219Y25768496D01*
X14409678Y25772793D01*
X14438700Y25972958D01*
X14440215Y26030800D01*
X14437557Y26059731D01*
X14730164Y26059731D01*
X14743392Y25857906D01*
X14793178Y25661872D01*
X14877856Y25478193D01*
X14994588Y25313020D01*
X15139466Y25171887D01*
X15307637Y25059518D01*
X15493470Y24979678D01*
X15690740Y24935040D01*
X15892842Y24927100D01*
X15946377Y24934862D01*
X16088519Y24955471D01*
X16088522Y24955472D01*
X16093007Y24956122D01*
X16188769Y24988629D01*
X16280234Y25019677D01*
X16280237Y25019679D01*
X16284531Y25021136D01*
X16461001Y25119963D01*
X16616505Y25249295D01*
X16745837Y25404799D01*
X16844664Y25581269D01*
X16873520Y25666274D01*
X16908219Y25768496D01*
X16909678Y25772793D01*
X16938700Y25972958D01*
X16940215Y26030800D01*
X16921708Y26232209D01*
X16866807Y26426874D01*
X16777351Y26608273D01*
X16656335Y26770333D01*
X16507812Y26907626D01*
X16485125Y26921941D01*
X16340594Y27013133D01*
X16336757Y27015554D01*
X16148898Y27090502D01*
X15950526Y27129961D01*
X15850930Y27131265D01*
X15752826Y27132549D01*
X15752821Y27132549D01*
X15748286Y27132608D01*
X15743813Y27131839D01*
X15743808Y27131839D01*
X15645245Y27114902D01*
X15548949Y27098356D01*
X15359193Y27028351D01*
X15185371Y26924938D01*
X15181956Y26921943D01*
X15181953Y26921941D01*
X15165630Y26907626D01*
X15033305Y26791580D01*
X14908089Y26632743D01*
X14813914Y26453747D01*
X14753937Y26260587D01*
X14730164Y26059731D01*
X14437557Y26059731D01*
X14421708Y26232209D01*
X14366807Y26426874D01*
X14277351Y26608273D01*
X14156335Y26770333D01*
X14007812Y26907626D01*
X13985125Y26921941D01*
X13840594Y27013133D01*
X13836757Y27015554D01*
X13648898Y27090502D01*
X13450526Y27129961D01*
X13350930Y27131265D01*
X13252826Y27132549D01*
X13252821Y27132549D01*
X13248286Y27132608D01*
X13243813Y27131839D01*
X13243808Y27131839D01*
X13145245Y27114902D01*
X13048949Y27098356D01*
X12859193Y27028351D01*
X12685371Y26924938D01*
X12681956Y26921943D01*
X12681953Y26921941D01*
X12665630Y26907626D01*
X12533305Y26791580D01*
X12408089Y26632743D01*
X12313914Y26453747D01*
X12253937Y26260587D01*
X12230164Y26059731D01*
X12243392Y25857906D01*
X12293178Y25661872D01*
X12331365Y25579038D01*
X12338557Y25518280D01*
X12311463Y25467589D01*
X11328370Y24484496D01*
X11273853Y24456719D01*
X11258366Y24455500D01*
X7643534Y24455500D01*
X7634905Y24455877D01*
X7604822Y24458509D01*
X7596193Y24459264D01*
X7587826Y24457022D01*
X7558651Y24449204D01*
X7550216Y24447334D01*
X7520483Y24442092D01*
X7520481Y24442091D01*
X7511955Y24440588D01*
X7504456Y24436258D01*
X7498971Y24434262D01*
X7493684Y24431796D01*
X7485316Y24429554D01*
X7455944Y24408987D01*
X7453489Y24407268D01*
X7446208Y24402629D01*
X7412545Y24383194D01*
X7406978Y24376559D01*
X7387569Y24353429D01*
X7381735Y24347061D01*
X6248556Y23213882D01*
X6194039Y23186105D01*
X6138480Y23195596D01*
X6137777Y23193924D01*
X6133315Y23195800D01*
X6129055Y23198103D01*
X6118146Y23201480D01*
X5936875Y23257593D01*
X5936871Y23257594D01*
X5932254Y23259023D01*
X5927446Y23259528D01*
X5927443Y23259529D01*
X5732185Y23280051D01*
X5732183Y23280051D01*
X5727369Y23280557D01*
X5671800Y23275500D01*
X5527022Y23262325D01*
X5527017Y23262324D01*
X5522203Y23261886D01*
X5324572Y23203720D01*
X5320288Y23201481D01*
X5320287Y23201480D01*
X5309428Y23195803D01*
X5142002Y23108274D01*
X5138231Y23105242D01*
X4985220Y22982219D01*
X4985217Y22982217D01*
X4981447Y22979185D01*
X4978333Y22975474D01*
X4978332Y22975473D01*
X4969585Y22965048D01*
X4849024Y22821370D01*
X4846689Y22817122D01*
X4846688Y22817121D01*
X4839955Y22804874D01*
X4749776Y22640838D01*
X4748313Y22636225D01*
X4748311Y22636221D01*
X4745466Y22627251D01*
X4687484Y22444468D01*
X4686944Y22439656D01*
X4686944Y22439655D01*
X4685865Y22430030D01*
X4664520Y22239738D01*
X4234138Y22239738D01*
X4215480Y22430030D01*
X4155935Y22627251D01*
X4059218Y22809151D01*
X3929011Y22968800D01*
X3782639Y23089890D01*
X3774002Y23097035D01*
X3774000Y23097036D01*
X3770275Y23100118D01*
X3589055Y23198103D01*
X3519764Y23219552D01*
X3396875Y23257593D01*
X3396871Y23257594D01*
X3392254Y23259023D01*
X3387446Y23259528D01*
X3387443Y23259529D01*
X3192185Y23280051D01*
X3192183Y23280051D01*
X3187369Y23280557D01*
X3131800Y23275500D01*
X2987022Y23262325D01*
X2987017Y23262324D01*
X2982203Y23261886D01*
X2784572Y23203720D01*
X2780288Y23201481D01*
X2780287Y23201480D01*
X2769428Y23195803D01*
X2602002Y23108274D01*
X2598231Y23105242D01*
X2445220Y22982219D01*
X2445217Y22982217D01*
X2441447Y22979185D01*
X2438333Y22975474D01*
X2438332Y22975473D01*
X2429585Y22965048D01*
X2309024Y22821370D01*
X2306689Y22817122D01*
X2306688Y22817121D01*
X2299955Y22804874D01*
X2209776Y22640838D01*
X2208313Y22636225D01*
X2208311Y22636221D01*
X2205466Y22627251D01*
X2147484Y22444468D01*
X2146944Y22439656D01*
X2146944Y22439655D01*
X2145865Y22430030D01*
X2124520Y22239738D01*
X1690500Y22239738D01*
X1690500Y23094748D01*
X1678867Y23153231D01*
X1634552Y23219552D01*
X1568231Y23263867D01*
X1558668Y23265769D01*
X1558666Y23265770D01*
X1535995Y23270279D01*
X1509748Y23275500D01*
X-229748Y23275500D01*
X-255995Y23270279D01*
X-278666Y23265770D01*
X-278668Y23265769D01*
X-288231Y23263867D01*
X-354552Y23219552D01*
X-398867Y23153231D01*
X-410500Y23094748D01*
X-410500Y21355252D01*
X-8689500Y21355252D01*
X-8689500Y26059731D01*
X9730164Y26059731D01*
X9743392Y25857906D01*
X9793178Y25661872D01*
X9877856Y25478193D01*
X9994588Y25313020D01*
X10139466Y25171887D01*
X10307637Y25059518D01*
X10493470Y24979678D01*
X10690740Y24935040D01*
X10892842Y24927100D01*
X10946377Y24934862D01*
X11088519Y24955471D01*
X11088522Y24955472D01*
X11093007Y24956122D01*
X11188769Y24988629D01*
X11280234Y25019677D01*
X11280237Y25019679D01*
X11284531Y25021136D01*
X11461001Y25119963D01*
X11616505Y25249295D01*
X11745837Y25404799D01*
X11844664Y25581269D01*
X11873520Y25666274D01*
X11908219Y25768496D01*
X11909678Y25772793D01*
X11938700Y25972958D01*
X11940215Y26030800D01*
X11921708Y26232209D01*
X11866807Y26426874D01*
X11777351Y26608273D01*
X11656335Y26770333D01*
X11507812Y26907626D01*
X11485125Y26921941D01*
X11340594Y27013133D01*
X11336757Y27015554D01*
X11148898Y27090502D01*
X10950526Y27129961D01*
X10850930Y27131265D01*
X10752826Y27132549D01*
X10752821Y27132549D01*
X10748286Y27132608D01*
X10743813Y27131839D01*
X10743808Y27131839D01*
X10645245Y27114902D01*
X10548949Y27098356D01*
X10359193Y27028351D01*
X10185371Y26924938D01*
X10181956Y26921943D01*
X10181953Y26921941D01*
X10165630Y26907626D01*
X10033305Y26791580D01*
X9908089Y26632743D01*
X9813914Y26453747D01*
X9753937Y26260587D01*
X9730164Y26059731D01*
X-8689500Y26059731D01*
X-8689500Y31225406D01*
X-3756926Y31225406D01*
X-3756157Y31220933D01*
X-3756157Y31220928D01*
X-3720332Y31012435D01*
X-3720330Y31012429D01*
X-3719562Y31007957D01*
X-3709995Y30982025D01*
X-3652357Y30825790D01*
X-3643196Y30800957D01*
X-3530386Y30611341D01*
X-3527391Y30607926D01*
X-3527389Y30607923D01*
X-3505287Y30582721D01*
X-3384910Y30445457D01*
X-3381348Y30442649D01*
X-3215205Y30311673D01*
X-3215202Y30311671D01*
X-3211640Y30308863D01*
X-3207622Y30306749D01*
X-3020391Y30208241D01*
X-3020388Y30208240D01*
X-3016380Y30206131D01*
X-2933126Y30180280D01*
X-2810006Y30142050D01*
X-2810003Y30142049D01*
X-2805667Y30140703D01*
X-2801157Y30140169D01*
X-2801156Y30140169D01*
X-2764064Y30135779D01*
X-2626524Y30119500D01*
X-1199030Y30119500D01*
X-1035289Y30134546D01*
X-822936Y30194435D01*
X-818864Y30196443D01*
X-818859Y30196445D01*
X-629125Y30290012D01*
X-629126Y30290012D01*
X-625053Y30292020D01*
X-448267Y30424033D01*
X-298499Y30586051D01*
X-180764Y30772650D01*
X-99006Y30977579D01*
X-55962Y31193976D01*
X-53074Y31414594D01*
X-53843Y31419072D01*
X-89668Y31627565D01*
X-89670Y31627571D01*
X-90438Y31632043D01*
X-166804Y31839043D01*
X-279614Y32028659D01*
X-301792Y32053949D01*
X-422098Y32191131D01*
X-425090Y32194543D01*
X-441279Y32207305D01*
X-594795Y32328327D01*
X-594798Y32328329D01*
X-598360Y32331137D01*
X-630373Y32347980D01*
X-789609Y32431759D01*
X-789612Y32431760D01*
X-793620Y32433869D01*
X-888146Y32463220D01*
X-999994Y32497950D01*
X-999997Y32497951D01*
X-1004333Y32499297D01*
X-1008843Y32499831D01*
X-1008844Y32499831D01*
X-1056353Y32505454D01*
X-1183476Y32520500D01*
X-2610970Y32520500D01*
X-2774711Y32505454D01*
X-2779083Y32504221D01*
X-2924463Y32463220D01*
X-2987064Y32445565D01*
X-2991136Y32443557D01*
X-2991141Y32443555D01*
X-3155247Y32362627D01*
X-3184947Y32347980D01*
X-3361733Y32215967D01*
X-3511501Y32053949D01*
X-3629236Y31867350D01*
X-3710994Y31662421D01*
X-3754038Y31446024D01*
X-3756926Y31225406D01*
X-8689500Y31225406D01*
X-8689500Y33030800D01*
X6729778Y33030800D01*
X6729990Y33027566D01*
X6748223Y32749390D01*
X6748644Y32742961D01*
X6804919Y32460047D01*
X6897641Y32186898D01*
X7025222Y31928189D01*
X7185480Y31688346D01*
X7375673Y31471473D01*
X7592546Y31281280D01*
X7832389Y31121022D01*
X8091098Y30993441D01*
X8364247Y30900719D01*
X8647161Y30844444D01*
X8650383Y30844233D01*
X8650389Y30844232D01*
X8931766Y30825790D01*
X8935000Y30825578D01*
X8938234Y30825790D01*
X9219611Y30844232D01*
X9219617Y30844233D01*
X9222839Y30844444D01*
X9505753Y30900719D01*
X9778902Y30993441D01*
X10037611Y31121022D01*
X10277454Y31281280D01*
X10494327Y31471473D01*
X10684520Y31688346D01*
X10844778Y31928189D01*
X10972359Y32186898D01*
X11065081Y32460047D01*
X11121356Y32742961D01*
X11121778Y32749390D01*
X11140010Y33027566D01*
X11140222Y33030800D01*
X11125102Y33261491D01*
X11121568Y33315411D01*
X11121567Y33315417D01*
X11121356Y33318639D01*
X11065081Y33601553D01*
X10972359Y33874702D01*
X10844778Y34133411D01*
X10684520Y34373254D01*
X10494327Y34590127D01*
X10277454Y34780320D01*
X10226160Y34814594D01*
X10040315Y34938771D01*
X10037611Y34940578D01*
X9778902Y35068159D01*
X9505753Y35160881D01*
X9222839Y35217156D01*
X9219617Y35217367D01*
X9219611Y35217368D01*
X8938234Y35235810D01*
X8935000Y35236022D01*
X8931766Y35235810D01*
X8650389Y35217368D01*
X8650383Y35217367D01*
X8647161Y35217156D01*
X8364247Y35160881D01*
X8091098Y35068159D01*
X7832389Y34940578D01*
X7829685Y34938771D01*
X7643841Y34814594D01*
X7592546Y34780320D01*
X7375673Y34590127D01*
X7185480Y34373254D01*
X7025222Y34133411D01*
X6897641Y33874702D01*
X6804919Y33601553D01*
X6748644Y33318639D01*
X6748433Y33315417D01*
X6748432Y33315411D01*
X6744898Y33261491D01*
X6729778Y33030800D01*
X-8689500Y33030800D01*
X-8689500Y34625406D01*
X-3756926Y34625406D01*
X-3756157Y34620933D01*
X-3756157Y34620928D01*
X-3720332Y34412435D01*
X-3720330Y34412429D01*
X-3719562Y34407957D01*
X-3643196Y34200957D01*
X-3530386Y34011341D01*
X-3527391Y34007926D01*
X-3527389Y34007923D01*
X-3505287Y33982721D01*
X-3384910Y33845457D01*
X-3381348Y33842649D01*
X-3215205Y33711673D01*
X-3215202Y33711671D01*
X-3211640Y33708863D01*
X-3207622Y33706749D01*
X-3020391Y33608241D01*
X-3020388Y33608240D01*
X-3016380Y33606131D01*
X-2933126Y33580280D01*
X-2810006Y33542050D01*
X-2810003Y33542049D01*
X-2805667Y33540703D01*
X-2801157Y33540169D01*
X-2801156Y33540169D01*
X-2764064Y33535779D01*
X-2626524Y33519500D01*
X-1199030Y33519500D01*
X-1035289Y33534546D01*
X-822936Y33594435D01*
X-818864Y33596443D01*
X-818859Y33596445D01*
X-629125Y33690012D01*
X-629126Y33690012D01*
X-625053Y33692020D01*
X-448267Y33824033D01*
X-298499Y33986051D01*
X-180764Y34172650D01*
X-99006Y34377579D01*
X-55962Y34593976D01*
X-54539Y34702653D01*
X-53133Y34810054D01*
X-53133Y34810059D01*
X-53074Y34814594D01*
X-53843Y34819072D01*
X-89668Y35027565D01*
X-89670Y35027571D01*
X-90438Y35032043D01*
X-138201Y35161512D01*
X-165231Y35234780D01*
X-165232Y35234783D01*
X-166804Y35239043D01*
X-279614Y35428659D01*
X-301792Y35453949D01*
X-422098Y35591131D01*
X-425090Y35594543D01*
X-441279Y35607305D01*
X-594795Y35728327D01*
X-594798Y35728329D01*
X-598360Y35731137D01*
X-630373Y35747980D01*
X-789609Y35831759D01*
X-789612Y35831760D01*
X-793620Y35833869D01*
X-876874Y35859720D01*
X-999994Y35897950D01*
X-999997Y35897951D01*
X-1004333Y35899297D01*
X-1008843Y35899831D01*
X-1008844Y35899831D01*
X-1056353Y35905454D01*
X-1183476Y35920500D01*
X-2610970Y35920500D01*
X-2774711Y35905454D01*
X-2987064Y35845565D01*
X-2991136Y35843557D01*
X-2991141Y35843555D01*
X-3155247Y35762627D01*
X-3184947Y35747980D01*
X-3361733Y35615967D01*
X-3511501Y35453949D01*
X-3629236Y35267350D01*
X-3710994Y35062421D01*
X-3754038Y34846024D01*
X-3756926Y34625406D01*
X-8689500Y34625406D01*
X-8689500Y47300829D01*
X-3359261Y47300829D01*
X-3330386Y47109901D01*
X-3263710Y46928679D01*
X-3261070Y46924421D01*
X-3261069Y46924419D01*
X-3209479Y46841214D01*
X-3161955Y46764566D01*
X-3029279Y46624265D01*
X-3025174Y46621391D01*
X-3025171Y46621388D01*
X-2946406Y46566237D01*
X-2871102Y46513509D01*
X-2866506Y46511520D01*
X-2866504Y46511519D01*
X-2774691Y46471788D01*
X-2693885Y46436820D01*
X-2573221Y46411612D01*
X-2508592Y46398110D01*
X-2508590Y46398110D01*
X-2504867Y46397332D01*
X-2498532Y46397000D01*
X-1356741Y46397000D01*
X-1354253Y46397253D01*
X-1354248Y46397253D01*
X-1217877Y46411105D01*
X-1217873Y46411106D01*
X-1212890Y46411612D01*
X-1028627Y46469356D01*
X-859739Y46562972D01*
X-713125Y46688636D01*
X-650920Y46768830D01*
X-597844Y46837254D01*
X-597841Y46837259D01*
X-594773Y46841214D01*
X-509519Y47014474D01*
X-460845Y47201337D01*
X-450739Y47394171D01*
X-479614Y47585099D01*
X-546290Y47766321D01*
X-597734Y47849292D01*
X-645401Y47926170D01*
X-645402Y47926171D01*
X-648045Y47930434D01*
X-780721Y48070735D01*
X-784826Y48073609D01*
X-784829Y48073612D01*
X-934792Y48178616D01*
X-938898Y48181491D01*
X-943494Y48183480D01*
X-943496Y48183481D01*
X-1111519Y48256191D01*
X-1111518Y48256191D01*
X-1116115Y48258180D01*
X-1250938Y48286346D01*
X-1301408Y48296890D01*
X-1301410Y48296890D01*
X-1305133Y48297668D01*
X-1311468Y48298000D01*
X-2453259Y48298000D01*
X-2455747Y48297747D01*
X-2455752Y48297747D01*
X-2592123Y48283895D01*
X-2592127Y48283894D01*
X-2597110Y48283388D01*
X-2781373Y48225644D01*
X-2950261Y48132028D01*
X-2954070Y48128763D01*
X-3057736Y48039910D01*
X-3096875Y48006364D01*
X-3099952Y48002397D01*
X-3212156Y47857746D01*
X-3212159Y47857741D01*
X-3215227Y47853786D01*
X-3300481Y47680526D01*
X-3349155Y47493663D01*
X-3359261Y47300829D01*
X-8689500Y47300829D01*
X-8689500Y49800829D01*
X-3359261Y49800829D01*
X-3330386Y49609901D01*
X-3263710Y49428679D01*
X-3261070Y49424421D01*
X-3261069Y49424419D01*
X-3209479Y49341214D01*
X-3161955Y49264566D01*
X-3029279Y49124265D01*
X-3025174Y49121391D01*
X-3025171Y49121388D01*
X-2946406Y49066237D01*
X-2871102Y49013509D01*
X-2866506Y49011520D01*
X-2866504Y49011519D01*
X-2833151Y48997086D01*
X-2693885Y48936820D01*
X-2573221Y48911612D01*
X-2508592Y48898110D01*
X-2508590Y48898110D01*
X-2504867Y48897332D01*
X-2498532Y48897000D01*
X-1356741Y48897000D01*
X-1354253Y48897253D01*
X-1354248Y48897253D01*
X-1217877Y48911105D01*
X-1217873Y48911106D01*
X-1212890Y48911612D01*
X-1028627Y48969356D01*
X-859739Y49062972D01*
X-713125Y49188636D01*
X-650920Y49268830D01*
X-597844Y49337254D01*
X-597841Y49337259D01*
X-594773Y49341214D01*
X-509519Y49514474D01*
X-460845Y49701337D01*
X-450739Y49894171D01*
X-479614Y50085099D01*
X-546290Y50266321D01*
X-597734Y50349292D01*
X-645401Y50426170D01*
X-645402Y50426171D01*
X-648045Y50430434D01*
X-780721Y50570735D01*
X-784826Y50573609D01*
X-784829Y50573612D01*
X-934792Y50678616D01*
X-938898Y50681491D01*
X-943494Y50683480D01*
X-943496Y50683481D01*
X-1111519Y50756191D01*
X-1111518Y50756191D01*
X-1116115Y50758180D01*
X-1250938Y50786346D01*
X-1301408Y50796890D01*
X-1301410Y50796890D01*
X-1305133Y50797668D01*
X-1311468Y50798000D01*
X-2453259Y50798000D01*
X-2455747Y50797747D01*
X-2455752Y50797747D01*
X-2592123Y50783895D01*
X-2592127Y50783894D01*
X-2597110Y50783388D01*
X-2781373Y50725644D01*
X-2950261Y50632028D01*
X-3096875Y50506364D01*
X-3099952Y50502397D01*
X-3212156Y50357746D01*
X-3212159Y50357741D01*
X-3215227Y50353786D01*
X-3300481Y50180526D01*
X-3349155Y49993663D01*
X-3359261Y49800829D01*
X-8689500Y49800829D01*
X-8689500Y52300829D01*
X-3359261Y52300829D01*
X-3330386Y52109901D01*
X-3263710Y51928679D01*
X-3261070Y51924421D01*
X-3261069Y51924419D01*
X-3209479Y51841214D01*
X-3161955Y51764566D01*
X-3029279Y51624265D01*
X-3025174Y51621391D01*
X-3025171Y51621388D01*
X-3003461Y51606187D01*
X-2871102Y51513509D01*
X-2866506Y51511520D01*
X-2866504Y51511519D01*
X-2781198Y51474604D01*
X-2693885Y51436820D01*
X-2573221Y51411612D01*
X-2508592Y51398110D01*
X-2508590Y51398110D01*
X-2504867Y51397332D01*
X-2498532Y51397000D01*
X-1356741Y51397000D01*
X-1354253Y51397253D01*
X-1354248Y51397253D01*
X-1217877Y51411105D01*
X-1217873Y51411106D01*
X-1212890Y51411612D01*
X-1028627Y51469356D01*
X-859739Y51562972D01*
X-713125Y51688636D01*
X-646853Y51774073D01*
X-597844Y51837254D01*
X-597841Y51837259D01*
X-594773Y51841214D01*
X-509519Y52014474D01*
X-479238Y52130725D01*
X-462110Y52196479D01*
X-462109Y52196483D01*
X-460845Y52201337D01*
X-450739Y52394171D01*
X-479614Y52585099D01*
X-546290Y52766321D01*
X-597734Y52849292D01*
X-645401Y52926170D01*
X-645402Y52926171D01*
X-648045Y52930434D01*
X-780721Y53070735D01*
X-784826Y53073609D01*
X-784829Y53073612D01*
X-934792Y53178616D01*
X-938898Y53181491D01*
X-943494Y53183480D01*
X-943496Y53183481D01*
X-1111519Y53256191D01*
X-1111518Y53256191D01*
X-1116115Y53258180D01*
X-1250938Y53286346D01*
X-1301408Y53296890D01*
X-1301410Y53296890D01*
X-1305133Y53297668D01*
X-1311468Y53298000D01*
X-2453259Y53298000D01*
X-2455747Y53297747D01*
X-2455752Y53297747D01*
X-2592123Y53283895D01*
X-2592127Y53283894D01*
X-2597110Y53283388D01*
X-2781373Y53225644D01*
X-2950261Y53132028D01*
X-3096875Y53006364D01*
X-3099952Y53002397D01*
X-3212156Y52857746D01*
X-3212159Y52857741D01*
X-3215227Y52853786D01*
X-3300481Y52680526D01*
X-3301745Y52675672D01*
X-3336985Y52540383D01*
X-3349155Y52493663D01*
X-3359261Y52300829D01*
X-8689500Y52300829D01*
X-8689500Y60090252D01*
X-4225500Y60090252D01*
X-4213867Y60031769D01*
X-4169552Y59965448D01*
X-4103231Y59921133D01*
X-4093668Y59919231D01*
X-4093666Y59919230D01*
X-4070995Y59914721D01*
X-4044748Y59909500D01*
X-2305252Y59909500D01*
X-2279005Y59914721D01*
X-2256334Y59919230D01*
X-2256332Y59919231D01*
X-2246769Y59921133D01*
X-2180448Y59965448D01*
X-2136133Y60031769D01*
X-2124500Y60090252D01*
X-2124500Y61829748D01*
X-2136133Y61888231D01*
X-2180448Y61954552D01*
X-2246769Y61998867D01*
X-2256332Y62000769D01*
X-2256334Y62000770D01*
X-2279005Y62005279D01*
X-2305252Y62010500D01*
X-4044748Y62010500D01*
X-4070995Y62005279D01*
X-4093666Y62000770D01*
X-4093668Y62000769D01*
X-4103231Y61998867D01*
X-4169552Y61954552D01*
X-4213867Y61888231D01*
X-4225500Y61829748D01*
X-4225500Y60090252D01*
X-8689500Y60090252D01*
X-8689500Y63514738D01*
X-4230480Y63514738D01*
X-4230075Y63509918D01*
X-4214578Y63325373D01*
X-4213241Y63309447D01*
X-4211908Y63304799D01*
X-4211908Y63304798D01*
X-4182747Y63203103D01*
X-4156456Y63111414D01*
X-4062288Y62928182D01*
X-3934323Y62766730D01*
X-3930643Y62763598D01*
X-3930641Y62763596D01*
X-3875691Y62716830D01*
X-3777436Y62633209D01*
X-3773213Y62630849D01*
X-3773209Y62630846D01*
X-3733658Y62608742D01*
X-3597602Y62532703D01*
X-3593004Y62531209D01*
X-3406276Y62470537D01*
X-3406274Y62470536D01*
X-3401671Y62469041D01*
X-3197106Y62444649D01*
X-3192284Y62445020D01*
X-3192281Y62445020D01*
X-3124459Y62450239D01*
X-2991700Y62460454D01*
X-2793275Y62515855D01*
X-2788962Y62518034D01*
X-2788956Y62518036D01*
X-2613711Y62606559D01*
X-2613709Y62606560D01*
X-2609390Y62608742D01*
X-2581098Y62630846D01*
X-2450865Y62732594D01*
X-2450861Y62732598D01*
X-2447049Y62735576D01*
X-2438201Y62745826D01*
X-2382917Y62809874D01*
X-2312436Y62891528D01*
X-2293769Y62924387D01*
X-2213066Y63066450D01*
X-2213065Y63066453D01*
X-2210677Y63070656D01*
X-2200238Y63102035D01*
X-2147176Y63261546D01*
X-2147176Y63261548D01*
X-2145649Y63266137D01*
X-2143259Y63285051D01*
X-2120177Y63467772D01*
X-2119829Y63470526D01*
X-2119417Y63500000D01*
X-2139520Y63705030D01*
X-2147603Y63731804D01*
X-2191967Y63878742D01*
X-2199065Y63902251D01*
X-2295782Y64084151D01*
X-2425989Y64243800D01*
X-2537983Y64336450D01*
X-2580998Y64372035D01*
X-2581000Y64372036D01*
X-2584725Y64375118D01*
X-2765945Y64473103D01*
X-2829145Y64492667D01*
X-2958125Y64532593D01*
X-2958129Y64532594D01*
X-2962746Y64534023D01*
X-2967554Y64534528D01*
X-2967557Y64534529D01*
X-3162815Y64555051D01*
X-3162817Y64555051D01*
X-3167631Y64555557D01*
X-3227646Y64550095D01*
X-3367978Y64537325D01*
X-3367983Y64537324D01*
X-3372797Y64536886D01*
X-3570428Y64478720D01*
X-3574712Y64476481D01*
X-3574713Y64476480D01*
X-3585572Y64470803D01*
X-3752998Y64383274D01*
X-3756769Y64380242D01*
X-3909780Y64257219D01*
X-3909783Y64257217D01*
X-3913553Y64254185D01*
X-3916667Y64250474D01*
X-3916668Y64250473D01*
X-3987767Y64165740D01*
X-4045976Y64096370D01*
X-4048311Y64092122D01*
X-4048312Y64092121D01*
X-4055045Y64079874D01*
X-4145224Y63915838D01*
X-4146687Y63911225D01*
X-4146689Y63911221D01*
X-4181586Y63801209D01*
X-4207516Y63719468D01*
X-4208056Y63714656D01*
X-4208056Y63714655D01*
X-4209135Y63705030D01*
X-4230480Y63514738D01*
X-8689500Y63514738D01*
X-8689500Y66054738D01*
X-4230480Y66054738D01*
X-4213241Y65849447D01*
X-4211908Y65844799D01*
X-4211908Y65844798D01*
X-4181914Y65740198D01*
X-4156456Y65651414D01*
X-4062288Y65468182D01*
X-3934323Y65306730D01*
X-3930643Y65303598D01*
X-3930641Y65303596D01*
X-3860848Y65244198D01*
X-3777436Y65173209D01*
X-3773213Y65170849D01*
X-3773209Y65170846D01*
X-3733658Y65148742D01*
X-3597602Y65072703D01*
X-3593004Y65071209D01*
X-3406276Y65010537D01*
X-3406274Y65010536D01*
X-3401671Y65009041D01*
X-3197106Y64984649D01*
X-3192284Y64985020D01*
X-3192281Y64985020D01*
X-3124459Y64990239D01*
X-2991700Y65000454D01*
X-2793275Y65055855D01*
X-2788962Y65058034D01*
X-2788956Y65058036D01*
X-2613711Y65146559D01*
X-2613709Y65146560D01*
X-2609390Y65148742D01*
X-2581098Y65170846D01*
X-2450865Y65272594D01*
X-2450861Y65272598D01*
X-2447049Y65275576D01*
X-2312436Y65431528D01*
X-2293769Y65464387D01*
X-2213066Y65606450D01*
X-2213065Y65606453D01*
X-2210677Y65610656D01*
X-2200238Y65642035D01*
X-2147176Y65801546D01*
X-2147176Y65801548D01*
X-2145649Y65806137D01*
X-2143259Y65825051D01*
X-2120177Y66007772D01*
X-2119829Y66010526D01*
X-2119417Y66040000D01*
X-2121333Y66059546D01*
X-2139048Y66240220D01*
X-2139049Y66240224D01*
X-2139520Y66245030D01*
X-2149615Y66278468D01*
X-2192829Y66421596D01*
X-2199065Y66442251D01*
X-2295782Y66624151D01*
X-2425989Y66783800D01*
X-2479450Y66828027D01*
X-2580998Y66912035D01*
X-2581000Y66912036D01*
X-2584725Y66915118D01*
X-2765945Y67013103D01*
X-2829145Y67032667D01*
X-2958125Y67072593D01*
X-2958129Y67072594D01*
X-2962746Y67074023D01*
X-2967554Y67074528D01*
X-2967557Y67074529D01*
X-3162815Y67095051D01*
X-3162817Y67095051D01*
X-3167631Y67095557D01*
X-3227646Y67090095D01*
X-3367978Y67077325D01*
X-3367983Y67077324D01*
X-3372797Y67076886D01*
X-3570428Y67018720D01*
X-3574712Y67016481D01*
X-3574713Y67016480D01*
X-3585572Y67010803D01*
X-3752998Y66923274D01*
X-3756769Y66920242D01*
X-3909780Y66797219D01*
X-3909783Y66797217D01*
X-3913553Y66794185D01*
X-3916667Y66790474D01*
X-3916668Y66790473D01*
X-3987767Y66705740D01*
X-4045976Y66636370D01*
X-4048311Y66632122D01*
X-4048312Y66632121D01*
X-4055045Y66619874D01*
X-4145224Y66455838D01*
X-4146687Y66451225D01*
X-4146689Y66451221D01*
X-4181586Y66341209D01*
X-4207516Y66259468D01*
X-4208056Y66254656D01*
X-4208056Y66254655D01*
X-4209135Y66245030D01*
X-4230480Y66054738D01*
X-8689500Y66054738D01*
X-8689500Y68594738D01*
X-4230480Y68594738D01*
X-4213241Y68389447D01*
X-4211908Y68384799D01*
X-4211908Y68384798D01*
X-4182747Y68283103D01*
X-4156456Y68191414D01*
X-4062288Y68008182D01*
X-3934323Y67846730D01*
X-3777436Y67713209D01*
X-3773213Y67710849D01*
X-3773209Y67710846D01*
X-3656298Y67645507D01*
X-3597602Y67612703D01*
X-3593004Y67611209D01*
X-3406276Y67550537D01*
X-3406274Y67550536D01*
X-3401671Y67549041D01*
X-3197106Y67524649D01*
X-3192284Y67525020D01*
X-3192281Y67525020D01*
X-3124459Y67530239D01*
X-2991700Y67540454D01*
X-2793275Y67595855D01*
X-2762836Y67611231D01*
X-2702371Y67620592D01*
X-2648195Y67592869D01*
X-1941996Y66886670D01*
X-1914219Y66832153D01*
X-1913000Y66816666D01*
X-1913000Y62288534D01*
X-1913377Y62279905D01*
X-1916764Y62241193D01*
X-1914522Y62232826D01*
X-1906704Y62203651D01*
X-1904834Y62195217D01*
X-1898088Y62156955D01*
X-1893758Y62149456D01*
X-1891762Y62143971D01*
X-1889296Y62138684D01*
X-1887054Y62130316D01*
X-1866487Y62100944D01*
X-1864768Y62098489D01*
X-1860129Y62091208D01*
X-1840694Y62057545D01*
X-1819126Y62039447D01*
X-1810929Y62032569D01*
X-1804561Y62026735D01*
X12113160Y48109014D01*
X12140937Y48054497D01*
X12131366Y47994065D01*
X12121381Y47978332D01*
X12027844Y47857746D01*
X12027841Y47857741D01*
X12024773Y47853786D01*
X11939519Y47680526D01*
X11890845Y47493663D01*
X11880739Y47300829D01*
X11909614Y47109901D01*
X11976290Y46928679D01*
X11978930Y46924421D01*
X11978931Y46924419D01*
X12030521Y46841214D01*
X12078045Y46764566D01*
X12210721Y46624265D01*
X12214826Y46621391D01*
X12214829Y46621388D01*
X12293594Y46566237D01*
X12368898Y46513509D01*
X12373494Y46511520D01*
X12373496Y46511519D01*
X12465309Y46471788D01*
X12546115Y46436820D01*
X12666779Y46411612D01*
X12731408Y46398110D01*
X12731410Y46398110D01*
X12735133Y46397332D01*
X12741468Y46397000D01*
X13883259Y46397000D01*
X13885747Y46397253D01*
X13885752Y46397253D01*
X14022123Y46411105D01*
X14022127Y46411106D01*
X14027110Y46411612D01*
X14211373Y46469356D01*
X14380261Y46562972D01*
X14526875Y46688636D01*
X14589080Y46768830D01*
X14642156Y46837254D01*
X14642159Y46837259D01*
X14645227Y46841214D01*
X14730481Y47014474D01*
X14779155Y47201337D01*
X14789261Y47394171D01*
X14760386Y47585099D01*
X14693710Y47766321D01*
X14642266Y47849292D01*
X14594599Y47926170D01*
X14594598Y47926171D01*
X14591955Y47930434D01*
X14459279Y48070735D01*
X14455174Y48073609D01*
X14455171Y48073612D01*
X14305208Y48178616D01*
X14301102Y48181491D01*
X14296506Y48183480D01*
X14296504Y48183481D01*
X14128481Y48256191D01*
X14128482Y48256191D01*
X14123885Y48258180D01*
X13989062Y48286346D01*
X13938592Y48296890D01*
X13938590Y48296890D01*
X13934867Y48297668D01*
X13928532Y48298000D01*
X12885834Y48298000D01*
X12827643Y48316907D01*
X12815830Y48326996D01*
X12313525Y48829301D01*
X12285748Y48883818D01*
X12295319Y48944250D01*
X12338584Y48987515D01*
X12399016Y48997086D01*
X12422848Y48990163D01*
X12546115Y48936820D01*
X12666779Y48911612D01*
X12731408Y48898110D01*
X12731410Y48898110D01*
X12735133Y48897332D01*
X12741468Y48897000D01*
X13883259Y48897000D01*
X13885747Y48897253D01*
X13885752Y48897253D01*
X14022123Y48911105D01*
X14022127Y48911106D01*
X14027110Y48911612D01*
X14211373Y48969356D01*
X14380261Y49062972D01*
X14526875Y49188636D01*
X14589080Y49268830D01*
X14642156Y49337254D01*
X14642159Y49337259D01*
X14645227Y49341214D01*
X14730481Y49514474D01*
X14779155Y49701337D01*
X14789261Y49894171D01*
X14760386Y50085099D01*
X14693710Y50266321D01*
X14642266Y50349292D01*
X14594599Y50426170D01*
X14594598Y50426171D01*
X14591955Y50430434D01*
X14459279Y50570735D01*
X14455174Y50573609D01*
X14455171Y50573612D01*
X14305208Y50678616D01*
X14301102Y50681491D01*
X14296506Y50683480D01*
X14296504Y50683481D01*
X14128481Y50756191D01*
X14128482Y50756191D01*
X14123885Y50758180D01*
X13989062Y50786346D01*
X13938592Y50796890D01*
X13938590Y50796890D01*
X13934867Y50797668D01*
X13928532Y50798000D01*
X12786741Y50798000D01*
X12784253Y50797747D01*
X12784248Y50797747D01*
X12647877Y50783895D01*
X12647873Y50783894D01*
X12642890Y50783388D01*
X12458627Y50725644D01*
X12289739Y50632028D01*
X12143125Y50506364D01*
X12140048Y50502397D01*
X12027844Y50357746D01*
X12027841Y50357741D01*
X12024773Y50353786D01*
X12022562Y50349292D01*
X11979228Y50261226D01*
X11936571Y50217362D01*
X11876279Y50206947D01*
X11820395Y50234931D01*
X9817839Y52237487D01*
X11790627Y52237487D01*
X11798168Y52154617D01*
X11799974Y52145154D01*
X11855378Y51956907D01*
X11858991Y51947966D01*
X11949899Y51774073D01*
X11955184Y51765997D01*
X12078140Y51613071D01*
X12084881Y51606187D01*
X12235205Y51480051D01*
X12243159Y51474604D01*
X12415111Y51380073D01*
X12423976Y51376273D01*
X12611021Y51316939D01*
X12620449Y51314935D01*
X12773133Y51297809D01*
X12778662Y51297500D01*
X13219320Y51297500D01*
X13232005Y51301622D01*
X13235000Y51305743D01*
X13235000Y51313180D01*
X13435000Y51313180D01*
X13439122Y51300495D01*
X13443243Y51297500D01*
X13884404Y51297500D01*
X13889219Y51297735D01*
X14035123Y51312041D01*
X14044561Y51313910D01*
X14232428Y51370631D01*
X14241332Y51374301D01*
X14414599Y51466428D01*
X14422624Y51471760D01*
X14574693Y51595784D01*
X14581534Y51602578D01*
X14706619Y51753779D01*
X14712003Y51761762D01*
X14805340Y51934386D01*
X14809069Y51943257D01*
X14867100Y52130725D01*
X14869037Y52140159D01*
X14878680Y52231906D01*
X14875907Y52244952D01*
X14874055Y52246619D01*
X14869912Y52247500D01*
X13450680Y52247500D01*
X13437995Y52243378D01*
X13435000Y52239257D01*
X13435000Y51313180D01*
X13235000Y51313180D01*
X13235000Y52231820D01*
X13230878Y52244505D01*
X13226757Y52247500D01*
X11805396Y52247500D01*
X11792711Y52243378D01*
X11791028Y52241063D01*
X11790627Y52237487D01*
X9817839Y52237487D01*
X9592232Y52463094D01*
X11791320Y52463094D01*
X11794093Y52450048D01*
X11795945Y52448381D01*
X11800088Y52447500D01*
X13219320Y52447500D01*
X13232005Y52451622D01*
X13235000Y52455743D01*
X13235000Y52463180D01*
X13435000Y52463180D01*
X13439122Y52450495D01*
X13443243Y52447500D01*
X14864604Y52447500D01*
X14877289Y52451622D01*
X14878972Y52453937D01*
X14879373Y52457513D01*
X14871832Y52540383D01*
X14870026Y52549846D01*
X14814622Y52738093D01*
X14811009Y52747034D01*
X14720101Y52920927D01*
X14714816Y52929003D01*
X14591860Y53081929D01*
X14585119Y53088813D01*
X14434795Y53214949D01*
X14426841Y53220396D01*
X14254889Y53314927D01*
X14246024Y53318727D01*
X14058979Y53378061D01*
X14049551Y53380065D01*
X13896867Y53397191D01*
X13891338Y53397500D01*
X13450680Y53397500D01*
X13437995Y53393378D01*
X13435000Y53389257D01*
X13435000Y52463180D01*
X13235000Y52463180D01*
X13235000Y53381820D01*
X13230878Y53394505D01*
X13226757Y53397500D01*
X12785596Y53397500D01*
X12780781Y53397265D01*
X12634877Y53382959D01*
X12625439Y53381090D01*
X12437572Y53324369D01*
X12428668Y53320699D01*
X12255401Y53228572D01*
X12247376Y53223240D01*
X12095307Y53099216D01*
X12088466Y53092422D01*
X11963381Y52941221D01*
X11957997Y52933238D01*
X11864660Y52760614D01*
X11860931Y52751743D01*
X11802900Y52564275D01*
X11800963Y52554841D01*
X11791320Y52463094D01*
X9592232Y52463094D01*
X-189412Y62244738D01*
X13549520Y62244738D01*
X13550526Y62232756D01*
X13565707Y62051978D01*
X13566759Y62039447D01*
X13623544Y61841414D01*
X13717712Y61658182D01*
X13845677Y61496730D01*
X13849357Y61493598D01*
X13849359Y61493596D01*
X13962017Y61397717D01*
X14002564Y61363209D01*
X14006787Y61360849D01*
X14006791Y61360846D01*
X14046342Y61338742D01*
X14182398Y61262703D01*
X14186996Y61261209D01*
X14373724Y61200537D01*
X14373726Y61200536D01*
X14378329Y61199041D01*
X14582894Y61174649D01*
X14587716Y61175020D01*
X14587719Y61175020D01*
X14655541Y61180239D01*
X14788300Y61190454D01*
X14986725Y61245855D01*
X14991038Y61248034D01*
X14991044Y61248036D01*
X15166289Y61336559D01*
X15166291Y61336560D01*
X15170610Y61338742D01*
X15205943Y61366347D01*
X15329135Y61462594D01*
X15329139Y61462598D01*
X15332951Y61465576D01*
X15467564Y61621528D01*
X15486231Y61654387D01*
X15566934Y61796450D01*
X15566935Y61796453D01*
X15569323Y61800656D01*
X15580586Y61834512D01*
X15632824Y61991546D01*
X15632824Y61991548D01*
X15634351Y61996137D01*
X15636166Y62010500D01*
X15659823Y62197772D01*
X15660171Y62200526D01*
X15660583Y62230000D01*
X15658667Y62249546D01*
X15640952Y62430220D01*
X15640951Y62430224D01*
X15640480Y62435030D01*
X15630385Y62468468D01*
X15588033Y62608742D01*
X15580935Y62632251D01*
X15484218Y62814151D01*
X15354011Y62973800D01*
X15242017Y63066450D01*
X15199002Y63102035D01*
X15199000Y63102036D01*
X15195275Y63105118D01*
X15014055Y63203103D01*
X14950855Y63222667D01*
X14821875Y63262593D01*
X14821871Y63262594D01*
X14817254Y63264023D01*
X14812446Y63264528D01*
X14812443Y63264529D01*
X14617185Y63285051D01*
X14617183Y63285051D01*
X14612369Y63285557D01*
X14552354Y63280095D01*
X14412022Y63267325D01*
X14412017Y63267324D01*
X14407203Y63266886D01*
X14209572Y63208720D01*
X14205288Y63206481D01*
X14205287Y63206480D01*
X14194428Y63200803D01*
X14027002Y63113274D01*
X14023231Y63110242D01*
X13870220Y62987219D01*
X13870217Y62987217D01*
X13866447Y62984185D01*
X13863333Y62980474D01*
X13863332Y62980473D01*
X13787705Y62890344D01*
X13734024Y62826370D01*
X13731689Y62822122D01*
X13731688Y62822121D01*
X13724955Y62809874D01*
X13634776Y62645838D01*
X13633313Y62641225D01*
X13633311Y62641221D01*
X13598414Y62531209D01*
X13572484Y62449468D01*
X13571944Y62444656D01*
X13571944Y62444655D01*
X13553465Y62279905D01*
X13549520Y62244738D01*
X-189412Y62244738D01*
X-661504Y62716830D01*
X-689281Y62771347D01*
X-690500Y62786834D01*
X-690500Y63790989D01*
X-671593Y63849180D01*
X-622093Y63885144D01*
X-560907Y63885144D01*
X-509185Y63845990D01*
X-472434Y63790989D01*
X-434520Y63734246D01*
X-244327Y63517373D01*
X-27454Y63327180D01*
X212389Y63166922D01*
X471098Y63039341D01*
X744247Y62946619D01*
X1027161Y62890344D01*
X1030383Y62890133D01*
X1030389Y62890132D01*
X1311766Y62871690D01*
X1315000Y62871478D01*
X1318234Y62871690D01*
X1599611Y62890132D01*
X1599617Y62890133D01*
X1602839Y62890344D01*
X1885753Y62946619D01*
X2158902Y63039341D01*
X2417611Y63166922D01*
X2657454Y63327180D01*
X2874327Y63517373D01*
X3064520Y63734246D01*
X3102435Y63790989D01*
X3144649Y63854168D01*
X3224778Y63974089D01*
X3352359Y64232798D01*
X3445081Y64505947D01*
X3501356Y64788861D01*
X3515886Y65010537D01*
X3520010Y65073466D01*
X3520222Y65076700D01*
X7909778Y65076700D01*
X7909990Y65073466D01*
X7914115Y65010537D01*
X7928644Y64788861D01*
X7984919Y64505947D01*
X8077641Y64232798D01*
X8205222Y63974089D01*
X8285351Y63854168D01*
X8327566Y63790989D01*
X8365480Y63734246D01*
X8555673Y63517373D01*
X8772546Y63327180D01*
X9012389Y63166922D01*
X9271098Y63039341D01*
X9544247Y62946619D01*
X9827161Y62890344D01*
X9830383Y62890133D01*
X9830389Y62890132D01*
X10111766Y62871690D01*
X10115000Y62871478D01*
X10118234Y62871690D01*
X10399611Y62890132D01*
X10399617Y62890133D01*
X10402839Y62890344D01*
X10685753Y62946619D01*
X10958902Y63039341D01*
X11217611Y63166922D01*
X11457454Y63327180D01*
X11674327Y63517373D01*
X11864520Y63734246D01*
X11902435Y63790989D01*
X11944649Y63854168D01*
X12024778Y63974089D01*
X12152359Y64232798D01*
X12245081Y64505947D01*
X12301356Y64788861D01*
X12315886Y65010537D01*
X12320010Y65073466D01*
X12320222Y65076700D01*
X12313959Y65172251D01*
X12301568Y65361311D01*
X12301567Y65361317D01*
X12301356Y65364539D01*
X12245081Y65647453D01*
X12152359Y65920602D01*
X12024778Y66179311D01*
X11914025Y66345064D01*
X11866327Y66416450D01*
X11866325Y66416452D01*
X11864520Y66419154D01*
X11681450Y66627905D01*
X11676473Y66633580D01*
X11674327Y66636027D01*
X11457454Y66826220D01*
X11217611Y66986478D01*
X10958902Y67114059D01*
X10685753Y67206781D01*
X10402839Y67263056D01*
X10399617Y67263267D01*
X10399611Y67263268D01*
X10118234Y67281710D01*
X10115000Y67281922D01*
X10111766Y67281710D01*
X9830389Y67263268D01*
X9830383Y67263267D01*
X9827161Y67263056D01*
X9544247Y67206781D01*
X9271098Y67114059D01*
X9012389Y66986478D01*
X8772546Y66826220D01*
X8555673Y66636027D01*
X8553527Y66633580D01*
X8548550Y66627905D01*
X8365480Y66419154D01*
X8363675Y66416452D01*
X8363673Y66416450D01*
X8315975Y66345064D01*
X8205222Y66179311D01*
X8077641Y65920602D01*
X7984919Y65647453D01*
X7928644Y65364539D01*
X7928433Y65361317D01*
X7928432Y65361311D01*
X7916041Y65172251D01*
X7909778Y65076700D01*
X3520222Y65076700D01*
X3513959Y65172251D01*
X3501568Y65361311D01*
X3501567Y65361317D01*
X3501356Y65364539D01*
X3445081Y65647453D01*
X3352359Y65920602D01*
X3224778Y66179311D01*
X3114025Y66345064D01*
X3066327Y66416450D01*
X3066325Y66416452D01*
X3064520Y66419154D01*
X2881450Y66627905D01*
X2876473Y66633580D01*
X2874327Y66636027D01*
X2657454Y66826220D01*
X2417611Y66986478D01*
X2158902Y67114059D01*
X1885753Y67206781D01*
X1602839Y67263056D01*
X1599617Y67263267D01*
X1599611Y67263268D01*
X1318234Y67281710D01*
X1315000Y67281922D01*
X1311766Y67281710D01*
X1030389Y67263268D01*
X1030383Y67263267D01*
X1027161Y67263056D01*
X744247Y67206781D01*
X471098Y67114059D01*
X212389Y66986478D01*
X-27454Y66826220D01*
X-244327Y66636027D01*
X-246473Y66633580D01*
X-251450Y66627905D01*
X-434520Y66419154D01*
X-436325Y66416452D01*
X-436327Y66416450D01*
X-509185Y66307410D01*
X-557234Y66269530D01*
X-618373Y66267128D01*
X-669246Y66301121D01*
X-690500Y66362411D01*
X-690500Y68942466D01*
X-690123Y68951095D01*
X-687491Y68981178D01*
X-686736Y68989807D01*
X-696796Y69027350D01*
X-698666Y69035784D01*
X-703908Y69065517D01*
X-703909Y69065519D01*
X-705412Y69074045D01*
X-709742Y69081544D01*
X-711738Y69087029D01*
X-714204Y69092316D01*
X-716446Y69100684D01*
X-738732Y69132511D01*
X-743373Y69139795D01*
X-762806Y69173455D01*
X-792571Y69198431D01*
X-798939Y69204265D01*
X-2186077Y70591403D01*
X-2213854Y70645920D01*
X-2210012Y70692656D01*
X-2198552Y70727104D01*
X-2145649Y70886137D01*
X-2143259Y70905051D01*
X-2120177Y71087772D01*
X-2119829Y71090526D01*
X-2119417Y71120000D01*
X-2124198Y71168766D01*
X-2139048Y71320220D01*
X-2139049Y71320224D01*
X-2139520Y71325030D01*
X-2159144Y71390029D01*
X-2197667Y71517620D01*
X-2199065Y71522251D01*
X-2295782Y71704151D01*
X-2425989Y71863800D01*
X-2584725Y71995118D01*
X-2765945Y72093103D01*
X-2806416Y72105631D01*
X2110164Y72105631D01*
X2123392Y71903806D01*
X2173178Y71707772D01*
X2257856Y71524093D01*
X2374588Y71358920D01*
X2519466Y71217787D01*
X2687637Y71105418D01*
X2873470Y71025578D01*
X3070740Y70980940D01*
X3272842Y70973000D01*
X3326377Y70980762D01*
X3468519Y71001371D01*
X3468522Y71001372D01*
X3473007Y71002022D01*
X3568769Y71034529D01*
X3660234Y71065577D01*
X3660237Y71065579D01*
X3664531Y71067036D01*
X3841001Y71165863D01*
X3996505Y71295195D01*
X4125837Y71450699D01*
X4132037Y71461769D01*
X4164788Y71520252D01*
X4224664Y71627169D01*
X4253502Y71712121D01*
X4288219Y71814396D01*
X4289678Y71818693D01*
X4296666Y71866885D01*
X4315258Y71995118D01*
X4318700Y72018858D01*
X4320215Y72076700D01*
X4318577Y72094532D01*
X4317557Y72105631D01*
X4610164Y72105631D01*
X4623392Y71903806D01*
X4673178Y71707772D01*
X4757856Y71524093D01*
X4874588Y71358920D01*
X5019466Y71217787D01*
X5187637Y71105418D01*
X5373470Y71025578D01*
X5570740Y70980940D01*
X5772842Y70973000D01*
X5826377Y70980762D01*
X5968519Y71001371D01*
X5968522Y71001372D01*
X5973007Y71002022D01*
X6068769Y71034529D01*
X6160234Y71065577D01*
X6160237Y71065579D01*
X6164531Y71067036D01*
X6341001Y71165863D01*
X6496505Y71295195D01*
X6625837Y71450699D01*
X6632037Y71461769D01*
X6664788Y71520252D01*
X6724664Y71627169D01*
X6753502Y71712121D01*
X6788219Y71814396D01*
X6789678Y71818693D01*
X6796666Y71866885D01*
X6815258Y71995118D01*
X6818700Y72018858D01*
X6820215Y72076700D01*
X6818577Y72094532D01*
X6817557Y72105631D01*
X7110164Y72105631D01*
X7123392Y71903806D01*
X7173178Y71707772D01*
X7257856Y71524093D01*
X7374588Y71358920D01*
X7519466Y71217787D01*
X7687637Y71105418D01*
X7873470Y71025578D01*
X7877894Y71024577D01*
X7877897Y71024576D01*
X7881022Y71023869D01*
X7882164Y71023190D01*
X7882215Y71023173D01*
X7882211Y71023161D01*
X7933606Y70992586D01*
X7944910Y70976810D01*
X7961806Y70947545D01*
X7983374Y70929447D01*
X7991571Y70922569D01*
X7997939Y70916735D01*
X13615959Y65298715D01*
X13643736Y65244198D01*
X13636963Y65189816D01*
X13634776Y65185838D01*
X13572484Y64989468D01*
X13571944Y64984656D01*
X13571944Y64984655D01*
X13550345Y64792089D01*
X13549520Y64784738D01*
X13566759Y64579447D01*
X13568092Y64574799D01*
X13568092Y64574798D01*
X13597253Y64473103D01*
X13623544Y64381414D01*
X13717712Y64198182D01*
X13845677Y64036730D01*
X13849357Y64033598D01*
X13849359Y64033596D01*
X13915857Y63977002D01*
X14002564Y63903209D01*
X14006787Y63900849D01*
X14006791Y63900846D01*
X14046342Y63878742D01*
X14182398Y63802703D01*
X14186996Y63801209D01*
X14373724Y63740537D01*
X14373726Y63740536D01*
X14378329Y63739041D01*
X14582894Y63714649D01*
X14587716Y63715020D01*
X14587719Y63715020D01*
X14655541Y63720239D01*
X14788300Y63730454D01*
X14986725Y63785855D01*
X14991038Y63788034D01*
X14991044Y63788036D01*
X15166289Y63876559D01*
X15166291Y63876560D01*
X15170610Y63878742D01*
X15198902Y63900846D01*
X15329135Y64002594D01*
X15329139Y64002598D01*
X15332951Y64005576D01*
X15467564Y64161528D01*
X15486231Y64194387D01*
X15566934Y64336450D01*
X15566935Y64336453D01*
X15569323Y64340656D01*
X15579762Y64372035D01*
X15632824Y64531546D01*
X15632824Y64531548D01*
X15634351Y64536137D01*
X15636741Y64555051D01*
X15659823Y64737772D01*
X15660171Y64740526D01*
X15660583Y64770000D01*
X15640480Y64975030D01*
X15630385Y65008468D01*
X15588033Y65148742D01*
X15580935Y65172251D01*
X15484218Y65354151D01*
X15354011Y65513800D01*
X15242017Y65606450D01*
X15199002Y65642035D01*
X15199000Y65642036D01*
X15195275Y65645118D01*
X15014055Y65743103D01*
X14950855Y65762667D01*
X14821875Y65802593D01*
X14821871Y65802594D01*
X14817254Y65804023D01*
X14812446Y65804528D01*
X14812443Y65804529D01*
X14617185Y65825051D01*
X14617183Y65825051D01*
X14612369Y65825557D01*
X14552354Y65820095D01*
X14412022Y65807325D01*
X14412017Y65807324D01*
X14407203Y65806886D01*
X14209572Y65748720D01*
X14193271Y65740198D01*
X14132943Y65729993D01*
X14077399Y65757927D01*
X12510588Y67324738D01*
X13549520Y67324738D01*
X13566759Y67119447D01*
X13568092Y67114799D01*
X13568092Y67114798D01*
X13597253Y67013103D01*
X13623544Y66921414D01*
X13717712Y66738182D01*
X13845677Y66576730D01*
X13849357Y66573598D01*
X13849359Y66573596D01*
X13962017Y66477717D01*
X14002564Y66443209D01*
X14006787Y66440849D01*
X14006791Y66440846D01*
X14123702Y66375507D01*
X14182398Y66342703D01*
X14186996Y66341209D01*
X14373724Y66280537D01*
X14373726Y66280536D01*
X14378329Y66279041D01*
X14582894Y66254649D01*
X14587716Y66255020D01*
X14587719Y66255020D01*
X14655541Y66260239D01*
X14788300Y66270454D01*
X14986725Y66325855D01*
X14991038Y66328034D01*
X14991044Y66328036D01*
X15166289Y66416559D01*
X15166291Y66416560D01*
X15170610Y66418742D01*
X15198902Y66440846D01*
X15329135Y66542594D01*
X15329139Y66542598D01*
X15332951Y66545576D01*
X15467564Y66701528D01*
X15486231Y66734387D01*
X15566934Y66876450D01*
X15566935Y66876453D01*
X15569323Y66880656D01*
X15579762Y66912035D01*
X15632824Y67071546D01*
X15632824Y67071548D01*
X15634351Y67076137D01*
X15636741Y67095051D01*
X15659823Y67277772D01*
X15660171Y67280526D01*
X15660583Y67310000D01*
X15658667Y67329546D01*
X15640952Y67510220D01*
X15640951Y67510224D01*
X15640480Y67515030D01*
X15630385Y67548468D01*
X15582333Y67707620D01*
X15580935Y67712251D01*
X15484218Y67894151D01*
X15354011Y68053800D01*
X15337790Y68067219D01*
X15199002Y68182035D01*
X15199000Y68182036D01*
X15195275Y68185118D01*
X15014055Y68283103D01*
X14950855Y68302667D01*
X14821875Y68342593D01*
X14821871Y68342594D01*
X14817254Y68344023D01*
X14812446Y68344528D01*
X14812443Y68344529D01*
X14617185Y68365051D01*
X14617183Y68365051D01*
X14612369Y68365557D01*
X14552354Y68360095D01*
X14412022Y68347325D01*
X14412017Y68347324D01*
X14407203Y68346886D01*
X14209572Y68288720D01*
X14205288Y68286481D01*
X14205287Y68286480D01*
X14194428Y68280803D01*
X14027002Y68193274D01*
X14023231Y68190242D01*
X13870220Y68067219D01*
X13870217Y68067217D01*
X13866447Y68064185D01*
X13863333Y68060474D01*
X13863332Y68060473D01*
X13819455Y68008182D01*
X13734024Y67906370D01*
X13731689Y67902122D01*
X13731688Y67902121D01*
X13724955Y67889874D01*
X13634776Y67725838D01*
X13633313Y67721225D01*
X13633311Y67721221D01*
X13598421Y67611231D01*
X13572484Y67529468D01*
X13571944Y67524656D01*
X13571944Y67524655D01*
X13570865Y67515030D01*
X13549520Y67324738D01*
X12510588Y67324738D01*
X9970588Y69864738D01*
X13549520Y69864738D01*
X13566759Y69659447D01*
X13568092Y69654799D01*
X13568092Y69654798D01*
X13597253Y69553103D01*
X13623544Y69461414D01*
X13717712Y69278182D01*
X13845677Y69116730D01*
X13849357Y69113598D01*
X13849359Y69113596D01*
X13895832Y69074045D01*
X14002564Y68983209D01*
X14006787Y68980849D01*
X14006791Y68980846D01*
X14123702Y68915507D01*
X14182398Y68882703D01*
X14186996Y68881209D01*
X14373724Y68820537D01*
X14373726Y68820536D01*
X14378329Y68819041D01*
X14582894Y68794649D01*
X14587716Y68795020D01*
X14587719Y68795020D01*
X14655541Y68800239D01*
X14788300Y68810454D01*
X14986725Y68865855D01*
X14991038Y68868034D01*
X14991044Y68868036D01*
X15166289Y68956559D01*
X15166291Y68956560D01*
X15170610Y68958742D01*
X15199327Y68981178D01*
X15329135Y69082594D01*
X15329139Y69082598D01*
X15332951Y69085576D01*
X15467564Y69241528D01*
X15486231Y69274387D01*
X15566934Y69416450D01*
X15566935Y69416453D01*
X15569323Y69420656D01*
X15579762Y69452035D01*
X15632824Y69611546D01*
X15632824Y69611548D01*
X15634351Y69616137D01*
X15636741Y69635051D01*
X15659823Y69817772D01*
X15660171Y69820526D01*
X15660583Y69850000D01*
X15640480Y70055030D01*
X15630385Y70088468D01*
X15582333Y70247620D01*
X15580935Y70252251D01*
X15484218Y70434151D01*
X15354011Y70593800D01*
X15337790Y70607219D01*
X15199002Y70722035D01*
X15199000Y70722036D01*
X15195275Y70725118D01*
X15014055Y70823103D01*
X14950855Y70842667D01*
X14821875Y70882593D01*
X14821871Y70882594D01*
X14817254Y70884023D01*
X14812446Y70884528D01*
X14812443Y70884529D01*
X14617185Y70905051D01*
X14617183Y70905051D01*
X14612369Y70905557D01*
X14552354Y70900095D01*
X14412022Y70887325D01*
X14412017Y70887324D01*
X14407203Y70886886D01*
X14209572Y70828720D01*
X14205288Y70826481D01*
X14205287Y70826480D01*
X14194428Y70820803D01*
X14027002Y70733274D01*
X14023231Y70730242D01*
X13870220Y70607219D01*
X13870217Y70607217D01*
X13866447Y70604185D01*
X13863333Y70600474D01*
X13863332Y70600473D01*
X13819455Y70548182D01*
X13734024Y70446370D01*
X13731689Y70442122D01*
X13731688Y70442121D01*
X13724955Y70429874D01*
X13634776Y70265838D01*
X13633313Y70261225D01*
X13633311Y70261221D01*
X13598421Y70151231D01*
X13572484Y70069468D01*
X13571944Y70064656D01*
X13571944Y70064655D01*
X13570865Y70055030D01*
X13549520Y69864738D01*
X9970588Y69864738D01*
X8823207Y71012119D01*
X8795430Y71066636D01*
X8805001Y71127068D01*
X8837117Y71163688D01*
X8841001Y71165863D01*
X8996505Y71295195D01*
X9125837Y71450699D01*
X9132037Y71461769D01*
X9164788Y71520252D01*
X13554500Y71520252D01*
X13566133Y71461769D01*
X13610448Y71395448D01*
X13676769Y71351133D01*
X13686332Y71349231D01*
X13686334Y71349230D01*
X13709005Y71344721D01*
X13735252Y71339500D01*
X15474748Y71339500D01*
X15500995Y71344721D01*
X15523666Y71349230D01*
X15523668Y71349231D01*
X15533231Y71351133D01*
X15599552Y71395448D01*
X15643867Y71461769D01*
X15655500Y71520252D01*
X15655500Y73259748D01*
X15643867Y73318231D01*
X15599552Y73384552D01*
X15533231Y73428867D01*
X15523668Y73430769D01*
X15523666Y73430770D01*
X15500995Y73435279D01*
X15474748Y73440500D01*
X13735252Y73440500D01*
X13709005Y73435279D01*
X13686334Y73430770D01*
X13686332Y73430769D01*
X13676769Y73428867D01*
X13610448Y73384552D01*
X13566133Y73318231D01*
X13554500Y73259748D01*
X13554500Y71520252D01*
X9164788Y71520252D01*
X9224664Y71627169D01*
X9253502Y71712121D01*
X9288219Y71814396D01*
X9289678Y71818693D01*
X9296666Y71866885D01*
X9315258Y71995118D01*
X9318700Y72018858D01*
X9320215Y72076700D01*
X9318577Y72094532D01*
X9302123Y72273591D01*
X9301708Y72278109D01*
X9246807Y72472774D01*
X9157351Y72654173D01*
X9036335Y72816233D01*
X8887812Y72953526D01*
X8865125Y72967841D01*
X8720594Y73059033D01*
X8716757Y73061454D01*
X8528898Y73136402D01*
X8330526Y73175861D01*
X8230930Y73177165D01*
X8132826Y73178449D01*
X8132821Y73178449D01*
X8128286Y73178508D01*
X8123813Y73177739D01*
X8123808Y73177739D01*
X8025245Y73160802D01*
X7928949Y73144256D01*
X7739193Y73074251D01*
X7565371Y72970838D01*
X7561956Y72967843D01*
X7561953Y72967841D01*
X7492316Y72906771D01*
X7413305Y72837480D01*
X7410497Y72833918D01*
X7352172Y72759932D01*
X7288089Y72678643D01*
X7193914Y72499647D01*
X7133937Y72306487D01*
X7110164Y72105631D01*
X6817557Y72105631D01*
X6802123Y72273591D01*
X6801708Y72278109D01*
X6746807Y72472774D01*
X6657351Y72654173D01*
X6536335Y72816233D01*
X6387812Y72953526D01*
X6365125Y72967841D01*
X6220594Y73059033D01*
X6216757Y73061454D01*
X6028898Y73136402D01*
X5830526Y73175861D01*
X5730930Y73177165D01*
X5632826Y73178449D01*
X5632821Y73178449D01*
X5628286Y73178508D01*
X5623813Y73177739D01*
X5623808Y73177739D01*
X5525245Y73160802D01*
X5428949Y73144256D01*
X5239193Y73074251D01*
X5065371Y72970838D01*
X5061956Y72967843D01*
X5061953Y72967841D01*
X4992316Y72906771D01*
X4913305Y72837480D01*
X4910497Y72833918D01*
X4852172Y72759932D01*
X4788089Y72678643D01*
X4693914Y72499647D01*
X4633937Y72306487D01*
X4610164Y72105631D01*
X4317557Y72105631D01*
X4302123Y72273591D01*
X4301708Y72278109D01*
X4246807Y72472774D01*
X4157351Y72654173D01*
X4036335Y72816233D01*
X3887812Y72953526D01*
X3865125Y72967841D01*
X3720594Y73059033D01*
X3716757Y73061454D01*
X3528898Y73136402D01*
X3330526Y73175861D01*
X3230930Y73177165D01*
X3132826Y73178449D01*
X3132821Y73178449D01*
X3128286Y73178508D01*
X3123813Y73177739D01*
X3123808Y73177739D01*
X3025245Y73160802D01*
X2928949Y73144256D01*
X2739193Y73074251D01*
X2565371Y72970838D01*
X2561956Y72967843D01*
X2561953Y72967841D01*
X2492316Y72906771D01*
X2413305Y72837480D01*
X2410497Y72833918D01*
X2352172Y72759932D01*
X2288089Y72678643D01*
X2193914Y72499647D01*
X2133937Y72306487D01*
X2110164Y72105631D01*
X-2806416Y72105631D01*
X-2829145Y72112667D01*
X-2958125Y72152593D01*
X-2958129Y72152594D01*
X-2962746Y72154023D01*
X-2967554Y72154528D01*
X-2967557Y72154529D01*
X-3162815Y72175051D01*
X-3162817Y72175051D01*
X-3167631Y72175557D01*
X-3227646Y72170095D01*
X-3367978Y72157325D01*
X-3367983Y72157324D01*
X-3372797Y72156886D01*
X-3570428Y72098720D01*
X-3574712Y72096481D01*
X-3574713Y72096480D01*
X-3585572Y72090803D01*
X-3752998Y72003274D01*
X-3756769Y72000242D01*
X-3909780Y71877219D01*
X-3909783Y71877217D01*
X-3913553Y71874185D01*
X-3916667Y71870474D01*
X-3916668Y71870473D01*
X-3960116Y71818693D01*
X-4045976Y71716370D01*
X-4048311Y71712122D01*
X-4048312Y71712121D01*
X-4052966Y71703655D01*
X-4145224Y71535838D01*
X-4146687Y71531225D01*
X-4146689Y71531221D01*
X-4172232Y71450699D01*
X-4207516Y71339468D01*
X-4208056Y71334656D01*
X-4208056Y71334655D01*
X-4221447Y71215266D01*
X-4230480Y71134738D01*
X-4227867Y71103625D01*
X-4214293Y70941978D01*
X-4213241Y70929447D01*
X-4211908Y70924799D01*
X-4211908Y70924798D01*
X-4182747Y70823103D01*
X-4156456Y70731414D01*
X-4062288Y70548182D01*
X-3934323Y70386730D01*
X-3777436Y70253209D01*
X-3773213Y70250849D01*
X-3773209Y70250846D01*
X-3656298Y70185507D01*
X-3597602Y70152703D01*
X-3593004Y70151209D01*
X-3406276Y70090537D01*
X-3406274Y70090536D01*
X-3401671Y70089041D01*
X-3197106Y70064649D01*
X-3192284Y70065020D01*
X-3192281Y70065020D01*
X-3124459Y70070239D01*
X-2991700Y70080454D01*
X-2793275Y70135855D01*
X-2762836Y70151231D01*
X-2702371Y70160592D01*
X-2648195Y70132869D01*
X-1370496Y68855170D01*
X-1342719Y68800653D01*
X-1341500Y68785166D01*
X-1341500Y67445834D01*
X-1360407Y67387643D01*
X-1409907Y67351679D01*
X-1471093Y67351679D01*
X-1510504Y67375830D01*
X-2186077Y68051403D01*
X-2213854Y68105920D01*
X-2210012Y68152656D01*
X-2198552Y68187104D01*
X-2145649Y68346137D01*
X-2143259Y68365051D01*
X-2120177Y68547772D01*
X-2119829Y68550526D01*
X-2119417Y68580000D01*
X-2139520Y68785030D01*
X-2149615Y68818468D01*
X-2187053Y68942466D01*
X-2199065Y68982251D01*
X-2295782Y69164151D01*
X-2425989Y69323800D01*
X-2537983Y69416450D01*
X-2580998Y69452035D01*
X-2581000Y69452036D01*
X-2584725Y69455118D01*
X-2765945Y69553103D01*
X-2829145Y69572667D01*
X-2958125Y69612593D01*
X-2958129Y69612594D01*
X-2962746Y69614023D01*
X-2967554Y69614528D01*
X-2967557Y69614529D01*
X-3162815Y69635051D01*
X-3162817Y69635051D01*
X-3167631Y69635557D01*
X-3227646Y69630095D01*
X-3367978Y69617325D01*
X-3367983Y69617324D01*
X-3372797Y69616886D01*
X-3570428Y69558720D01*
X-3574712Y69556481D01*
X-3574713Y69556480D01*
X-3585572Y69550803D01*
X-3752998Y69463274D01*
X-3756769Y69460242D01*
X-3909780Y69337219D01*
X-3909783Y69337217D01*
X-3913553Y69334185D01*
X-3916667Y69330474D01*
X-3916668Y69330473D01*
X-3987767Y69245740D01*
X-4045976Y69176370D01*
X-4048311Y69172122D01*
X-4048312Y69172121D01*
X-4055045Y69159874D01*
X-4145224Y68995838D01*
X-4146687Y68991225D01*
X-4146689Y68991221D01*
X-4181586Y68881209D01*
X-4207516Y68799468D01*
X-4208056Y68794656D01*
X-4208056Y68794655D01*
X-4209135Y68785030D01*
X-4230480Y68594738D01*
X-8689500Y68594738D01*
X-8689500Y73550596D01*
X-4320379Y73550596D01*
X-4316005Y73483855D01*
X-4314592Y73474936D01*
X-4264800Y73278879D01*
X-4261780Y73270351D01*
X-4177096Y73086659D01*
X-4172578Y73078833D01*
X-4055829Y72913637D01*
X-4049965Y72906771D01*
X-3905069Y72765619D01*
X-3898046Y72759932D01*
X-3729862Y72647554D01*
X-3721907Y72643236D01*
X-3536071Y72563394D01*
X-3527460Y72560596D01*
X-3330174Y72515956D01*
X-3321215Y72514776D01*
X-3290666Y72513576D01*
X-3277831Y72517195D01*
X-3275217Y72520511D01*
X-3275000Y72521728D01*
X-3275000Y72528071D01*
X-3075000Y72528071D01*
X-3070878Y72515386D01*
X-3069708Y72514535D01*
X-3063728Y72514025D01*
X-2909885Y72536332D01*
X-2901086Y72538444D01*
X-2709550Y72603462D01*
X-2701286Y72607142D01*
X-2524806Y72705974D01*
X-2517348Y72711100D01*
X-2361843Y72840432D01*
X-2355432Y72846843D01*
X-2226100Y73002348D01*
X-2220974Y73009806D01*
X-2122142Y73186286D01*
X-2118462Y73194550D01*
X-2053444Y73386086D01*
X-2051332Y73394885D01*
X-2029641Y73544482D01*
X-2031900Y73557628D01*
X-2032935Y73558637D01*
X-2038782Y73560000D01*
X-3059320Y73560000D01*
X-3072005Y73555878D01*
X-3075000Y73551757D01*
X-3075000Y72528071D01*
X-3275000Y72528071D01*
X-3275000Y73544320D01*
X-3279122Y73557005D01*
X-3283243Y73560000D01*
X-4305315Y73560000D01*
X-4318000Y73555878D01*
X-4320075Y73553022D01*
X-4320379Y73550596D01*
X-8689500Y73550596D01*
X-8689500Y73775572D01*
X-4319430Y73775572D01*
X-4316828Y73762490D01*
X-4315253Y73761034D01*
X-4310539Y73760000D01*
X-3290680Y73760000D01*
X-3277995Y73764122D01*
X-3275000Y73768243D01*
X-3275000Y73775680D01*
X-3075000Y73775680D01*
X-3070878Y73762995D01*
X-3066757Y73760000D01*
X-2044942Y73760000D01*
X-2032257Y73764122D01*
X-2030588Y73766418D01*
X-2030184Y73770035D01*
X-2038997Y73865952D01*
X-2040644Y73874836D01*
X-2095551Y74069519D01*
X-2098792Y74077963D01*
X-2188255Y74259376D01*
X-2192980Y74267086D01*
X-2314006Y74429160D01*
X-2320055Y74435878D01*
X-2468595Y74573186D01*
X-2475760Y74578685D01*
X-2646837Y74686626D01*
X-2654890Y74690729D01*
X-2842771Y74765686D01*
X-2851429Y74768251D01*
X-3049824Y74807714D01*
X-3058815Y74808659D01*
X-3059324Y74808666D01*
X-3072059Y74804711D01*
X-3074996Y74800778D01*
X-3075000Y74800754D01*
X-3075000Y73775680D01*
X-3275000Y73775680D01*
X-3275000Y74794074D01*
X-3279122Y74806759D01*
X-3279726Y74807198D01*
X-3286873Y74807714D01*
X-3469441Y74776343D01*
X-3478177Y74774002D01*
X-3667950Y74703991D01*
X-3676113Y74700098D01*
X-3849953Y74596674D01*
X-3857255Y74591369D01*
X-4009343Y74457990D01*
X-4015566Y74451432D01*
X-4140791Y74292585D01*
X-4145716Y74285002D01*
X-4239903Y74105982D01*
X-4243357Y74097642D01*
X-4303342Y73904462D01*
X-4305223Y73895612D01*
X-4319430Y73775572D01*
X-8689500Y73775572D01*
X-8689500Y77387254D01*
X-3801142Y77387254D01*
X-3766743Y77225425D01*
X-3763555Y77215613D01*
X-3690824Y77052256D01*
X-3685671Y77043331D01*
X-3580560Y76898659D01*
X-3573661Y76890996D01*
X-3440776Y76771346D01*
X-3432429Y76765281D01*
X-3277572Y76675875D01*
X-3268140Y76671676D01*
X-3098090Y76616423D01*
X-3087990Y76614276D01*
X-2954728Y76600270D01*
X-2949583Y76600000D01*
X-2020680Y76600000D01*
X-2007995Y76604122D01*
X-2005000Y76608243D01*
X-2005000Y76615680D01*
X-1805000Y76615680D01*
X-1800878Y76602995D01*
X-1796757Y76600000D01*
X-860417Y76600000D01*
X-855272Y76600270D01*
X-722010Y76614276D01*
X-711910Y76616423D01*
X-541860Y76671676D01*
X-532428Y76675875D01*
X-377571Y76765281D01*
X-369224Y76771346D01*
X-236342Y76890994D01*
X-229435Y76898665D01*
X-124334Y77043324D01*
X-119175Y77052259D01*
X-46445Y77215613D01*
X-43257Y77225425D01*
X-9409Y77384662D01*
X-10785Y77397750D01*
X-19182Y77400000D01*
X-1789320Y77400000D01*
X-1802005Y77395878D01*
X-1805000Y77391757D01*
X-1805000Y76615680D01*
X-2005000Y76615680D01*
X-2005000Y77384320D01*
X-2009122Y77397005D01*
X-2013243Y77400000D01*
X-3788171Y77400000D01*
X-3800687Y77395933D01*
X-3801142Y77387254D01*
X-8689500Y77387254D01*
X-8689500Y77505624D01*
X11629455Y77505624D01*
X11648227Y77327017D01*
X11650011Y77321777D01*
X11650011Y77321776D01*
X11682812Y77225425D01*
X11706103Y77157007D01*
X11709001Y77152297D01*
X11709003Y77152292D01*
X11770546Y77052256D01*
X11800206Y77004045D01*
X11925859Y76875732D01*
X12076817Y76778446D01*
X12245578Y76717022D01*
X12384283Y76699500D01*
X14280155Y76699500D01*
X14282909Y76699809D01*
X14282911Y76699809D01*
X14310291Y76702880D01*
X14413472Y76714454D01*
X14559428Y76765281D01*
X14577847Y76771695D01*
X14577848Y76771695D01*
X14583073Y76773515D01*
X14620979Y76797201D01*
X14730685Y76865753D01*
X14730687Y76865755D01*
X14735375Y76868684D01*
X14862807Y76995230D01*
X14865774Y76999905D01*
X14956071Y77142190D01*
X14956072Y77142191D01*
X14959037Y77146864D01*
X15019281Y77316049D01*
X15028807Y77395933D01*
X15039890Y77488880D01*
X15039890Y77488883D01*
X15040545Y77494376D01*
X15021773Y77672983D01*
X15016266Y77689160D01*
X14965682Y77837751D01*
X14965680Y77837755D01*
X14963897Y77842993D01*
X14960999Y77847703D01*
X14960997Y77847708D01*
X14872691Y77991246D01*
X14869794Y77995955D01*
X14744141Y78124268D01*
X14593183Y78221554D01*
X14424422Y78282978D01*
X14285717Y78300500D01*
X12389845Y78300500D01*
X12387091Y78300191D01*
X12387089Y78300191D01*
X12359709Y78297120D01*
X12256528Y78285546D01*
X12251296Y78283724D01*
X12093156Y78228654D01*
X12086927Y78226485D01*
X12082234Y78223553D01*
X12082235Y78223553D01*
X11939315Y78134247D01*
X11939313Y78134245D01*
X11934625Y78131316D01*
X11807193Y78004770D01*
X11804227Y78000096D01*
X11804226Y78000095D01*
X11776672Y77956676D01*
X11710963Y77853136D01*
X11650719Y77683951D01*
X11650065Y77678464D01*
X11650064Y77678461D01*
X11630110Y77511120D01*
X11629455Y77505624D01*
X-8689500Y77505624D01*
X-8689500Y77615338D01*
X-3800591Y77615338D01*
X-3799215Y77602250D01*
X-3790818Y77600000D01*
X-2020680Y77600000D01*
X-2007995Y77604122D01*
X-2005000Y77608243D01*
X-2005000Y77615680D01*
X-1805000Y77615680D01*
X-1800878Y77602995D01*
X-1796757Y77600000D01*
X-21829Y77600000D01*
X-9313Y77604067D01*
X-8858Y77612746D01*
X-43257Y77774575D01*
X-46445Y77784387D01*
X-119176Y77947744D01*
X-124329Y77956669D01*
X-229440Y78101341D01*
X-236339Y78109004D01*
X-369224Y78228654D01*
X-377571Y78234719D01*
X-532428Y78324125D01*
X-541860Y78328324D01*
X-711910Y78383577D01*
X-722010Y78385724D01*
X-855272Y78399730D01*
X-860417Y78400000D01*
X-1789320Y78400000D01*
X-1802005Y78395878D01*
X-1805000Y78391757D01*
X-1805000Y77615680D01*
X-2005000Y77615680D01*
X-2005000Y78384320D01*
X-2009122Y78397005D01*
X-2013243Y78400000D01*
X-2949583Y78400000D01*
X-2954728Y78399730D01*
X-3087990Y78385724D01*
X-3098090Y78383577D01*
X-3268140Y78328324D01*
X-3277572Y78324125D01*
X-3432429Y78234719D01*
X-3440776Y78228654D01*
X-3573658Y78109006D01*
X-3580565Y78101335D01*
X-3685666Y77956676D01*
X-3690825Y77947741D01*
X-3763555Y77784387D01*
X-3766743Y77774575D01*
X-3800591Y77615338D01*
X-8689500Y77615338D01*
X-8689500Y79054845D01*
X-5205500Y79054845D01*
X-5190546Y78921528D01*
X-5131485Y78751927D01*
X-5122262Y78737167D01*
X-5053689Y78627428D01*
X-5036316Y78599625D01*
X-4909770Y78472193D01*
X-4905096Y78469227D01*
X-4905095Y78469226D01*
X-4783023Y78391757D01*
X-4758136Y78375963D01*
X-4588951Y78315719D01*
X-4583464Y78315065D01*
X-4583461Y78315064D01*
X-4416120Y78295110D01*
X-4416117Y78295110D01*
X-4410624Y78294455D01*
X-4232017Y78313227D01*
X-4226777Y78315011D01*
X-4226776Y78315011D01*
X-4067249Y78369318D01*
X-4067245Y78369320D01*
X-4062007Y78371103D01*
X-4057297Y78374001D01*
X-4057292Y78374003D01*
X-3913754Y78462309D01*
X-3909045Y78465206D01*
X-3780732Y78590859D01*
X-3683446Y78741817D01*
X-3622022Y78910578D01*
X-3604500Y79049283D01*
X-3604500Y79054845D01*
X-205500Y79054845D01*
X-190546Y78921528D01*
X-131485Y78751927D01*
X-122262Y78737167D01*
X-53689Y78627428D01*
X-36316Y78599625D01*
X90230Y78472193D01*
X94904Y78469227D01*
X94905Y78469226D01*
X216977Y78391757D01*
X241864Y78375963D01*
X411049Y78315719D01*
X416536Y78315065D01*
X416539Y78315064D01*
X583880Y78295110D01*
X583883Y78295110D01*
X589376Y78294455D01*
X767983Y78313227D01*
X773223Y78315011D01*
X773224Y78315011D01*
X932751Y78369318D01*
X932755Y78369320D01*
X937993Y78371103D01*
X942703Y78374001D01*
X942708Y78374003D01*
X1086246Y78462309D01*
X1090955Y78465206D01*
X1219268Y78590859D01*
X1316554Y78741817D01*
X1377978Y78910578D01*
X1383642Y78955417D01*
X9935000Y78955417D01*
X9935270Y78950272D01*
X9949276Y78817010D01*
X9951423Y78806910D01*
X10006676Y78636860D01*
X10010875Y78627428D01*
X10100281Y78472571D01*
X10106346Y78464224D01*
X10225994Y78331342D01*
X10233665Y78324435D01*
X10378324Y78219334D01*
X10387259Y78214175D01*
X10550613Y78141445D01*
X10560425Y78138257D01*
X10719662Y78104409D01*
X10732750Y78105785D01*
X10735000Y78114182D01*
X10735000Y78116829D01*
X10935000Y78116829D01*
X10939067Y78104313D01*
X10947746Y78103858D01*
X11109575Y78138257D01*
X11119387Y78141445D01*
X11282744Y78214176D01*
X11291669Y78219329D01*
X11436341Y78324440D01*
X11444004Y78331339D01*
X11563654Y78464224D01*
X11569719Y78472571D01*
X11659125Y78627428D01*
X11663324Y78636860D01*
X11718577Y78806910D01*
X11720724Y78817010D01*
X11734730Y78950272D01*
X11735000Y78955417D01*
X11735000Y79884320D01*
X11730878Y79897005D01*
X11726757Y79900000D01*
X10950680Y79900000D01*
X10937995Y79895878D01*
X10935000Y79891757D01*
X10935000Y78116829D01*
X10735000Y78116829D01*
X10735000Y79884320D01*
X10730878Y79897005D01*
X10726757Y79900000D01*
X9950680Y79900000D01*
X9937995Y79895878D01*
X9935000Y79891757D01*
X9935000Y78955417D01*
X1383642Y78955417D01*
X1395500Y79049283D01*
X1395500Y80115680D01*
X9935000Y80115680D01*
X9939122Y80102995D01*
X9943243Y80100000D01*
X10719320Y80100000D01*
X10732005Y80104122D01*
X10735000Y80108243D01*
X10735000Y80115680D01*
X10935000Y80115680D01*
X10939122Y80102995D01*
X10943243Y80100000D01*
X11719320Y80100000D01*
X11732005Y80104122D01*
X11735000Y80108243D01*
X11735000Y81044583D01*
X11734730Y81049728D01*
X11720724Y81182990D01*
X11718577Y81193090D01*
X11663324Y81363140D01*
X11659125Y81372572D01*
X11569719Y81527429D01*
X11563654Y81535776D01*
X11444006Y81668658D01*
X11436335Y81675565D01*
X11291676Y81780666D01*
X11282741Y81785825D01*
X11119387Y81858555D01*
X11109575Y81861743D01*
X10950338Y81895591D01*
X10937250Y81894215D01*
X10935000Y81885818D01*
X10935000Y80115680D01*
X10735000Y80115680D01*
X10735000Y81883171D01*
X10730933Y81895687D01*
X10722254Y81896142D01*
X10560425Y81861743D01*
X10550613Y81858555D01*
X10387256Y81785824D01*
X10378331Y81780671D01*
X10233659Y81675560D01*
X10225996Y81668661D01*
X10106346Y81535776D01*
X10100281Y81527429D01*
X10010875Y81372572D01*
X10006676Y81363140D01*
X9951423Y81193090D01*
X9949276Y81182990D01*
X9935270Y81049728D01*
X9935000Y81044583D01*
X9935000Y80115680D01*
X1395500Y80115680D01*
X1395500Y80945155D01*
X1380546Y81078472D01*
X1321485Y81248073D01*
X1249583Y81363140D01*
X1229247Y81395685D01*
X1229245Y81395687D01*
X1226316Y81400375D01*
X1099770Y81527807D01*
X1094855Y81530926D01*
X952810Y81621071D01*
X952809Y81621072D01*
X948136Y81624037D01*
X778951Y81684281D01*
X773464Y81684935D01*
X773461Y81684936D01*
X606120Y81704890D01*
X606117Y81704890D01*
X600624Y81705545D01*
X422017Y81686773D01*
X416777Y81684989D01*
X416776Y81684989D01*
X257249Y81630682D01*
X257245Y81630680D01*
X252007Y81628897D01*
X247297Y81625999D01*
X247292Y81625997D01*
X103907Y81537785D01*
X99045Y81534794D01*
X-29268Y81409141D01*
X-126554Y81258183D01*
X-187978Y81089422D01*
X-205500Y80950717D01*
X-205500Y79054845D01*
X-3604500Y79054845D01*
X-3604500Y80945155D01*
X-3619454Y81078472D01*
X-3678515Y81248073D01*
X-3750417Y81363140D01*
X-3770753Y81395685D01*
X-3770755Y81395687D01*
X-3773684Y81400375D01*
X-3900230Y81527807D01*
X-3905145Y81530926D01*
X-4047190Y81621071D01*
X-4047191Y81621072D01*
X-4051864Y81624037D01*
X-4221049Y81684281D01*
X-4226536Y81684935D01*
X-4226539Y81684936D01*
X-4393880Y81704890D01*
X-4393883Y81704890D01*
X-4399376Y81705545D01*
X-4577983Y81686773D01*
X-4583223Y81684989D01*
X-4583224Y81684989D01*
X-4742751Y81630682D01*
X-4742755Y81630680D01*
X-4747993Y81628897D01*
X-4752703Y81625999D01*
X-4752708Y81625997D01*
X-4896093Y81537785D01*
X-4900955Y81534794D01*
X-5029268Y81409141D01*
X-5126554Y81258183D01*
X-5187978Y81089422D01*
X-5205500Y80950717D01*
X-5205500Y79054845D01*
X-8689500Y79054845D01*
X-8689500Y82505624D01*
X11629455Y82505624D01*
X11648227Y82327017D01*
X11706103Y82157007D01*
X11709001Y82152297D01*
X11709003Y82152292D01*
X11715218Y82142190D01*
X11800206Y82004045D01*
X11925859Y81875732D01*
X12076817Y81778446D01*
X12245578Y81717022D01*
X12384283Y81699500D01*
X14280155Y81699500D01*
X14282909Y81699809D01*
X14282911Y81699809D01*
X14310291Y81702880D01*
X14413472Y81714454D01*
X14583073Y81773515D01*
X14620979Y81797201D01*
X14730685Y81865753D01*
X14730687Y81865755D01*
X14735375Y81868684D01*
X14862807Y81995230D01*
X14865774Y81999905D01*
X14956071Y82142190D01*
X14956072Y82142191D01*
X14959037Y82146864D01*
X15019281Y82316049D01*
X15040545Y82494376D01*
X15021773Y82672983D01*
X14963897Y82842993D01*
X14960999Y82847703D01*
X14960997Y82847708D01*
X14872691Y82991246D01*
X14869794Y82995955D01*
X14744141Y83124268D01*
X14593183Y83221554D01*
X14424422Y83282978D01*
X14285717Y83300500D01*
X12389845Y83300500D01*
X12387091Y83300191D01*
X12387089Y83300191D01*
X12359709Y83297120D01*
X12256528Y83285546D01*
X12086927Y83226485D01*
X12082234Y83223553D01*
X12082235Y83223553D01*
X11939315Y83134247D01*
X11939313Y83134245D01*
X11934625Y83131316D01*
X11807193Y83004770D01*
X11804227Y83000096D01*
X11804226Y83000095D01*
X11804106Y82999905D01*
X11710963Y82853136D01*
X11650719Y82683951D01*
X11629455Y82505624D01*
X-8689500Y82505624D01*
X-8689500Y84155500D01*
X-8670593Y84213691D01*
X-8621093Y84249655D01*
X-8590500Y84254500D01*
X20020500Y84254500D01*
X20078691Y84235593D01*
G37*
%TD.AperFunction*%
%TD*%
M02*
