%TF.GenerationSoftware,KiCad,Pcbnew,6.0.4-6f826c9f35~116~ubuntu21.10.1*%
%TF.CreationDate,2022-06-29T08:57:21+02:00*%
%TF.ProjectId,mHz_oscillator,6d487a5f-6f73-4636-996c-6c61746f722e,rev?*%
%TF.SameCoordinates,Original*%
%TF.FileFunction,Legend,Top*%
%TF.FilePolarity,Positive*%
%FSLAX46Y46*%
G04 Gerber Fmt 4.6, Leading zero omitted, Abs format (unit mm)*
G04 Created by KiCad (PCBNEW 6.0.4-6f826c9f35~116~ubuntu21.10.1) date 2022-06-29 08:57:21*
%MOMM*%
%LPD*%
G01*
G04 APERTURE LIST*
%ADD10C,0.150000*%
G04 APERTURE END LIST*
D10*
%TO.C,*%
%TO.C,G\u002A\u002A\u002A*%
G36*
X-34699142Y25439545D02*
G01*
X-34680403Y25531425D01*
X-34643301Y25623182D01*
X-34628897Y25652143D01*
X-34536478Y25789413D01*
X-34417325Y25900754D01*
X-34283876Y25975306D01*
X-34243400Y25988739D01*
X-34139717Y26006345D01*
X-34003276Y26013841D01*
X-33851136Y26011315D01*
X-33700361Y25998855D01*
X-33611338Y25985500D01*
X-33449497Y25955650D01*
X-33449639Y25228336D01*
X-33450567Y25029900D01*
X-33453125Y24846792D01*
X-33457090Y24686102D01*
X-33462239Y24554917D01*
X-33468350Y24460327D01*
X-33475202Y24409420D01*
X-33475330Y24408950D01*
X-33541872Y24259051D01*
X-33647752Y24138252D01*
X-33730161Y24081481D01*
X-33787859Y24052621D01*
X-33845848Y24033598D01*
X-33917421Y24022093D01*
X-34015874Y24015787D01*
X-34123271Y24012922D01*
X-34250743Y24013104D01*
X-34371500Y24017847D01*
X-34469100Y24026277D01*
X-34513927Y24033686D01*
X-34624903Y24059782D01*
X-34608108Y24164917D01*
X-34595454Y24232465D01*
X-34584022Y24274838D01*
X-34581137Y24280239D01*
X-34552872Y24280483D01*
X-34491082Y24270230D01*
X-34438368Y24258585D01*
X-34307676Y24236547D01*
X-34168867Y24228472D01*
X-34037923Y24234029D01*
X-33930827Y24252886D01*
X-33885446Y24270040D01*
X-33818510Y24315882D01*
X-33768158Y24368912D01*
X-33767713Y24369588D01*
X-33746738Y24416889D01*
X-33726901Y24485573D01*
X-33711276Y24559847D01*
X-33702939Y24623921D01*
X-33704964Y24662001D01*
X-33709903Y24666453D01*
X-33739621Y24657525D01*
X-33797063Y24635367D01*
X-33814244Y24628276D01*
X-33921895Y24600715D01*
X-34055482Y24590958D01*
X-34193452Y24598615D01*
X-34314252Y24623292D01*
X-34353519Y24638104D01*
X-34466634Y24712484D01*
X-34568925Y24820981D01*
X-34646333Y24946914D01*
X-34673182Y25017468D01*
X-34690809Y25106627D01*
X-34702388Y25220385D01*
X-34705271Y25319607D01*
X-34431422Y25319607D01*
X-34426054Y25180168D01*
X-34398859Y25055720D01*
X-34368896Y24990630D01*
X-34278352Y24889390D01*
X-34161254Y24827796D01*
X-34024796Y24807419D01*
X-33876173Y24829829D01*
X-33786384Y24863440D01*
X-33703751Y24901311D01*
X-33703751Y25759872D01*
X-33767682Y25775933D01*
X-33825554Y25782740D01*
X-33914275Y25784818D01*
X-34008411Y25781995D01*
X-34143850Y25764830D01*
X-34242932Y25726336D01*
X-34318172Y25659239D01*
X-34375781Y25568517D01*
X-34414739Y25455301D01*
X-34431422Y25319607D01*
X-34705271Y25319607D01*
X-34705351Y25322375D01*
X-34699142Y25439545D01*
G37*
G36*
X-36541737Y87025606D02*
G01*
X-36484542Y86972055D01*
X-36453789Y86900166D01*
X-36455535Y86824144D01*
X-36495838Y86758196D01*
X-36496194Y86757872D01*
X-36565976Y86723161D01*
X-36648538Y86719647D01*
X-36720776Y86746907D01*
X-36738149Y86762294D01*
X-36777632Y86837317D01*
X-36777117Y86917118D01*
X-36742472Y86987660D01*
X-36679564Y87034903D01*
X-36619317Y87046613D01*
X-36541737Y87025606D01*
G37*
G36*
X-35830382Y98739450D02*
G01*
X-35694542Y98714105D01*
X-35619747Y98684475D01*
X-35493747Y98592940D01*
X-35380551Y98463969D01*
X-35291410Y98311005D01*
X-35274950Y98272480D01*
X-35250069Y98202055D01*
X-35233598Y98131096D01*
X-35223927Y98046475D01*
X-35219446Y97935064D01*
X-35218514Y97812345D01*
X-35219819Y97669770D01*
X-35224877Y97564548D01*
X-35235405Y97483172D01*
X-35253118Y97412135D01*
X-35278328Y97341503D01*
X-35343898Y97214422D01*
X-35433977Y97094267D01*
X-35537435Y96992725D01*
X-35643144Y96921481D01*
X-35699647Y96899045D01*
X-35825036Y96877597D01*
X-35965939Y96873675D01*
X-36098757Y96886931D01*
X-36173776Y96906061D01*
X-36324476Y96986086D01*
X-36448878Y97106748D01*
X-36545092Y97264031D01*
X-36611226Y97453916D01*
X-36645389Y97672386D01*
X-36646082Y97909529D01*
X-36612793Y98142104D01*
X-36546032Y98342136D01*
X-36447249Y98506875D01*
X-36317898Y98633568D01*
X-36237206Y98684475D01*
X-36121350Y98724635D01*
X-35979197Y98742961D01*
X-35830382Y98739450D01*
G37*
G36*
X-35219668Y9521388D02*
G01*
X-35147014Y9466519D01*
X-35086799Y9400528D01*
X-35038599Y9344203D01*
X-34963579Y9258259D01*
X-34868963Y9150892D01*
X-34761973Y9030296D01*
X-34649831Y8904665D01*
X-34644492Y8898705D01*
X-34533893Y8775094D01*
X-34429511Y8658168D01*
X-34338149Y8555566D01*
X-34266607Y8474927D01*
X-34221687Y8423889D01*
X-34219393Y8421251D01*
X-34154561Y8354404D01*
X-34112444Y8331158D01*
X-34090303Y8351048D01*
X-34085133Y8398462D01*
X-34071287Y8482784D01*
X-34025455Y8537118D01*
X-33941202Y8566976D01*
X-33879183Y8574728D01*
X-33764903Y8574537D01*
X-33693230Y8550773D01*
X-33660474Y8500917D01*
X-33662153Y8426489D01*
X-33699287Y8341797D01*
X-33754735Y8296344D01*
X-33793630Y8271595D01*
X-33816350Y8243620D01*
X-33827236Y8199098D01*
X-33830631Y8124712D01*
X-33830879Y8062741D01*
X-33837956Y7933536D01*
X-33860679Y7849067D01*
X-33901285Y7804969D01*
X-33962013Y7796877D01*
X-33966851Y7797513D01*
X-33996919Y7817800D01*
X-34055396Y7870935D01*
X-34137188Y7951479D01*
X-34237199Y8053991D01*
X-34350332Y8173030D01*
X-34471492Y8303157D01*
X-34595582Y8438931D01*
X-34717507Y8574911D01*
X-34832171Y8705657D01*
X-34934477Y8825729D01*
X-34969287Y8867710D01*
X-35031554Y8938631D01*
X-35084835Y8990629D01*
X-35118743Y9013700D01*
X-35121219Y9014053D01*
X-35130487Y9003279D01*
X-35137897Y8968070D01*
X-35143616Y8904186D01*
X-35147816Y8807388D01*
X-35150663Y8673437D01*
X-35152327Y8498093D01*
X-35152977Y8277118D01*
X-35153001Y8216389D01*
X-35153176Y7992833D01*
X-35153906Y7814669D01*
X-35155496Y7676392D01*
X-35158249Y7572494D01*
X-35162472Y7497467D01*
X-35168469Y7445803D01*
X-35176545Y7411996D01*
X-35187005Y7390537D01*
X-35199497Y7376510D01*
X-35243745Y7345288D01*
X-35286941Y7340653D01*
X-35338179Y7366226D01*
X-35406555Y7425628D01*
X-35461252Y7480731D01*
X-35519132Y7542172D01*
X-35603839Y7634147D01*
X-35708489Y7749077D01*
X-35826200Y7879388D01*
X-35950088Y8017501D01*
X-36016148Y8091553D01*
X-36131581Y8220214D01*
X-36236454Y8335197D01*
X-36325896Y8431316D01*
X-36395033Y8503383D01*
X-36438996Y8546211D01*
X-36452387Y8556032D01*
X-36468760Y8534020D01*
X-36475123Y8484544D01*
X-36488299Y8401517D01*
X-36532392Y8347558D01*
X-36614245Y8316946D01*
X-36687390Y8307147D01*
X-36796965Y8306063D01*
X-36865707Y8327181D01*
X-36900132Y8374143D01*
X-36907355Y8430076D01*
X-36890419Y8502947D01*
X-36848186Y8559135D01*
X-36793845Y8581483D01*
X-36763896Y8592877D01*
X-36744333Y8631856D01*
X-36733435Y8705616D01*
X-36729485Y8821352D01*
X-36729377Y8851344D01*
X-36728041Y8949439D01*
X-36721727Y9009086D01*
X-36706975Y9042721D01*
X-36680325Y9062776D01*
X-36669030Y9068214D01*
X-36599465Y9082234D01*
X-36555790Y9067402D01*
X-36526043Y9041770D01*
X-36467338Y8982882D01*
X-36384312Y8895694D01*
X-36281601Y8785161D01*
X-36163840Y8656239D01*
X-36035665Y8513884D01*
X-35987886Y8460325D01*
X-35858259Y8315567D01*
X-35738455Y8183511D01*
X-35632889Y8068892D01*
X-35545980Y7976441D01*
X-35482145Y7910891D01*
X-35445801Y7876976D01*
X-35440065Y7873354D01*
X-35430644Y7880132D01*
X-35423111Y7908657D01*
X-35417285Y7963374D01*
X-35412981Y8048725D01*
X-35410016Y8169154D01*
X-35408206Y8329105D01*
X-35407368Y8533020D01*
X-35407255Y8668108D01*
X-35407255Y9471091D01*
X-35349478Y9508986D01*
X-35284744Y9534548D01*
X-35219668Y9521388D01*
G37*
G36*
X-26614974Y71249230D02*
G01*
X-26073804Y71162190D01*
X-25805514Y71100371D01*
X-25309893Y70949867D01*
X-24819326Y70753127D01*
X-24342831Y70514662D01*
X-23889425Y70238983D01*
X-23470018Y69932121D01*
X-23344151Y69824941D01*
X-23196585Y69689496D01*
X-23038180Y69536620D01*
X-22879796Y69377145D01*
X-22732294Y69221906D01*
X-22606534Y69081737D01*
X-22550290Y69014649D01*
X-22209779Y68554139D01*
X-21910658Y68065109D01*
X-21653955Y67550002D01*
X-21440697Y67011259D01*
X-21271911Y66451323D01*
X-21148625Y65872635D01*
X-21104592Y65578777D01*
X-21082659Y65356468D01*
X-21068509Y65099123D01*
X-21062156Y64822011D01*
X-21063612Y64540400D01*
X-21072890Y64269560D01*
X-21090002Y64024757D01*
X-21103200Y63903254D01*
X-21201780Y63315249D01*
X-21345708Y62749247D01*
X-21535511Y62204104D01*
X-21771716Y61678676D01*
X-22054851Y61171820D01*
X-22385442Y60682391D01*
X-22764018Y60209245D01*
X-22852601Y60108561D01*
X-22964863Y59983034D01*
X-23062982Y60073043D01*
X-23161101Y60163053D01*
X-22967810Y60380524D01*
X-22609186Y60821971D01*
X-22291008Y61292580D01*
X-22014872Y61788671D01*
X-21782374Y62306561D01*
X-21595109Y62842571D01*
X-21454673Y63393021D01*
X-21362661Y63954229D01*
X-21344729Y64124248D01*
X-21332474Y64315542D01*
X-21326688Y64540735D01*
X-21327023Y64785837D01*
X-21333133Y65036858D01*
X-21344667Y65279810D01*
X-21361280Y65500701D01*
X-21382622Y65685543D01*
X-21383765Y65693306D01*
X-21491563Y66254406D01*
X-21644168Y66797186D01*
X-21839957Y67319125D01*
X-22077305Y67817702D01*
X-22354587Y68290395D01*
X-22670180Y68734686D01*
X-23022458Y69148051D01*
X-23409799Y69527972D01*
X-23830576Y69871926D01*
X-24266576Y70167238D01*
X-24734266Y70425403D01*
X-25218741Y70637104D01*
X-25716644Y70802612D01*
X-26224615Y70922202D01*
X-26739298Y70996145D01*
X-27257333Y71024714D01*
X-27775362Y71008183D01*
X-28290028Y70946824D01*
X-28797972Y70840910D01*
X-29295836Y70690714D01*
X-29780262Y70496509D01*
X-30247891Y70258567D01*
X-30695366Y69977162D01*
X-31119328Y69652566D01*
X-31173922Y69606018D01*
X-31554468Y69244291D01*
X-31896033Y68850620D01*
X-32197536Y68426998D01*
X-32457896Y67975421D01*
X-32676031Y67497879D01*
X-32850861Y66996368D01*
X-32981305Y66472880D01*
X-33033654Y66176874D01*
X-33053503Y66005209D01*
X-33067717Y65797276D01*
X-33076176Y65567093D01*
X-33078762Y65328679D01*
X-33075354Y65096052D01*
X-33065836Y64883231D01*
X-33050087Y64704235D01*
X-33046389Y64675270D01*
X-32950915Y64145439D01*
X-32812092Y63636990D01*
X-32631419Y63152082D01*
X-32410394Y62692874D01*
X-32150518Y62261525D01*
X-31853288Y61860191D01*
X-31520203Y61491033D01*
X-31152763Y61156208D01*
X-30752465Y60857875D01*
X-30320808Y60598192D01*
X-30156905Y60514034D01*
X-29708448Y60320676D01*
X-29249616Y60174257D01*
X-28783802Y60073866D01*
X-28314400Y60018593D01*
X-27844803Y60007526D01*
X-27378404Y60039754D01*
X-26918596Y60114367D01*
X-26468773Y60230453D01*
X-26032328Y60387101D01*
X-25612655Y60583401D01*
X-25213146Y60818441D01*
X-24837196Y61091310D01*
X-24488196Y61401097D01*
X-24169542Y61746892D01*
X-23884626Y62127784D01*
X-23828917Y62212896D01*
X-23780094Y62286175D01*
X-23741291Y62338672D01*
X-23720764Y62359230D01*
X-23720596Y62359238D01*
X-23687655Y62347373D01*
X-23633000Y62318537D01*
X-23573578Y62282875D01*
X-23526330Y62250530D01*
X-23508156Y62232069D01*
X-23522394Y62202055D01*
X-23561057Y62139999D01*
X-23618065Y62054588D01*
X-23687340Y61954508D01*
X-23762803Y61848445D01*
X-23838374Y61745083D01*
X-23907976Y61653109D01*
X-23953516Y61595711D01*
X-24195331Y61326261D01*
X-24474238Y61060168D01*
X-24777082Y60808622D01*
X-25090709Y60582810D01*
X-25295805Y60454137D01*
X-25708206Y60237999D01*
X-26151233Y60055401D01*
X-26614228Y59910164D01*
X-27086534Y59806108D01*
X-27118566Y59800649D01*
X-27217988Y59788037D01*
X-27354362Y59776315D01*
X-27516671Y59765887D01*
X-27693897Y59757159D01*
X-27875024Y59750538D01*
X-28049032Y59746429D01*
X-28204906Y59745238D01*
X-28331628Y59747371D01*
X-28415263Y59752879D01*
X-28842524Y59814308D01*
X-29232523Y59894754D01*
X-29596330Y59997424D01*
X-29945018Y60125525D01*
X-30289660Y60282263D01*
X-30352110Y60313759D01*
X-30800473Y60571199D01*
X-31218006Y60868071D01*
X-31603242Y61202248D01*
X-31954712Y61571600D01*
X-32270945Y61974002D01*
X-32550475Y62407324D01*
X-32791832Y62869438D01*
X-32993546Y63358218D01*
X-33154151Y63871534D01*
X-33272176Y64407260D01*
X-33301173Y64586192D01*
X-33316725Y64730558D01*
X-33327621Y64913904D01*
X-33333950Y65124532D01*
X-33335803Y65350741D01*
X-33333269Y65580833D01*
X-33326437Y65803108D01*
X-33315396Y66005866D01*
X-33300236Y66177409D01*
X-33288327Y66265952D01*
X-33174841Y66814422D01*
X-33016145Y67341295D01*
X-32813187Y67844913D01*
X-32566919Y68323622D01*
X-32278291Y68775763D01*
X-31948253Y69199681D01*
X-31577757Y69593718D01*
X-31173922Y69951238D01*
X-30738000Y70271278D01*
X-30276073Y70549150D01*
X-29791719Y70784089D01*
X-29288516Y70975328D01*
X-28770041Y71122102D01*
X-28239872Y71223645D01*
X-27701586Y71279191D01*
X-27158761Y71287974D01*
X-26614974Y71249230D01*
G37*
G36*
X-34543368Y56252361D02*
G01*
X-34427545Y56235621D01*
X-34344913Y56210317D01*
X-34302059Y56178228D01*
X-34298750Y56154252D01*
X-34314539Y56096060D01*
X-34327449Y56044140D01*
X-34343351Y55977238D01*
X-34462140Y56014025D01*
X-34571910Y56035744D01*
X-34692751Y56041643D01*
X-34718720Y56040300D01*
X-34809826Y56027986D01*
X-34869967Y56002976D01*
X-34916690Y55959755D01*
X-34960706Y55885260D01*
X-34959131Y55815032D01*
X-34910663Y55747216D01*
X-34814000Y55679962D01*
X-34673397Y55613689D01*
X-34515254Y55543661D01*
X-34399529Y55479610D01*
X-34318974Y55416577D01*
X-34266344Y55349600D01*
X-34254372Y55326851D01*
X-34214392Y55190330D01*
X-34221177Y55058021D01*
X-34271859Y54938784D01*
X-34363571Y54841476D01*
X-34423647Y54803953D01*
X-34537149Y54763858D01*
X-34682071Y54739180D01*
X-34841014Y54731074D01*
X-34996583Y54740698D01*
X-35096564Y54759211D01*
X-35173025Y54780094D01*
X-35226679Y54797412D01*
X-35242071Y54804644D01*
X-35241929Y54831954D01*
X-35232044Y54887848D01*
X-35217013Y54952072D01*
X-35201433Y55004373D01*
X-35192446Y55023288D01*
X-35167215Y55019613D01*
X-35110376Y55002682D01*
X-35077494Y54991474D01*
X-34970499Y54966060D01*
X-34845549Y54954709D01*
X-34721063Y54957406D01*
X-34615456Y54974138D01*
X-34566953Y54991856D01*
X-34516332Y55026624D01*
X-34495327Y55073562D01*
X-34491940Y55129989D01*
X-34498919Y55194413D01*
X-34524834Y55246796D01*
X-34577149Y55293903D01*
X-34663326Y55342501D01*
X-34787599Y55397996D01*
X-34957402Y55476913D01*
X-35081506Y55553819D01*
X-35164545Y55633942D01*
X-35211153Y55722514D01*
X-35225964Y55824762D01*
X-35222261Y55888494D01*
X-35184239Y56020972D01*
X-35105057Y56126428D01*
X-34987981Y56202609D01*
X-34836278Y56247260D01*
X-34685791Y56258759D01*
X-34543368Y56252361D01*
G37*
G36*
X-36618644Y56938590D02*
G01*
X-36568403Y56929278D01*
X-36523838Y56914026D01*
X-36506403Y56888460D01*
X-36508986Y56836116D01*
X-36514100Y56803575D01*
X-36525657Y56737091D01*
X-36533734Y56697083D01*
X-36535235Y56692357D01*
X-36559778Y56694611D01*
X-36619302Y56704713D01*
X-36673488Y56715079D01*
X-36825210Y56728053D01*
X-36945741Y56701143D01*
X-37034109Y56635110D01*
X-37089341Y56530719D01*
X-37110464Y56388734D01*
X-37110663Y56371914D01*
X-37110759Y56225571D01*
X-36551399Y56225571D01*
X-36551399Y56021964D01*
X-37109870Y56021964D01*
X-37116671Y55392054D01*
X-37123471Y54762144D01*
X-37238832Y54754608D01*
X-37311980Y54753752D01*
X-37362367Y54760362D01*
X-37372316Y54765213D01*
X-37378139Y54795881D01*
X-37382805Y54870259D01*
X-37386349Y54981171D01*
X-37388807Y55121439D01*
X-37390213Y55283885D01*
X-37390603Y55461333D01*
X-37390012Y55646604D01*
X-37388476Y55832523D01*
X-37386030Y56011911D01*
X-37382710Y56177591D01*
X-37378550Y56322386D01*
X-37373587Y56439118D01*
X-37367855Y56520611D01*
X-37363511Y56552355D01*
X-37317183Y56676784D01*
X-37239786Y56789585D01*
X-37143059Y56876431D01*
X-37065855Y56915594D01*
X-36975939Y56934594D01*
X-36857172Y56945152D01*
X-36730943Y56946680D01*
X-36618644Y56938590D01*
G37*
G36*
X-32828150Y44467389D02*
G01*
X-32812882Y44467254D01*
X-32727815Y44461526D01*
X-32689573Y44443857D01*
X-32686734Y44434384D01*
X-32694395Y44388459D01*
X-32715563Y44303357D01*
X-32747517Y44188143D01*
X-32787535Y44051878D01*
X-32832897Y43903627D01*
X-32880882Y43752454D01*
X-32928767Y43607421D01*
X-32973832Y43477592D01*
X-32974881Y43474669D01*
X-33033466Y43311051D01*
X-33077776Y43188988D01*
X-33111553Y43102437D01*
X-33138539Y43045354D01*
X-33162478Y43011695D01*
X-33187111Y42995417D01*
X-33216181Y42990475D01*
X-33253431Y42990827D01*
X-33274328Y42991102D01*
X-33393115Y42991102D01*
X-33489508Y43261929D01*
X-33538499Y43403460D01*
X-33589860Y43558191D01*
X-33635651Y43701960D01*
X-33654690Y43764584D01*
X-33723477Y43996413D01*
X-33752857Y43881884D01*
X-33771178Y43817779D01*
X-33802201Y43717002D01*
X-33842283Y43591080D01*
X-33887779Y43451541D01*
X-33911765Y43379228D01*
X-34041294Y42991102D01*
X-34161058Y42991102D01*
X-34234768Y42993711D01*
X-34276349Y43009780D01*
X-34304514Y43051673D01*
X-34324758Y43099268D01*
X-34380052Y43241067D01*
X-34439191Y43402508D01*
X-34499606Y43575532D01*
X-34558729Y43752081D01*
X-34613992Y43924096D01*
X-34662824Y44083517D01*
X-34702659Y44222287D01*
X-34730928Y44332345D01*
X-34745061Y44405634D01*
X-34746194Y44421524D01*
X-34739929Y44449689D01*
X-34712958Y44462635D01*
X-34653016Y44464141D01*
X-34614189Y44462222D01*
X-34482184Y44454529D01*
X-34402473Y44136393D01*
X-34362344Y43983667D01*
X-34315926Y43818508D01*
X-34269641Y43663262D01*
X-34237955Y43564002D01*
X-34153150Y43309747D01*
X-34080025Y43525825D01*
X-34045232Y43634395D01*
X-34002985Y43774953D01*
X-33958366Y43930159D01*
X-33916456Y44082670D01*
X-33912315Y44098216D01*
X-33817730Y44454529D01*
X-33710731Y44462314D01*
X-33642379Y44464168D01*
X-33608068Y44450866D01*
X-33591428Y44413933D01*
X-33587813Y44398687D01*
X-33552814Y44249534D01*
X-33512697Y44091451D01*
X-33469625Y43931639D01*
X-33425765Y43777297D01*
X-33383281Y43635624D01*
X-33344338Y43513821D01*
X-33311100Y43419086D01*
X-33285734Y43358619D01*
X-33270404Y43339620D01*
X-33269535Y43340247D01*
X-33254572Y43372187D01*
X-33228947Y43443243D01*
X-33195738Y43543520D01*
X-33158019Y43663127D01*
X-33118867Y43792168D01*
X-33081358Y43920752D01*
X-33048568Y44038983D01*
X-33029908Y44110942D01*
X-32995590Y44250255D01*
X-32970544Y44347888D01*
X-32950307Y44411171D01*
X-32930413Y44447433D01*
X-32906398Y44464004D01*
X-32873799Y44468212D01*
X-32828150Y44467389D01*
G37*
G36*
X-35002539Y26592610D02*
G01*
X-34940825Y26554178D01*
X-34907285Y26486428D01*
X-34901309Y26403776D01*
X-34923108Y26330324D01*
X-34938701Y26309854D01*
X-35003878Y26275327D01*
X-35084143Y26271331D01*
X-35157288Y26296398D01*
X-35189697Y26326424D01*
X-35220322Y26391539D01*
X-35229277Y26440953D01*
X-35207506Y26514442D01*
X-35152325Y26568192D01*
X-35078936Y26596237D01*
X-35002539Y26592610D01*
G37*
G36*
X-36856504Y25989900D02*
G01*
X-36297145Y25989900D01*
X-36297145Y25788015D01*
X-36570468Y25780791D01*
X-36843792Y25773567D01*
X-36851627Y25455431D01*
X-36854155Y25256485D01*
X-36850167Y25101320D01*
X-36838798Y24983129D01*
X-36819177Y24895105D01*
X-36790438Y24830441D01*
X-36767968Y24799454D01*
X-36727606Y24759786D01*
X-36682631Y24739416D01*
X-36615121Y24732582D01*
X-36559810Y24732534D01*
X-36468125Y24738637D01*
X-36390103Y24752200D01*
X-36355564Y24764202D01*
X-36314741Y24780839D01*
X-36289461Y24770177D01*
X-36271726Y24723738D01*
X-36258810Y24661627D01*
X-36241284Y24568111D01*
X-36375531Y24528203D01*
X-36567462Y24492583D01*
X-36742660Y24504884D01*
X-36813693Y24525170D01*
X-36937018Y24588419D01*
X-37027261Y24682834D01*
X-37056154Y24730020D01*
X-37068191Y24757981D01*
X-37077920Y24797096D01*
X-37085663Y24852971D01*
X-37091741Y24931216D01*
X-37096475Y25037439D01*
X-37100184Y25177247D01*
X-37103191Y25356251D01*
X-37105816Y25580058D01*
X-37106038Y25601944D01*
X-37107971Y25831821D01*
X-37108555Y26015477D01*
X-37107645Y26157575D01*
X-37105092Y26262784D01*
X-37100750Y26335766D01*
X-37094471Y26381189D01*
X-37086109Y26403718D01*
X-37080613Y26408027D01*
X-37034500Y26419015D01*
X-36964471Y26432319D01*
X-36951850Y26434461D01*
X-36856504Y26450322D01*
X-36856504Y25989900D01*
G37*
G36*
X-25519863Y97696140D02*
G01*
X-25408423Y97691598D01*
X-25323071Y97684921D01*
X-25281579Y97678242D01*
X-25211659Y97658669D01*
X-25211659Y97278893D01*
X-25213012Y97145092D01*
X-25216737Y97030145D01*
X-25222335Y96943282D01*
X-25229306Y96893737D01*
X-25232923Y96885961D01*
X-25272662Y96876533D01*
X-25350678Y96868766D01*
X-25454417Y96862975D01*
X-25571324Y96859472D01*
X-25688842Y96858570D01*
X-25794417Y96860583D01*
X-25875493Y96865823D01*
X-25900613Y96869312D01*
X-26056600Y96913827D01*
X-26169493Y96983625D01*
X-26241746Y97081351D01*
X-26275812Y97209652D01*
X-26279337Y97277876D01*
X-26263457Y97415552D01*
X-26212169Y97521019D01*
X-26120007Y97603213D01*
X-26059539Y97637077D01*
X-25998629Y97664170D01*
X-25938747Y97681864D01*
X-25866715Y97692085D01*
X-25769353Y97696759D01*
X-25643892Y97697815D01*
X-25519863Y97696140D01*
G37*
G36*
X-28292127Y73985981D02*
G01*
X-28214561Y73974452D01*
X-28160525Y73963415D01*
X-28145531Y73957839D01*
X-28143388Y73928515D01*
X-28151308Y73868781D01*
X-28155256Y73848447D01*
X-28175729Y73749813D01*
X-28383111Y73757679D01*
X-28478912Y73762375D01*
X-28552922Y73764514D01*
X-28607931Y73758424D01*
X-28646728Y73738429D01*
X-28672101Y73698857D01*
X-28686840Y73634033D01*
X-28693733Y73538283D01*
X-28695569Y73405933D01*
X-28695138Y73231309D01*
X-28694943Y73123255D01*
X-28694943Y72514148D01*
X-28974622Y72514148D01*
X-28974622Y73911986D01*
X-28866564Y73942219D01*
X-28717918Y73972636D01*
X-28548012Y73990196D01*
X-28382924Y73992913D01*
X-28292127Y73985981D01*
G37*
G36*
X-12397245Y-11601082D02*
G01*
X-12397245Y-20050782D01*
X-42907755Y-20050782D01*
X-42907755Y-15736854D01*
X-30204494Y-15736854D01*
X-30184785Y-15971698D01*
X-30127227Y-16173337D01*
X-30031066Y-16343383D01*
X-29895548Y-16483447D01*
X-29833887Y-16528934D01*
X-29678362Y-16605617D01*
X-29498297Y-16648320D01*
X-29307902Y-16656021D01*
X-29121391Y-16627700D01*
X-29006404Y-16588381D01*
X-28898346Y-16541420D01*
X-28898904Y-16660880D01*
X-28920016Y-16809735D01*
X-28978505Y-16937538D01*
X-29069286Y-17034057D01*
X-29091891Y-17049341D01*
X-29191013Y-17089454D01*
X-29325552Y-17114163D01*
X-29482297Y-17122949D01*
X-29648036Y-17115295D01*
X-29809558Y-17090681D01*
X-29857332Y-17079364D01*
X-30040842Y-17031561D01*
X-30068818Y-17166457D01*
X-30082099Y-17245662D01*
X-30086206Y-17304417D01*
X-30083099Y-17323533D01*
X-30052499Y-17339987D01*
X-29987377Y-17359745D01*
X-29922464Y-17374309D01*
X-29833084Y-17391764D01*
X-29757911Y-17406551D01*
X-29724672Y-17413169D01*
X-29634342Y-17423203D01*
X-29513127Y-17425958D01*
X-29380409Y-17421852D01*
X-29255572Y-17411304D01*
X-29190074Y-17401611D01*
X-28990075Y-17343911D01*
X-28826624Y-17252029D01*
X-28700792Y-17126817D01*
X-28613652Y-16969126D01*
X-28600724Y-16933046D01*
X-28589580Y-16892378D01*
X-28580324Y-16840800D01*
X-28572705Y-16773091D01*
X-28566477Y-16684029D01*
X-28565110Y-16652952D01*
X-28096844Y-16652952D01*
X-28073707Y-16681961D01*
X-28009006Y-16707764D01*
X-27911971Y-16729590D01*
X-27791830Y-16746668D01*
X-27657812Y-16758228D01*
X-27519147Y-16763498D01*
X-27385063Y-16761709D01*
X-27264790Y-16752088D01*
X-27167556Y-16733865D01*
X-27158692Y-16731311D01*
X-26994186Y-16661913D01*
X-26982890Y-16652952D01*
X-26444191Y-16652952D01*
X-26420870Y-16682130D01*
X-26355030Y-16708760D01*
X-26254993Y-16731374D01*
X-26129078Y-16748505D01*
X-25985607Y-16758685D01*
X-25834582Y-16760477D01*
X-25700154Y-16756990D01*
X-25603196Y-16750773D01*
X-25530327Y-16739527D01*
X-25468170Y-16720957D01*
X-25403344Y-16692767D01*
X-25383247Y-16683012D01*
X-25249180Y-16595679D01*
X-25159369Y-16485241D01*
X-25111186Y-16347417D01*
X-25100788Y-16222768D01*
X-25108685Y-16103946D01*
X-25135160Y-16003569D01*
X-25185304Y-15916657D01*
X-25264208Y-15838230D01*
X-25376963Y-15763308D01*
X-25528661Y-15686912D01*
X-25724392Y-15604060D01*
X-25739456Y-15598056D01*
X-25889465Y-15528783D01*
X-25992778Y-15457213D01*
X-26053524Y-15379435D01*
X-26075832Y-15291535D01*
X-26076124Y-15279047D01*
X-26053415Y-15189950D01*
X-25989871Y-15120189D01*
X-25892367Y-15071486D01*
X-25767776Y-15045560D01*
X-25622973Y-15044135D01*
X-25464832Y-15068931D01*
X-25359250Y-15099543D01*
X-25303500Y-15116665D01*
X-25269346Y-15114737D01*
X-25248858Y-15085183D01*
X-25234108Y-15019428D01*
X-25223817Y-14953045D01*
X-25206459Y-14837177D01*
X-25304405Y-14807945D01*
X-25432438Y-14781051D01*
X-25585834Y-14765761D01*
X-25745848Y-14762480D01*
X-25893735Y-14771612D01*
X-26008143Y-14792790D01*
X-26162047Y-14860181D01*
X-26285205Y-14960041D01*
X-26372630Y-15085223D01*
X-26419334Y-15228585D01*
X-26420331Y-15382980D01*
X-26420293Y-15383230D01*
X-26390599Y-15495545D01*
X-26334214Y-15593244D01*
X-26245670Y-15681379D01*
X-26119497Y-15765004D01*
X-25950224Y-15849171D01*
X-25885433Y-15877309D01*
X-25730055Y-15946558D01*
X-25616649Y-16006310D01*
X-25538326Y-16061157D01*
X-25488194Y-16115693D01*
X-25465841Y-16156970D01*
X-25447449Y-16257379D01*
X-25478830Y-16348121D01*
X-25550431Y-16421428D01*
X-25591230Y-16446855D01*
X-25638873Y-16462515D01*
X-25705975Y-16470422D01*
X-25805150Y-16472590D01*
X-25868249Y-16472180D01*
X-26040747Y-16463697D01*
X-26173773Y-16443052D01*
X-26225517Y-16427641D01*
X-26299295Y-16402474D01*
X-26356039Y-16387586D01*
X-26370155Y-16385852D01*
X-26391418Y-16408639D01*
X-26413465Y-16466844D01*
X-26432073Y-16545227D01*
X-26443016Y-16628551D01*
X-26444191Y-16652952D01*
X-26982890Y-16652952D01*
X-26872735Y-16565564D01*
X-26793964Y-16441788D01*
X-26757497Y-16290110D01*
X-26754684Y-16219961D01*
X-26763213Y-16101431D01*
X-26789801Y-16001523D01*
X-26839607Y-15915206D01*
X-26917787Y-15837449D01*
X-27029498Y-15763220D01*
X-27179897Y-15687488D01*
X-27374140Y-15605222D01*
X-27392108Y-15598056D01*
X-27541713Y-15529062D01*
X-27644776Y-15457884D01*
X-27705570Y-15380455D01*
X-27728369Y-15292710D01*
X-27728777Y-15277776D01*
X-27706003Y-15189429D01*
X-27642413Y-15119954D01*
X-27545097Y-15071168D01*
X-27421149Y-15044885D01*
X-27277661Y-15042920D01*
X-27121726Y-15067088D01*
X-27020405Y-15096509D01*
X-26960297Y-15115341D01*
X-26923668Y-15114737D01*
X-26902085Y-15086291D01*
X-26887113Y-15021595D01*
X-26876470Y-14953045D01*
X-26859112Y-14837177D01*
X-26957057Y-14808701D01*
X-27088623Y-14781439D01*
X-27243874Y-14765963D01*
X-27404290Y-14762701D01*
X-27551351Y-14772082D01*
X-27659587Y-14792438D01*
X-27798309Y-14851083D01*
X-27919009Y-14936575D01*
X-28007059Y-15037965D01*
X-28021740Y-15063511D01*
X-28069301Y-15206625D01*
X-28073870Y-15357548D01*
X-28036978Y-15502636D01*
X-27960152Y-15628243D01*
X-27958208Y-15630475D01*
X-27926238Y-15665304D01*
X-27893220Y-15695247D01*
X-27851644Y-15724603D01*
X-27794000Y-15757669D01*
X-27712779Y-15798743D01*
X-27600471Y-15852123D01*
X-27449566Y-15922108D01*
X-27444814Y-15924301D01*
X-27318902Y-15984660D01*
X-27232047Y-16032568D01*
X-27175740Y-16073569D01*
X-27141475Y-16113212D01*
X-27133352Y-16127329D01*
X-27098135Y-16223171D01*
X-27105728Y-16302321D01*
X-27157742Y-16377923D01*
X-27164960Y-16385306D01*
X-27254436Y-16444716D01*
X-27377630Y-16476151D01*
X-27536689Y-16479635D01*
X-27733762Y-16455194D01*
X-27970997Y-16402853D01*
X-28000153Y-16395257D01*
X-28034147Y-16391975D01*
X-28054670Y-16412409D01*
X-28069444Y-16467671D01*
X-28075828Y-16504149D01*
X-28087904Y-16581334D01*
X-28095543Y-16638057D01*
X-28096844Y-16652952D01*
X-28565110Y-16652952D01*
X-28561392Y-16568392D01*
X-28557200Y-16420959D01*
X-28553654Y-16236507D01*
X-28550506Y-16009816D01*
X-28548529Y-15834849D01*
X-28538242Y-14863906D01*
X-28668081Y-14836033D01*
X-28956855Y-14784570D01*
X-29206480Y-14762854D01*
X-29419054Y-14770854D01*
X-29596671Y-14808541D01*
X-29635683Y-14822529D01*
X-29826149Y-14921730D01*
X-29978697Y-15054497D01*
X-30092639Y-15219723D01*
X-30167286Y-15416301D01*
X-30201949Y-15643123D01*
X-30204494Y-15736854D01*
X-42907755Y-15736854D01*
X-42907755Y-11601082D01*
X-12397245Y-11601082D01*
G37*
G36*
X-38407455Y86435791D02*
G01*
X-37848096Y86435791D01*
X-37848096Y86232184D01*
X-38407455Y86232184D01*
X-38407455Y85811427D01*
X-38405891Y85623596D01*
X-38400027Y85479913D01*
X-38388108Y85373687D01*
X-38368376Y85298227D01*
X-38339074Y85246842D01*
X-38298446Y85212843D01*
X-38244736Y85189539D01*
X-38244123Y85189336D01*
X-38142591Y85173377D01*
X-38024963Y85179655D01*
X-37919050Y85205941D01*
X-37893657Y85217428D01*
X-37864014Y85223867D01*
X-37842569Y85198599D01*
X-37821776Y85134472D01*
X-37807458Y85068067D01*
X-37813682Y85025219D01*
X-37848720Y84996988D01*
X-37920844Y84974439D01*
X-37982831Y84960463D01*
X-38161966Y84937975D01*
X-38325012Y84953553D01*
X-38343892Y84957868D01*
X-38468410Y85007859D01*
X-38563078Y85094453D01*
X-38593234Y85137795D01*
X-38608730Y85164316D01*
X-38621130Y85192857D01*
X-38630844Y85229231D01*
X-38638283Y85279252D01*
X-38643858Y85348731D01*
X-38647979Y85443482D01*
X-38651058Y85569316D01*
X-38653506Y85732046D01*
X-38655733Y85937486D01*
X-38656676Y86035230D01*
X-38658503Y86267633D01*
X-38659007Y86453723D01*
X-38658043Y86598077D01*
X-38655472Y86705270D01*
X-38651150Y86779877D01*
X-38644935Y86826474D01*
X-38636685Y86849637D01*
X-38631251Y86854039D01*
X-38585371Y86864942D01*
X-38515480Y86878201D01*
X-38502801Y86880353D01*
X-38407455Y86896214D01*
X-38407455Y86435791D01*
G37*
G36*
X-19634055Y9537448D02*
G01*
X-19597410Y9501386D01*
X-19552839Y9436603D01*
X-19498171Y9339270D01*
X-19431237Y9205558D01*
X-19349865Y9031636D01*
X-19264624Y8842355D01*
X-19191918Y8681638D01*
X-19124385Y8537513D01*
X-19065125Y8416191D01*
X-19017240Y8323884D01*
X-18983832Y8266803D01*
X-18969148Y8250621D01*
X-18939275Y8270564D01*
X-18894374Y8322359D01*
X-18853195Y8381165D01*
X-18758582Y8495057D01*
X-18650126Y8561156D01*
X-18530674Y8581483D01*
X-18451995Y8565553D01*
X-18408985Y8515081D01*
X-18397645Y8439529D01*
X-18412460Y8359761D01*
X-18461625Y8314083D01*
X-18523947Y8297599D01*
X-18564410Y8279343D01*
X-18615502Y8231302D01*
X-18682255Y8148073D01*
X-18745324Y8059739D01*
X-18839979Y7931045D01*
X-18916770Y7846003D01*
X-18979372Y7802157D01*
X-19031463Y7797049D01*
X-19076719Y7828223D01*
X-19082169Y7834660D01*
X-19103914Y7871457D01*
X-19142456Y7946526D01*
X-19193943Y8051623D01*
X-19254527Y8178501D01*
X-19320356Y8318916D01*
X-19387580Y8464622D01*
X-19452349Y8607376D01*
X-19510813Y8738931D01*
X-19559121Y8851042D01*
X-19577559Y8895498D01*
X-19610246Y8956131D01*
X-19641836Y8982842D01*
X-19649486Y8982548D01*
X-19665501Y8956798D01*
X-19695913Y8888737D01*
X-19738462Y8784148D01*
X-19790889Y8648813D01*
X-19850936Y8488516D01*
X-19916341Y8309039D01*
X-19955678Y8198893D01*
X-20023755Y8009011D01*
X-20088238Y7833205D01*
X-20146764Y7677609D01*
X-20196971Y7548353D01*
X-20236498Y7451570D01*
X-20262981Y7393394D01*
X-20271080Y7380129D01*
X-20334233Y7339043D01*
X-20399352Y7347610D01*
X-20438239Y7378928D01*
X-20459513Y7413510D01*
X-20498630Y7487651D01*
X-20552263Y7594624D01*
X-20617087Y7727706D01*
X-20689777Y7880173D01*
X-20755263Y8019983D01*
X-20831156Y8181363D01*
X-20901354Y8326925D01*
X-20962707Y8450429D01*
X-21012062Y8545632D01*
X-21046268Y8606293D01*
X-21061386Y8626164D01*
X-21090105Y8612144D01*
X-21136205Y8566000D01*
X-21183584Y8505928D01*
X-21278732Y8394578D01*
X-21374839Y8328454D01*
X-21480049Y8302393D01*
X-21505912Y8301523D01*
X-21589301Y8314430D01*
X-21635696Y8357856D01*
X-21651863Y8438862D01*
X-21652100Y8454040D01*
X-21648131Y8512129D01*
X-21627111Y8544400D01*
X-21575371Y8566162D01*
X-21544042Y8575072D01*
X-21482172Y8597177D01*
X-21433213Y8631462D01*
X-21384296Y8689550D01*
X-21334282Y8764520D01*
X-21238115Y8908141D01*
X-21158972Y9007953D01*
X-21093233Y9066664D01*
X-21037276Y9086984D01*
X-20987480Y9071621D01*
X-20958396Y9045678D01*
X-20936395Y9010497D01*
X-20896701Y8936171D01*
X-20842872Y8829798D01*
X-20778462Y8698479D01*
X-20707027Y8549313D01*
X-20663350Y8456505D01*
X-20590372Y8301625D01*
X-20523368Y8161688D01*
X-20465672Y8043476D01*
X-20420617Y7953767D01*
X-20391535Y7899342D01*
X-20383060Y7886362D01*
X-20356522Y7883319D01*
X-20334698Y7921978D01*
X-20320777Y7960775D01*
X-20292217Y8041118D01*
X-20251303Y8156552D01*
X-20200321Y8300624D01*
X-20141555Y8466878D01*
X-20077290Y8648860D01*
X-20051667Y8721463D01*
X-19970873Y8948214D01*
X-19903712Y9130931D01*
X-19848135Y9274003D01*
X-19802091Y9381816D01*
X-19763527Y9458756D01*
X-19730394Y9509210D01*
X-19700640Y9537566D01*
X-19672215Y9548209D01*
X-19664944Y9548617D01*
X-19634055Y9537448D01*
G37*
G36*
X-33780028Y56225571D02*
G01*
X-33220668Y56225571D01*
X-33220668Y56021964D01*
X-33780028Y56021964D01*
X-33779653Y55582936D01*
X-33778464Y55402301D01*
X-33773965Y55265418D01*
X-33764231Y55165159D01*
X-33747338Y55094393D01*
X-33721361Y55045990D01*
X-33684375Y55012821D01*
X-33634456Y54987755D01*
X-33617160Y54980935D01*
X-33554151Y54960851D01*
X-33497622Y54956532D01*
X-33426325Y54968069D01*
X-33370171Y54981972D01*
X-33221933Y55020632D01*
X-33200479Y54916839D01*
X-33189536Y54849857D01*
X-33198157Y54813530D01*
X-33233602Y54789124D01*
X-33253506Y54780012D01*
X-33337468Y54755984D01*
X-33450463Y54740181D01*
X-33571117Y54734103D01*
X-33678058Y54739250D01*
X-33722184Y54747123D01*
X-33847857Y54798951D01*
X-33942212Y54885776D01*
X-33989119Y54959761D01*
X-34005357Y54992266D01*
X-34018289Y55025842D01*
X-34028376Y55066605D01*
X-34036075Y55120669D01*
X-34041848Y55194149D01*
X-34046153Y55293159D01*
X-34049449Y55423814D01*
X-34052196Y55592229D01*
X-34054853Y55804518D01*
X-34055269Y55840273D01*
X-34056828Y56033870D01*
X-34056943Y56211001D01*
X-34055712Y56365271D01*
X-34053237Y56490288D01*
X-34049616Y56579657D01*
X-34044949Y56626985D01*
X-34042898Y56632640D01*
X-34006715Y56647632D01*
X-33939328Y56663218D01*
X-33900799Y56669547D01*
X-33780028Y56686806D01*
X-33780028Y56225571D01*
G37*
G36*
X-20390486Y44499690D02*
G01*
X-20232159Y44445093D01*
X-20109115Y44353961D01*
X-20021222Y44226220D01*
X-20016200Y44215506D01*
X-19998061Y44171278D01*
X-19984225Y44123423D01*
X-19973932Y44064037D01*
X-19966427Y43985210D01*
X-19960950Y43879038D01*
X-19956744Y43737612D01*
X-19953129Y43557385D01*
X-19943538Y43016553D01*
X-20195423Y43016553D01*
X-20209337Y43506483D01*
X-20215431Y43670886D01*
X-20223621Y43818807D01*
X-20233227Y43941405D01*
X-20243569Y44029844D01*
X-20252882Y44072765D01*
X-20312442Y44177595D01*
X-20398259Y44246314D01*
X-20514866Y44280879D01*
X-20666800Y44283249D01*
X-20726436Y44277178D01*
X-20863912Y44259984D01*
X-20863912Y43016553D01*
X-21143591Y43016553D01*
X-21143591Y43727463D01*
X-21143385Y43936988D01*
X-21142536Y44101224D01*
X-21140699Y44225779D01*
X-21137530Y44316266D01*
X-21132685Y44378295D01*
X-21125818Y44417476D01*
X-21116586Y44439421D01*
X-21104643Y44449740D01*
X-21099097Y44451849D01*
X-21015442Y44471038D01*
X-20900467Y44489690D01*
X-20773665Y44505306D01*
X-20654530Y44515390D01*
X-20584232Y44517822D01*
X-20390486Y44499690D01*
G37*
G36*
X-36481089Y85704078D02*
G01*
X-36487836Y84972365D01*
X-36603197Y84964829D01*
X-36676344Y84963973D01*
X-36726731Y84970582D01*
X-36736680Y84975433D01*
X-36741359Y85004634D01*
X-36745589Y85078118D01*
X-36749209Y85189268D01*
X-36752056Y85331466D01*
X-36753969Y85498094D01*
X-36754785Y85682535D01*
X-36754803Y85714683D01*
X-36754803Y86435791D01*
X-36474343Y86435791D01*
X-36481089Y85704078D01*
G37*
G36*
X-21967784Y86026702D02*
G01*
X-21877800Y86174670D01*
X-21759561Y86291813D01*
X-21616541Y86371291D01*
X-21565549Y86387803D01*
X-21428641Y86407744D01*
X-21281391Y86401323D01*
X-21143368Y86370951D01*
X-21040122Y86323112D01*
X-20941613Y86241440D01*
X-20868521Y86139866D01*
X-20816933Y86009935D01*
X-20782934Y85843194D01*
X-20771201Y85742254D01*
X-20754908Y85570461D01*
X-21783267Y85570461D01*
X-21766299Y85487745D01*
X-21718410Y85341444D01*
X-21640980Y85233621D01*
X-21548925Y85168094D01*
X-21483600Y85137938D01*
X-21422037Y85121865D01*
X-21346449Y85117283D01*
X-21239054Y85121602D01*
X-21232580Y85122002D01*
X-21127424Y85129054D01*
X-21035049Y85136119D01*
X-20972925Y85141844D01*
X-20966484Y85142605D01*
X-20924370Y85141267D01*
X-20901668Y85114548D01*
X-20887525Y85053052D01*
X-20880613Y84987694D01*
X-20893919Y84952715D01*
X-20935014Y84929187D01*
X-20937505Y84928149D01*
X-21012189Y84909694D01*
X-21121550Y84897560D01*
X-21249788Y84891893D01*
X-21381104Y84892839D01*
X-21499701Y84900544D01*
X-21589778Y84915153D01*
X-21611655Y84921929D01*
X-21771122Y85007070D01*
X-21894562Y85127632D01*
X-21982497Y85284287D01*
X-22033467Y85466272D01*
X-22049092Y85665662D01*
X-22030416Y85818860D01*
X-21767182Y85818860D01*
X-21762627Y85793223D01*
X-21734276Y85786301D01*
X-21664604Y85780493D01*
X-21563136Y85776296D01*
X-21439398Y85774209D01*
X-21396345Y85774068D01*
X-21256027Y85774323D01*
X-21158710Y85775934D01*
X-21096546Y85780173D01*
X-21061686Y85788308D01*
X-21046279Y85801610D01*
X-21042477Y85821349D01*
X-21042448Y85831333D01*
X-21058330Y85911883D01*
X-21097437Y86005035D01*
X-21148924Y86089196D01*
X-21197348Y86139734D01*
X-21270749Y86168814D01*
X-21376110Y86181109D01*
X-21391164Y86181282D01*
X-21479048Y86176533D01*
X-21540893Y86156283D01*
X-21601094Y86111536D01*
X-21615396Y86098567D01*
X-21669180Y86036090D01*
X-21717196Y85958710D01*
X-21752259Y85881332D01*
X-21767182Y85818860D01*
X-22030416Y85818860D01*
X-22026040Y85854752D01*
X-21967784Y86026702D01*
G37*
G36*
X-22223762Y86398996D02*
G01*
X-22137445Y86387757D01*
X-22087332Y86369541D01*
X-22083220Y86365686D01*
X-22077978Y86330998D01*
X-22084434Y86267275D01*
X-22089021Y86243079D01*
X-22110959Y86139445D01*
X-22231144Y86164090D01*
X-22328390Y86174984D01*
X-22441504Y86175148D01*
X-22497510Y86170451D01*
X-22643691Y86152169D01*
X-22643691Y84908737D01*
X-22897946Y84908737D01*
X-22897946Y86326625D01*
X-22689223Y86371767D01*
X-22579013Y86389645D01*
X-22456638Y86400061D01*
X-22334190Y86403138D01*
X-22223762Y86398996D01*
G37*
G36*
X-29177732Y-15069569D02*
G01*
X-29073326Y-15075447D01*
X-28985562Y-15086326D01*
X-28928830Y-15101641D01*
X-28918615Y-15108288D01*
X-28912698Y-15138947D01*
X-28908038Y-15212848D01*
X-28904825Y-15322342D01*
X-28903249Y-15459781D01*
X-28903500Y-15617517D01*
X-28904194Y-15687734D01*
X-28911059Y-16245872D01*
X-29009607Y-16294039D01*
X-29116004Y-16329827D01*
X-29244313Y-16349590D01*
X-29374937Y-16352292D01*
X-29488277Y-16336899D01*
X-29533225Y-16321696D01*
X-29659276Y-16242719D01*
X-29750561Y-16133718D01*
X-29808882Y-15991168D01*
X-29836042Y-15811540D01*
X-29838590Y-15724128D01*
X-29821682Y-15523247D01*
X-29770384Y-15359238D01*
X-29683839Y-15230708D01*
X-29561189Y-15136260D01*
X-29446936Y-15087574D01*
X-29378926Y-15075068D01*
X-29284395Y-15069254D01*
X-29177732Y-15069569D01*
G37*
G36*
X-41058018Y16691778D02*
G01*
X-40937119Y17141924D01*
X-40780326Y17558004D01*
X-40585464Y17944053D01*
X-40350357Y18304109D01*
X-40072832Y18642206D01*
X-39921745Y18800041D01*
X-39682895Y19025278D01*
X-39452343Y19214515D01*
X-39216596Y19377742D01*
X-38962160Y19524948D01*
X-38896201Y19559318D01*
X-38501886Y19737603D01*
X-38102101Y19870480D01*
X-37686841Y19960736D01*
X-37285454Y20008306D01*
X-37186580Y20013668D01*
X-37042572Y20018392D01*
X-36859141Y20022478D01*
X-36642000Y20025925D01*
X-36396860Y20028734D01*
X-36129433Y20030905D01*
X-35845432Y20032438D01*
X-35550568Y20033333D01*
X-35250555Y20033589D01*
X-34951103Y20033207D01*
X-34657925Y20032187D01*
X-34376732Y20030529D01*
X-34113238Y20028232D01*
X-33873154Y20025297D01*
X-33662192Y20021724D01*
X-33486064Y20017513D01*
X-33350482Y20012663D01*
X-33274802Y20008306D01*
X-33119583Y19993629D01*
X-32955349Y19973422D01*
X-32802724Y19950465D01*
X-32692352Y19929756D01*
X-32253295Y19809336D01*
X-31836443Y19644777D01*
X-31444308Y19438785D01*
X-31079404Y19194071D01*
X-30744243Y18913343D01*
X-30441337Y18599309D01*
X-30173199Y18254678D01*
X-29942342Y17882158D01*
X-29751279Y17484458D01*
X-29602521Y17064286D01*
X-29498582Y16624352D01*
X-29472169Y16458430D01*
X-29468679Y16430705D01*
X-29465390Y16398318D01*
X-29462296Y16359809D01*
X-29459394Y16313717D01*
X-29456679Y16258582D01*
X-29454146Y16192943D01*
X-29451791Y16115339D01*
X-29449609Y16024310D01*
X-29447596Y15918396D01*
X-29445748Y15796137D01*
X-29444059Y15656070D01*
X-29442525Y15496737D01*
X-29441143Y15316676D01*
X-29439906Y15114428D01*
X-29438810Y14888530D01*
X-29437852Y14637524D01*
X-29437026Y14359949D01*
X-29436329Y14054343D01*
X-29435754Y13719247D01*
X-29435299Y13353199D01*
X-29434958Y12954741D01*
X-29434726Y12522410D01*
X-29434600Y12054746D01*
X-29434575Y11550290D01*
X-29434646Y11007579D01*
X-29434808Y10425155D01*
X-29435058Y9801556D01*
X-29435390Y9135322D01*
X-29435801Y8424992D01*
X-29436285Y7669106D01*
X-29436837Y6866204D01*
X-29437455Y6014824D01*
X-29437895Y5425571D01*
X-29445994Y-5301984D01*
X-29504249Y-5556493D01*
X-29629114Y-6008637D01*
X-29789884Y-6426771D01*
X-29988946Y-6815164D01*
X-30228687Y-7178087D01*
X-30511494Y-7519808D01*
X-30722639Y-7735554D01*
X-31065468Y-8030019D01*
X-31436026Y-8282377D01*
X-31831940Y-8491544D01*
X-32250835Y-8656436D01*
X-32690337Y-8775968D01*
X-33148072Y-8849059D01*
X-33166155Y-8850943D01*
X-33237899Y-8855517D01*
X-33355245Y-8859593D01*
X-33513077Y-8863171D01*
X-33706278Y-8866252D01*
X-33929732Y-8868838D01*
X-34178323Y-8870930D01*
X-34446932Y-8872530D01*
X-34730445Y-8873639D01*
X-35023744Y-8874258D01*
X-35321713Y-8874388D01*
X-35619235Y-8874031D01*
X-35911194Y-8873188D01*
X-36192473Y-8871861D01*
X-36457955Y-8870050D01*
X-36702524Y-8867758D01*
X-36921063Y-8864985D01*
X-37108457Y-8861732D01*
X-37259587Y-8858002D01*
X-37369338Y-8853795D01*
X-37426301Y-8849842D01*
X-37874839Y-8777339D01*
X-38310228Y-8656816D01*
X-38728550Y-8490094D01*
X-39125890Y-8278995D01*
X-39498331Y-8025339D01*
X-39841957Y-7730948D01*
X-39851039Y-7722219D01*
X-40167544Y-7383871D01*
X-40439991Y-7021092D01*
X-40669138Y-6632516D01*
X-40855739Y-6216777D01*
X-41000551Y-5772508D01*
X-41056531Y-5543768D01*
X-41115263Y-5276533D01*
X-41115263Y9468411D01*
X-40869457Y9468411D01*
X-40869366Y8633368D01*
X-40869118Y7751142D01*
X-40868711Y6821953D01*
X-40868145Y5846017D01*
X-40867845Y5400120D01*
X-40867223Y4524753D01*
X-40866617Y3698820D01*
X-40866020Y2920854D01*
X-40865423Y2189388D01*
X-40864821Y1502955D01*
X-40864206Y860087D01*
X-40863571Y259317D01*
X-40862909Y-300822D01*
X-40862212Y-821798D01*
X-40861473Y-1305077D01*
X-40860686Y-1752127D01*
X-40859844Y-2164416D01*
X-40858938Y-2543410D01*
X-40857962Y-2890578D01*
X-40856909Y-3207385D01*
X-40855772Y-3495300D01*
X-40854543Y-3755790D01*
X-40853215Y-3990322D01*
X-40851782Y-4200364D01*
X-40850236Y-4387382D01*
X-40848569Y-4552844D01*
X-40846776Y-4698217D01*
X-40844848Y-4824969D01*
X-40842779Y-4934567D01*
X-40840561Y-5028477D01*
X-40838188Y-5108169D01*
X-40835651Y-5175107D01*
X-40832945Y-5230761D01*
X-40830061Y-5276597D01*
X-40826993Y-5314083D01*
X-40823734Y-5344685D01*
X-40820276Y-5369872D01*
X-40816612Y-5391110D01*
X-40815312Y-5397724D01*
X-40700165Y-5850321D01*
X-40544037Y-6275008D01*
X-40348040Y-6670268D01*
X-40113284Y-7034585D01*
X-39840881Y-7366442D01*
X-39531943Y-7664321D01*
X-39187580Y-7926705D01*
X-38808904Y-8152079D01*
X-38790282Y-8161735D01*
X-38386782Y-8344024D01*
X-37974089Y-8480771D01*
X-37559278Y-8569712D01*
X-37479427Y-8581202D01*
X-37442981Y-8582668D01*
X-37359502Y-8583973D01*
X-37232812Y-8585108D01*
X-37066728Y-8586063D01*
X-36865070Y-8586829D01*
X-36631656Y-8587395D01*
X-36370306Y-8587753D01*
X-36084840Y-8587891D01*
X-35779075Y-8587802D01*
X-35456831Y-8587474D01*
X-35191139Y-8587036D01*
X-32979127Y-8582779D01*
X-32712160Y-8516253D01*
X-32271130Y-8381871D01*
X-31858201Y-8206646D01*
X-31475253Y-7992715D01*
X-31124166Y-7742215D01*
X-30806819Y-7457284D01*
X-30525091Y-7140060D01*
X-30280864Y-6792679D01*
X-30076015Y-6417280D01*
X-29912426Y-6015999D01*
X-29791975Y-5590975D01*
X-29716543Y-5144345D01*
X-29712207Y-5104874D01*
X-29710059Y-5058934D01*
X-29708003Y-4964200D01*
X-29706040Y-4822750D01*
X-29704170Y-4636659D01*
X-29702392Y-4408006D01*
X-29700706Y-4138867D01*
X-29699113Y-3831318D01*
X-29697611Y-3487438D01*
X-29696201Y-3109302D01*
X-29694883Y-2698989D01*
X-29693656Y-2258574D01*
X-29692521Y-1790134D01*
X-29691476Y-1295747D01*
X-29690523Y-777489D01*
X-29689662Y-237438D01*
X-29688890Y322330D01*
X-29688210Y899737D01*
X-29687620Y1492708D01*
X-29687121Y2099164D01*
X-29686712Y2717030D01*
X-29686394Y3344227D01*
X-29686165Y3978680D01*
X-29686026Y4618311D01*
X-29685978Y5261043D01*
X-29686018Y5904799D01*
X-29686149Y6547504D01*
X-29686369Y7187078D01*
X-29686678Y7821446D01*
X-29687076Y8448531D01*
X-29687564Y9066256D01*
X-29688140Y9672543D01*
X-29688805Y10265316D01*
X-29689558Y10842499D01*
X-29690400Y11402013D01*
X-29691331Y11941783D01*
X-29692350Y12459730D01*
X-29693456Y12953779D01*
X-29694651Y13421853D01*
X-29695934Y13861874D01*
X-29697304Y14271765D01*
X-29698762Y14649450D01*
X-29700308Y14992851D01*
X-29701940Y15299892D01*
X-29703660Y15568497D01*
X-29705467Y15796586D01*
X-29707361Y15982085D01*
X-29709341Y16122916D01*
X-29711409Y16217002D01*
X-29713562Y16262267D01*
X-29713565Y16262296D01*
X-29782836Y16704355D01*
X-29891589Y17116094D01*
X-30041696Y17501448D01*
X-30235024Y17864350D01*
X-30473444Y18208735D01*
X-30758824Y18538537D01*
X-30829546Y18610982D01*
X-31137707Y18894258D01*
X-31455024Y19132675D01*
X-31788965Y19330307D01*
X-32147001Y19491224D01*
X-32536600Y19619500D01*
X-32799505Y19684918D01*
X-32844760Y19694801D01*
X-32888049Y19703466D01*
X-32932877Y19710992D01*
X-32982747Y19717459D01*
X-33041163Y19722948D01*
X-33111630Y19727539D01*
X-33197651Y19731312D01*
X-33302730Y19734348D01*
X-33430370Y19736726D01*
X-33584077Y19738527D01*
X-33767352Y19739831D01*
X-33983702Y19740718D01*
X-34236628Y19741269D01*
X-34529636Y19741563D01*
X-34866229Y19741681D01*
X-35249910Y19741703D01*
X-35280128Y19741703D01*
X-35667358Y19741686D01*
X-36007242Y19741582D01*
X-36303287Y19741309D01*
X-36558998Y19740786D01*
X-36777881Y19739934D01*
X-36963441Y19738670D01*
X-37119184Y19736915D01*
X-37248616Y19734588D01*
X-37355242Y19731607D01*
X-37442569Y19727893D01*
X-37514101Y19723363D01*
X-37573344Y19717938D01*
X-37623804Y19711537D01*
X-37668987Y19704078D01*
X-37712398Y19695482D01*
X-37757543Y19685666D01*
X-37762864Y19684487D01*
X-38180433Y19572731D01*
X-38562619Y19429002D01*
X-38916395Y19249497D01*
X-39248733Y19030411D01*
X-39566606Y18767940D01*
X-39730710Y18610829D01*
X-40029788Y18280033D01*
X-40281108Y17934232D01*
X-40486143Y17570302D01*
X-40646362Y17185118D01*
X-40763238Y16775555D01*
X-40838240Y16338487D01*
X-40849723Y16233734D01*
X-40852110Y16183366D01*
X-40854345Y16082315D01*
X-40856428Y15930801D01*
X-40858357Y15729041D01*
X-40860133Y15477254D01*
X-40861756Y15175660D01*
X-40863225Y14824477D01*
X-40864540Y14423923D01*
X-40865699Y13974218D01*
X-40866704Y13475579D01*
X-40867554Y12928227D01*
X-40868247Y12332380D01*
X-40868785Y11688255D01*
X-40869166Y10996074D01*
X-40869390Y10256052D01*
X-40869457Y9468411D01*
X-41115263Y9468411D01*
X-41115263Y16433086D01*
X-41058018Y16691778D01*
G37*
G36*
X-29218912Y74691645D02*
G01*
X-29118155Y74675898D01*
X-29059391Y74654480D01*
X-29033818Y74619341D01*
X-29032634Y74562433D01*
X-29037950Y74526168D01*
X-29053487Y74459058D01*
X-29073679Y74433147D01*
X-29097924Y74435748D01*
X-29148312Y74448719D01*
X-29224651Y74461829D01*
X-29254691Y74465787D01*
X-29392662Y74462744D01*
X-29501625Y74418507D01*
X-29579616Y74334992D01*
X-29624670Y74214112D01*
X-29635683Y74094620D01*
X-29635683Y73964850D01*
X-29076324Y73964850D01*
X-29076324Y73761242D01*
X-29635683Y73761242D01*
X-29635683Y72514148D01*
X-29889938Y72514148D01*
X-29889379Y73411292D01*
X-29888966Y73667060D01*
X-29887550Y73877243D01*
X-29884342Y74047160D01*
X-29878554Y74182125D01*
X-29869396Y74287458D01*
X-29856081Y74368474D01*
X-29837819Y74430491D01*
X-29813821Y74478826D01*
X-29783300Y74518796D01*
X-29745465Y74555718D01*
X-29715832Y74581230D01*
X-29618241Y74637905D01*
X-29488909Y74677437D01*
X-29345184Y74695971D01*
X-29218912Y74691645D01*
G37*
G36*
X-12397245Y108705330D02*
G01*
X-12397245Y91475070D01*
X-42907755Y91475070D01*
X-42907755Y97913290D01*
X-37127515Y97913290D01*
X-37125672Y97650302D01*
X-37083884Y97401257D01*
X-37005214Y97171192D01*
X-36892722Y96965142D01*
X-36749469Y96788145D01*
X-36578518Y96645237D01*
X-36382929Y96541456D01*
X-36271103Y96504247D01*
X-36108895Y96475649D01*
X-35923633Y96466666D01*
X-35739207Y96477343D01*
X-35596931Y96502947D01*
X-35388169Y96582535D01*
X-35266932Y96661623D01*
X-34413255Y96661623D01*
X-34398393Y96615687D01*
X-34355240Y96585060D01*
X-34278099Y96558296D01*
X-34231329Y96544622D01*
X-34120415Y96513488D01*
X-34030335Y96492248D01*
X-33946821Y96479370D01*
X-33855607Y96473321D01*
X-33742426Y96472569D01*
X-33593012Y96475581D01*
X-33589337Y96475675D01*
X-33416759Y96483647D01*
X-33279621Y96498904D01*
X-33162789Y96523437D01*
X-33110927Y96538631D01*
X-32939133Y96615431D01*
X-32799594Y96723830D01*
X-32698068Y96858416D01*
X-32651081Y96970721D01*
X-32628044Y97061631D01*
X-32613322Y97143765D01*
X-32610458Y97179439D01*
X-32625940Y97322038D01*
X-32667551Y97467030D01*
X-32728038Y97590465D01*
X-32740461Y97608673D01*
X-32805377Y97684612D01*
X-32828786Y97704192D01*
X-32326222Y97704192D01*
X-32290335Y97435871D01*
X-32230267Y97217047D01*
X-32144861Y97032285D01*
X-32027727Y96868410D01*
X-31999768Y96836804D01*
X-31825740Y96683086D01*
X-31622486Y96570504D01*
X-31391137Y96499359D01*
X-31132822Y96469950D01*
X-30848673Y96482580D01*
X-30728977Y96499313D01*
X-30645895Y96514349D01*
X-30042490Y96514349D01*
X-29584833Y96514349D01*
X-29584833Y99084890D01*
X-30042490Y99084890D01*
X-30042490Y96514349D01*
X-30645895Y96514349D01*
X-30620992Y96518856D01*
X-30525105Y96539252D01*
X-30458015Y96556859D01*
X-30446411Y96560893D01*
X-30379962Y96586800D01*
X-30410914Y96767430D01*
X-30427713Y96857663D01*
X-30443002Y96926340D01*
X-30453693Y96959725D01*
X-30454329Y96960534D01*
X-30483268Y96959708D01*
X-30542586Y96943459D01*
X-30578814Y96930656D01*
X-30666076Y96907406D01*
X-30785556Y96892929D01*
X-30945515Y96886308D01*
X-30983231Y96885845D01*
X-31117077Y96886016D01*
X-31213513Y96890361D01*
X-31285922Y96900671D01*
X-31347689Y96918737D01*
X-31402750Y96941955D01*
X-31558953Y97036712D01*
X-31679413Y97162010D01*
X-31765814Y97320757D01*
X-31819842Y97515861D01*
X-31840750Y97697720D01*
X-31839381Y97954063D01*
X-31803389Y98178178D01*
X-31733565Y98368305D01*
X-31630694Y98522685D01*
X-31495566Y98639556D01*
X-31395448Y98692614D01*
X-31254282Y98732263D01*
X-31083871Y98747918D01*
X-30899535Y98740101D01*
X-30716596Y98709331D01*
X-30571418Y98664655D01*
X-30543517Y98663906D01*
X-30520432Y98692983D01*
X-30495910Y98760937D01*
X-30489231Y98783637D01*
X-30457727Y98897318D01*
X-30443853Y98972740D01*
X-30450984Y99020503D01*
X-30482496Y99051209D01*
X-30541762Y99075458D01*
X-30586652Y99089649D01*
X-30771632Y99131358D01*
X-30979456Y99153042D01*
X-31185764Y99153129D01*
X-31328285Y99137486D01*
X-31557065Y99073661D01*
X-31760892Y98968442D01*
X-31937380Y98826048D01*
X-32084143Y98650701D01*
X-32198795Y98446621D01*
X-32278949Y98218030D01*
X-32322220Y97969146D01*
X-32326222Y97704192D01*
X-32828786Y97704192D01*
X-32888254Y97753932D01*
X-32996713Y97821297D01*
X-33138375Y97891374D01*
X-33320863Y97968830D01*
X-33343625Y97977949D01*
X-33518563Y98049825D01*
X-33651578Y98110099D01*
X-33749184Y98162665D01*
X-33817898Y98211417D01*
X-33864231Y98260249D01*
X-33891134Y98305253D01*
X-33929839Y98423983D01*
X-33922667Y98525934D01*
X-33868746Y98618021D01*
X-33849075Y98639100D01*
X-33743106Y98711307D01*
X-33601692Y98756031D01*
X-33432546Y98772698D01*
X-33243385Y98760739D01*
X-33041924Y98719582D01*
X-32985312Y98703044D01*
X-32838944Y98657455D01*
X-32826609Y98712104D01*
X-32794250Y98858456D01*
X-32773717Y98958640D01*
X-32764371Y99015839D01*
X-32763632Y99025889D01*
X-32787024Y99050284D01*
X-32852080Y99075060D01*
X-32949654Y99098567D01*
X-33070599Y99119156D01*
X-33205770Y99135180D01*
X-33346019Y99144987D01*
X-33436785Y99147254D01*
X-33637732Y99140517D01*
X-33801980Y99116118D01*
X-33941599Y99070798D01*
X-34068662Y99001301D01*
X-34124403Y98961693D01*
X-34244625Y98849142D01*
X-34324057Y98720446D01*
X-34366852Y98566570D01*
X-34377525Y98410969D01*
X-34375042Y98299456D01*
X-34364970Y98220321D01*
X-34343375Y98155172D01*
X-34308865Y98089924D01*
X-34257185Y98013193D01*
X-34194877Y97946127D01*
X-34114222Y97883435D01*
X-34007500Y97819824D01*
X-33866994Y97750001D01*
X-33710877Y97679916D01*
X-33525936Y97597253D01*
X-33383138Y97528231D01*
X-33276682Y97469529D01*
X-33200765Y97417825D01*
X-33149587Y97369798D01*
X-33133863Y97349626D01*
X-33106062Y97278344D01*
X-33094686Y97182503D01*
X-33100656Y97086022D01*
X-33121141Y97019299D01*
X-33180353Y96958236D01*
X-33279720Y96910674D01*
X-33410128Y96877514D01*
X-33562464Y96859652D01*
X-33727617Y96857987D01*
X-33896474Y96873417D01*
X-34059920Y96906840D01*
X-34110558Y96921791D01*
X-34203585Y96950873D01*
X-34278215Y96972778D01*
X-34320970Y96983588D01*
X-34324752Y96984087D01*
X-34342779Y96962100D01*
X-34364918Y96904136D01*
X-34380882Y96845210D01*
X-34405519Y96734315D01*
X-34413255Y96661623D01*
X-35266932Y96661623D01*
X-35202990Y96703335D01*
X-35044016Y96860178D01*
X-34913870Y97047900D01*
X-34815175Y97261334D01*
X-34750554Y97495314D01*
X-34722629Y97744674D01*
X-34734023Y98004248D01*
X-34758884Y98153703D01*
X-34833755Y98399924D01*
X-34945501Y98616989D01*
X-35089776Y98801891D01*
X-35262228Y98951623D01*
X-35458511Y99063177D01*
X-35674274Y99133545D01*
X-35905168Y99159721D01*
X-36146845Y99138695D01*
X-36175123Y99133117D01*
X-36406808Y99060635D01*
X-36609950Y98947231D01*
X-36782646Y98795339D01*
X-36922999Y98607392D01*
X-37029107Y98385823D01*
X-37099073Y98133066D01*
X-37127515Y97913290D01*
X-42907755Y97913290D01*
X-42907755Y99892081D01*
X-30115451Y99892081D01*
X-30104318Y99785678D01*
X-30053016Y99682487D01*
X-30017719Y99641548D01*
X-29927381Y99584853D01*
X-29817029Y99566588D01*
X-29701718Y99588325D01*
X-29664796Y99604724D01*
X-29587118Y99672507D01*
X-29544114Y99777197D01*
X-29534790Y99881428D01*
X-29557341Y99996949D01*
X-29619767Y100083850D01*
X-29717140Y100137583D01*
X-29830081Y100153827D01*
X-29943730Y100132569D01*
X-30031567Y100075325D01*
X-30090004Y99991896D01*
X-30115451Y99892081D01*
X-42907755Y99892081D01*
X-42907755Y100230180D01*
X-32153280Y100230180D01*
X-31695143Y100230180D01*
X-31695143Y102411868D01*
X-31561659Y102427917D01*
X-31467627Y102435977D01*
X-31348237Y102441811D01*
X-31228973Y102444183D01*
X-31226444Y102444187D01*
X-31063822Y102435284D01*
X-30940245Y102405187D01*
X-30846731Y102349428D01*
X-30774297Y102263537D01*
X-30740452Y102202371D01*
X-30711492Y102132922D01*
X-30687701Y102050795D01*
X-30668632Y101950790D01*
X-30653837Y101827703D01*
X-30642868Y101676334D01*
X-30635277Y101491478D01*
X-30630616Y101267936D01*
X-30628437Y101000504D01*
X-30628182Y100898266D01*
X-30627275Y100230180D01*
X-30169617Y100230180D01*
X-30169617Y100988012D01*
X-30170644Y101201032D01*
X-30173554Y101405093D01*
X-30178097Y101591763D01*
X-30184019Y101752611D01*
X-30191067Y101879202D01*
X-30198772Y101961509D01*
X-30216962Y102097310D01*
X-30226966Y102192007D01*
X-30226618Y102255040D01*
X-30213754Y102295851D01*
X-30186208Y102323879D01*
X-30141815Y102348564D01*
X-30106054Y102365765D01*
X-29992699Y102404819D01*
X-29849556Y102431952D01*
X-29696761Y102444921D01*
X-29554448Y102441484D01*
X-29497081Y102433595D01*
X-29390294Y102390625D01*
X-29289909Y102309412D01*
X-29209556Y102202098D01*
X-29187439Y102157762D01*
X-29174957Y102124809D01*
X-29164767Y102085689D01*
X-29156571Y102034909D01*
X-29150071Y101966975D01*
X-29144970Y101876392D01*
X-29140969Y101757668D01*
X-29137771Y101605307D01*
X-29135076Y101413817D01*
X-29132588Y101177703D01*
X-29132233Y101140050D01*
X-29123726Y100230180D01*
X-28974622Y100230180D01*
X-28974092Y98684038D01*
X-28973808Y98339805D01*
X-28973034Y98042554D01*
X-28971514Y97788364D01*
X-28968990Y97573316D01*
X-28965204Y97393491D01*
X-28959899Y97244968D01*
X-28952818Y97123827D01*
X-28943701Y97026149D01*
X-28932293Y96948014D01*
X-28918335Y96885503D01*
X-28901570Y96834695D01*
X-28881739Y96791670D01*
X-28858586Y96752510D01*
X-28845891Y96733458D01*
X-28755271Y96636642D01*
X-28628856Y96561605D01*
X-28462724Y96506673D01*
X-28252950Y96470169D01*
X-28220972Y96466550D01*
X-28193260Y96485439D01*
X-28177322Y96521775D01*
X-28166084Y96579946D01*
X-28153236Y96665370D01*
X-28146079Y96721639D01*
X-28129461Y96863176D01*
X-28232911Y96879734D01*
X-28345669Y96913957D01*
X-28423891Y96978624D01*
X-28473395Y97080098D01*
X-28492063Y97163347D01*
X-28496703Y97217633D01*
X-28501031Y97318140D01*
X-28504978Y97460188D01*
X-28508475Y97639096D01*
X-28511453Y97850184D01*
X-28513842Y98088771D01*
X-28515575Y98350177D01*
X-28516581Y98629722D01*
X-28516817Y98839925D01*
X-28516952Y100230180D01*
X-28033882Y100230180D01*
X-27779627Y100230180D01*
X-27779627Y98681149D01*
X-27779189Y98350945D01*
X-27777905Y98048902D01*
X-27775823Y97778159D01*
X-27772993Y97541857D01*
X-27769462Y97343136D01*
X-27765278Y97185135D01*
X-27760489Y97070994D01*
X-27755144Y97003854D01*
X-27753773Y96995027D01*
X-27709880Y96839540D01*
X-27640097Y96715373D01*
X-27539810Y96619174D01*
X-27404404Y96547594D01*
X-27229265Y96497281D01*
X-27025831Y96466550D01*
X-27006260Y96488077D01*
X-26985115Y96548712D01*
X-26968624Y96624600D01*
X-26950262Y96734862D01*
X-26943585Y96805123D01*
X-26951460Y96845511D01*
X-26976754Y96866154D01*
X-27022335Y96877183D01*
X-27040978Y96880224D01*
X-27159751Y96921891D01*
X-27247135Y97000819D01*
X-27297049Y97111497D01*
X-27297269Y97112445D01*
X-27301485Y97155791D01*
X-27305335Y97242296D01*
X-26755614Y97242296D01*
X-26750055Y97179042D01*
X-26706616Y96982792D01*
X-26627588Y96820178D01*
X-26511133Y96689433D01*
X-26355414Y96588791D01*
X-26158592Y96516483D01*
X-26031289Y96487993D01*
X-25944098Y96479137D01*
X-25818025Y96475715D01*
X-25664709Y96477380D01*
X-25495790Y96483787D01*
X-25322909Y96494590D01*
X-25157703Y96509443D01*
X-25103573Y96515567D01*
X-24995747Y96529259D01*
X-24899138Y96542787D01*
X-24831466Y96553641D01*
X-24822284Y96555408D01*
X-24750726Y96570015D01*
X-24759232Y97528404D01*
X-24761506Y97774964D01*
X-24763745Y97976202D01*
X-24766293Y98137696D01*
X-24769495Y98265026D01*
X-24773695Y98363770D01*
X-24779236Y98439505D01*
X-24786462Y98497812D01*
X-24795719Y98544267D01*
X-24807349Y98584451D01*
X-24821698Y98623941D01*
X-24827767Y98639499D01*
X-24919409Y98805832D01*
X-25050067Y98947802D01*
X-25210104Y99055842D01*
X-25278344Y99086693D01*
X-25349878Y99112060D01*
X-25420330Y99129152D01*
X-25502596Y99139589D01*
X-25609572Y99144991D01*
X-25754154Y99146978D01*
X-25758306Y99146998D01*
X-25957245Y99143716D01*
X-26120291Y99131015D01*
X-26261741Y99107672D01*
X-26289007Y99101546D01*
X-26489177Y99054576D01*
X-26473341Y98938926D01*
X-26463565Y98859492D01*
X-26457763Y98796923D01*
X-26457116Y98782289D01*
X-26450237Y98729308D01*
X-26424905Y98700911D01*
X-26372196Y98694360D01*
X-26283182Y98706916D01*
X-26240059Y98715686D01*
X-26085581Y98740201D01*
X-25922735Y98752059D01*
X-25765208Y98751435D01*
X-25626683Y98738507D01*
X-25520845Y98713450D01*
X-25503000Y98706189D01*
X-25375615Y98624130D01*
X-25285268Y98509742D01*
X-25231001Y98361248D01*
X-25211854Y98176872D01*
X-25211801Y98166707D01*
X-25211659Y98024776D01*
X-25434132Y98060957D01*
X-25656212Y98080921D01*
X-25880964Y98071726D01*
X-26096052Y98035430D01*
X-26289140Y97974092D01*
X-26444052Y97892407D01*
X-26585045Y97767186D01*
X-26685419Y97613716D01*
X-26742999Y97437064D01*
X-26755614Y97242296D01*
X-27305335Y97242296D01*
X-27305472Y97245382D01*
X-27309164Y97376561D01*
X-27312493Y97544670D01*
X-27315393Y97745054D01*
X-27317797Y97973055D01*
X-27319637Y98224016D01*
X-27320846Y98493281D01*
X-27321358Y98776192D01*
X-27321363Y98787401D01*
X-27321759Y99815181D01*
X-24171259Y99815181D01*
X-24163399Y98438362D01*
X-24161554Y98135549D01*
X-24159654Y97879316D01*
X-24157547Y97665341D01*
X-24155079Y97489301D01*
X-24152094Y97346874D01*
X-24148440Y97233738D01*
X-24143962Y97145571D01*
X-24138507Y97078051D01*
X-24131920Y97026856D01*
X-24124047Y96987663D01*
X-24114735Y96956151D01*
X-24110147Y96943618D01*
X-24049597Y96825620D01*
X-23965109Y96711339D01*
X-23870457Y96617500D01*
X-23804353Y96572304D01*
X-23650135Y96513044D01*
X-23465070Y96478412D01*
X-23263501Y96469700D01*
X-23059773Y96488199D01*
X-22998021Y96499745D01*
X-22895224Y96524430D01*
X-22798540Y96552394D01*
X-22741001Y96572855D01*
X-22650872Y96610551D01*
X-22691776Y96793216D01*
X-22714475Y96887324D01*
X-22733325Y96940795D01*
X-22753447Y96963096D01*
X-22779964Y96963694D01*
X-22783531Y96962831D01*
X-22836014Y96948692D01*
X-22916100Y96926419D01*
X-22973407Y96910221D01*
X-23152804Y96876509D01*
X-23317558Y96879230D01*
X-23460836Y96916723D01*
X-23575804Y96987323D01*
X-23647414Y97074268D01*
X-23662098Y97102521D01*
X-23673804Y97134773D01*
X-23682943Y97177015D01*
X-23689930Y97235239D01*
X-23695175Y97315434D01*
X-23699092Y97423591D01*
X-23702094Y97565702D01*
X-23704592Y97747758D01*
X-23705125Y97797604D01*
X-22535623Y97797604D01*
X-22510039Y97526040D01*
X-22506809Y97507642D01*
X-22438663Y97252667D01*
X-22333067Y97027289D01*
X-22192666Y96834628D01*
X-22020106Y96677804D01*
X-21818034Y96559935D01*
X-21652100Y96499917D01*
X-21518704Y96476023D01*
X-21358041Y96467142D01*
X-21191401Y96473183D01*
X-21040078Y96494053D01*
X-21002737Y96502701D01*
X-20789897Y96583103D01*
X-20601209Y96705301D01*
X-20439729Y96864776D01*
X-20308514Y97057008D01*
X-20210622Y97277478D01*
X-20149109Y97521666D01*
X-20128604Y97766314D01*
X-19643491Y97766314D01*
X-19643147Y97522048D01*
X-19642162Y97293434D01*
X-19640604Y97085489D01*
X-19638541Y96903232D01*
X-19636044Y96751680D01*
X-19633180Y96635849D01*
X-19630019Y96560757D01*
X-19626630Y96531421D01*
X-19626541Y96531316D01*
X-19594883Y96523512D01*
X-19525472Y96517602D01*
X-19431396Y96514559D01*
X-19397985Y96514349D01*
X-19186380Y96514349D01*
X-19179750Y97602375D01*
X-19173121Y98690401D01*
X-18959567Y98726764D01*
X-18828453Y98745393D01*
X-18718305Y98750147D01*
X-18601270Y98741397D01*
X-18533982Y98732440D01*
X-18431905Y98716679D01*
X-18346947Y98701756D01*
X-18293536Y98690265D01*
X-18285715Y98687833D01*
X-18261730Y98693261D01*
X-18241383Y98735031D01*
X-18221213Y98820309D01*
X-18220859Y98822137D01*
X-18203176Y98912854D01*
X-18187803Y98990238D01*
X-18180617Y99025340D01*
X-18178970Y99054390D01*
X-18195479Y99074344D01*
X-18239964Y99090143D01*
X-18322245Y99106725D01*
X-18353239Y99112154D01*
X-18582021Y99136445D01*
X-18834831Y99137239D01*
X-19090935Y99115189D01*
X-19277395Y99083041D01*
X-19390132Y99057644D01*
X-19489502Y99033547D01*
X-19561337Y99014269D01*
X-19584549Y99006778D01*
X-19643491Y98984346D01*
X-19643491Y97766314D01*
X-20128604Y97766314D01*
X-20127033Y97785053D01*
X-20127016Y97797328D01*
X-20147861Y98075472D01*
X-20207712Y98328868D01*
X-20304403Y98554386D01*
X-20435766Y98748897D01*
X-20599636Y98909272D01*
X-20793845Y99032382D01*
X-21016229Y99115097D01*
X-21044092Y99122015D01*
X-21288183Y99156411D01*
X-21519715Y99144308D01*
X-21735487Y99089240D01*
X-21932295Y98994742D01*
X-22106940Y98864346D01*
X-22256217Y98701588D01*
X-22376927Y98510000D01*
X-22465865Y98293118D01*
X-22519832Y98054475D01*
X-22535623Y97797604D01*
X-23705125Y97797604D01*
X-23706577Y97933236D01*
X-23714308Y98703126D01*
X-22745393Y98703126D01*
X-22745393Y99084890D01*
X-23711559Y99084890D01*
X-23711559Y99477877D01*
X-23712730Y99613764D01*
X-23715961Y99730608D01*
X-23720827Y99819443D01*
X-23726904Y99871302D01*
X-23730628Y99880826D01*
X-23762850Y99881170D01*
X-23832066Y99873406D01*
X-23925349Y99859101D01*
X-23960478Y99852985D01*
X-24171259Y99815181D01*
X-27321759Y99815181D01*
X-27321919Y100229582D01*
X-24957405Y100229582D01*
X-22986935Y100242906D01*
X-22979472Y100427026D01*
X-22972010Y100611147D01*
X-23685914Y100617908D01*
X-24399817Y100624669D01*
X-24218045Y100904629D01*
X-24073012Y101119632D01*
X-23900455Y101361295D01*
X-23707959Y101619456D01*
X-23503108Y101883955D01*
X-23293490Y102144629D01*
X-23281918Y102158720D01*
X-23025073Y102471127D01*
X-23025073Y102800721D01*
X-24881129Y102800721D01*
X-24881129Y102418958D01*
X-23612996Y102418958D01*
X-23872595Y102093401D01*
X-24060847Y101851801D01*
X-24249155Y101599870D01*
X-24429841Y101348394D01*
X-24595225Y101108159D01*
X-24737629Y100889950D01*
X-24792681Y100800969D01*
X-24862090Y100684707D01*
X-24908732Y100599946D01*
X-24937088Y100535213D01*
X-24951642Y100479035D01*
X-24956874Y100419936D01*
X-24957405Y100379314D01*
X-24957405Y100229582D01*
X-27321919Y100229582D01*
X-27321970Y100360554D01*
X-27436384Y100343379D01*
X-27550799Y100326204D01*
X-27550799Y101808136D01*
X-25872720Y101808136D01*
X-25872720Y100230180D01*
X-25389637Y100230180D01*
X-25389637Y103666052D01*
X-25872720Y103666052D01*
X-25872720Y102240801D01*
X-27550799Y102240801D01*
X-27550799Y103666052D01*
X-28033882Y103666052D01*
X-28033882Y100230180D01*
X-28516952Y100230180D01*
X-28516965Y100363797D01*
X-28591523Y100348871D01*
X-28666080Y100333944D01*
X-28675559Y101242834D01*
X-28678554Y101502250D01*
X-28682148Y101716527D01*
X-28687135Y101891429D01*
X-28694310Y102032718D01*
X-28704469Y102146157D01*
X-28718406Y102237509D01*
X-28736916Y102312537D01*
X-28760793Y102377003D01*
X-28790834Y102436671D01*
X-28827832Y102497304D01*
X-28854089Y102537122D01*
X-28917873Y102617955D01*
X-28995521Y102682745D01*
X-29104239Y102745699D01*
X-29110836Y102749071D01*
X-29195824Y102790218D01*
X-29267014Y102816983D01*
X-29340935Y102833079D01*
X-29434116Y102842215D01*
X-29549748Y102847617D01*
X-29681770Y102850609D01*
X-29782514Y102846633D01*
X-29871337Y102833393D01*
X-29967596Y102808594D01*
X-30023745Y102791401D01*
X-30134917Y102752808D01*
X-30240371Y102710167D01*
X-30320572Y102671503D01*
X-30332583Y102664515D01*
X-30431984Y102603649D01*
X-30543985Y102689227D01*
X-30634543Y102750567D01*
X-30728519Y102795294D01*
X-30835174Y102825210D01*
X-30963771Y102842117D01*
X-31123572Y102847816D01*
X-31323838Y102844108D01*
X-31337677Y102843614D01*
X-31528735Y102833409D01*
X-31706047Y102817838D01*
X-31855863Y102798289D01*
X-31936684Y102783058D01*
X-32140088Y102736943D01*
X-32146684Y101483561D01*
X-32153280Y100230180D01*
X-42907755Y100230180D01*
X-42907755Y108705330D01*
X-12397245Y108705330D01*
G37*
G36*
X-23127137Y87083335D02*
G01*
X-23037204Y87079414D01*
X-22978708Y87073687D01*
X-22962785Y87069099D01*
X-22956599Y87036300D01*
X-22960299Y86973600D01*
X-22963500Y86950808D01*
X-22979890Y86848208D01*
X-23176310Y86861684D01*
X-23276602Y86867490D01*
X-23341572Y86865735D01*
X-23386585Y86852991D01*
X-23427001Y86825830D01*
X-23458094Y86798813D01*
X-23505124Y86751974D01*
X-23532310Y86705707D01*
X-23546559Y86642398D01*
X-23554194Y86553677D01*
X-23564931Y86384890D01*
X-22999647Y86384890D01*
X-22999647Y86155832D01*
X-23559007Y86155832D01*
X-23559007Y84908737D01*
X-23838686Y84908737D01*
X-23838686Y85734639D01*
X-23838075Y85993965D01*
X-23835897Y86207852D01*
X-23831636Y86381751D01*
X-23824777Y86521113D01*
X-23814804Y86631390D01*
X-23801201Y86718034D01*
X-23783454Y86786495D01*
X-23761045Y86842226D01*
X-23733459Y86890678D01*
X-23728634Y86897964D01*
X-23664452Y86977141D01*
X-23590092Y87031435D01*
X-23495134Y87064806D01*
X-23369154Y87081214D01*
X-23236951Y87084789D01*
X-23127137Y87083335D01*
G37*
G36*
X-36531631Y55334508D02*
G01*
X-36469258Y55450298D01*
X-36398604Y55521970D01*
X-36304895Y55582011D01*
X-36188692Y55619529D01*
X-36041079Y55636499D01*
X-35882689Y55636181D01*
X-35656321Y55627475D01*
X-35671774Y55742004D01*
X-35706412Y55870965D01*
X-35771842Y55962743D01*
X-35870231Y56018595D01*
X-36003747Y56039775D01*
X-36166720Y56028694D01*
X-36259877Y56016605D01*
X-36331372Y56009856D01*
X-36368280Y56009602D01*
X-36370430Y56010486D01*
X-36377531Y56039856D01*
X-36382594Y56099854D01*
X-36383158Y56114211D01*
X-36380021Y56178634D01*
X-36357133Y56211855D01*
X-36309858Y56230824D01*
X-36248706Y56241948D01*
X-36154560Y56251239D01*
X-36045272Y56257050D01*
X-36017465Y56257771D01*
X-35827673Y56247413D01*
X-35677165Y56206779D01*
X-35563080Y56134075D01*
X-35482557Y56027507D01*
X-35434287Y55892165D01*
X-35426151Y55831574D01*
X-35419003Y55730253D01*
X-35413282Y55598373D01*
X-35409428Y55446104D01*
X-35407880Y55283615D01*
X-35407877Y55280984D01*
X-35407255Y54781788D01*
X-35521268Y54766145D01*
X-35696255Y54746976D01*
X-35867985Y54736900D01*
X-36024206Y54736052D01*
X-36152666Y54744565D01*
X-36227957Y54758416D01*
X-36367950Y54820379D01*
X-36469324Y54915188D01*
X-36530875Y55041215D01*
X-36549894Y55183963D01*
X-36294683Y55183963D01*
X-36271913Y55093516D01*
X-36225145Y55027525D01*
X-36141511Y54984236D01*
X-36017427Y54962434D01*
X-35877625Y54959884D01*
X-35674222Y54965751D01*
X-35659568Y55408471D01*
X-35750398Y55425528D01*
X-35826980Y55433082D01*
X-35927480Y55434387D01*
X-35996690Y55431329D01*
X-36089118Y55421291D01*
X-36149633Y55402667D01*
X-36197163Y55367779D01*
X-36224648Y55338853D01*
X-36280451Y55259813D01*
X-36294683Y55183963D01*
X-36549894Y55183963D01*
X-36551399Y55195256D01*
X-36531631Y55334508D01*
G37*
G36*
X-21169005Y98728938D02*
G01*
X-21036905Y98690397D01*
X-20924953Y98619876D01*
X-20842591Y98538487D01*
X-20736504Y98391332D01*
X-20664201Y98226776D01*
X-20623551Y98037133D01*
X-20612425Y97814720D01*
X-20615533Y97719284D01*
X-20645272Y97479955D01*
X-20707715Y97278340D01*
X-20802565Y97115060D01*
X-20929521Y96990737D01*
X-20982524Y96955931D01*
X-21060783Y96916608D01*
X-21141349Y96893750D01*
X-21244578Y96882387D01*
X-21293174Y96880078D01*
X-21400485Y96880288D01*
X-21499284Y96887677D01*
X-21569008Y96900663D01*
X-21571436Y96901456D01*
X-21671074Y96953821D01*
X-21775705Y97039032D01*
X-21870885Y97142902D01*
X-21942166Y97251242D01*
X-21954836Y97278004D01*
X-22013905Y97462909D01*
X-22047104Y97672717D01*
X-22052062Y97887192D01*
X-22040512Y98009589D01*
X-21995550Y98222153D01*
X-21926714Y98394257D01*
X-21830386Y98532130D01*
X-21702946Y98642003D01*
X-21655776Y98671812D01*
X-21586685Y98708262D01*
X-21521714Y98729275D01*
X-21442400Y98738817D01*
X-21334282Y98740862D01*
X-21169005Y98728938D01*
G37*
G36*
X-34924172Y24513747D02*
G01*
X-35178426Y24513747D01*
X-35178426Y25989900D01*
X-34924172Y25989900D01*
X-34924172Y24513747D01*
G37*
G36*
X-19509994Y-4688273D02*
G01*
X-19416472Y-4720385D01*
X-19339219Y-4778889D01*
X-19276112Y-4867804D01*
X-19225027Y-4991153D01*
X-19183840Y-5152955D01*
X-19150426Y-5357230D01*
X-19122663Y-5608000D01*
X-19120920Y-5626923D01*
X-19100192Y-5834446D01*
X-19079097Y-5995863D01*
X-19055795Y-6115952D01*
X-19028442Y-6199487D01*
X-18995199Y-6251243D01*
X-18954221Y-6275997D01*
X-18903670Y-6278525D01*
X-18871997Y-6272393D01*
X-18831890Y-6252803D01*
X-18791826Y-6209516D01*
X-18745091Y-6133818D01*
X-18702813Y-6052910D01*
X-18639089Y-5935114D01*
X-18581268Y-5854288D01*
X-18518456Y-5799358D01*
X-18439759Y-5759247D01*
X-18398981Y-5744027D01*
X-18338146Y-5727421D01*
X-18302641Y-5735644D01*
X-18279343Y-5761118D01*
X-18246789Y-5840020D01*
X-18249219Y-5924696D01*
X-18284389Y-5995701D01*
X-18308886Y-6017100D01*
X-18351600Y-6059740D01*
X-18405173Y-6133458D01*
X-18458849Y-6223255D01*
X-18464955Y-6234719D01*
X-18550296Y-6376252D01*
X-18637571Y-6474668D01*
X-18734426Y-6537431D01*
X-18798885Y-6560684D01*
X-18913716Y-6583870D01*
X-19008675Y-6579312D01*
X-19093392Y-6552162D01*
X-19169089Y-6509980D01*
X-19231069Y-6449351D01*
X-19281419Y-6364699D01*
X-19322222Y-6250446D01*
X-19355565Y-6101015D01*
X-19383533Y-5910827D01*
X-19403787Y-5721924D01*
X-19424519Y-5513739D01*
X-19443187Y-5350480D01*
X-19460921Y-5226273D01*
X-19478850Y-5135243D01*
X-19498104Y-5071515D01*
X-19519812Y-5029215D01*
X-19541546Y-5005294D01*
X-19595953Y-4973743D01*
X-19644665Y-4976074D01*
X-19688610Y-5014688D01*
X-19728713Y-5091982D01*
X-19765901Y-5210356D01*
X-19801100Y-5372208D01*
X-19835237Y-5579937D01*
X-19869239Y-5835941D01*
X-19872381Y-5861904D01*
X-19905316Y-6121955D01*
X-19936735Y-6336660D01*
X-19968136Y-6511481D01*
X-20001019Y-6651886D01*
X-20036883Y-6763338D01*
X-20077225Y-6851304D01*
X-20123544Y-6921247D01*
X-20177340Y-6978632D01*
X-20179055Y-6980190D01*
X-20249021Y-7036432D01*
X-20310913Y-7063311D01*
X-20388982Y-7070762D01*
X-20400329Y-7070822D01*
X-20522029Y-7054165D01*
X-20604021Y-7013557D01*
X-20678921Y-6938480D01*
X-20748643Y-6826518D01*
X-20805753Y-6691634D01*
X-20837791Y-6574529D01*
X-20849672Y-6507663D01*
X-20866436Y-6401341D01*
X-20886440Y-6266585D01*
X-20908040Y-6114422D01*
X-20926025Y-5982643D01*
X-20946615Y-5833601D01*
X-20966059Y-5701594D01*
X-20983013Y-5595082D01*
X-20996134Y-5522524D01*
X-21003846Y-5492713D01*
X-21038203Y-5474367D01*
X-21092997Y-5467415D01*
X-21133744Y-5472694D01*
X-21168044Y-5494756D01*
X-21205013Y-5542940D01*
X-21253769Y-5626587D01*
X-21260712Y-5639209D01*
X-21339188Y-5772267D01*
X-21410210Y-5866565D01*
X-21483001Y-5931427D01*
X-21566783Y-5976180D01*
X-21609541Y-5991915D01*
X-21684517Y-6015363D01*
X-21727133Y-6021276D01*
X-21752964Y-6009108D01*
X-21771832Y-5986233D01*
X-21794119Y-5928045D01*
X-21799647Y-5853499D01*
X-21799428Y-5850712D01*
X-21785936Y-5788743D01*
X-21749330Y-5745295D01*
X-21692473Y-5710732D01*
X-21629671Y-5668395D01*
X-21575402Y-5607256D01*
X-21518908Y-5514382D01*
X-21501107Y-5480699D01*
X-21404137Y-5330468D01*
X-21294024Y-5228008D01*
X-21172014Y-5173982D01*
X-21039351Y-5169053D01*
X-20954932Y-5190017D01*
X-20875585Y-5229210D01*
X-20809920Y-5289610D01*
X-20755870Y-5376379D01*
X-20711369Y-5494682D01*
X-20674351Y-5649683D01*
X-20642751Y-5846544D01*
X-20621512Y-6023392D01*
X-20595676Y-6234858D01*
X-20567405Y-6416661D01*
X-20537761Y-6563566D01*
X-20507810Y-6670340D01*
X-20478615Y-6731751D01*
X-20477144Y-6733597D01*
X-20425515Y-6762965D01*
X-20367871Y-6754225D01*
X-20333061Y-6720277D01*
X-20301755Y-6640836D01*
X-20269691Y-6517474D01*
X-20236529Y-6348462D01*
X-20201932Y-6132070D01*
X-20165560Y-5866570D01*
X-20165136Y-5863270D01*
X-20133955Y-5629134D01*
X-20105762Y-5438828D01*
X-20079056Y-5285478D01*
X-20052332Y-5162211D01*
X-20024089Y-5062155D01*
X-19992824Y-4978436D01*
X-19957036Y-4904180D01*
X-19954424Y-4899346D01*
X-19871215Y-4781059D01*
X-19773006Y-4709074D01*
X-19654190Y-4679668D01*
X-19621908Y-4678532D01*
X-19509994Y-4688273D01*
G37*
G36*
X-28046145Y73590807D02*
G01*
X-27966322Y73745863D01*
X-27932727Y73790771D01*
X-27819522Y73893107D01*
X-27682477Y73962442D01*
X-27531659Y73998796D01*
X-27377136Y74002188D01*
X-27228975Y73972636D01*
X-27097244Y73910161D01*
X-26992011Y73814781D01*
X-26973119Y73788943D01*
X-26905428Y73655168D01*
X-26858694Y73494750D01*
X-26839117Y73329755D01*
X-26838887Y73311232D01*
X-26838887Y73175872D01*
X-27830478Y73175872D01*
X-27830478Y73098505D01*
X-27810654Y72995487D01*
X-27759166Y72889077D01*
X-27687994Y72800770D01*
X-27646795Y72768905D01*
X-27525356Y72720297D01*
X-27375947Y72700035D01*
X-27213681Y72709426D01*
X-27136037Y72724758D01*
X-27054589Y72744141D01*
X-26996515Y72756702D01*
X-26975275Y72759704D01*
X-26969431Y72734812D01*
X-26958859Y72676785D01*
X-26954263Y72649499D01*
X-26945433Y72582078D01*
X-26955525Y72547031D01*
X-26995093Y72526522D01*
X-27033991Y72514760D01*
X-27146968Y72491980D01*
X-27285849Y72478272D01*
X-27428862Y72474619D01*
X-27554233Y72482002D01*
X-27599474Y72489267D01*
X-27750275Y72544755D01*
X-27887909Y72639909D01*
X-27970404Y72728332D01*
X-28050296Y72872141D01*
X-28097387Y73042386D01*
X-28112106Y73226975D01*
X-28098048Y73379479D01*
X-27836835Y73379479D01*
X-27118566Y73379479D01*
X-27118566Y73445622D01*
X-27141648Y73563244D01*
X-27204075Y73665635D01*
X-27295621Y73742327D01*
X-27406061Y73782855D01*
X-27451693Y73786598D01*
X-27562882Y73763263D01*
X-27668086Y73700247D01*
X-27754993Y73608374D01*
X-27811291Y73498470D01*
X-27820650Y73462194D01*
X-27836835Y73379479D01*
X-28098048Y73379479D01*
X-28094883Y73413813D01*
X-28046145Y73590807D01*
G37*
G36*
X-24569130Y33360610D02*
G01*
X-24566176Y33383387D01*
X-24477359Y33868791D01*
X-24343585Y34332090D01*
X-24164295Y34774322D01*
X-23938932Y35196524D01*
X-23666939Y35599736D01*
X-23347758Y35984997D01*
X-22980830Y36353343D01*
X-22961509Y36371071D01*
X-22896095Y36432813D01*
X-22858944Y36472075D01*
X-22853607Y36484737D01*
X-22872520Y36474362D01*
X-23118818Y36294756D01*
X-23372313Y36078757D01*
X-23504847Y35954509D01*
X-23849535Y35588172D01*
X-24151560Y35196581D01*
X-24410497Y34782824D01*
X-24625924Y34349987D01*
X-24797416Y33901158D01*
X-24924550Y33439424D01*
X-25006903Y32967870D01*
X-25044051Y32489585D01*
X-25035570Y32007656D01*
X-24981037Y31525168D01*
X-24880029Y31045211D01*
X-24732121Y30570869D01*
X-24536890Y30105231D01*
X-24355225Y29756633D01*
X-24191513Y29488781D01*
X-24008291Y29224346D01*
X-23818930Y28982138D01*
X-23738210Y28888681D01*
X-23577125Y28708583D01*
X-23671670Y28615424D01*
X-23766214Y28522264D01*
X-23893745Y28662244D01*
X-24217223Y29054419D01*
X-24501023Y29475341D01*
X-24744006Y29920848D01*
X-24945034Y30386780D01*
X-25102969Y30868976D01*
X-25216674Y31363273D01*
X-25285009Y31865511D01*
X-25306838Y32371528D01*
X-25281021Y32877164D01*
X-25206420Y33378256D01*
X-25196645Y33425995D01*
X-25073947Y33894579D01*
X-24905597Y34355415D01*
X-24695249Y34801977D01*
X-24446553Y35227738D01*
X-24163161Y35626171D01*
X-23848726Y35990747D01*
X-23653548Y36184135D01*
X-23254828Y36523631D01*
X-23196058Y36564749D01*
X-22745393Y36564749D01*
X-22732680Y36552024D01*
X-22719968Y36564749D01*
X-22732680Y36577475D01*
X-22745393Y36564749D01*
X-23196058Y36564749D01*
X-22837015Y36815952D01*
X-22400087Y37061107D01*
X-21944024Y37259106D01*
X-21468803Y37409960D01*
X-20974405Y37513679D01*
X-20841953Y37533028D01*
X-20680967Y37549056D01*
X-20482003Y37560426D01*
X-20257722Y37567144D01*
X-20020782Y37569217D01*
X-19783844Y37566653D01*
X-19559566Y37559459D01*
X-19360608Y37547642D01*
X-19206205Y37532091D01*
X-18715303Y37442020D01*
X-18239930Y37304694D01*
X-17782834Y37122128D01*
X-17346762Y36896335D01*
X-16934464Y36629329D01*
X-16548687Y36323122D01*
X-16192180Y35979730D01*
X-15867691Y35601165D01*
X-15577968Y35189442D01*
X-15325760Y34746574D01*
X-15280784Y34655932D01*
X-15073721Y34172079D01*
X-14916278Y33678941D01*
X-14808499Y33178556D01*
X-14750427Y32672959D01*
X-14742106Y32164189D01*
X-14783580Y31654283D01*
X-14874893Y31145278D01*
X-15016087Y30639212D01*
X-15185275Y30189298D01*
X-15340826Y29858852D01*
X-15528135Y29522873D01*
X-15737934Y29195947D01*
X-15960951Y28892659D01*
X-16155898Y28662244D01*
X-16283531Y28522264D01*
X-16378075Y28615424D01*
X-16472620Y28708583D01*
X-16311535Y28888681D01*
X-16003511Y29270018D01*
X-15735442Y29678404D01*
X-15508092Y30109700D01*
X-15322227Y30559768D01*
X-15178610Y31024469D01*
X-15078008Y31499663D01*
X-15021185Y31981213D01*
X-15008906Y32464979D01*
X-15041935Y32946822D01*
X-15121038Y33422604D01*
X-15246979Y33888185D01*
X-15339820Y34146914D01*
X-15537864Y34587555D01*
X-15776865Y35008608D01*
X-16052700Y35404786D01*
X-16361245Y35770800D01*
X-16698377Y36101363D01*
X-17059972Y36391187D01*
X-17126374Y36437954D01*
X-17266214Y36534445D01*
X-17089272Y36371441D01*
X-16720536Y36002710D01*
X-16400180Y35619834D01*
X-16127241Y35220974D01*
X-15900755Y34804294D01*
X-15719761Y34367955D01*
X-15583296Y33910120D01*
X-15490397Y33428950D01*
X-15471196Y33282477D01*
X-15457411Y33103404D01*
X-15452583Y32890523D01*
X-15456179Y32660034D01*
X-15467664Y32428137D01*
X-15486506Y32211030D01*
X-15512170Y32024915D01*
X-15512724Y32021763D01*
X-15619776Y31560126D01*
X-15774243Y31112684D01*
X-15973691Y30683572D01*
X-16215688Y30276923D01*
X-16497798Y29896873D01*
X-16817591Y29547555D01*
X-17137298Y29261491D01*
X-17511872Y28987023D01*
X-17903546Y28758979D01*
X-18317115Y28575019D01*
X-18757373Y28432805D01*
X-18918867Y28392410D01*
X-19010702Y28371561D01*
X-19091273Y28355175D01*
X-19168617Y28342654D01*
X-19250771Y28333398D01*
X-19345770Y28326810D01*
X-19461653Y28322290D01*
X-19606454Y28319239D01*
X-19788211Y28317059D01*
X-19948596Y28315675D01*
X-20144319Y28314968D01*
X-20331126Y28315904D01*
X-20500725Y28318316D01*
X-20644824Y28322040D01*
X-20755129Y28326911D01*
X-20823350Y28332765D01*
X-20825774Y28333121D01*
X-21278255Y28427202D01*
X-21713158Y28567412D01*
X-22127887Y28751237D01*
X-22519847Y28976164D01*
X-22886441Y29239679D01*
X-23225076Y29539269D01*
X-23533154Y29872421D01*
X-23808083Y30236621D01*
X-24047265Y30629356D01*
X-24248105Y31048112D01*
X-24408009Y31490376D01*
X-24514574Y31905466D01*
X-24558425Y32173337D01*
X-24586453Y32471288D01*
X-24598010Y32780818D01*
X-24596934Y32839413D01*
X-24341726Y32839413D01*
X-24319685Y32384032D01*
X-24247598Y31931980D01*
X-24125716Y31485190D01*
X-23954286Y31045597D01*
X-23861700Y30851940D01*
X-23646047Y30474364D01*
X-23394396Y30125411D01*
X-23100707Y29796975D01*
X-23005641Y29703286D01*
X-22655980Y29401556D01*
X-22282925Y29144068D01*
X-21888562Y28931852D01*
X-21474976Y28765938D01*
X-21044253Y28647356D01*
X-20766652Y28597647D01*
X-20618605Y28582312D01*
X-20434827Y28572389D01*
X-20226115Y28567646D01*
X-20003268Y28567845D01*
X-19777084Y28572753D01*
X-19558362Y28582133D01*
X-19357899Y28595752D01*
X-19186494Y28613374D01*
X-19054945Y28634764D01*
X-19054203Y28634923D01*
X-18607547Y28756690D01*
X-18182466Y28924029D01*
X-17781084Y29135482D01*
X-17405523Y29389589D01*
X-17057907Y29684894D01*
X-16740358Y30019937D01*
X-16454999Y30393260D01*
X-16420857Y30443807D01*
X-16257890Y30715843D01*
X-16106284Y31021209D01*
X-15973016Y31343136D01*
X-15865065Y31664857D01*
X-15792667Y31953303D01*
X-15726460Y32405884D01*
X-15709677Y32862197D01*
X-15741492Y33318177D01*
X-15821077Y33769759D01*
X-15947606Y34212876D01*
X-16120252Y34643462D01*
X-16338189Y35057452D01*
X-16464565Y35257977D01*
X-16752726Y35644679D01*
X-17076756Y35996358D01*
X-17433998Y36311209D01*
X-17789949Y36564749D01*
X-17329778Y36564749D01*
X-17317065Y36552024D01*
X-17304352Y36564749D01*
X-17317065Y36577475D01*
X-17329778Y36564749D01*
X-17789949Y36564749D01*
X-17821791Y36587430D01*
X-18237479Y36823217D01*
X-18678401Y37016765D01*
X-19141900Y37166272D01*
X-19353780Y37217963D01*
X-19563101Y37252144D01*
X-19804154Y37271865D01*
X-20059914Y37277127D01*
X-20313359Y37267930D01*
X-20547462Y37244274D01*
X-20695965Y37217963D01*
X-21163271Y37090023D01*
X-21608713Y36918398D01*
X-22029787Y36705541D01*
X-22423987Y36453906D01*
X-22788807Y36165947D01*
X-23121742Y35844117D01*
X-23420285Y35490871D01*
X-23681932Y35108662D01*
X-23904178Y34699944D01*
X-24084515Y34267170D01*
X-24220439Y33812795D01*
X-24234681Y33752425D01*
X-24313475Y33296188D01*
X-24341726Y32839413D01*
X-24596934Y32839413D01*
X-24592451Y33083426D01*
X-24569130Y33360610D01*
G37*
G36*
X-36104709Y43977528D02*
G01*
X-36097134Y44003709D01*
X-36020423Y44181433D01*
X-35911309Y44320605D01*
X-35772558Y44419332D01*
X-35606939Y44475719D01*
X-35417220Y44487872D01*
X-35392068Y44486196D01*
X-35212652Y44448568D01*
X-35059091Y44367714D01*
X-34933642Y44245494D01*
X-34838560Y44083771D01*
X-34808159Y44004321D01*
X-34777712Y43854770D01*
X-34773584Y43685209D01*
X-34794378Y43515815D01*
X-34838698Y43366766D01*
X-34854635Y43332398D01*
X-34943171Y43199103D01*
X-35057297Y43085506D01*
X-35181976Y43006273D01*
X-35194829Y43000644D01*
X-35310292Y42971814D01*
X-35450759Y42965176D01*
X-35595928Y42979809D01*
X-35725495Y43014791D01*
X-35751537Y43025890D01*
X-35895201Y43119634D01*
X-36008273Y43248741D01*
X-36088256Y43406148D01*
X-36132654Y43584791D01*
X-36136968Y43716453D01*
X-35852200Y43716453D01*
X-35844942Y43560963D01*
X-35820117Y43443568D01*
X-35773150Y43353153D01*
X-35699465Y43278599D01*
X-35660135Y43249808D01*
X-35559751Y43207347D01*
X-35441902Y43195494D01*
X-35325392Y43213288D01*
X-35229024Y43259766D01*
X-35213558Y43272661D01*
X-35127553Y43379788D01*
X-35074724Y43514872D01*
X-35052781Y43684397D01*
X-35051857Y43730148D01*
X-35067892Y43908644D01*
X-35115559Y44053646D01*
X-35192510Y44162248D01*
X-35296396Y44231545D01*
X-35424868Y44258633D01*
X-35478229Y44257370D01*
X-35613787Y44229211D01*
X-35717116Y44167467D01*
X-35790020Y44069530D01*
X-35834302Y43932793D01*
X-35851765Y43754646D01*
X-35852200Y43716453D01*
X-36136968Y43716453D01*
X-36138971Y43777605D01*
X-36104709Y43977528D01*
G37*
G36*
X-35408418Y26001509D02*
G01*
X-35332850Y25996674D01*
X-35295472Y25988149D01*
X-35294559Y25987378D01*
X-35289620Y25955047D01*
X-35296117Y25893371D01*
X-35300006Y25872849D01*
X-35320684Y25773567D01*
X-35514305Y25782439D01*
X-35620414Y25784554D01*
X-35716837Y25781746D01*
X-35783680Y25774628D01*
X-35786420Y25774054D01*
X-35864913Y25756797D01*
X-35864913Y24513747D01*
X-36119167Y24513747D01*
X-36119167Y25937036D01*
X-36011109Y25969402D01*
X-35951169Y25980567D01*
X-35859484Y25989797D01*
X-35747711Y25996798D01*
X-35627505Y26001279D01*
X-35510522Y26002947D01*
X-35408418Y26001509D01*
G37*
G36*
X-36999831Y86456584D02*
G01*
X-36948343Y86450731D01*
X-36885314Y86429032D01*
X-36857260Y86387968D01*
X-36859947Y86317429D01*
X-36871604Y86267542D01*
X-36883371Y86239382D01*
X-36907540Y86224666D01*
X-36956183Y86220746D01*
X-37041370Y86224971D01*
X-37059683Y86226261D01*
X-37164539Y86230222D01*
X-37263018Y86228044D01*
X-37324611Y86221563D01*
X-37415864Y86204427D01*
X-37415864Y84959639D01*
X-37670118Y84959639D01*
X-37670118Y86382497D01*
X-37574773Y86410844D01*
X-37487132Y86429184D01*
X-37368429Y86444035D01*
X-37236052Y86454290D01*
X-37107390Y86458842D01*
X-36999831Y86456584D01*
G37*
G36*
X-21839504Y56109232D02*
G01*
X-21748218Y56259997D01*
X-21625988Y56377391D01*
X-21476261Y56455993D01*
X-21447205Y56465440D01*
X-21255741Y56500128D01*
X-21078889Y56486150D01*
X-20917016Y56423591D01*
X-20770494Y56312539D01*
X-20762748Y56304887D01*
X-20659094Y56176450D01*
X-20591776Y56030930D01*
X-20557362Y55858741D01*
X-20551028Y55713498D01*
X-20575149Y55503018D01*
X-20645188Y55314386D01*
X-20746027Y55164979D01*
X-20856295Y55070932D01*
X-20998031Y55004273D01*
X-21157792Y54968506D01*
X-21322139Y54967138D01*
X-21427834Y54987130D01*
X-21590283Y55057569D01*
X-21722637Y55167007D01*
X-21822451Y55311725D01*
X-21887282Y55488001D01*
X-21914686Y55692117D01*
X-21915447Y55729278D01*
X-21910719Y55779228D01*
X-21647782Y55779228D01*
X-21640685Y55602569D01*
X-21593725Y55443243D01*
X-21521135Y55325450D01*
X-21421387Y55241434D01*
X-21301230Y55197810D01*
X-21173142Y55196147D01*
X-21049600Y55238015D01*
X-21012209Y55261470D01*
X-20923370Y55354059D01*
X-20861140Y55478808D01*
X-20826453Y55623940D01*
X-20820242Y55777678D01*
X-20843443Y55928245D01*
X-20896989Y56063863D01*
X-20943146Y56132038D01*
X-21043985Y56220112D01*
X-21158605Y56264897D01*
X-21278055Y56268636D01*
X-21393381Y56233573D01*
X-21495630Y56161949D01*
X-21575851Y56056009D01*
X-21613687Y55964047D01*
X-21647782Y55779228D01*
X-21910719Y55779228D01*
X-21896397Y55930518D01*
X-21839504Y56109232D01*
G37*
G36*
X-18495897Y44186587D02*
G01*
X-18394855Y44328002D01*
X-18263217Y44432224D01*
X-18103613Y44496455D01*
X-17923822Y44517908D01*
X-17748961Y44496810D01*
X-17601670Y44433240D01*
X-17482817Y44327679D01*
X-17423280Y44240450D01*
X-17381344Y44157487D01*
X-17355670Y44078922D01*
X-17341180Y43984731D01*
X-17334528Y43890500D01*
X-17323401Y43678276D01*
X-18321369Y43678276D01*
X-18321369Y43620042D01*
X-18304951Y43542872D01*
X-18262886Y43449648D01*
X-18205961Y43359826D01*
X-18144962Y43292864D01*
X-18136222Y43286063D01*
X-18060349Y43252369D01*
X-17950734Y43230419D01*
X-17823392Y43221458D01*
X-17694338Y43226732D01*
X-17593168Y43243858D01*
X-17521899Y43258691D01*
X-17473477Y43262946D01*
X-17463144Y43260341D01*
X-17453932Y43228675D01*
X-17447780Y43167117D01*
X-17447168Y43152360D01*
X-17449209Y43090875D01*
X-17469429Y43057159D01*
X-17521346Y43033941D01*
X-17545894Y43026204D01*
X-17627491Y43010319D01*
X-17739297Y43000079D01*
X-17863693Y42995833D01*
X-17983063Y42997930D01*
X-18079789Y43006717D01*
X-18118130Y43014882D01*
X-18285816Y43090075D01*
X-18419283Y43201632D01*
X-18516878Y43346822D01*
X-18576946Y43522917D01*
X-18597835Y43727186D01*
X-18595672Y43803368D01*
X-18572843Y43951525D01*
X-18320572Y43951525D01*
X-18315572Y43916422D01*
X-18281831Y43895685D01*
X-18213676Y43885535D01*
X-18105432Y43882193D01*
X-17969651Y43881884D01*
X-17841054Y43882842D01*
X-17731463Y43885470D01*
X-17650520Y43889401D01*
X-17607867Y43894265D01*
X-17603966Y43895864D01*
X-17594204Y43937662D01*
X-17608272Y44005682D01*
X-17640326Y44084809D01*
X-17684521Y44159930D01*
X-17724047Y44206383D01*
X-17791364Y44260413D01*
X-17856860Y44284266D01*
X-17933258Y44289003D01*
X-18068754Y44268468D01*
X-18175740Y44206034D01*
X-18256772Y44100099D01*
X-18267047Y44079942D01*
X-18302506Y44004772D01*
X-18320572Y43951525D01*
X-18572843Y43951525D01*
X-18563713Y44010777D01*
X-18495897Y44186587D01*
G37*
G36*
X-17179559Y86085842D02*
G01*
X-17133228Y85930827D01*
X-17076692Y85757390D01*
X-17018638Y85591617D01*
X-16986750Y85506834D01*
X-16877550Y85226874D01*
X-16827921Y85341403D01*
X-16800230Y85411893D01*
X-16761474Y85519274D01*
X-16715568Y85651790D01*
X-16666423Y85797690D01*
X-16617952Y85945217D01*
X-16574069Y86082619D01*
X-16538686Y86198142D01*
X-16516558Y86276723D01*
X-16488778Y86384890D01*
X-16213800Y86384890D01*
X-16252669Y86251272D01*
X-16322864Y86028148D01*
X-16412561Y85772335D01*
X-16517328Y85496057D01*
X-16607813Y85271425D01*
X-16757705Y84908763D01*
X-16878797Y84908750D01*
X-16999888Y84908737D01*
X-17065198Y85055080D01*
X-17131229Y85207997D01*
X-17200198Y85376435D01*
X-17269339Y85552732D01*
X-17335888Y85729222D01*
X-17397078Y85898242D01*
X-17450146Y86052128D01*
X-17492324Y86183216D01*
X-17520848Y86283842D01*
X-17532952Y86346341D01*
X-17533181Y86352064D01*
X-17512346Y86373481D01*
X-17447298Y86383694D01*
X-17398175Y86384890D01*
X-17263168Y86384890D01*
X-17179559Y86085842D01*
G37*
G36*
X-17758185Y86399828D02*
G01*
X-17655599Y86384081D01*
X-17595055Y86363300D01*
X-17567817Y86329704D01*
X-17565152Y86275514D01*
X-17571143Y86233225D01*
X-17584762Y86166948D01*
X-17602723Y86140016D01*
X-17636077Y86141317D01*
X-17656542Y86147361D01*
X-17715902Y86158090D01*
X-17806332Y86165714D01*
X-17906400Y86168557D01*
X-18041285Y86159634D01*
X-18140250Y86128141D01*
X-18215816Y86066992D01*
X-18280504Y85969101D01*
X-18289587Y85951704D01*
X-18323156Y85870615D01*
X-18340963Y85781376D01*
X-18346734Y85664137D01*
X-18346795Y85646813D01*
X-18329525Y85464054D01*
X-18278273Y85315942D01*
X-18193869Y85204589D01*
X-18162186Y85178650D01*
X-18084794Y85143942D01*
X-17975539Y85121908D01*
X-17852191Y85114151D01*
X-17732520Y85122271D01*
X-17672991Y85134556D01*
X-17596810Y85147906D01*
X-17554092Y85130195D01*
X-17536112Y85074230D01*
X-17533570Y85019627D01*
X-17537488Y84973230D01*
X-17555095Y84940811D01*
X-17594375Y84919272D01*
X-17663316Y84905516D01*
X-17769901Y84896445D01*
X-17863711Y84891568D01*
X-17982526Y84887559D01*
X-18066412Y84890050D01*
X-18131102Y84901171D01*
X-18192332Y84923051D01*
X-18232380Y84941472D01*
X-18387415Y85042213D01*
X-18504829Y85176425D01*
X-18583502Y85342139D01*
X-18622313Y85537384D01*
X-18626474Y85634088D01*
X-18606061Y85848952D01*
X-18546533Y86032394D01*
X-18450458Y86182152D01*
X-18320403Y86295961D01*
X-18158937Y86371555D01*
X-17968627Y86406671D01*
X-17758185Y86399828D01*
G37*
G36*
X-33446525Y86459846D02*
G01*
X-33327587Y86444454D01*
X-33194060Y86435729D01*
X-33112465Y86434996D01*
X-33010322Y86433945D01*
X-32951890Y86423918D01*
X-32931081Y86405680D01*
X-32906679Y86324753D01*
X-32871405Y86213115D01*
X-32828489Y86080457D01*
X-32781164Y85936472D01*
X-32732661Y85790853D01*
X-32686213Y85653291D01*
X-32645051Y85533478D01*
X-32612406Y85441106D01*
X-32591512Y85385868D01*
X-32589365Y85380877D01*
X-32544360Y85280371D01*
X-32444542Y85546308D01*
X-32394266Y85685884D01*
X-32338196Y85850460D01*
X-32284371Y86016054D01*
X-32252961Y86117655D01*
X-32161197Y86423066D01*
X-32029872Y86430759D01*
X-31949147Y86430720D01*
X-31904435Y86420321D01*
X-31898546Y86411815D01*
X-31907339Y86366861D01*
X-31931745Y86282887D01*
X-31968810Y86168260D01*
X-32015578Y86031347D01*
X-32069093Y85880514D01*
X-32126399Y85724127D01*
X-32184541Y85570554D01*
X-32240563Y85428161D01*
X-32279398Y85333763D01*
X-32438236Y84957085D01*
X-32674022Y84972365D01*
X-32822084Y85315952D01*
X-32888699Y85477189D01*
X-32961490Y85664227D01*
X-33031776Y85854183D01*
X-33090882Y86024176D01*
X-33092342Y86028577D01*
X-33214538Y86397615D01*
X-33243764Y86290358D01*
X-33264239Y86224601D01*
X-33285040Y86198138D01*
X-33317860Y86200648D01*
X-33337473Y86207643D01*
X-33396176Y86220381D01*
X-33485277Y86229253D01*
X-33574520Y86232184D01*
X-33721137Y86218624D01*
X-33832801Y86174614D01*
X-33918590Y86095165D01*
X-33968079Y86015852D01*
X-34004596Y85906669D01*
X-34022280Y85769761D01*
X-34021044Y85624719D01*
X-34000806Y85491134D01*
X-33970718Y85405366D01*
X-33886993Y85291700D01*
X-33770327Y85213986D01*
X-33625450Y85173982D01*
X-33457093Y85173450D01*
X-33379919Y85185540D01*
X-33301970Y85199993D01*
X-33247730Y85207750D01*
X-33231411Y85207785D01*
X-33223210Y85181174D01*
X-33210692Y85123236D01*
X-33207472Y85106399D01*
X-33199427Y85042634D01*
X-33212650Y85008994D01*
X-33255479Y84986376D01*
X-33260757Y84984348D01*
X-33376706Y84955946D01*
X-33519656Y84943380D01*
X-33668240Y84946773D01*
X-33801092Y84966248D01*
X-33851912Y84980953D01*
X-34005330Y85061905D01*
X-34135227Y85182370D01*
X-34231588Y85332791D01*
X-34239987Y85351395D01*
X-34271267Y85438639D01*
X-34288975Y85532389D01*
X-34296098Y85651245D01*
X-34296647Y85704447D01*
X-34295000Y85818796D01*
X-34286752Y85901832D01*
X-34267606Y85973095D01*
X-34233270Y86052123D01*
X-34209935Y86098936D01*
X-34104384Y86256838D01*
X-33970827Y86372934D01*
X-33812122Y86445873D01*
X-33631122Y86474306D01*
X-33446525Y86459846D01*
G37*
G36*
X-21133946Y25741753D02*
G01*
X-21097552Y25601167D01*
X-21056696Y25454196D01*
X-21013979Y25309024D01*
X-20972001Y25173836D01*
X-20933360Y25056820D01*
X-20900657Y24966159D01*
X-20876491Y24910040D01*
X-20865182Y24895511D01*
X-20852493Y24918475D01*
X-20828805Y24981281D01*
X-20796992Y25074799D01*
X-20759924Y25189898D01*
X-20720471Y25317449D01*
X-20681506Y25448320D01*
X-20645900Y25573381D01*
X-20616523Y25683503D01*
X-20613069Y25697214D01*
X-20580511Y25828315D01*
X-20556890Y25917929D01*
X-20537671Y25973654D01*
X-20518320Y26003087D01*
X-20494302Y26013824D01*
X-20461083Y26013464D01*
X-20426142Y26010385D01*
X-20321614Y26002625D01*
X-20236635Y25671763D01*
X-20196048Y25519779D01*
X-20150338Y25358202D01*
X-20105421Y25207477D01*
X-20070936Y25099118D01*
X-19990216Y24857335D01*
X-19894480Y25150020D01*
X-19846585Y25303434D01*
X-19795982Y25476933D01*
X-19750211Y25644194D01*
X-19728592Y25729028D01*
X-19658441Y26015351D01*
X-19523839Y26015351D01*
X-19448884Y26013379D01*
X-19400018Y26008311D01*
X-19389237Y26003790D01*
X-19395956Y25976651D01*
X-19414517Y25909169D01*
X-19442525Y25809865D01*
X-19477582Y25687263D01*
X-19501909Y25602939D01*
X-19610153Y25247803D01*
X-19715794Y24939819D01*
X-19820073Y24675385D01*
X-19824899Y24664113D01*
X-19879652Y24536709D01*
X-19994683Y24544316D01*
X-20109715Y24551924D01*
X-20206507Y24819158D01*
X-20255758Y24959408D01*
X-20307055Y25112488D01*
X-20352401Y25254273D01*
X-20370512Y25313957D01*
X-20437724Y25541521D01*
X-20519341Y25263055D01*
X-20600612Y25001249D01*
X-20687435Y24748972D01*
X-20749973Y24583737D01*
X-20778123Y24553436D01*
X-20838490Y24540465D01*
X-20880248Y24539198D01*
X-20947384Y24541748D01*
X-20987430Y24557399D01*
X-21016721Y24598154D01*
X-21044757Y24660090D01*
X-21081512Y24751957D01*
X-21126591Y24874376D01*
X-21177362Y25019165D01*
X-21231194Y25178145D01*
X-21285457Y25343135D01*
X-21337519Y25505954D01*
X-21384751Y25658422D01*
X-21424520Y25792359D01*
X-21454198Y25899584D01*
X-21471151Y25971916D01*
X-21474122Y25995206D01*
X-21451159Y26006363D01*
X-21392064Y26013678D01*
X-21337859Y26015351D01*
X-21201597Y26015351D01*
X-21133946Y25741753D01*
G37*
G36*
X-22186034Y56243394D02*
G01*
X-22185901Y55997352D01*
X-22185348Y55797209D01*
X-22184139Y55637960D01*
X-22182040Y55514603D01*
X-22178819Y55422134D01*
X-22174239Y55355549D01*
X-22168069Y55309847D01*
X-22160072Y55280022D01*
X-22150015Y55261073D01*
X-22139537Y55249656D01*
X-22087238Y55216536D01*
X-22052049Y55207535D01*
X-22004487Y55190934D01*
X-21987001Y55138490D01*
X-21993975Y55065904D01*
X-22010747Y55006516D01*
X-22041734Y54982544D01*
X-22091841Y54978516D01*
X-22171118Y54990608D01*
X-22254270Y55019973D01*
X-22260503Y55023055D01*
X-22334971Y55073452D01*
X-22397298Y55135330D01*
X-22400343Y55139368D01*
X-22413864Y55159602D01*
X-22424911Y55183202D01*
X-22433784Y55215315D01*
X-22440783Y55261084D01*
X-22446207Y55325653D01*
X-22450359Y55414167D01*
X-22453537Y55531770D01*
X-22456042Y55683606D01*
X-22458174Y55874820D01*
X-22460233Y56110556D01*
X-22460750Y56174335D01*
X-22463038Y56423158D01*
X-22464925Y56625906D01*
X-22465550Y56787402D01*
X-22464052Y56912471D01*
X-22459570Y57005936D01*
X-22451242Y57072622D01*
X-22438207Y57117352D01*
X-22419604Y57144951D01*
X-22394571Y57160243D01*
X-22362247Y57168052D01*
X-22321770Y57173202D01*
X-22281379Y57178911D01*
X-22186034Y57195012D01*
X-22186034Y56243394D01*
G37*
G36*
X-36418818Y44243571D02*
G01*
X-36416802Y43998930D01*
X-36414713Y43800090D01*
X-36412265Y43641949D01*
X-36409174Y43519407D01*
X-36405154Y43427363D01*
X-36399919Y43360716D01*
X-36393185Y43314365D01*
X-36384665Y43283209D01*
X-36374075Y43262148D01*
X-36363124Y43248254D01*
X-36305213Y43207969D01*
X-36252101Y43194709D01*
X-36207328Y43187234D01*
X-36200717Y43155399D01*
X-36204843Y43137445D01*
X-36217806Y43063737D01*
X-36220521Y43022916D01*
X-36231146Y42980804D01*
X-36271944Y42967806D01*
X-36290789Y42967839D01*
X-36370952Y42977159D01*
X-36425074Y42989601D01*
X-36535883Y43039717D01*
X-36609610Y43115567D01*
X-36639970Y43175634D01*
X-36650298Y43208934D01*
X-36658673Y43255337D01*
X-36665284Y43319916D01*
X-36670319Y43407742D01*
X-36673966Y43523888D01*
X-36676414Y43673424D01*
X-36677852Y43861423D01*
X-36678467Y44092957D01*
X-36678526Y44213260D01*
X-36678526Y45154429D01*
X-36608606Y45154776D01*
X-36532826Y45160739D01*
X-36482382Y45170234D01*
X-36426078Y45185344D01*
X-36418818Y44243571D01*
G37*
G36*
X-18539180Y26021264D02*
G01*
X-18411607Y25982732D01*
X-18345971Y25943448D01*
X-18311715Y25919199D01*
X-18279505Y25913285D01*
X-18233418Y25927266D01*
X-18159602Y25961695D01*
X-18073381Y25997478D01*
X-17986299Y26017467D01*
X-17877547Y26025705D01*
X-17825573Y26026601D01*
X-17668125Y26018856D01*
X-17548614Y25989932D01*
X-17456894Y25935205D01*
X-17382815Y25850051D01*
X-17360692Y25814794D01*
X-17338508Y25775937D01*
X-17321570Y25739838D01*
X-17309052Y25699080D01*
X-17300131Y25646242D01*
X-17293980Y25573908D01*
X-17289774Y25474657D01*
X-17286688Y25341071D01*
X-17283897Y25165732D01*
X-17283202Y25118206D01*
X-17274765Y24539198D01*
X-17528737Y24539198D01*
X-17537563Y25067304D01*
X-17541281Y25252298D01*
X-17545854Y25393599D01*
X-17551901Y25498414D01*
X-17560043Y25573952D01*
X-17570900Y25627420D01*
X-17585092Y25666026D01*
X-17589863Y25675367D01*
X-17658301Y25751204D01*
X-17758230Y25796837D01*
X-17878886Y25810381D01*
X-18009505Y25789950D01*
X-18084927Y25762090D01*
X-18149455Y25730350D01*
X-18176929Y25703186D01*
X-18177007Y25665065D01*
X-18167560Y25629200D01*
X-18160037Y25577863D01*
X-18153470Y25485104D01*
X-18148248Y25360398D01*
X-18144760Y25213222D01*
X-18143397Y25053052D01*
X-18143391Y25042022D01*
X-18143391Y24539198D01*
X-18397645Y24539198D01*
X-18398267Y24990952D01*
X-18399960Y25146698D01*
X-18404256Y25293075D01*
X-18410629Y25419023D01*
X-18418551Y25513486D01*
X-18425243Y25557234D01*
X-18467402Y25673727D01*
X-18534445Y25752655D01*
X-18631212Y25796671D01*
X-18762544Y25808428D01*
X-18868336Y25800079D01*
X-19007856Y25782630D01*
X-19007856Y24539198D01*
X-19262902Y24539198D01*
X-19256149Y25257998D01*
X-19249397Y25976797D01*
X-19084132Y26007611D01*
X-18883799Y26034430D01*
X-18699363Y26038738D01*
X-18539180Y26021264D01*
G37*
G36*
X-18658256Y56456990D02*
G01*
X-18401326Y56490869D01*
X-18176241Y56485866D01*
X-17983334Y56442098D01*
X-17822934Y56359680D01*
X-17695375Y56238728D01*
X-17605076Y56088601D01*
X-17563337Y55951605D01*
X-17543558Y55787592D01*
X-17545701Y55615437D01*
X-17569728Y55454016D01*
X-17606596Y55340967D01*
X-17698317Y55193582D01*
X-17823937Y55074748D01*
X-17938139Y55009259D01*
X-18039777Y54982297D01*
X-18167894Y54971409D01*
X-18300742Y54976531D01*
X-18416572Y54997597D01*
X-18454035Y55010803D01*
X-18548563Y55051548D01*
X-18562911Y54482184D01*
X-18696394Y54474491D01*
X-18829878Y54466799D01*
X-18829878Y55291618D01*
X-18550198Y55291618D01*
X-18454853Y55250531D01*
X-18302725Y55206982D01*
X-18153873Y55205251D01*
X-18019867Y55244918D01*
X-17979692Y55267795D01*
X-17905512Y55339520D01*
X-17854780Y55444822D01*
X-17825215Y55589409D01*
X-17817989Y55672441D01*
X-17820475Y55851114D01*
X-17852815Y55993055D01*
X-17916965Y56104089D01*
X-17984706Y56168744D01*
X-18033752Y56202364D01*
X-18083485Y56223883D01*
X-18147946Y56236654D01*
X-18241175Y56244028D01*
X-18312966Y56247116D01*
X-18550198Y56255935D01*
X-18550198Y55291618D01*
X-18829878Y55291618D01*
X-18829878Y56423415D01*
X-18658256Y56456990D01*
G37*
G36*
X-36245784Y85946787D02*
G01*
X-36186306Y86104420D01*
X-36102085Y86230396D01*
X-35985373Y86340384D01*
X-35851534Y86412722D01*
X-35691392Y86451120D01*
X-35534382Y86459883D01*
X-35409480Y86455398D01*
X-35281129Y86444375D01*
X-35175032Y86429091D01*
X-35165713Y86427224D01*
X-35013161Y86395427D01*
X-35013161Y84869047D01*
X-35078117Y84742777D01*
X-35157542Y84627345D01*
X-35266797Y84539926D01*
X-35323490Y84506703D01*
X-35374169Y84484504D01*
X-35431512Y84470834D01*
X-35508201Y84463199D01*
X-35616913Y84459103D01*
X-35684924Y84457648D01*
X-35847598Y84458235D01*
X-35979179Y84466377D01*
X-36070697Y84481466D01*
X-36081029Y84484486D01*
X-36139641Y84506224D01*
X-36168688Y84532650D01*
X-36173620Y84577764D01*
X-36159885Y84655565D01*
X-36155483Y84675798D01*
X-36138167Y84717323D01*
X-36101264Y84723819D01*
X-36073566Y84717872D01*
X-35942614Y84691251D01*
X-35802942Y84674140D01*
X-35675810Y84668595D01*
X-35606074Y84672644D01*
X-35464203Y84707675D01*
X-35363508Y84772011D01*
X-35302651Y84867028D01*
X-35280297Y84994100D01*
X-35280128Y85007978D01*
X-35280128Y85109747D01*
X-35368300Y85072870D01*
X-35489651Y85042274D01*
X-35635089Y85035669D01*
X-35784344Y85052158D01*
X-35917147Y85090838D01*
X-35933196Y85097938D01*
X-36058262Y85182755D01*
X-36155936Y85302267D01*
X-36224870Y85447449D01*
X-36263720Y85609278D01*
X-36269041Y85730802D01*
X-35991266Y85730802D01*
X-35975877Y85586584D01*
X-35933856Y85456300D01*
X-35867035Y85354238D01*
X-35849434Y85337208D01*
X-35754431Y85283741D01*
X-35632847Y85258312D01*
X-35501174Y85261905D01*
X-35375907Y85295502D01*
X-35350048Y85307420D01*
X-35280128Y85342710D01*
X-35280128Y85771999D01*
X-35279904Y85935498D01*
X-35281743Y86054989D01*
X-35289413Y86137338D01*
X-35306683Y86189408D01*
X-35337320Y86218066D01*
X-35385092Y86230177D01*
X-35453768Y86232605D01*
X-35532702Y86232184D01*
X-35679995Y86218542D01*
X-35792512Y86174130D01*
X-35879462Y86093721D01*
X-35934833Y86003891D01*
X-35978195Y85874667D01*
X-35991266Y85730802D01*
X-36269041Y85730802D01*
X-36271140Y85778732D01*
X-36245784Y85946787D01*
G37*
G36*
X-22770689Y25232427D02*
G01*
X-22770156Y25435845D01*
X-22769006Y25597893D01*
X-22767026Y25723337D01*
X-22764002Y25816944D01*
X-22759718Y25883478D01*
X-22753963Y25927706D01*
X-22746521Y25954394D01*
X-22737178Y25968307D01*
X-22726324Y25974040D01*
X-22538326Y26015486D01*
X-22341079Y26035418D01*
X-22151595Y26033245D01*
X-21986887Y26008377D01*
X-21958696Y26000711D01*
X-21817686Y25934414D01*
X-21690690Y25829017D01*
X-21589548Y25696272D01*
X-21536183Y25581200D01*
X-21499122Y25410326D01*
X-21492230Y25220699D01*
X-21515078Y25034220D01*
X-21549239Y24915424D01*
X-21617287Y24787601D01*
X-21714248Y24673217D01*
X-21827190Y24585079D01*
X-21928661Y24539642D01*
X-22069055Y24517235D01*
X-22223090Y24518848D01*
X-22363950Y24543765D01*
X-22389437Y24551924D01*
X-22456281Y24574853D01*
X-22499689Y24588470D01*
X-22507048Y24590100D01*
X-22510795Y24566324D01*
X-22513847Y24501696D01*
X-22515878Y24406261D01*
X-22516564Y24297415D01*
X-22516564Y24004729D01*
X-22770819Y24004729D01*
X-22770819Y24842120D01*
X-22516564Y24842120D01*
X-22408506Y24793022D01*
X-22274573Y24752130D01*
X-22137603Y24744683D01*
X-22013860Y24770415D01*
X-21954609Y24800406D01*
X-21864980Y24882023D01*
X-21805850Y24990340D01*
X-21774476Y25132168D01*
X-21767509Y25264549D01*
X-21770763Y25384369D01*
X-21783311Y25471518D01*
X-21808369Y25543863D01*
X-21823199Y25573758D01*
X-21910428Y25686108D01*
X-22031454Y25763652D01*
X-22181197Y25804393D01*
X-22354573Y25806331D01*
X-22400167Y25800646D01*
X-22516564Y25783174D01*
X-22516564Y24842120D01*
X-22770819Y24842120D01*
X-22770819Y24982874D01*
X-22770689Y25232427D01*
G37*
G36*
X-22676744Y44038992D02*
G01*
X-22605575Y44205304D01*
X-22520123Y44323243D01*
X-22394501Y44423190D01*
X-22244051Y44486949D01*
X-22079992Y44514234D01*
X-21913542Y44504760D01*
X-21755920Y44458243D01*
X-21618343Y44374398D01*
X-21587725Y44346919D01*
X-21469977Y44199351D01*
X-21395172Y44026487D01*
X-21362509Y43826281D01*
X-21360811Y43767355D01*
X-21378875Y43550754D01*
X-21433427Y43366552D01*
X-21522684Y43216765D01*
X-21644865Y43103409D01*
X-21798186Y43028500D01*
X-21980866Y42994055D01*
X-22046194Y42991910D01*
X-22211988Y43005068D01*
X-22326858Y43038911D01*
X-22440955Y43113127D01*
X-22547964Y43222336D01*
X-22634943Y43350969D01*
X-22685300Y43470125D01*
X-22718959Y43659254D01*
X-22717147Y43755777D01*
X-22445630Y43755777D01*
X-22430737Y43569560D01*
X-22384579Y43422350D01*
X-22307622Y43314770D01*
X-22200336Y43247443D01*
X-22063187Y43220992D01*
X-22043598Y43220589D01*
X-21928363Y43232442D01*
X-21836682Y43272783D01*
X-21829693Y43277425D01*
X-21740491Y43357808D01*
X-21681194Y43461173D01*
X-21648584Y43595590D01*
X-21639387Y43754629D01*
X-21641449Y43868041D01*
X-21650006Y43947843D01*
X-21668617Y44011240D01*
X-21700840Y44075438D01*
X-21708440Y44088542D01*
X-21797706Y44198184D01*
X-21905870Y44265389D01*
X-22024216Y44290461D01*
X-22144027Y44273707D01*
X-22256588Y44215432D01*
X-22353182Y44115941D01*
X-22385313Y44064824D01*
X-22418236Y43993542D01*
X-22436818Y43917181D01*
X-22444643Y43817382D01*
X-22445630Y43755777D01*
X-22717147Y43755777D01*
X-22715323Y43852926D01*
X-22676744Y44038992D01*
G37*
G36*
X-34679013Y-4785375D02*
G01*
X-34598617Y-4790002D01*
X-34549021Y-4798479D01*
X-34523564Y-4811225D01*
X-34521403Y-4813547D01*
X-34511173Y-4850649D01*
X-34502615Y-4935698D01*
X-34495695Y-5069387D01*
X-34490380Y-5252410D01*
X-34486636Y-5485460D01*
X-34486000Y-5545569D01*
X-34479227Y-6243059D01*
X-34358678Y-6260310D01*
X-34269905Y-6266935D01*
X-34190074Y-6263088D01*
X-34167988Y-6258864D01*
X-34133397Y-6247007D01*
X-34111484Y-6226574D01*
X-34098074Y-6186435D01*
X-34088993Y-6115457D01*
X-34082103Y-6029823D01*
X-34069494Y-5915455D01*
X-34051926Y-5830318D01*
X-34031627Y-5785152D01*
X-34031252Y-5784773D01*
X-33986440Y-5764161D01*
X-33908628Y-5749176D01*
X-33847834Y-5744280D01*
X-33749024Y-5745754D01*
X-33690242Y-5764793D01*
X-33661640Y-5809026D01*
X-33653374Y-5886084D01*
X-33653290Y-5895042D01*
X-33661216Y-5957618D01*
X-33695218Y-5991755D01*
X-33727351Y-6005061D01*
X-33767512Y-6022682D01*
X-33791544Y-6049282D01*
X-33805494Y-6098055D01*
X-33815409Y-6182198D01*
X-33817130Y-6200981D01*
X-33832555Y-6328579D01*
X-33855834Y-6414752D01*
X-33893451Y-6468962D01*
X-33951893Y-6500668D01*
X-34035129Y-6518948D01*
X-34123963Y-6527273D01*
X-34243178Y-6531465D01*
X-34372432Y-6530991D01*
X-34426029Y-6529219D01*
X-34547035Y-6522373D01*
X-34627298Y-6513071D01*
X-34676927Y-6499274D01*
X-34706027Y-6478944D01*
X-34712065Y-6471541D01*
X-34723018Y-6445137D01*
X-34731526Y-6396054D01*
X-34737838Y-6319148D01*
X-34742200Y-6209274D01*
X-34744859Y-6061289D01*
X-34746061Y-5870049D01*
X-34746194Y-5760326D01*
X-34746945Y-5538670D01*
X-34749307Y-5364196D01*
X-34753442Y-5233204D01*
X-34759512Y-5141993D01*
X-34767680Y-5086866D01*
X-34776704Y-5065291D01*
X-34821524Y-5045208D01*
X-34894708Y-5034896D01*
X-34979619Y-5033908D01*
X-35059623Y-5041795D01*
X-35118083Y-5058111D01*
X-35137568Y-5075008D01*
X-35141216Y-5109253D01*
X-35144557Y-5188209D01*
X-35147485Y-5305683D01*
X-35149896Y-5455484D01*
X-35151684Y-5631420D01*
X-35152745Y-5827299D01*
X-35153001Y-5985577D01*
X-35153271Y-6224089D01*
X-35154228Y-6416870D01*
X-35156092Y-6569089D01*
X-35159085Y-6685916D01*
X-35163427Y-6772519D01*
X-35169339Y-6834067D01*
X-35177042Y-6875730D01*
X-35186756Y-6902677D01*
X-35192581Y-6912453D01*
X-35209717Y-6933688D01*
X-35232059Y-6948815D01*
X-35267719Y-6958869D01*
X-35324805Y-6964882D01*
X-35411428Y-6967887D01*
X-35535697Y-6968918D01*
X-35636631Y-6969018D01*
X-35789256Y-6968592D01*
X-35898852Y-6966717D01*
X-35973237Y-6962500D01*
X-36020230Y-6955048D01*
X-36047650Y-6943467D01*
X-36063316Y-6926863D01*
X-36067421Y-6919790D01*
X-36075850Y-6878110D01*
X-36082884Y-6789921D01*
X-36088357Y-6659601D01*
X-36092104Y-6491527D01*
X-36093959Y-6290077D01*
X-36094131Y-6213527D01*
X-36095022Y-6034469D01*
X-36097330Y-5871419D01*
X-36100832Y-5731541D01*
X-36105306Y-5622000D01*
X-36110530Y-5549959D01*
X-36115515Y-5523360D01*
X-36151128Y-5503583D01*
X-36228041Y-5496358D01*
X-36299460Y-5497909D01*
X-36462410Y-5505591D01*
X-36477972Y-5715086D01*
X-36489942Y-5840409D01*
X-36508538Y-5923110D01*
X-36541082Y-5971465D01*
X-36594893Y-5993748D01*
X-36677294Y-5998235D01*
X-36727022Y-5996593D01*
X-36894642Y-5989158D01*
X-36902500Y-5880192D01*
X-36904281Y-5810456D01*
X-36890232Y-5773302D01*
X-36851168Y-5750845D01*
X-36832580Y-5744085D01*
X-36782487Y-5720751D01*
X-36760025Y-5685554D01*
X-36754272Y-5619988D01*
X-36754196Y-5611268D01*
X-36745150Y-5487363D01*
X-36721856Y-5379213D01*
X-36687888Y-5300061D01*
X-36662352Y-5270852D01*
X-36618812Y-5257349D01*
X-36537318Y-5247219D01*
X-36429342Y-5240490D01*
X-36306356Y-5237189D01*
X-36179833Y-5237345D01*
X-36061245Y-5240987D01*
X-35962064Y-5248142D01*
X-35893763Y-5258840D01*
X-35869998Y-5268898D01*
X-35859807Y-5295527D01*
X-35851878Y-5355105D01*
X-35846047Y-5451336D01*
X-35842151Y-5587921D01*
X-35840025Y-5768564D01*
X-35839487Y-5957745D01*
X-35838449Y-6170637D01*
X-35835440Y-6351255D01*
X-35830620Y-6495312D01*
X-35824148Y-6598518D01*
X-35816185Y-6656585D01*
X-35813167Y-6665281D01*
X-35787544Y-6694399D01*
X-35741562Y-6709467D01*
X-35661487Y-6714396D01*
X-35640274Y-6714509D01*
X-35554991Y-6709489D01*
X-35488814Y-6696537D01*
X-35463191Y-6683968D01*
X-35454297Y-6660240D01*
X-35447098Y-6606301D01*
X-35441473Y-6518652D01*
X-35437301Y-6393790D01*
X-35434461Y-6228216D01*
X-35432834Y-6018428D01*
X-35432306Y-5786824D01*
X-35431670Y-5532887D01*
X-35429912Y-5325875D01*
X-35426894Y-5161824D01*
X-35422476Y-5036766D01*
X-35416520Y-4946735D01*
X-35408887Y-4887765D01*
X-35399803Y-4856593D01*
X-35386525Y-4832854D01*
X-35369181Y-4815761D01*
X-35339875Y-4804052D01*
X-35290706Y-4796462D01*
X-35213778Y-4791725D01*
X-35101192Y-4788578D01*
X-34958854Y-4785990D01*
X-34796872Y-4784177D01*
X-34679013Y-4785375D01*
G37*
G36*
X-26678179Y73337505D02*
G01*
X-26660832Y73471009D01*
X-26634269Y73579703D01*
X-26616992Y73621262D01*
X-26512586Y73767894D01*
X-26371743Y73885910D01*
X-26272100Y73939760D01*
X-26158274Y73972904D01*
X-26010071Y73990784D01*
X-25841767Y73992944D01*
X-25667636Y73978926D01*
X-25565471Y73962397D01*
X-25415063Y73932776D01*
X-25415063Y71979679D01*
X-25669317Y71979679D01*
X-25669317Y72557150D01*
X-25815513Y72507508D01*
X-25994669Y72470984D01*
X-26167133Y72481371D01*
X-26326027Y72535034D01*
X-26464477Y72628340D01*
X-26575604Y72757655D01*
X-26652533Y72919344D01*
X-26663287Y72955535D01*
X-26680571Y73063029D01*
X-26683742Y73155155D01*
X-26419849Y73155155D01*
X-26395441Y73018049D01*
X-26345940Y72895138D01*
X-26271499Y72795759D01*
X-26172273Y72729250D01*
X-26143460Y72718807D01*
X-26024599Y72703055D01*
X-25889835Y72717325D01*
X-25762386Y72759116D01*
X-25760405Y72760055D01*
X-25668232Y72804054D01*
X-25675131Y73276285D01*
X-25682030Y73748517D01*
X-25877406Y73755920D01*
X-26028659Y73753658D01*
X-26139058Y73734411D01*
X-26160090Y73726807D01*
X-26263461Y73658784D01*
X-26340969Y73558270D01*
X-26392767Y73434603D01*
X-26419008Y73297118D01*
X-26419849Y73155155D01*
X-26683742Y73155155D01*
X-26685146Y73195932D01*
X-26678179Y73337505D01*
G37*
G36*
X-37195725Y44485435D02*
G01*
X-37060432Y44464989D01*
X-36931325Y44437273D01*
X-36947850Y44344097D01*
X-36966779Y44264670D01*
X-36993085Y44228090D01*
X-37036121Y44226340D01*
X-37071798Y44237883D01*
X-37159188Y44257924D01*
X-37269816Y44265808D01*
X-37382696Y44261706D01*
X-37476843Y44245788D01*
X-37508482Y44234354D01*
X-37566783Y44189294D01*
X-37589009Y44118303D01*
X-37589267Y44052364D01*
X-37571007Y43999282D01*
X-37527334Y43952470D01*
X-37451357Y43905341D01*
X-37336184Y43851308D01*
X-37288063Y43830698D01*
X-37120919Y43752847D01*
X-36999104Y43676856D01*
X-36917743Y43596487D01*
X-36871964Y43505499D01*
X-36856891Y43397655D01*
X-36864516Y43288553D01*
X-36902766Y43181796D01*
X-36980970Y43087564D01*
X-37088252Y43017002D01*
X-37152852Y42993104D01*
X-37241639Y42978299D01*
X-37362729Y42970806D01*
X-37498126Y42970444D01*
X-37629838Y42977031D01*
X-37739870Y42990383D01*
X-37780835Y42999457D01*
X-37843243Y43019974D01*
X-37868637Y43046214D01*
X-37869290Y43096437D01*
X-37865605Y43125597D01*
X-37853809Y43192257D01*
X-37841080Y43234199D01*
X-37838250Y43238500D01*
X-37807765Y43240244D01*
X-37745653Y43229026D01*
X-37702629Y43217839D01*
X-37557950Y43188651D01*
X-37419714Y43182903D01*
X-37297371Y43198959D01*
X-37200376Y43235181D01*
X-37138180Y43289933D01*
X-37124752Y43317924D01*
X-37115189Y43378214D01*
X-37131205Y43432221D01*
X-37177922Y43484997D01*
X-37260462Y43541589D01*
X-37383947Y43607049D01*
X-37450298Y43638893D01*
X-37610326Y43719043D01*
X-37721802Y43786172D01*
X-37785249Y43840599D01*
X-37790455Y43847403D01*
X-37850933Y43971855D01*
X-37864627Y44099670D01*
X-37834273Y44222647D01*
X-37762609Y44332585D01*
X-37652371Y44421282D01*
X-37588302Y44453179D01*
X-37482678Y44480409D01*
X-37346056Y44491290D01*
X-37195725Y44485435D01*
G37*
G36*
X-18816467Y44495475D02*
G01*
X-18805027Y44492843D01*
X-18672820Y44461096D01*
X-18689764Y44368734D01*
X-18708733Y44291012D01*
X-18736286Y44255227D01*
X-18784330Y44252523D01*
X-18830735Y44263893D01*
X-19000372Y44291966D01*
X-19151270Y44275848D01*
X-19279027Y44217942D01*
X-19379245Y44120650D01*
X-19447524Y43986375D01*
X-19466164Y43916922D01*
X-19485396Y43729644D01*
X-19463178Y43561408D01*
X-19401020Y43417347D01*
X-19300432Y43302591D01*
X-19280905Y43287316D01*
X-19203568Y43252063D01*
X-19094326Y43229684D01*
X-18970867Y43221809D01*
X-18850882Y43230068D01*
X-18792013Y43242288D01*
X-18728466Y43257975D01*
X-18690278Y43263841D01*
X-18686275Y43263054D01*
X-18678520Y43236213D01*
X-18667132Y43177094D01*
X-18663125Y43152956D01*
X-18657183Y43097120D01*
X-18665206Y43058184D01*
X-18694592Y43032632D01*
X-18752742Y43016948D01*
X-18847053Y43007616D01*
X-18982430Y43001215D01*
X-19126101Y42999389D01*
X-19233616Y43007624D01*
X-19318905Y43027179D01*
X-19336212Y43033179D01*
X-19463644Y43103352D01*
X-19579414Y43209277D01*
X-19669064Y43335880D01*
X-19705075Y43417801D01*
X-19734208Y43550631D01*
X-19746508Y43708560D01*
X-19741890Y43869975D01*
X-19720269Y44013265D01*
X-19707612Y44058360D01*
X-19640900Y44195614D01*
X-19541188Y44322435D01*
X-19423010Y44421599D01*
X-19380149Y44446495D01*
X-19262464Y44487491D01*
X-19116249Y44510371D01*
X-18961063Y44513558D01*
X-18816467Y44495475D01*
G37*
G36*
X-20327196Y56120730D02*
G01*
X-20233794Y56269580D01*
X-20109293Y56385073D01*
X-19957307Y56461679D01*
X-19933378Y56469179D01*
X-19744329Y56500333D01*
X-19565972Y56483339D01*
X-19403639Y56420665D01*
X-19262662Y56314783D01*
X-19148372Y56168161D01*
X-19105261Y56085591D01*
X-19065946Y55957991D01*
X-19046238Y55804022D01*
X-19046272Y55642524D01*
X-19066181Y55492336D01*
X-19100289Y55384398D01*
X-19190551Y55232196D01*
X-19306002Y55108727D01*
X-19422136Y55032005D01*
X-19536492Y54992424D01*
X-19670975Y54968941D01*
X-19802338Y54964341D01*
X-19889305Y54976062D01*
X-20056586Y55043274D01*
X-20194164Y55149781D01*
X-20299547Y55291876D01*
X-20370245Y55465853D01*
X-20403766Y55668007D01*
X-20406254Y55745094D01*
X-20405190Y55755492D01*
X-20129602Y55755492D01*
X-20123184Y55608481D01*
X-20098576Y55478739D01*
X-20081268Y55430734D01*
X-20030559Y55335770D01*
X-19970302Y55274215D01*
X-19882487Y55229286D01*
X-19853492Y55218461D01*
X-19778750Y55193541D01*
X-19726376Y55185459D01*
X-19671138Y55193146D01*
X-19613801Y55208295D01*
X-19501041Y55264959D01*
X-19411438Y55362181D01*
X-19348735Y55493470D01*
X-19316677Y55652337D01*
X-19313244Y55729278D01*
X-19329396Y55902842D01*
X-19379484Y56044075D01*
X-19443833Y56136874D01*
X-19549280Y56223539D01*
X-19667713Y56266342D01*
X-19789577Y56267050D01*
X-19905316Y56227427D01*
X-20005375Y56149239D01*
X-20080198Y56034253D01*
X-20087050Y56018010D01*
X-20117626Y55898944D01*
X-20129602Y55755492D01*
X-20405190Y55755492D01*
X-20385887Y55944058D01*
X-20327196Y56120730D01*
G37*
G36*
X-20586179Y85928862D02*
G01*
X-20561262Y85996179D01*
X-20465130Y86153757D01*
X-20334312Y86275797D01*
X-20172641Y86359998D01*
X-19983949Y86404053D01*
X-19872375Y86410341D01*
X-19755710Y86404462D01*
X-19618608Y86389015D01*
X-19485155Y86367286D01*
X-19382881Y86343579D01*
X-19371531Y86337399D01*
X-19362284Y86322980D01*
X-19354928Y86295558D01*
X-19349248Y86250367D01*
X-19345031Y86182640D01*
X-19342061Y86087612D01*
X-19340126Y85960518D01*
X-19339011Y85796590D01*
X-19338502Y85591063D01*
X-19338386Y85352413D01*
X-19338386Y84374268D01*
X-19592640Y84374268D01*
X-19592640Y84666954D01*
X-19593413Y84782188D01*
X-19595515Y84876063D01*
X-19598618Y84938532D01*
X-19602156Y84959639D01*
X-19629686Y84951935D01*
X-19688175Y84932477D01*
X-19719768Y84921463D01*
X-19807528Y84900121D01*
X-19916162Y84886519D01*
X-19983575Y84883845D01*
X-20160423Y84904822D01*
X-20309740Y84967475D01*
X-20433995Y85073449D01*
X-20535659Y85224389D01*
X-20555829Y85265050D01*
X-20603612Y85413640D01*
X-20624693Y85586538D01*
X-20623154Y85634088D01*
X-20342690Y85634088D01*
X-20335325Y85478004D01*
X-20310270Y85360187D01*
X-20263088Y85269762D01*
X-20189343Y85195854D01*
X-20153221Y85169696D01*
X-20046318Y85125196D01*
X-19916360Y85113230D01*
X-19779611Y85134053D01*
X-19700698Y85162561D01*
X-19592640Y85211659D01*
X-19592640Y86152169D01*
X-19730116Y86169362D01*
X-19915733Y86174156D01*
X-20072059Y86138899D01*
X-20197773Y86064102D01*
X-20290465Y85952138D01*
X-20317321Y85895701D01*
X-20333391Y85829376D01*
X-20341041Y85738753D01*
X-20342690Y85634088D01*
X-20623154Y85634088D01*
X-20618929Y85764645D01*
X-20586179Y85928862D01*
G37*
G36*
X-25802763Y16691778D02*
G01*
X-25681863Y17141924D01*
X-25525070Y17558004D01*
X-25330208Y17944053D01*
X-25095102Y18304109D01*
X-24817577Y18642206D01*
X-24666490Y18800041D01*
X-24427640Y19025278D01*
X-24197088Y19214515D01*
X-23961341Y19377742D01*
X-23706905Y19524948D01*
X-23640946Y19559318D01*
X-23246631Y19737603D01*
X-22846846Y19870480D01*
X-22431586Y19960736D01*
X-22030198Y20008306D01*
X-21931325Y20013668D01*
X-21787317Y20018392D01*
X-21603886Y20022478D01*
X-21386744Y20025925D01*
X-21141604Y20028734D01*
X-20874178Y20030905D01*
X-20590177Y20032438D01*
X-20295313Y20033333D01*
X-19995299Y20033589D01*
X-19695847Y20033207D01*
X-19402669Y20032187D01*
X-19121477Y20030529D01*
X-18857983Y20028232D01*
X-18617898Y20025297D01*
X-18406936Y20021724D01*
X-18230808Y20017513D01*
X-18095227Y20012663D01*
X-18019547Y20008306D01*
X-17864328Y19993629D01*
X-17700094Y19973422D01*
X-17547468Y19950465D01*
X-17437097Y19929756D01*
X-16998040Y19809336D01*
X-16581187Y19644777D01*
X-16189053Y19438785D01*
X-15824149Y19194071D01*
X-15488988Y18913343D01*
X-15186082Y18599309D01*
X-14917944Y18254678D01*
X-14687087Y17882158D01*
X-14496023Y17484458D01*
X-14347266Y17064286D01*
X-14243326Y16624352D01*
X-14216914Y16458430D01*
X-14213424Y16430705D01*
X-14210134Y16398318D01*
X-14207041Y16359809D01*
X-14204139Y16313717D01*
X-14201423Y16258582D01*
X-14198891Y16192943D01*
X-14196536Y16115339D01*
X-14194354Y16024310D01*
X-14192341Y15918396D01*
X-14190493Y15796137D01*
X-14188804Y15656070D01*
X-14187270Y15496737D01*
X-14185887Y15316676D01*
X-14184650Y15114428D01*
X-14183555Y14888530D01*
X-14182597Y14637524D01*
X-14181771Y14359949D01*
X-14181073Y14054343D01*
X-14180499Y13719247D01*
X-14180043Y13353199D01*
X-14179702Y12954741D01*
X-14179471Y12522410D01*
X-14179345Y12054746D01*
X-14179320Y11550290D01*
X-14179391Y11007579D01*
X-14179553Y10425155D01*
X-14179803Y9801556D01*
X-14180135Y9135322D01*
X-14180546Y8424992D01*
X-14181029Y7669106D01*
X-14181582Y6866204D01*
X-14182200Y6014824D01*
X-14182640Y5425571D01*
X-14190739Y-5301984D01*
X-14247589Y-5548275D01*
X-14371228Y-5997054D01*
X-14527787Y-6409897D01*
X-14720118Y-6791920D01*
X-14951074Y-7148239D01*
X-15223508Y-7483968D01*
X-15467384Y-7735554D01*
X-15810213Y-8030019D01*
X-16180771Y-8282377D01*
X-16576685Y-8491544D01*
X-16995579Y-8656436D01*
X-17435081Y-8775968D01*
X-17892816Y-8849059D01*
X-17910900Y-8850943D01*
X-17982712Y-8855521D01*
X-18100169Y-8859600D01*
X-18258149Y-8863180D01*
X-18451530Y-8866262D01*
X-18675189Y-8868849D01*
X-18924004Y-8870940D01*
X-19192852Y-8872539D01*
X-19476611Y-8873645D01*
X-19770159Y-8874260D01*
X-20068372Y-8874387D01*
X-20366129Y-8874025D01*
X-20658308Y-8873176D01*
X-20939784Y-8871843D01*
X-21205437Y-8870025D01*
X-21450144Y-8867724D01*
X-21668782Y-8864943D01*
X-21856229Y-8861681D01*
X-22007362Y-8857941D01*
X-22117060Y-8853723D01*
X-22173321Y-8849825D01*
X-22619678Y-8777915D01*
X-23053855Y-8657684D01*
X-23471668Y-8491079D01*
X-23868932Y-8280048D01*
X-24241464Y-8026539D01*
X-24585081Y-7732499D01*
X-24595784Y-7722219D01*
X-24912289Y-7383871D01*
X-25184736Y-7021092D01*
X-25413883Y-6632516D01*
X-25600484Y-6216777D01*
X-25745295Y-5772508D01*
X-25801275Y-5543768D01*
X-25860008Y-5276533D01*
X-25860008Y9468411D01*
X-25614202Y9468411D01*
X-25614111Y8633368D01*
X-25613863Y7751142D01*
X-25613456Y6821953D01*
X-25612890Y5846017D01*
X-25612589Y5400120D01*
X-25611968Y4524753D01*
X-25611362Y3698820D01*
X-25610764Y2920854D01*
X-25610168Y2189388D01*
X-25609566Y1502955D01*
X-25608951Y860087D01*
X-25608316Y259317D01*
X-25607653Y-300822D01*
X-25606956Y-821798D01*
X-25606218Y-1305077D01*
X-25605431Y-1752127D01*
X-25604588Y-2164416D01*
X-25603683Y-2543410D01*
X-25602707Y-2890578D01*
X-25601654Y-3207385D01*
X-25600516Y-3495300D01*
X-25599287Y-3755790D01*
X-25597960Y-3990322D01*
X-25596527Y-4200364D01*
X-25594980Y-4387382D01*
X-25593314Y-4552844D01*
X-25591521Y-4698217D01*
X-25589593Y-4824969D01*
X-25587524Y-4934567D01*
X-25585306Y-5028477D01*
X-25582932Y-5108169D01*
X-25580396Y-5175107D01*
X-25577690Y-5230761D01*
X-25574806Y-5276597D01*
X-25571738Y-5314083D01*
X-25568479Y-5344685D01*
X-25565021Y-5369872D01*
X-25561357Y-5391110D01*
X-25560057Y-5397724D01*
X-25444910Y-5850321D01*
X-25288782Y-6275008D01*
X-25092785Y-6670268D01*
X-24858029Y-7034585D01*
X-24585626Y-7366442D01*
X-24276687Y-7664321D01*
X-23932325Y-7926705D01*
X-23553649Y-8152079D01*
X-23535027Y-8161735D01*
X-23131527Y-8344024D01*
X-22718834Y-8480771D01*
X-22304023Y-8569712D01*
X-22224172Y-8581202D01*
X-22187725Y-8582668D01*
X-22104247Y-8583973D01*
X-21977557Y-8585108D01*
X-21811473Y-8586063D01*
X-21609814Y-8586829D01*
X-21376401Y-8587395D01*
X-21115051Y-8587753D01*
X-20829584Y-8587891D01*
X-20523820Y-8587802D01*
X-20201576Y-8587474D01*
X-19935884Y-8587036D01*
X-17723872Y-8582779D01*
X-17456905Y-8516253D01*
X-17016018Y-8381899D01*
X-16603182Y-8206677D01*
X-16220285Y-7992733D01*
X-15869214Y-7742213D01*
X-15551855Y-7457262D01*
X-15270095Y-7140025D01*
X-15025821Y-6792649D01*
X-14820921Y-6417280D01*
X-14657280Y-6016062D01*
X-14536785Y-5591142D01*
X-14461325Y-5144664D01*
X-14456951Y-5104874D01*
X-14454803Y-5058934D01*
X-14452748Y-4964200D01*
X-14450785Y-4822750D01*
X-14448915Y-4636659D01*
X-14447137Y-4408006D01*
X-14445451Y-4138867D01*
X-14443857Y-3831318D01*
X-14442356Y-3487438D01*
X-14440946Y-3109302D01*
X-14439627Y-2698989D01*
X-14438401Y-2258574D01*
X-14437265Y-1790134D01*
X-14436221Y-1295747D01*
X-14435268Y-777489D01*
X-14434406Y-237438D01*
X-14433635Y322330D01*
X-14432955Y899737D01*
X-14432365Y1492708D01*
X-14431866Y2099164D01*
X-14431457Y2717030D01*
X-14431138Y3344227D01*
X-14430910Y3978680D01*
X-14430771Y4618311D01*
X-14430722Y5261043D01*
X-14430763Y5904799D01*
X-14430894Y6547504D01*
X-14431113Y7187078D01*
X-14431423Y7821446D01*
X-14431821Y8448531D01*
X-14432308Y9066256D01*
X-14432884Y9672543D01*
X-14433549Y10265316D01*
X-14434303Y10842499D01*
X-14435145Y11402013D01*
X-14436076Y11941783D01*
X-14437094Y12459730D01*
X-14438201Y12953779D01*
X-14439396Y13421853D01*
X-14440679Y13861874D01*
X-14442049Y14271765D01*
X-14443507Y14649450D01*
X-14445052Y14992851D01*
X-14446685Y15299892D01*
X-14448405Y15568497D01*
X-14450212Y15796586D01*
X-14452105Y15982085D01*
X-14454086Y16122916D01*
X-14456153Y16217002D01*
X-14458307Y16262267D01*
X-14458310Y16262296D01*
X-14516030Y16649115D01*
X-14602735Y17005016D01*
X-14722191Y17343281D01*
X-14836126Y17594575D01*
X-14966841Y17840251D01*
X-15104450Y18059144D01*
X-15259293Y18265487D01*
X-15441711Y18473513D01*
X-15574595Y18610982D01*
X-15882371Y18894122D01*
X-16199446Y19132475D01*
X-16533256Y19330096D01*
X-16891237Y19491038D01*
X-17280823Y19619356D01*
X-17544250Y19684918D01*
X-17589504Y19694801D01*
X-17632794Y19703466D01*
X-17677621Y19710992D01*
X-17727492Y19717459D01*
X-17785908Y19722948D01*
X-17856375Y19727539D01*
X-17942396Y19731312D01*
X-18047474Y19734348D01*
X-18175115Y19736726D01*
X-18328821Y19738527D01*
X-18512097Y19739831D01*
X-18728446Y19740718D01*
X-18981373Y19741269D01*
X-19274381Y19741563D01*
X-19610973Y19741681D01*
X-19994655Y19741703D01*
X-20024873Y19741703D01*
X-20412102Y19741686D01*
X-20751987Y19741582D01*
X-21048032Y19741309D01*
X-21303743Y19740786D01*
X-21522625Y19739934D01*
X-21708186Y19738670D01*
X-21863929Y19736915D01*
X-21993361Y19734588D01*
X-22099987Y19731607D01*
X-22187313Y19727893D01*
X-22258845Y19723363D01*
X-22318089Y19717938D01*
X-22368549Y19711537D01*
X-22413732Y19704078D01*
X-22457143Y19695482D01*
X-22502288Y19685666D01*
X-22507609Y19684487D01*
X-22925177Y19572731D01*
X-23307364Y19429002D01*
X-23661140Y19249497D01*
X-23993478Y19030411D01*
X-24311351Y18767940D01*
X-24475455Y18610829D01*
X-24774532Y18280033D01*
X-25025853Y17934232D01*
X-25230887Y17570302D01*
X-25391107Y17185118D01*
X-25507982Y16775555D01*
X-25582985Y16338487D01*
X-25594468Y16233734D01*
X-25596855Y16183366D01*
X-25599090Y16082315D01*
X-25601172Y15930801D01*
X-25603102Y15729041D01*
X-25604878Y15477254D01*
X-25606501Y15175660D01*
X-25607970Y14824477D01*
X-25609284Y14423923D01*
X-25610444Y13974218D01*
X-25611449Y13475579D01*
X-25612298Y12928227D01*
X-25612992Y12332380D01*
X-25613530Y11688255D01*
X-25613911Y10996074D01*
X-25614135Y10256052D01*
X-25614202Y9468411D01*
X-25860008Y9468411D01*
X-25860008Y16433086D01*
X-25802763Y16691778D01*
G37*
%TD*%
M02*
