%TF.GenerationSoftware,KiCad,Pcbnew,6.0.4-6f826c9f35~116~ubuntu21.10.1*%
%TF.CreationDate,2022-06-29T08:57:21+02:00*%
%TF.ProjectId,mHz_oscillator,6d487a5f-6f73-4636-996c-6c61746f722e,rev?*%
%TF.SameCoordinates,Original*%
%TF.FileFunction,Copper,L1,Top*%
%TF.FilePolarity,Positive*%
%FSLAX46Y46*%
G04 Gerber Fmt 4.6, Leading zero omitted, Abs format (unit mm)*
G04 Created by KiCad (PCBNEW 6.0.4-6f826c9f35~116~ubuntu21.10.1) date 2022-06-29 08:57:21*
%MOMM*%
%LPD*%
G01*
G04 APERTURE LIST*
G04 APERTURE END LIST*
%TA.AperFunction,NonConductor*%
G36*
X-12930879Y108339498D02*
G01*
X-12884386Y108285842D01*
X-12873000Y108233500D01*
X-12873000Y-19613500D01*
X-12893002Y-19681621D01*
X-12946658Y-19728114D01*
X-12999000Y-19739500D01*
X-42346000Y-19739500D01*
X-42414121Y-19719498D01*
X-42460614Y-19665842D01*
X-42472000Y-19613500D01*
X-42472000Y-16982095D01*
X-37827472Y-16982095D01*
X-37801966Y-17249431D01*
X-37738136Y-17510285D01*
X-37637318Y-17759192D01*
X-37501625Y-17990938D01*
X-37498772Y-17994505D01*
X-37387275Y-18133925D01*
X-37333899Y-18200669D01*
X-37137654Y-18383991D01*
X-37045461Y-18447948D01*
X-36920754Y-18534461D01*
X-36920749Y-18534464D01*
X-36917001Y-18537064D01*
X-36912916Y-18539096D01*
X-36912913Y-18539098D01*
X-36796781Y-18596872D01*
X-36676562Y-18656680D01*
X-36672228Y-18658101D01*
X-36672225Y-18658102D01*
X-36425707Y-18738915D01*
X-36425702Y-18738916D01*
X-36421374Y-18740335D01*
X-36416883Y-18741115D01*
X-36416882Y-18741115D01*
X-36160564Y-18785620D01*
X-36160556Y-18785621D01*
X-36156783Y-18786276D01*
X-36152946Y-18786467D01*
X-36073504Y-18790422D01*
X-36073496Y-18790422D01*
X-36071933Y-18790500D01*
X-34304277Y-18790500D01*
X-34302009Y-18790335D01*
X-34301997Y-18790335D01*
X-34171677Y-18780879D01*
X-34104654Y-18776016D01*
X-34100199Y-18775032D01*
X-34100196Y-18775032D01*
X-33846880Y-18719105D01*
X-33846876Y-18719104D01*
X-33842420Y-18718120D01*
X-33674883Y-18654646D01*
X-33595559Y-18624593D01*
X-33595556Y-18624592D01*
X-33591289Y-18622975D01*
X-33356524Y-18492574D01*
X-33214246Y-18383991D01*
X-33146667Y-18332417D01*
X-33146663Y-18332413D01*
X-33143042Y-18329650D01*
X-32955315Y-18137614D01*
X-32797275Y-17920491D01*
X-32710187Y-17754963D01*
X-32674360Y-17686868D01*
X-32674357Y-17686862D01*
X-32672235Y-17682828D01*
X-32612797Y-17514515D01*
X-32584335Y-17433916D01*
X-32584335Y-17433915D01*
X-32582812Y-17429603D01*
X-32530880Y-17166122D01*
X-32530653Y-17161566D01*
X-32517755Y-16902474D01*
X-32517755Y-16902468D01*
X-32517528Y-16897905D01*
X-32543034Y-16630569D01*
X-32606864Y-16369715D01*
X-32707682Y-16120808D01*
X-32843375Y-15889062D01*
X-32954289Y-15750371D01*
X-33008249Y-15682897D01*
X-33008250Y-15682895D01*
X-33011101Y-15679331D01*
X-33207346Y-15496009D01*
X-33367064Y-15385208D01*
X-33424246Y-15345539D01*
X-33424251Y-15345536D01*
X-33427999Y-15342936D01*
X-33432084Y-15340904D01*
X-33432087Y-15340902D01*
X-33603940Y-15255407D01*
X-33668438Y-15223320D01*
X-33672772Y-15221899D01*
X-33672775Y-15221898D01*
X-33919293Y-15141085D01*
X-33919298Y-15141084D01*
X-33923626Y-15139665D01*
X-33928118Y-15138885D01*
X-34184436Y-15094380D01*
X-34184444Y-15094379D01*
X-34188217Y-15093724D01*
X-34196878Y-15093293D01*
X-34271496Y-15089578D01*
X-34271504Y-15089578D01*
X-34273067Y-15089500D01*
X-36040723Y-15089500D01*
X-36042991Y-15089665D01*
X-36043003Y-15089665D01*
X-36173323Y-15099121D01*
X-36240346Y-15103984D01*
X-36244801Y-15104968D01*
X-36244804Y-15104968D01*
X-36498120Y-15160895D01*
X-36498124Y-15160896D01*
X-36502580Y-15161880D01*
X-36628146Y-15209453D01*
X-36749441Y-15255407D01*
X-36749444Y-15255408D01*
X-36753711Y-15257025D01*
X-36988476Y-15387426D01*
X-36992108Y-15390198D01*
X-37198333Y-15547583D01*
X-37198337Y-15547587D01*
X-37201958Y-15550350D01*
X-37389685Y-15742386D01*
X-37547725Y-15959509D01*
X-37549849Y-15963547D01*
X-37670640Y-16193132D01*
X-37670643Y-16193138D01*
X-37672765Y-16197172D01*
X-37674285Y-16201477D01*
X-37674287Y-16201481D01*
X-37733696Y-16369715D01*
X-37762188Y-16450397D01*
X-37814120Y-16713878D01*
X-37814347Y-16718431D01*
X-37814347Y-16718434D01*
X-37823508Y-16902474D01*
X-37827472Y-16982095D01*
X-42472000Y-16982095D01*
X-42472000Y-4220124D01*
X-32291897Y-4220124D01*
X-32255310Y-4433045D01*
X-32180534Y-4635734D01*
X-32070074Y-4821402D01*
X-32066268Y-4825742D01*
X-32066265Y-4825746D01*
X-32044639Y-4850405D01*
X-31927627Y-4983831D01*
X-31923092Y-4987406D01*
X-31923091Y-4987407D01*
X-31896636Y-5008262D01*
X-31757966Y-5117581D01*
X-31752850Y-5120272D01*
X-31752848Y-5120274D01*
X-31571889Y-5215481D01*
X-31566772Y-5218173D01*
X-31360447Y-5282238D01*
X-31354710Y-5282917D01*
X-31188717Y-5302564D01*
X-31188711Y-5302564D01*
X-31185030Y-5303000D01*
X-31060193Y-5303000D01*
X-30973254Y-5295012D01*
X-30905618Y-5288797D01*
X-30905615Y-5288796D01*
X-30899864Y-5288268D01*
X-30878483Y-5282238D01*
X-30697493Y-5231193D01*
X-30697491Y-5231192D01*
X-30691934Y-5229625D01*
X-30686759Y-5227073D01*
X-30686754Y-5227071D01*
X-30503353Y-5136627D01*
X-30498172Y-5134072D01*
X-30325067Y-5004809D01*
X-30178418Y-4846165D01*
X-30063135Y-4663452D01*
X-29983079Y-4462790D01*
X-29940931Y-4250900D01*
X-29940602Y-4225822D01*
X-29940527Y-4220124D01*
X-17051897Y-4220124D01*
X-17015310Y-4433045D01*
X-16940534Y-4635734D01*
X-16830074Y-4821402D01*
X-16826268Y-4825742D01*
X-16826265Y-4825746D01*
X-16804639Y-4850405D01*
X-16687627Y-4983831D01*
X-16683092Y-4987406D01*
X-16683091Y-4987407D01*
X-16656636Y-5008262D01*
X-16517966Y-5117581D01*
X-16512850Y-5120272D01*
X-16512848Y-5120274D01*
X-16331889Y-5215481D01*
X-16326772Y-5218173D01*
X-16120447Y-5282238D01*
X-16114710Y-5282917D01*
X-15948717Y-5302564D01*
X-15948711Y-5302564D01*
X-15945030Y-5303000D01*
X-15820193Y-5303000D01*
X-15733254Y-5295012D01*
X-15665618Y-5288797D01*
X-15665615Y-5288796D01*
X-15659864Y-5288268D01*
X-15638483Y-5282238D01*
X-15457493Y-5231193D01*
X-15457491Y-5231192D01*
X-15451934Y-5229625D01*
X-15446759Y-5227073D01*
X-15446754Y-5227071D01*
X-15263353Y-5136627D01*
X-15258172Y-5134072D01*
X-15085067Y-5004809D01*
X-14938418Y-4846165D01*
X-14823135Y-4663452D01*
X-14743079Y-4462790D01*
X-14700931Y-4250900D01*
X-14700602Y-4225822D01*
X-14698179Y-4040658D01*
X-14698103Y-4034876D01*
X-14734690Y-3821955D01*
X-14809466Y-3619266D01*
X-14919926Y-3433598D01*
X-14923732Y-3429258D01*
X-14923735Y-3429254D01*
X-15058566Y-3275510D01*
X-15062373Y-3271169D01*
X-15088983Y-3250191D01*
X-15227495Y-3140997D01*
X-15227497Y-3140996D01*
X-15232034Y-3137419D01*
X-15237150Y-3134728D01*
X-15237152Y-3134726D01*
X-15418111Y-3039519D01*
X-15418113Y-3039518D01*
X-15423228Y-3036827D01*
X-15629553Y-2972762D01*
X-15667252Y-2968300D01*
X-15801283Y-2952436D01*
X-15801289Y-2952436D01*
X-15804970Y-2952000D01*
X-15929807Y-2952000D01*
X-16016746Y-2959988D01*
X-16084382Y-2966203D01*
X-16084385Y-2966204D01*
X-16090136Y-2966732D01*
X-16095695Y-2968300D01*
X-16095696Y-2968300D01*
X-16292507Y-3023807D01*
X-16292509Y-3023808D01*
X-16298066Y-3025375D01*
X-16303241Y-3027927D01*
X-16303246Y-3027929D01*
X-16446687Y-3098667D01*
X-16491828Y-3120928D01*
X-16664933Y-3250191D01*
X-16811582Y-3408835D01*
X-16926865Y-3591548D01*
X-17006921Y-3792210D01*
X-17049069Y-4004100D01*
X-17049145Y-4009875D01*
X-17049145Y-4009879D01*
X-17049472Y-4034876D01*
X-17051897Y-4220124D01*
X-29940527Y-4220124D01*
X-29938179Y-4040658D01*
X-29938103Y-4034876D01*
X-29974690Y-3821955D01*
X-30049466Y-3619266D01*
X-30159926Y-3433598D01*
X-30163732Y-3429258D01*
X-30163735Y-3429254D01*
X-30298566Y-3275510D01*
X-30302373Y-3271169D01*
X-30328983Y-3250191D01*
X-30467495Y-3140997D01*
X-30467497Y-3140996D01*
X-30472034Y-3137419D01*
X-30477150Y-3134728D01*
X-30477152Y-3134726D01*
X-30658111Y-3039519D01*
X-30658113Y-3039518D01*
X-30663228Y-3036827D01*
X-30869553Y-2972762D01*
X-30907252Y-2968300D01*
X-31041283Y-2952436D01*
X-31041289Y-2952436D01*
X-31044970Y-2952000D01*
X-31169807Y-2952000D01*
X-31256746Y-2959988D01*
X-31324382Y-2966203D01*
X-31324385Y-2966204D01*
X-31330136Y-2966732D01*
X-31335695Y-2968300D01*
X-31335696Y-2968300D01*
X-31532507Y-3023807D01*
X-31532509Y-3023808D01*
X-31538066Y-3025375D01*
X-31543241Y-3027927D01*
X-31543246Y-3027929D01*
X-31686687Y-3098667D01*
X-31731828Y-3120928D01*
X-31904933Y-3250191D01*
X-32051582Y-3408835D01*
X-32166865Y-3591548D01*
X-32246921Y-3792210D01*
X-32289069Y-4004100D01*
X-32289145Y-4009875D01*
X-32289145Y-4009879D01*
X-32289472Y-4034876D01*
X-32291897Y-4220124D01*
X-42472000Y-4220124D01*
X-42472000Y105402D01*
X-38596439Y105402D01*
X-38587751Y-263277D01*
X-38538658Y-628776D01*
X-38449754Y-986680D01*
X-38322113Y-1332667D01*
X-38157276Y-1662559D01*
X-38155407Y-1665454D01*
X-38155405Y-1665457D01*
X-37959117Y-1969452D01*
X-37959112Y-1969458D01*
X-37957233Y-1972369D01*
X-37724402Y-2258357D01*
X-37721932Y-2260789D01*
X-37721927Y-2260794D01*
X-37570622Y-2409741D01*
X-37461595Y-2517069D01*
X-37171985Y-2745379D01*
X-36859070Y-2940530D01*
X-36855935Y-2942035D01*
X-36855934Y-2942036D01*
X-36529754Y-3098667D01*
X-36529744Y-3098671D01*
X-36526631Y-3100166D01*
X-36178681Y-3222357D01*
X-35819424Y-3305628D01*
X-35816007Y-3306032D01*
X-35815998Y-3306034D01*
X-35455904Y-3348653D01*
X-35453200Y-3348973D01*
X-35450485Y-3349058D01*
X-35450476Y-3349059D01*
X-35424747Y-3349867D01*
X-35404614Y-3350500D01*
X-35149922Y-3350500D01*
X-35148204Y-3350405D01*
X-35148188Y-3350405D01*
X-35001758Y-3342346D01*
X-34874276Y-3335330D01*
X-34510500Y-3274781D01*
X-34155564Y-3174679D01*
X-33813757Y-3036233D01*
X-33632974Y-2938688D01*
X-33492256Y-2862761D01*
X-33492252Y-2862758D01*
X-33489206Y-2861115D01*
X-33486357Y-2859146D01*
X-33188675Y-2653405D01*
X-33188674Y-2653404D01*
X-33185832Y-2651440D01*
X-33183226Y-2649179D01*
X-33183220Y-2649174D01*
X-32909914Y-2412011D01*
X-32907298Y-2409741D01*
X-32656970Y-2138937D01*
X-32437869Y-1842298D01*
X-32252643Y-1523408D01*
X-32103529Y-1186118D01*
X-32041482Y-989929D01*
X-31993371Y-837805D01*
X-31993370Y-837800D01*
X-31992327Y-834503D01*
X-31920382Y-472807D01*
X-31920083Y-469355D01*
X-31888860Y-108858D01*
X-31888860Y-108852D01*
X-31888561Y-105402D01*
X-31893529Y105402D01*
X-23356439Y105402D01*
X-23347751Y-263277D01*
X-23298658Y-628776D01*
X-23209754Y-986680D01*
X-23082113Y-1332667D01*
X-22917276Y-1662559D01*
X-22915407Y-1665454D01*
X-22915405Y-1665457D01*
X-22719117Y-1969452D01*
X-22719112Y-1969458D01*
X-22717233Y-1972369D01*
X-22484402Y-2258357D01*
X-22481932Y-2260789D01*
X-22481927Y-2260794D01*
X-22330622Y-2409741D01*
X-22221595Y-2517069D01*
X-21931985Y-2745379D01*
X-21619070Y-2940530D01*
X-21615935Y-2942035D01*
X-21615934Y-2942036D01*
X-21289754Y-3098667D01*
X-21289744Y-3098671D01*
X-21286631Y-3100166D01*
X-20938681Y-3222357D01*
X-20579424Y-3305628D01*
X-20576007Y-3306032D01*
X-20575998Y-3306034D01*
X-20215904Y-3348653D01*
X-20213200Y-3348973D01*
X-20210485Y-3349058D01*
X-20210476Y-3349059D01*
X-20184747Y-3349867D01*
X-20164614Y-3350500D01*
X-19909922Y-3350500D01*
X-19908204Y-3350405D01*
X-19908188Y-3350405D01*
X-19761758Y-3342346D01*
X-19634276Y-3335330D01*
X-19270500Y-3274781D01*
X-18915564Y-3174679D01*
X-18573757Y-3036233D01*
X-18392974Y-2938688D01*
X-18252256Y-2862761D01*
X-18252252Y-2862758D01*
X-18249206Y-2861115D01*
X-18246357Y-2859146D01*
X-17948675Y-2653405D01*
X-17948674Y-2653404D01*
X-17945832Y-2651440D01*
X-17943226Y-2649179D01*
X-17943220Y-2649174D01*
X-17669914Y-2412011D01*
X-17667298Y-2409741D01*
X-17416970Y-2138937D01*
X-17197869Y-1842298D01*
X-17012643Y-1523408D01*
X-16863529Y-1186118D01*
X-16801482Y-989929D01*
X-16753371Y-837805D01*
X-16753370Y-837800D01*
X-16752327Y-834503D01*
X-16680382Y-472807D01*
X-16680083Y-469355D01*
X-16648860Y-108858D01*
X-16648860Y-108852D01*
X-16648561Y-105402D01*
X-16657249Y263277D01*
X-16706342Y628776D01*
X-16795246Y986680D01*
X-16922887Y1332667D01*
X-17087724Y1662559D01*
X-17089595Y1665457D01*
X-17285883Y1969452D01*
X-17285888Y1969458D01*
X-17287767Y1972369D01*
X-17520598Y2258357D01*
X-17523068Y2260789D01*
X-17523073Y2260794D01*
X-17780931Y2514634D01*
X-17780935Y2514638D01*
X-17783405Y2517069D01*
X-18073015Y2745379D01*
X-18385930Y2940530D01*
X-18389066Y2942036D01*
X-18715246Y3098667D01*
X-18715256Y3098671D01*
X-18718369Y3100166D01*
X-19066319Y3222357D01*
X-19425576Y3305628D01*
X-19428993Y3306032D01*
X-19429002Y3306034D01*
X-19789096Y3348653D01*
X-19789097Y3348653D01*
X-19791800Y3348973D01*
X-19794515Y3349058D01*
X-19794524Y3349059D01*
X-19820253Y3349867D01*
X-19840386Y3350500D01*
X-20095078Y3350500D01*
X-20096796Y3350405D01*
X-20096812Y3350405D01*
X-20243242Y3342346D01*
X-20370724Y3335330D01*
X-20734500Y3274781D01*
X-21089436Y3174679D01*
X-21431243Y3036233D01*
X-21434295Y3034586D01*
X-21752744Y2862761D01*
X-21752748Y2862758D01*
X-21755794Y2861115D01*
X-21758642Y2859147D01*
X-21758643Y2859146D01*
X-21920590Y2747217D01*
X-22059168Y2651440D01*
X-22061774Y2649179D01*
X-22061780Y2649174D01*
X-22315393Y2429100D01*
X-22337702Y2409741D01*
X-22588030Y2138937D01*
X-22807131Y1842298D01*
X-22992357Y1523408D01*
X-23141471Y1186118D01*
X-23142518Y1182809D01*
X-23142519Y1182805D01*
X-23205607Y983322D01*
X-23252673Y834503D01*
X-23324618Y472807D01*
X-23324917Y469355D01*
X-23342765Y263277D01*
X-23356439Y105402D01*
X-31893529Y105402D01*
X-31897249Y263277D01*
X-31946342Y628776D01*
X-32035246Y986680D01*
X-32162887Y1332667D01*
X-32327724Y1662559D01*
X-32329595Y1665457D01*
X-32525883Y1969452D01*
X-32525888Y1969458D01*
X-32527767Y1972369D01*
X-32760598Y2258357D01*
X-32763068Y2260789D01*
X-32763073Y2260794D01*
X-33020931Y2514634D01*
X-33020935Y2514638D01*
X-33023405Y2517069D01*
X-33313015Y2745379D01*
X-33625930Y2940530D01*
X-33629066Y2942036D01*
X-33955246Y3098667D01*
X-33955256Y3098671D01*
X-33958369Y3100166D01*
X-34306319Y3222357D01*
X-34665576Y3305628D01*
X-34668993Y3306032D01*
X-34669002Y3306034D01*
X-35029096Y3348653D01*
X-35029097Y3348653D01*
X-35031800Y3348973D01*
X-35034515Y3349058D01*
X-35034524Y3349059D01*
X-35060253Y3349867D01*
X-35080386Y3350500D01*
X-35335078Y3350500D01*
X-35336796Y3350405D01*
X-35336812Y3350405D01*
X-35483242Y3342346D01*
X-35610724Y3335330D01*
X-35974500Y3274781D01*
X-36329436Y3174679D01*
X-36671243Y3036233D01*
X-36674295Y3034586D01*
X-36992744Y2862761D01*
X-36992748Y2862758D01*
X-36995794Y2861115D01*
X-36998642Y2859147D01*
X-36998643Y2859146D01*
X-37160590Y2747217D01*
X-37299168Y2651440D01*
X-37301774Y2649179D01*
X-37301780Y2649174D01*
X-37555393Y2429100D01*
X-37577702Y2409741D01*
X-37828030Y2138937D01*
X-38047131Y1842298D01*
X-38232357Y1523408D01*
X-38381471Y1186118D01*
X-38382518Y1182809D01*
X-38382519Y1182805D01*
X-38445607Y983322D01*
X-38492673Y834503D01*
X-38564618Y472807D01*
X-38564917Y469355D01*
X-38582765Y263277D01*
X-38596439Y105402D01*
X-42472000Y105402D01*
X-42472000Y10067376D01*
X-32291897Y10067376D01*
X-32255310Y9854455D01*
X-32180534Y9651766D01*
X-32070074Y9466098D01*
X-32066268Y9461758D01*
X-32066265Y9461754D01*
X-32044639Y9437095D01*
X-31927627Y9303669D01*
X-31923092Y9300094D01*
X-31923091Y9300093D01*
X-31896636Y9279238D01*
X-31757966Y9169919D01*
X-31752850Y9167228D01*
X-31752848Y9167226D01*
X-31571889Y9072019D01*
X-31566772Y9069327D01*
X-31360447Y9005262D01*
X-31354710Y9004583D01*
X-31188717Y8984936D01*
X-31188711Y8984936D01*
X-31185030Y8984500D01*
X-31060193Y8984500D01*
X-30973254Y8992488D01*
X-30905618Y8998703D01*
X-30905615Y8998704D01*
X-30899864Y8999232D01*
X-30878483Y9005262D01*
X-30697493Y9056307D01*
X-30697491Y9056308D01*
X-30691934Y9057875D01*
X-30686759Y9060427D01*
X-30686754Y9060429D01*
X-30503353Y9150873D01*
X-30498172Y9153428D01*
X-30325067Y9282691D01*
X-30178418Y9441335D01*
X-30063135Y9624048D01*
X-29983079Y9824710D01*
X-29940931Y10036600D01*
X-29940602Y10061678D01*
X-29940527Y10067376D01*
X-17051897Y10067376D01*
X-17015310Y9854455D01*
X-16940534Y9651766D01*
X-16830074Y9466098D01*
X-16826268Y9461758D01*
X-16826265Y9461754D01*
X-16804639Y9437095D01*
X-16687627Y9303669D01*
X-16683092Y9300094D01*
X-16683091Y9300093D01*
X-16656636Y9279238D01*
X-16517966Y9169919D01*
X-16512850Y9167228D01*
X-16512848Y9167226D01*
X-16331889Y9072019D01*
X-16326772Y9069327D01*
X-16120447Y9005262D01*
X-16114710Y9004583D01*
X-15948717Y8984936D01*
X-15948711Y8984936D01*
X-15945030Y8984500D01*
X-15820193Y8984500D01*
X-15733254Y8992488D01*
X-15665618Y8998703D01*
X-15665615Y8998704D01*
X-15659864Y8999232D01*
X-15638483Y9005262D01*
X-15457493Y9056307D01*
X-15457491Y9056308D01*
X-15451934Y9057875D01*
X-15446759Y9060427D01*
X-15446754Y9060429D01*
X-15263353Y9150873D01*
X-15258172Y9153428D01*
X-15085067Y9282691D01*
X-14938418Y9441335D01*
X-14823135Y9624048D01*
X-14743079Y9824710D01*
X-14700931Y10036600D01*
X-14700602Y10061678D01*
X-14698179Y10246842D01*
X-14698103Y10252624D01*
X-14734690Y10465545D01*
X-14809466Y10668234D01*
X-14919926Y10853902D01*
X-14923732Y10858242D01*
X-14923735Y10858246D01*
X-15058566Y11011990D01*
X-15062373Y11016331D01*
X-15088983Y11037309D01*
X-15227495Y11146503D01*
X-15227497Y11146504D01*
X-15232034Y11150081D01*
X-15237150Y11152772D01*
X-15237152Y11152774D01*
X-15418111Y11247981D01*
X-15418113Y11247982D01*
X-15423228Y11250673D01*
X-15629553Y11314738D01*
X-15667252Y11319200D01*
X-15801283Y11335064D01*
X-15801289Y11335064D01*
X-15804970Y11335500D01*
X-15929807Y11335500D01*
X-16016746Y11327512D01*
X-16084382Y11321297D01*
X-16084385Y11321296D01*
X-16090136Y11320768D01*
X-16095695Y11319200D01*
X-16095696Y11319200D01*
X-16292507Y11263693D01*
X-16292509Y11263692D01*
X-16298066Y11262125D01*
X-16303241Y11259573D01*
X-16303246Y11259571D01*
X-16446687Y11188833D01*
X-16491828Y11166572D01*
X-16664933Y11037309D01*
X-16811582Y10878665D01*
X-16926865Y10695952D01*
X-17006921Y10495290D01*
X-17049069Y10283400D01*
X-17049145Y10277625D01*
X-17049145Y10277621D01*
X-17049472Y10252624D01*
X-17051897Y10067376D01*
X-29940527Y10067376D01*
X-29938179Y10246842D01*
X-29938103Y10252624D01*
X-29974690Y10465545D01*
X-30049466Y10668234D01*
X-30159926Y10853902D01*
X-30163732Y10858242D01*
X-30163735Y10858246D01*
X-30298566Y11011990D01*
X-30302373Y11016331D01*
X-30328983Y11037309D01*
X-30467495Y11146503D01*
X-30467497Y11146504D01*
X-30472034Y11150081D01*
X-30477150Y11152772D01*
X-30477152Y11152774D01*
X-30658111Y11247981D01*
X-30658113Y11247982D01*
X-30663228Y11250673D01*
X-30869553Y11314738D01*
X-30907252Y11319200D01*
X-31041283Y11335064D01*
X-31041289Y11335064D01*
X-31044970Y11335500D01*
X-31169807Y11335500D01*
X-31256746Y11327512D01*
X-31324382Y11321297D01*
X-31324385Y11321296D01*
X-31330136Y11320768D01*
X-31335695Y11319200D01*
X-31335696Y11319200D01*
X-31532507Y11263693D01*
X-31532509Y11263692D01*
X-31538066Y11262125D01*
X-31543241Y11259573D01*
X-31543246Y11259571D01*
X-31686687Y11188833D01*
X-31731828Y11166572D01*
X-31904933Y11037309D01*
X-32051582Y10878665D01*
X-32166865Y10695952D01*
X-32246921Y10495290D01*
X-32289069Y10283400D01*
X-32289145Y10277625D01*
X-32289145Y10277621D01*
X-32289472Y10252624D01*
X-32291897Y10067376D01*
X-42472000Y10067376D01*
X-42472000Y14392902D01*
X-38596439Y14392902D01*
X-38587751Y14024223D01*
X-38538658Y13658724D01*
X-38449754Y13300820D01*
X-38322113Y12954833D01*
X-38157276Y12624941D01*
X-38155407Y12622046D01*
X-38155405Y12622043D01*
X-37959117Y12318048D01*
X-37959112Y12318042D01*
X-37957233Y12315131D01*
X-37724402Y12029143D01*
X-37721932Y12026711D01*
X-37721927Y12026706D01*
X-37570622Y11877759D01*
X-37461595Y11770431D01*
X-37171985Y11542121D01*
X-36859070Y11346970D01*
X-36855935Y11345465D01*
X-36855934Y11345464D01*
X-36529754Y11188833D01*
X-36529744Y11188829D01*
X-36526631Y11187334D01*
X-36178681Y11065143D01*
X-35819424Y10981872D01*
X-35816007Y10981468D01*
X-35815998Y10981466D01*
X-35455904Y10938847D01*
X-35453200Y10938527D01*
X-35450485Y10938442D01*
X-35450476Y10938441D01*
X-35424747Y10937633D01*
X-35404614Y10937000D01*
X-35149922Y10937000D01*
X-35148204Y10937095D01*
X-35148188Y10937095D01*
X-35001758Y10945154D01*
X-34874276Y10952170D01*
X-34510500Y11012719D01*
X-34155564Y11112821D01*
X-33813757Y11251267D01*
X-33632974Y11348812D01*
X-33492256Y11424739D01*
X-33492252Y11424742D01*
X-33489206Y11426385D01*
X-33486357Y11428354D01*
X-33188675Y11634095D01*
X-33188674Y11634096D01*
X-33185832Y11636060D01*
X-33183226Y11638321D01*
X-33183220Y11638326D01*
X-32909914Y11875489D01*
X-32907298Y11877759D01*
X-32656970Y12148563D01*
X-32437869Y12445202D01*
X-32252643Y12764092D01*
X-32103529Y13101382D01*
X-32041482Y13297571D01*
X-31993371Y13449695D01*
X-31993370Y13449700D01*
X-31992327Y13452997D01*
X-31920382Y13814693D01*
X-31920083Y13818145D01*
X-31888860Y14178642D01*
X-31888860Y14178648D01*
X-31888561Y14182098D01*
X-31893529Y14392902D01*
X-23356439Y14392902D01*
X-23347751Y14024223D01*
X-23298658Y13658724D01*
X-23209754Y13300820D01*
X-23082113Y12954833D01*
X-22917276Y12624941D01*
X-22915407Y12622046D01*
X-22915405Y12622043D01*
X-22719117Y12318048D01*
X-22719112Y12318042D01*
X-22717233Y12315131D01*
X-22484402Y12029143D01*
X-22481932Y12026711D01*
X-22481927Y12026706D01*
X-22330622Y11877759D01*
X-22221595Y11770431D01*
X-21931985Y11542121D01*
X-21619070Y11346970D01*
X-21615935Y11345465D01*
X-21615934Y11345464D01*
X-21289754Y11188833D01*
X-21289744Y11188829D01*
X-21286631Y11187334D01*
X-20938681Y11065143D01*
X-20579424Y10981872D01*
X-20576007Y10981468D01*
X-20575998Y10981466D01*
X-20215904Y10938847D01*
X-20213200Y10938527D01*
X-20210485Y10938442D01*
X-20210476Y10938441D01*
X-20184747Y10937633D01*
X-20164614Y10937000D01*
X-19909922Y10937000D01*
X-19908204Y10937095D01*
X-19908188Y10937095D01*
X-19761758Y10945154D01*
X-19634276Y10952170D01*
X-19270500Y11012719D01*
X-18915564Y11112821D01*
X-18573757Y11251267D01*
X-18392974Y11348812D01*
X-18252256Y11424739D01*
X-18252252Y11424742D01*
X-18249206Y11426385D01*
X-18246357Y11428354D01*
X-17948675Y11634095D01*
X-17948674Y11634096D01*
X-17945832Y11636060D01*
X-17943226Y11638321D01*
X-17943220Y11638326D01*
X-17669914Y11875489D01*
X-17667298Y11877759D01*
X-17416970Y12148563D01*
X-17197869Y12445202D01*
X-17012643Y12764092D01*
X-16863529Y13101382D01*
X-16801482Y13297571D01*
X-16753371Y13449695D01*
X-16753370Y13449700D01*
X-16752327Y13452997D01*
X-16680382Y13814693D01*
X-16680083Y13818145D01*
X-16648860Y14178642D01*
X-16648860Y14178648D01*
X-16648561Y14182098D01*
X-16657249Y14550777D01*
X-16706342Y14916276D01*
X-16795246Y15274180D01*
X-16922887Y15620167D01*
X-17087724Y15950059D01*
X-17089595Y15952957D01*
X-17285883Y16256952D01*
X-17285888Y16256958D01*
X-17287767Y16259869D01*
X-17520598Y16545857D01*
X-17523068Y16548289D01*
X-17523073Y16548294D01*
X-17780931Y16802134D01*
X-17780935Y16802138D01*
X-17783405Y16804569D01*
X-18073015Y17032879D01*
X-18385930Y17228030D01*
X-18389066Y17229536D01*
X-18715246Y17386167D01*
X-18715256Y17386171D01*
X-18718369Y17387666D01*
X-19066319Y17509857D01*
X-19425576Y17593128D01*
X-19428993Y17593532D01*
X-19429002Y17593534D01*
X-19789096Y17636153D01*
X-19789097Y17636153D01*
X-19791800Y17636473D01*
X-19794515Y17636558D01*
X-19794524Y17636559D01*
X-19820253Y17637367D01*
X-19840386Y17638000D01*
X-20095078Y17638000D01*
X-20096796Y17637905D01*
X-20096812Y17637905D01*
X-20243242Y17629846D01*
X-20370724Y17622830D01*
X-20734500Y17562281D01*
X-21089436Y17462179D01*
X-21431243Y17323733D01*
X-21434295Y17322086D01*
X-21752744Y17150261D01*
X-21752748Y17150258D01*
X-21755794Y17148615D01*
X-21758642Y17146647D01*
X-21758643Y17146646D01*
X-21920590Y17034717D01*
X-22059168Y16938940D01*
X-22061774Y16936679D01*
X-22061780Y16936674D01*
X-22315393Y16716600D01*
X-22337702Y16697241D01*
X-22588030Y16426437D01*
X-22807131Y16129798D01*
X-22992357Y15810908D01*
X-23141471Y15473618D01*
X-23142518Y15470309D01*
X-23142519Y15470305D01*
X-23205607Y15270822D01*
X-23252673Y15122003D01*
X-23324618Y14760307D01*
X-23324917Y14756855D01*
X-23342765Y14550777D01*
X-23356439Y14392902D01*
X-31893529Y14392902D01*
X-31897249Y14550777D01*
X-31946342Y14916276D01*
X-32035246Y15274180D01*
X-32162887Y15620167D01*
X-32327724Y15950059D01*
X-32329595Y15952957D01*
X-32525883Y16256952D01*
X-32525888Y16256958D01*
X-32527767Y16259869D01*
X-32760598Y16545857D01*
X-32763068Y16548289D01*
X-32763073Y16548294D01*
X-33020931Y16802134D01*
X-33020935Y16802138D01*
X-33023405Y16804569D01*
X-33313015Y17032879D01*
X-33625930Y17228030D01*
X-33629066Y17229536D01*
X-33955246Y17386167D01*
X-33955256Y17386171D01*
X-33958369Y17387666D01*
X-34306319Y17509857D01*
X-34665576Y17593128D01*
X-34668993Y17593532D01*
X-34669002Y17593534D01*
X-35029096Y17636153D01*
X-35029097Y17636153D01*
X-35031800Y17636473D01*
X-35034515Y17636558D01*
X-35034524Y17636559D01*
X-35060253Y17637367D01*
X-35080386Y17638000D01*
X-35335078Y17638000D01*
X-35336796Y17637905D01*
X-35336812Y17637905D01*
X-35483242Y17629846D01*
X-35610724Y17622830D01*
X-35974500Y17562281D01*
X-36329436Y17462179D01*
X-36671243Y17323733D01*
X-36674295Y17322086D01*
X-36992744Y17150261D01*
X-36992748Y17150258D01*
X-36995794Y17148615D01*
X-36998642Y17146647D01*
X-36998643Y17146646D01*
X-37160590Y17034717D01*
X-37299168Y16938940D01*
X-37301774Y16936679D01*
X-37301780Y16936674D01*
X-37555393Y16716600D01*
X-37577702Y16697241D01*
X-37828030Y16426437D01*
X-38047131Y16129798D01*
X-38232357Y15810908D01*
X-38381471Y15473618D01*
X-38382518Y15470309D01*
X-38382519Y15470305D01*
X-38445607Y15270822D01*
X-38492673Y15122003D01*
X-38564618Y14760307D01*
X-38564917Y14756855D01*
X-38582765Y14550777D01*
X-38596439Y14392902D01*
X-42472000Y14392902D01*
X-42472000Y33118307D01*
X-38996692Y33118307D01*
X-38986911Y32731883D01*
X-38986496Y32728668D01*
X-38986496Y32728664D01*
X-38961684Y32536311D01*
X-38937460Y32348512D01*
X-38848863Y31972255D01*
X-38722059Y31607098D01*
X-38720686Y31604161D01*
X-38559768Y31259854D01*
X-38559763Y31259845D01*
X-38558391Y31256909D01*
X-38359594Y30925400D01*
X-38127773Y30616081D01*
X-37865384Y30332231D01*
X-37575207Y30076856D01*
X-37572565Y30074975D01*
X-37572560Y30074971D01*
X-37412230Y29960820D01*
X-37260317Y29852661D01*
X-36924050Y29662023D01*
X-36921086Y29660725D01*
X-36921082Y29660723D01*
X-36817868Y29615523D01*
X-36569967Y29506960D01*
X-36566884Y29505973D01*
X-36566881Y29505972D01*
X-36435175Y29463813D01*
X-36201821Y29389115D01*
X-36012667Y29349426D01*
X-35826692Y29310404D01*
X-35826688Y29310403D01*
X-35823512Y29309737D01*
X-35439047Y29269668D01*
X-35436621Y29269604D01*
X-35436614Y29269604D01*
X-35435023Y29269563D01*
X-35432632Y29269500D01*
X-35145880Y29269500D01*
X-35144271Y29269583D01*
X-35144268Y29269583D01*
X-35086690Y29272550D01*
X-34856465Y29284414D01*
X-34611826Y29322505D01*
X-34477729Y29343384D01*
X-34477725Y29343385D01*
X-34474519Y29343884D01*
X-34100710Y29442300D01*
X-34097685Y29443440D01*
X-33742035Y29577474D01*
X-33742028Y29577477D01*
X-33738998Y29578619D01*
X-33393214Y29751397D01*
X-33067022Y29958805D01*
X-32763878Y30198643D01*
X-32486993Y30468372D01*
X-32239301Y30765134D01*
X-32237496Y30767815D01*
X-32237490Y30767823D01*
X-32025236Y31083096D01*
X-32025233Y31083101D01*
X-32023426Y31085785D01*
X-31841655Y31426928D01*
X-31788860Y31556620D01*
X-31697138Y31781941D01*
X-31697138Y31781942D01*
X-31695914Y31784948D01*
X-31587747Y32156053D01*
X-31518300Y32536311D01*
X-31488308Y32921693D01*
X-31490796Y33020000D01*
X-23607941Y33020000D01*
X-23588190Y32643129D01*
X-23529153Y32270387D01*
X-23431478Y31905857D01*
X-23296234Y31553535D01*
X-23294736Y31550595D01*
X-23143674Y31254121D01*
X-23124903Y31217280D01*
X-23123107Y31214514D01*
X-23123105Y31214511D01*
X-23037763Y31083096D01*
X-22919363Y30900775D01*
X-22681865Y30607489D01*
X-22415011Y30340635D01*
X-22121725Y30103137D01*
X-22118950Y30101335D01*
X-21899472Y29958805D01*
X-21805220Y29897597D01*
X-21802286Y29896102D01*
X-21802279Y29896098D01*
X-21521694Y29753133D01*
X-21468965Y29726266D01*
X-21116643Y29591022D01*
X-20752113Y29493347D01*
X-20554147Y29461992D01*
X-20382619Y29434824D01*
X-20382611Y29434823D01*
X-20379371Y29434310D01*
X-20096780Y29419500D01*
X-19908220Y29419500D01*
X-19625629Y29434310D01*
X-19622389Y29434823D01*
X-19622381Y29434824D01*
X-19450853Y29461992D01*
X-19252887Y29493347D01*
X-18888357Y29591022D01*
X-18536035Y29726266D01*
X-18483306Y29753133D01*
X-18202721Y29896098D01*
X-18202714Y29896102D01*
X-18199780Y29897597D01*
X-18105527Y29958805D01*
X-17886050Y30101335D01*
X-17883275Y30103137D01*
X-17589989Y30340635D01*
X-17323135Y30607489D01*
X-17085637Y30900775D01*
X-16965490Y31085785D01*
X-16881895Y31214510D01*
X-16881893Y31214513D01*
X-16880097Y31217279D01*
X-16878597Y31220221D01*
X-16710264Y31550595D01*
X-16708766Y31553535D01*
X-16573522Y31905857D01*
X-16475847Y32270387D01*
X-16416810Y32643129D01*
X-16397059Y33020000D01*
X-16416810Y33396871D01*
X-16475847Y33769613D01*
X-16573522Y34134143D01*
X-16708766Y34486465D01*
X-16771740Y34610059D01*
X-16878598Y34819779D01*
X-16878602Y34819786D01*
X-16880097Y34822720D01*
X-16965490Y34954215D01*
X-17069645Y35114600D01*
X-17085637Y35139225D01*
X-17323135Y35432511D01*
X-17589989Y35699365D01*
X-17883275Y35936863D01*
X-18102425Y36079180D01*
X-18197011Y36140605D01*
X-18197014Y36140607D01*
X-18199780Y36142403D01*
X-18202714Y36143898D01*
X-18202721Y36143902D01*
X-18533095Y36312236D01*
X-18536035Y36313734D01*
X-18888357Y36448978D01*
X-19252887Y36546653D01*
X-19450853Y36578008D01*
X-19622381Y36605176D01*
X-19622389Y36605177D01*
X-19625629Y36605690D01*
X-19908220Y36620500D01*
X-20096780Y36620500D01*
X-20379371Y36605690D01*
X-20382611Y36605177D01*
X-20382619Y36605176D01*
X-20554147Y36578008D01*
X-20752113Y36546653D01*
X-21116643Y36448978D01*
X-21468965Y36313734D01*
X-21471905Y36312236D01*
X-21802279Y36143902D01*
X-21802286Y36143898D01*
X-21805220Y36142403D01*
X-21807986Y36140607D01*
X-21807989Y36140605D01*
X-21902575Y36079180D01*
X-22121725Y35936863D01*
X-22415011Y35699365D01*
X-22681865Y35432511D01*
X-22919363Y35139225D01*
X-22935355Y35114600D01*
X-23123105Y34825490D01*
X-23123107Y34825487D01*
X-23124903Y34822721D01*
X-23126398Y34819787D01*
X-23126402Y34819780D01*
X-23146596Y34780146D01*
X-23296234Y34486465D01*
X-23431478Y34134143D01*
X-23529153Y33769613D01*
X-23588190Y33396871D01*
X-23607941Y33020000D01*
X-31490796Y33020000D01*
X-31498089Y33308117D01*
X-31522898Y33500452D01*
X-31547126Y33688282D01*
X-31547128Y33688291D01*
X-31547540Y33691488D01*
X-31636137Y34067745D01*
X-31762941Y34432902D01*
X-31848488Y34615941D01*
X-31925232Y34780146D01*
X-31925237Y34780155D01*
X-31926609Y34783091D01*
X-32125406Y35114600D01*
X-32357227Y35423919D01*
X-32619616Y35707769D01*
X-32909793Y35963144D01*
X-32912435Y35965025D01*
X-32912440Y35965029D01*
X-33222037Y36185455D01*
X-33224683Y36187339D01*
X-33560950Y36377977D01*
X-33563914Y36379275D01*
X-33563918Y36379277D01*
X-33720371Y36447792D01*
X-33915033Y36533040D01*
X-33954888Y36545798D01*
X-34188257Y36620500D01*
X-34283179Y36650885D01*
X-34501129Y36696616D01*
X-34658308Y36729596D01*
X-34658312Y36729597D01*
X-34661488Y36730263D01*
X-35045953Y36770332D01*
X-35048379Y36770396D01*
X-35048386Y36770396D01*
X-35049977Y36770437D01*
X-35052368Y36770500D01*
X-35339120Y36770500D01*
X-35340729Y36770417D01*
X-35340732Y36770417D01*
X-35398310Y36767450D01*
X-35628535Y36755586D01*
X-35873174Y36717495D01*
X-36007271Y36696616D01*
X-36007275Y36696615D01*
X-36010481Y36696116D01*
X-36384290Y36597700D01*
X-36387314Y36596560D01*
X-36387315Y36596560D01*
X-36742965Y36462526D01*
X-36742972Y36462523D01*
X-36746002Y36461381D01*
X-37091786Y36288603D01*
X-37417978Y36081195D01*
X-37721122Y35841357D01*
X-37998007Y35571628D01*
X-38245699Y35274866D01*
X-38247504Y35272185D01*
X-38247510Y35272177D01*
X-38459764Y34956904D01*
X-38461574Y34954215D01*
X-38643345Y34613072D01*
X-38644568Y34610067D01*
X-38644572Y34610059D01*
X-38787862Y34258059D01*
X-38789086Y34255052D01*
X-38897253Y33883947D01*
X-38966700Y33503689D01*
X-38996692Y33118307D01*
X-42472000Y33118307D01*
X-42472000Y49861928D01*
X-37997989Y49861928D01*
X-37979765Y49530788D01*
X-37921892Y49204235D01*
X-37920787Y49200610D01*
X-37920786Y49200605D01*
X-37845025Y48952029D01*
X-37825206Y48887000D01*
X-37691109Y48583679D01*
X-37689168Y48580417D01*
X-37523483Y48301924D01*
X-37523479Y48301918D01*
X-37521543Y48298664D01*
X-37318964Y48036085D01*
X-37086307Y47799744D01*
X-36826942Y47593066D01*
X-36544626Y47419045D01*
X-36541179Y47417456D01*
X-36246893Y47281787D01*
X-36246883Y47281783D01*
X-36243449Y47280200D01*
X-36239849Y47279041D01*
X-36239842Y47279038D01*
X-35931381Y47179705D01*
X-35931378Y47179704D01*
X-35927772Y47178543D01*
X-35924056Y47177824D01*
X-35924048Y47177822D01*
X-35605887Y47116266D01*
X-35605878Y47116265D01*
X-35602168Y47115547D01*
X-35598392Y47115280D01*
X-35598387Y47115279D01*
X-35499752Y47108295D01*
X-35340221Y47097000D01*
X-35159114Y47097000D01*
X-35157248Y47097112D01*
X-35157231Y47097113D01*
X-34915238Y47111702D01*
X-34915234Y47111702D01*
X-34911460Y47111930D01*
X-34907738Y47112610D01*
X-34907736Y47112610D01*
X-34833868Y47126101D01*
X-34585215Y47171513D01*
X-34268491Y47269859D01*
X-33965875Y47405542D01*
X-33681752Y47576598D01*
X-33678768Y47578925D01*
X-33678761Y47578930D01*
X-33423232Y47778213D01*
X-33423230Y47778215D01*
X-33420237Y47780549D01*
X-33185118Y48014440D01*
X-32979801Y48274883D01*
X-32807260Y48558107D01*
X-32752479Y48678591D01*
X-32671563Y48856555D01*
X-32671560Y48856563D01*
X-32669994Y48860007D01*
X-32569991Y49176212D01*
X-32508701Y49502141D01*
X-32487011Y49833072D01*
X-32488599Y49861928D01*
X-22757989Y49861928D01*
X-22739765Y49530788D01*
X-22681892Y49204235D01*
X-22680787Y49200610D01*
X-22680786Y49200605D01*
X-22605025Y48952029D01*
X-22585206Y48887000D01*
X-22451109Y48583679D01*
X-22449168Y48580417D01*
X-22283483Y48301924D01*
X-22283479Y48301918D01*
X-22281543Y48298664D01*
X-22078964Y48036085D01*
X-21846307Y47799744D01*
X-21586942Y47593066D01*
X-21304626Y47419045D01*
X-21301179Y47417456D01*
X-21006893Y47281787D01*
X-21006883Y47281783D01*
X-21003449Y47280200D01*
X-20999849Y47279041D01*
X-20999842Y47279038D01*
X-20691381Y47179705D01*
X-20691378Y47179704D01*
X-20687772Y47178543D01*
X-20684056Y47177824D01*
X-20684048Y47177822D01*
X-20365887Y47116266D01*
X-20365878Y47116265D01*
X-20362168Y47115547D01*
X-20358392Y47115280D01*
X-20358387Y47115279D01*
X-20259752Y47108295D01*
X-20100221Y47097000D01*
X-19919114Y47097000D01*
X-19917248Y47097112D01*
X-19917231Y47097113D01*
X-19675238Y47111702D01*
X-19675234Y47111702D01*
X-19671460Y47111930D01*
X-19667738Y47112610D01*
X-19667736Y47112610D01*
X-19593868Y47126101D01*
X-19345215Y47171513D01*
X-19028491Y47269859D01*
X-18725875Y47405542D01*
X-18441752Y47576598D01*
X-18438768Y47578925D01*
X-18438761Y47578930D01*
X-18183232Y47778213D01*
X-18183230Y47778215D01*
X-18180237Y47780549D01*
X-17945118Y48014440D01*
X-17739801Y48274883D01*
X-17567260Y48558107D01*
X-17512479Y48678591D01*
X-17431563Y48856555D01*
X-17431560Y48856563D01*
X-17429994Y48860007D01*
X-17329991Y49176212D01*
X-17268701Y49502141D01*
X-17247011Y49833072D01*
X-17265235Y50164212D01*
X-17323108Y50490765D01*
X-17331648Y50518788D01*
X-17418685Y50804361D01*
X-17419794Y50808000D01*
X-17553891Y51111321D01*
X-17619496Y51221593D01*
X-17721517Y51393076D01*
X-17721521Y51393082D01*
X-17723457Y51396336D01*
X-17926036Y51658915D01*
X-18158693Y51895256D01*
X-18418058Y52101934D01*
X-18700374Y52275955D01*
X-18738326Y52293451D01*
X-18998107Y52413213D01*
X-18998117Y52413217D01*
X-19001551Y52414800D01*
X-19005151Y52415959D01*
X-19005158Y52415962D01*
X-19313619Y52515295D01*
X-19313622Y52515296D01*
X-19317228Y52516457D01*
X-19320944Y52517176D01*
X-19320952Y52517178D01*
X-19639113Y52578734D01*
X-19639122Y52578735D01*
X-19642832Y52579453D01*
X-19646608Y52579720D01*
X-19646613Y52579721D01*
X-19745248Y52586705D01*
X-19904779Y52598000D01*
X-20085886Y52598000D01*
X-20087752Y52597888D01*
X-20087769Y52597887D01*
X-20329762Y52583298D01*
X-20329766Y52583298D01*
X-20333540Y52583070D01*
X-20337262Y52582390D01*
X-20337264Y52582390D01*
X-20353345Y52579453D01*
X-20659785Y52523487D01*
X-20976509Y52425141D01*
X-21279125Y52289458D01*
X-21563248Y52118402D01*
X-21566232Y52116075D01*
X-21566239Y52116070D01*
X-21587397Y52099569D01*
X-21824763Y51914451D01*
X-22059882Y51680560D01*
X-22265199Y51420117D01*
X-22437740Y51136893D01*
X-22449367Y51111321D01*
X-22573437Y50838445D01*
X-22573440Y50838437D01*
X-22575006Y50834993D01*
X-22675009Y50518788D01*
X-22736299Y50192859D01*
X-22757989Y49861928D01*
X-32488599Y49861928D01*
X-32505235Y50164212D01*
X-32563108Y50490765D01*
X-32571648Y50518788D01*
X-32658685Y50804361D01*
X-32659794Y50808000D01*
X-32793891Y51111321D01*
X-32859496Y51221593D01*
X-32961517Y51393076D01*
X-32961521Y51393082D01*
X-32963457Y51396336D01*
X-33166036Y51658915D01*
X-33398693Y51895256D01*
X-33658058Y52101934D01*
X-33940374Y52275955D01*
X-33978326Y52293451D01*
X-34238107Y52413213D01*
X-34238117Y52413217D01*
X-34241551Y52414800D01*
X-34245151Y52415959D01*
X-34245158Y52415962D01*
X-34553619Y52515295D01*
X-34553622Y52515296D01*
X-34557228Y52516457D01*
X-34560944Y52517176D01*
X-34560952Y52517178D01*
X-34879113Y52578734D01*
X-34879122Y52578735D01*
X-34882832Y52579453D01*
X-34886608Y52579720D01*
X-34886613Y52579721D01*
X-34985248Y52586705D01*
X-35144779Y52598000D01*
X-35325886Y52598000D01*
X-35327752Y52597888D01*
X-35327769Y52597887D01*
X-35569762Y52583298D01*
X-35569766Y52583298D01*
X-35573540Y52583070D01*
X-35577262Y52582390D01*
X-35577264Y52582390D01*
X-35593345Y52579453D01*
X-35899785Y52523487D01*
X-36216509Y52425141D01*
X-36519125Y52289458D01*
X-36803248Y52118402D01*
X-36806232Y52116075D01*
X-36806239Y52116070D01*
X-36827397Y52099569D01*
X-37064763Y51914451D01*
X-37299882Y51680560D01*
X-37505199Y51420117D01*
X-37677740Y51136893D01*
X-37689367Y51111321D01*
X-37813437Y50838445D01*
X-37813440Y50838437D01*
X-37815006Y50834993D01*
X-37915009Y50518788D01*
X-37976299Y50192859D01*
X-37997989Y49861928D01*
X-42472000Y49861928D01*
X-42472000Y65087500D01*
X-31227941Y65087500D01*
X-31208190Y64710629D01*
X-31149153Y64337887D01*
X-31051478Y63973357D01*
X-30916234Y63621035D01*
X-30744903Y63284780D01*
X-30539363Y62968275D01*
X-30301865Y62674989D01*
X-30035011Y62408135D01*
X-29741725Y62170637D01*
X-29425220Y61965097D01*
X-29422286Y61963602D01*
X-29422279Y61963598D01*
X-29091905Y61795264D01*
X-29088965Y61793766D01*
X-28736643Y61658522D01*
X-28372113Y61560847D01*
X-28174147Y61529492D01*
X-28002619Y61502324D01*
X-28002611Y61502323D01*
X-27999371Y61501810D01*
X-27716780Y61487000D01*
X-27528220Y61487000D01*
X-27245629Y61501810D01*
X-27242389Y61502323D01*
X-27242381Y61502324D01*
X-27070853Y61529492D01*
X-26872887Y61560847D01*
X-26508357Y61658522D01*
X-26156035Y61793766D01*
X-26153095Y61795264D01*
X-25822721Y61963598D01*
X-25822714Y61963602D01*
X-25819780Y61965097D01*
X-25503275Y62170637D01*
X-25209989Y62408135D01*
X-24943135Y62674989D01*
X-24705637Y62968275D01*
X-24501894Y63282011D01*
X-24501893Y63282013D01*
X-24500097Y63284779D01*
X-24498597Y63287721D01*
X-24330264Y63618095D01*
X-24328766Y63621035D01*
X-24193522Y63973357D01*
X-24095847Y64337887D01*
X-24036810Y64710629D01*
X-24017059Y65087500D01*
X-24036810Y65464371D01*
X-24095847Y65837113D01*
X-24193522Y66201643D01*
X-24328766Y66553965D01*
X-24500097Y66890220D01*
X-24705637Y67206725D01*
X-24943135Y67500011D01*
X-25209989Y67766865D01*
X-25503275Y68004363D01*
X-25819780Y68209903D01*
X-25822714Y68211398D01*
X-25822721Y68211402D01*
X-26153095Y68379736D01*
X-26156035Y68381234D01*
X-26508357Y68516478D01*
X-26872887Y68614153D01*
X-27070853Y68645508D01*
X-27242381Y68672676D01*
X-27242389Y68672677D01*
X-27245629Y68673190D01*
X-27528220Y68688000D01*
X-27716780Y68688000D01*
X-27999371Y68673190D01*
X-28002611Y68672677D01*
X-28002619Y68672676D01*
X-28174147Y68645508D01*
X-28372113Y68614153D01*
X-28736643Y68516478D01*
X-29088965Y68381234D01*
X-29091905Y68379736D01*
X-29422279Y68211402D01*
X-29422286Y68211398D01*
X-29425220Y68209903D01*
X-29741725Y68004363D01*
X-30035011Y67766865D01*
X-30301865Y67500011D01*
X-30539363Y67206725D01*
X-30541165Y67203950D01*
X-30743105Y66892990D01*
X-30743107Y66892987D01*
X-30744903Y66890221D01*
X-30746398Y66887287D01*
X-30746402Y66887280D01*
X-30914736Y66556905D01*
X-30916234Y66553965D01*
X-31051478Y66201643D01*
X-31149153Y65837113D01*
X-31208190Y65464371D01*
X-31227941Y65087500D01*
X-42472000Y65087500D01*
X-42472000Y80105402D01*
X-38596439Y80105402D01*
X-38587751Y79736723D01*
X-38538658Y79371224D01*
X-38449754Y79013320D01*
X-38322113Y78667333D01*
X-38157276Y78337441D01*
X-38155407Y78334546D01*
X-38155405Y78334543D01*
X-37959117Y78030548D01*
X-37959112Y78030542D01*
X-37957233Y78027631D01*
X-37724402Y77741643D01*
X-37721932Y77739211D01*
X-37721927Y77739206D01*
X-37570622Y77590259D01*
X-37461595Y77482931D01*
X-37171985Y77254621D01*
X-36859070Y77059470D01*
X-36855935Y77057965D01*
X-36855934Y77057964D01*
X-36529754Y76901333D01*
X-36529744Y76901329D01*
X-36526631Y76899834D01*
X-36178681Y76777643D01*
X-35819424Y76694372D01*
X-35816007Y76693968D01*
X-35815998Y76693966D01*
X-35455904Y76651347D01*
X-35453200Y76651027D01*
X-35450485Y76650942D01*
X-35450476Y76650941D01*
X-35424747Y76650133D01*
X-35404614Y76649500D01*
X-35149922Y76649500D01*
X-35148204Y76649595D01*
X-35148188Y76649595D01*
X-35001758Y76657654D01*
X-34874276Y76664670D01*
X-34510500Y76725219D01*
X-34155564Y76825321D01*
X-33813757Y76963767D01*
X-33632974Y77061312D01*
X-33492256Y77137239D01*
X-33492252Y77137242D01*
X-33489206Y77138885D01*
X-33486357Y77140854D01*
X-33188675Y77346595D01*
X-33188674Y77346596D01*
X-33185832Y77348560D01*
X-33183226Y77350821D01*
X-33183220Y77350826D01*
X-32909914Y77587989D01*
X-32907298Y77590259D01*
X-32656970Y77861063D01*
X-32437869Y78157702D01*
X-32252643Y78476592D01*
X-32103529Y78813882D01*
X-32041482Y79010071D01*
X-31993371Y79162195D01*
X-31993370Y79162200D01*
X-31992327Y79165497D01*
X-31920382Y79527193D01*
X-31920083Y79530645D01*
X-31888860Y79891142D01*
X-31888860Y79891148D01*
X-31888561Y79894598D01*
X-31893529Y80105402D01*
X-23356439Y80105402D01*
X-23347751Y79736723D01*
X-23298658Y79371224D01*
X-23209754Y79013320D01*
X-23082113Y78667333D01*
X-22917276Y78337441D01*
X-22915407Y78334546D01*
X-22915405Y78334543D01*
X-22719117Y78030548D01*
X-22719112Y78030542D01*
X-22717233Y78027631D01*
X-22484402Y77741643D01*
X-22481932Y77739211D01*
X-22481927Y77739206D01*
X-22330622Y77590259D01*
X-22221595Y77482931D01*
X-21931985Y77254621D01*
X-21619070Y77059470D01*
X-21615935Y77057965D01*
X-21615934Y77057964D01*
X-21289754Y76901333D01*
X-21289744Y76901329D01*
X-21286631Y76899834D01*
X-20938681Y76777643D01*
X-20579424Y76694372D01*
X-20576007Y76693968D01*
X-20575998Y76693966D01*
X-20215904Y76651347D01*
X-20213200Y76651027D01*
X-20210485Y76650942D01*
X-20210476Y76650941D01*
X-20184747Y76650133D01*
X-20164614Y76649500D01*
X-19909922Y76649500D01*
X-19908204Y76649595D01*
X-19908188Y76649595D01*
X-19761758Y76657654D01*
X-19634276Y76664670D01*
X-19270500Y76725219D01*
X-18915564Y76825321D01*
X-18573757Y76963767D01*
X-18392974Y77061312D01*
X-18252256Y77137239D01*
X-18252252Y77137242D01*
X-18249206Y77138885D01*
X-18246357Y77140854D01*
X-17948675Y77346595D01*
X-17948674Y77346596D01*
X-17945832Y77348560D01*
X-17943226Y77350821D01*
X-17943220Y77350826D01*
X-17669914Y77587989D01*
X-17667298Y77590259D01*
X-17416970Y77861063D01*
X-17197869Y78157702D01*
X-17012643Y78476592D01*
X-16863529Y78813882D01*
X-16801482Y79010071D01*
X-16753371Y79162195D01*
X-16753370Y79162200D01*
X-16752327Y79165497D01*
X-16680382Y79527193D01*
X-16680083Y79530645D01*
X-16648860Y79891142D01*
X-16648860Y79891148D01*
X-16648561Y79894598D01*
X-16657249Y80263277D01*
X-16706342Y80628776D01*
X-16795246Y80986680D01*
X-16922887Y81332667D01*
X-17087724Y81662559D01*
X-17089595Y81665457D01*
X-17285883Y81969452D01*
X-17285888Y81969458D01*
X-17287767Y81972369D01*
X-17520598Y82258357D01*
X-17523068Y82260789D01*
X-17523073Y82260794D01*
X-17780931Y82514634D01*
X-17780935Y82514638D01*
X-17783405Y82517069D01*
X-18073015Y82745379D01*
X-18385930Y82940530D01*
X-18389066Y82942036D01*
X-18715246Y83098667D01*
X-18715256Y83098671D01*
X-18718369Y83100166D01*
X-19066319Y83222357D01*
X-19425576Y83305628D01*
X-19428993Y83306032D01*
X-19429002Y83306034D01*
X-19789096Y83348653D01*
X-19789097Y83348653D01*
X-19791800Y83348973D01*
X-19794515Y83349058D01*
X-19794524Y83349059D01*
X-19820253Y83349867D01*
X-19840386Y83350500D01*
X-20095078Y83350500D01*
X-20096796Y83350405D01*
X-20096812Y83350405D01*
X-20243242Y83342346D01*
X-20370724Y83335330D01*
X-20734500Y83274781D01*
X-21089436Y83174679D01*
X-21431243Y83036233D01*
X-21434295Y83034586D01*
X-21752744Y82862761D01*
X-21752748Y82862758D01*
X-21755794Y82861115D01*
X-21758642Y82859147D01*
X-21758643Y82859146D01*
X-21920590Y82747217D01*
X-22059168Y82651440D01*
X-22061774Y82649179D01*
X-22061780Y82649174D01*
X-22315393Y82429100D01*
X-22337702Y82409741D01*
X-22588030Y82138937D01*
X-22807131Y81842298D01*
X-22992357Y81523408D01*
X-23141471Y81186118D01*
X-23142518Y81182809D01*
X-23142519Y81182805D01*
X-23205607Y80983322D01*
X-23252673Y80834503D01*
X-23324618Y80472807D01*
X-23324917Y80469355D01*
X-23342765Y80263277D01*
X-23356439Y80105402D01*
X-31893529Y80105402D01*
X-31897249Y80263277D01*
X-31946342Y80628776D01*
X-32035246Y80986680D01*
X-32162887Y81332667D01*
X-32327724Y81662559D01*
X-32329595Y81665457D01*
X-32525883Y81969452D01*
X-32525888Y81969458D01*
X-32527767Y81972369D01*
X-32760598Y82258357D01*
X-32763068Y82260789D01*
X-32763073Y82260794D01*
X-33020931Y82514634D01*
X-33020935Y82514638D01*
X-33023405Y82517069D01*
X-33313015Y82745379D01*
X-33625930Y82940530D01*
X-33629066Y82942036D01*
X-33955246Y83098667D01*
X-33955256Y83098671D01*
X-33958369Y83100166D01*
X-34306319Y83222357D01*
X-34665576Y83305628D01*
X-34668993Y83306032D01*
X-34669002Y83306034D01*
X-35029096Y83348653D01*
X-35029097Y83348653D01*
X-35031800Y83348973D01*
X-35034515Y83349058D01*
X-35034524Y83349059D01*
X-35060253Y83349867D01*
X-35080386Y83350500D01*
X-35335078Y83350500D01*
X-35336796Y83350405D01*
X-35336812Y83350405D01*
X-35483242Y83342346D01*
X-35610724Y83335330D01*
X-35974500Y83274781D01*
X-36329436Y83174679D01*
X-36671243Y83036233D01*
X-36674295Y83034586D01*
X-36992744Y82862761D01*
X-36992748Y82862758D01*
X-36995794Y82861115D01*
X-36998642Y82859147D01*
X-36998643Y82859146D01*
X-37160590Y82747217D01*
X-37299168Y82651440D01*
X-37301774Y82649179D01*
X-37301780Y82649174D01*
X-37555393Y82429100D01*
X-37577702Y82409741D01*
X-37828030Y82138937D01*
X-38047131Y81842298D01*
X-38232357Y81523408D01*
X-38381471Y81186118D01*
X-38382518Y81182809D01*
X-38382519Y81182805D01*
X-38445607Y80983322D01*
X-38492673Y80834503D01*
X-38564618Y80472807D01*
X-38564917Y80469355D01*
X-38582765Y80263277D01*
X-38596439Y80105402D01*
X-42472000Y80105402D01*
X-42472000Y105517905D01*
X-37827472Y105517905D01*
X-37801966Y105250569D01*
X-37738136Y104989715D01*
X-37637318Y104740808D01*
X-37501625Y104509062D01*
X-37498772Y104505495D01*
X-37387275Y104366075D01*
X-37333899Y104299331D01*
X-37137654Y104116009D01*
X-37045461Y104052052D01*
X-36920754Y103965539D01*
X-36920749Y103965536D01*
X-36917001Y103962936D01*
X-36912916Y103960904D01*
X-36912913Y103960902D01*
X-36796781Y103903128D01*
X-36676562Y103843320D01*
X-36672228Y103841899D01*
X-36672225Y103841898D01*
X-36425707Y103761085D01*
X-36425702Y103761084D01*
X-36421374Y103759665D01*
X-36416883Y103758885D01*
X-36416882Y103758885D01*
X-36160564Y103714380D01*
X-36160556Y103714379D01*
X-36156783Y103713724D01*
X-36152946Y103713533D01*
X-36073504Y103709578D01*
X-36073496Y103709578D01*
X-36071933Y103709500D01*
X-34304277Y103709500D01*
X-34302009Y103709665D01*
X-34301997Y103709665D01*
X-34171677Y103719121D01*
X-34104654Y103723984D01*
X-34100199Y103724968D01*
X-34100196Y103724968D01*
X-33846880Y103780895D01*
X-33846876Y103780896D01*
X-33842420Y103781880D01*
X-33674883Y103845354D01*
X-33595559Y103875407D01*
X-33595556Y103875408D01*
X-33591289Y103877025D01*
X-33356524Y104007426D01*
X-33214246Y104116009D01*
X-33146667Y104167583D01*
X-33146663Y104167587D01*
X-33143042Y104170350D01*
X-32955315Y104362386D01*
X-32797275Y104579509D01*
X-32710187Y104745037D01*
X-32674360Y104813132D01*
X-32674357Y104813138D01*
X-32672235Y104817172D01*
X-32612797Y104985485D01*
X-32584335Y105066084D01*
X-32584335Y105066085D01*
X-32582812Y105070397D01*
X-32530880Y105333878D01*
X-32530653Y105338434D01*
X-32517755Y105597526D01*
X-32517755Y105597532D01*
X-32517528Y105602095D01*
X-32543034Y105869431D01*
X-32606864Y106130285D01*
X-32707682Y106379192D01*
X-32843375Y106610938D01*
X-32954289Y106749629D01*
X-33008249Y106817103D01*
X-33008250Y106817105D01*
X-33011101Y106820669D01*
X-33207346Y107003991D01*
X-33367064Y107114792D01*
X-33424246Y107154461D01*
X-33424251Y107154464D01*
X-33427999Y107157064D01*
X-33432084Y107159096D01*
X-33432087Y107159098D01*
X-33603940Y107244593D01*
X-33668438Y107276680D01*
X-33672772Y107278101D01*
X-33672775Y107278102D01*
X-33919293Y107358915D01*
X-33919298Y107358916D01*
X-33923626Y107360335D01*
X-33928118Y107361115D01*
X-34184436Y107405620D01*
X-34184444Y107405621D01*
X-34188217Y107406276D01*
X-34196878Y107406707D01*
X-34271496Y107410422D01*
X-34271504Y107410422D01*
X-34273067Y107410500D01*
X-36040723Y107410500D01*
X-36042991Y107410335D01*
X-36043003Y107410335D01*
X-36173323Y107400879D01*
X-36240346Y107396016D01*
X-36244801Y107395032D01*
X-36244804Y107395032D01*
X-36498120Y107339105D01*
X-36498124Y107339104D01*
X-36502580Y107338120D01*
X-36628146Y107290547D01*
X-36749441Y107244593D01*
X-36749444Y107244592D01*
X-36753711Y107242975D01*
X-36988476Y107112574D01*
X-36992108Y107109802D01*
X-37198333Y106952417D01*
X-37198337Y106952413D01*
X-37201958Y106949650D01*
X-37389685Y106757614D01*
X-37547725Y106540491D01*
X-37549849Y106536453D01*
X-37670640Y106306868D01*
X-37670643Y106306862D01*
X-37672765Y106302828D01*
X-37674285Y106298523D01*
X-37674287Y106298519D01*
X-37733696Y106130285D01*
X-37762188Y106049603D01*
X-37814120Y105786122D01*
X-37814347Y105781569D01*
X-37814347Y105781566D01*
X-37823508Y105597526D01*
X-37827472Y105517905D01*
X-42472000Y105517905D01*
X-42472000Y108233500D01*
X-42451998Y108301621D01*
X-42398342Y108348114D01*
X-42346000Y108359500D01*
X-12999000Y108359500D01*
X-12930879Y108339498D01*
G37*
%TD.AperFunction*%
M02*
