%TF.GenerationSoftware,KiCad,Pcbnew,6.0.4-6f826c9f35~116~ubuntu21.10.1*%
%TF.CreationDate,2022-06-29T09:01:03+02:00*%
%TF.ProjectId,mHz_oscillator,6d487a5f-6f73-4636-996c-6c61746f722e,rev?*%
%TF.SameCoordinates,Original*%
%TF.FileFunction,Legend,Bot*%
%TF.FilePolarity,Positive*%
%FSLAX46Y46*%
G04 Gerber Fmt 4.6, Leading zero omitted, Abs format (unit mm)*
G04 Created by KiCad (PCBNEW 6.0.4-6f826c9f35~116~ubuntu21.10.1) date 2022-06-29 09:01:03*
%MOMM*%
%LPD*%
G01*
G04 APERTURE LIST*
%ADD10C,0.375000*%
%ADD11C,0.150000*%
%ADD12C,0.500000*%
%ADD13C,0.120000*%
G04 APERTURE END LIST*
D10*
X28110571Y75238571D02*
X27110571Y75238571D01*
X27253428Y75238571D02*
X27182000Y75167142D01*
X27110571Y75024285D01*
X27110571Y74810000D01*
X27182000Y74667142D01*
X27324857Y74595714D01*
X28110571Y74595714D01*
X27324857Y74595714D02*
X27182000Y74524285D01*
X27110571Y74381428D01*
X27110571Y74167142D01*
X27182000Y74024285D01*
X27324857Y73952857D01*
X28110571Y73952857D01*
X28110571Y73238571D02*
X26610571Y73238571D01*
X27324857Y73238571D02*
X27324857Y72381428D01*
X28110571Y72381428D02*
X26610571Y72381428D01*
X27110571Y71810000D02*
X27110571Y71024285D01*
X28110571Y71810000D01*
X28110571Y71024285D01*
X28110571Y69095714D02*
X28039142Y69238571D01*
X27967714Y69310000D01*
X27824857Y69381428D01*
X27396285Y69381428D01*
X27253428Y69310000D01*
X27182000Y69238571D01*
X27110571Y69095714D01*
X27110571Y68881428D01*
X27182000Y68738571D01*
X27253428Y68667142D01*
X27396285Y68595714D01*
X27824857Y68595714D01*
X27967714Y68667142D01*
X28039142Y68738571D01*
X28110571Y68881428D01*
X28110571Y69095714D01*
X28039142Y68024285D02*
X28110571Y67881428D01*
X28110571Y67595714D01*
X28039142Y67452857D01*
X27896285Y67381428D01*
X27824857Y67381428D01*
X27682000Y67452857D01*
X27610571Y67595714D01*
X27610571Y67810000D01*
X27539142Y67952857D01*
X27396285Y68024285D01*
X27324857Y68024285D01*
X27182000Y67952857D01*
X27110571Y67810000D01*
X27110571Y67595714D01*
X27182000Y67452857D01*
X28039142Y66095714D02*
X28110571Y66238571D01*
X28110571Y66524285D01*
X28039142Y66667142D01*
X27967714Y66738571D01*
X27824857Y66810000D01*
X27396285Y66810000D01*
X27253428Y66738571D01*
X27182000Y66667142D01*
X27110571Y66524285D01*
X27110571Y66238571D01*
X27182000Y66095714D01*
X28110571Y65452857D02*
X27110571Y65452857D01*
X26610571Y65452857D02*
X26682000Y65524285D01*
X26753428Y65452857D01*
X26682000Y65381428D01*
X26610571Y65452857D01*
X26753428Y65452857D01*
X28110571Y64524285D02*
X28039142Y64667142D01*
X27896285Y64738571D01*
X26610571Y64738571D01*
X28110571Y63738571D02*
X28039142Y63881428D01*
X27896285Y63952857D01*
X26610571Y63952857D01*
X28110571Y62524285D02*
X27324857Y62524285D01*
X27182000Y62595714D01*
X27110571Y62738571D01*
X27110571Y63024285D01*
X27182000Y63167142D01*
X28039142Y62524285D02*
X28110571Y62667142D01*
X28110571Y63024285D01*
X28039142Y63167142D01*
X27896285Y63238571D01*
X27753428Y63238571D01*
X27610571Y63167142D01*
X27539142Y63024285D01*
X27539142Y62667142D01*
X27467714Y62524285D01*
X27110571Y62024285D02*
X27110571Y61452857D01*
X26610571Y61810000D02*
X27896285Y61810000D01*
X28039142Y61738571D01*
X28110571Y61595714D01*
X28110571Y61452857D01*
X28110571Y60738571D02*
X28039142Y60881428D01*
X27967714Y60952857D01*
X27824857Y61024285D01*
X27396285Y61024285D01*
X27253428Y60952857D01*
X27182000Y60881428D01*
X27110571Y60738571D01*
X27110571Y60524285D01*
X27182000Y60381428D01*
X27253428Y60310000D01*
X27396285Y60238571D01*
X27824857Y60238571D01*
X27967714Y60310000D01*
X28039142Y60381428D01*
X28110571Y60524285D01*
X28110571Y60738571D01*
X28110571Y59595714D02*
X27110571Y59595714D01*
X27396285Y59595714D02*
X27253428Y59524285D01*
X27182000Y59452857D01*
X27110571Y59310000D01*
X27110571Y59167142D01*
D11*
X29408380Y70595714D02*
X28741714Y70595714D01*
X28836952Y70595714D02*
X28789333Y70548095D01*
X28741714Y70452857D01*
X28741714Y70310000D01*
X28789333Y70214761D01*
X28884571Y70167142D01*
X29408380Y70167142D01*
X28884571Y70167142D02*
X28789333Y70119523D01*
X28741714Y70024285D01*
X28741714Y69881428D01*
X28789333Y69786190D01*
X28884571Y69738571D01*
X29408380Y69738571D01*
X29408380Y68833809D02*
X28884571Y68833809D01*
X28789333Y68881428D01*
X28741714Y68976666D01*
X28741714Y69167142D01*
X28789333Y69262380D01*
X29360761Y68833809D02*
X29408380Y68929047D01*
X29408380Y69167142D01*
X29360761Y69262380D01*
X29265523Y69310000D01*
X29170285Y69310000D01*
X29075047Y69262380D01*
X29027428Y69167142D01*
X29027428Y68929047D01*
X28979809Y68833809D01*
X29408380Y68357619D02*
X28741714Y68357619D01*
X28408380Y68357619D02*
X28456000Y68405238D01*
X28503619Y68357619D01*
X28456000Y68310000D01*
X28408380Y68357619D01*
X28503619Y68357619D01*
X28741714Y67881428D02*
X29408380Y67881428D01*
X28836952Y67881428D02*
X28789333Y67833809D01*
X28741714Y67738571D01*
X28741714Y67595714D01*
X28789333Y67500476D01*
X28884571Y67452857D01*
X29408380Y67452857D01*
X28741714Y66214761D02*
X29741714Y66214761D01*
X28789333Y66214761D02*
X28741714Y66119523D01*
X28741714Y65929047D01*
X28789333Y65833809D01*
X28836952Y65786190D01*
X28932190Y65738571D01*
X29217904Y65738571D01*
X29313142Y65786190D01*
X29360761Y65833809D01*
X29408380Y65929047D01*
X29408380Y66119523D01*
X29360761Y66214761D01*
X29360761Y64881428D02*
X29408380Y64976666D01*
X29408380Y65167142D01*
X29360761Y65262380D01*
X29313142Y65310000D01*
X29217904Y65357619D01*
X28932190Y65357619D01*
X28836952Y65310000D01*
X28789333Y65262380D01*
X28741714Y65167142D01*
X28741714Y64976666D01*
X28789333Y64881428D01*
X29408380Y64452857D02*
X28408380Y64452857D01*
X28789333Y64452857D02*
X28741714Y64357619D01*
X28741714Y64167142D01*
X28789333Y64071904D01*
X28836952Y64024285D01*
X28932190Y63976666D01*
X29217904Y63976666D01*
X29313142Y64024285D01*
X29360761Y64071904D01*
X29408380Y64167142D01*
X29408380Y64357619D01*
X29360761Y64452857D01*
X33980380Y71444904D02*
X32980380Y71444904D01*
X33694666Y71111571D01*
X32980380Y70778238D01*
X33980380Y70778238D01*
X33980380Y69873476D02*
X33456571Y69873476D01*
X33361333Y69921095D01*
X33313714Y70016333D01*
X33313714Y70206809D01*
X33361333Y70302047D01*
X33932761Y69873476D02*
X33980380Y69968714D01*
X33980380Y70206809D01*
X33932761Y70302047D01*
X33837523Y70349666D01*
X33742285Y70349666D01*
X33647047Y70302047D01*
X33599428Y70206809D01*
X33599428Y69968714D01*
X33551809Y69873476D01*
X33980380Y69397285D02*
X33313714Y69397285D01*
X33504190Y69397285D02*
X33408952Y69349666D01*
X33361333Y69302047D01*
X33313714Y69206809D01*
X33313714Y69111571D01*
X33932761Y68349666D02*
X33980380Y68444904D01*
X33980380Y68635380D01*
X33932761Y68730619D01*
X33885142Y68778238D01*
X33789904Y68825857D01*
X33504190Y68825857D01*
X33408952Y68778238D01*
X33361333Y68730619D01*
X33313714Y68635380D01*
X33313714Y68444904D01*
X33361333Y68349666D01*
X33980380Y67921095D02*
X32980380Y67921095D01*
X33980380Y67492523D02*
X33456571Y67492523D01*
X33361333Y67540142D01*
X33313714Y67635380D01*
X33313714Y67778238D01*
X33361333Y67873476D01*
X33408952Y67921095D01*
X33075619Y66302047D02*
X33028000Y66254428D01*
X32980380Y66159190D01*
X32980380Y65921095D01*
X33028000Y65825857D01*
X33075619Y65778238D01*
X33170857Y65730619D01*
X33266095Y65730619D01*
X33408952Y65778238D01*
X33980380Y66349666D01*
X33980380Y65730619D01*
X32980380Y65111571D02*
X32980380Y65016333D01*
X33028000Y64921095D01*
X33075619Y64873476D01*
X33170857Y64825857D01*
X33361333Y64778238D01*
X33599428Y64778238D01*
X33789904Y64825857D01*
X33885142Y64873476D01*
X33932761Y64921095D01*
X33980380Y65016333D01*
X33980380Y65111571D01*
X33932761Y65206809D01*
X33885142Y65254428D01*
X33789904Y65302047D01*
X33599428Y65349666D01*
X33361333Y65349666D01*
X33170857Y65302047D01*
X33075619Y65254428D01*
X33028000Y65206809D01*
X32980380Y65111571D01*
X33075619Y64397285D02*
X33028000Y64349666D01*
X32980380Y64254428D01*
X32980380Y64016333D01*
X33028000Y63921095D01*
X33075619Y63873476D01*
X33170857Y63825857D01*
X33266095Y63825857D01*
X33408952Y63873476D01*
X33980380Y64444904D01*
X33980380Y63825857D01*
X33075619Y63444904D02*
X33028000Y63397285D01*
X32980380Y63302047D01*
X32980380Y63063952D01*
X33028000Y62968714D01*
X33075619Y62921095D01*
X33170857Y62873476D01*
X33266095Y62873476D01*
X33408952Y62921095D01*
X33980380Y63492523D01*
X33980380Y62873476D01*
D12*
X32940476Y-6556428D02*
X32940476Y-8175476D01*
X33035714Y-8365952D01*
X33130952Y-8461190D01*
X33321428Y-8556428D01*
X33607142Y-8556428D01*
X33797619Y-8461190D01*
X32940476Y-7794523D02*
X33130952Y-7889761D01*
X33511904Y-7889761D01*
X33702380Y-7794523D01*
X33797619Y-7699285D01*
X33892857Y-7508809D01*
X33892857Y-6937380D01*
X33797619Y-6746904D01*
X33702380Y-6651666D01*
X33511904Y-6556428D01*
X33130952Y-6556428D01*
X32940476Y-6651666D01*
X32083333Y-7794523D02*
X31892857Y-7889761D01*
X31511904Y-7889761D01*
X31321428Y-7794523D01*
X31226190Y-7604047D01*
X31226190Y-7508809D01*
X31321428Y-7318333D01*
X31511904Y-7223095D01*
X31797619Y-7223095D01*
X31988095Y-7127857D01*
X32083333Y-6937380D01*
X32083333Y-6842142D01*
X31988095Y-6651666D01*
X31797619Y-6556428D01*
X31511904Y-6556428D01*
X31321428Y-6651666D01*
X30464285Y-7794523D02*
X30273809Y-7889761D01*
X29892857Y-7889761D01*
X29702380Y-7794523D01*
X29607142Y-7604047D01*
X29607142Y-7508809D01*
X29702380Y-7318333D01*
X29892857Y-7223095D01*
X30178571Y-7223095D01*
X30369047Y-7127857D01*
X30464285Y-6937380D01*
X30464285Y-6842142D01*
X30369047Y-6651666D01*
X30178571Y-6556428D01*
X29892857Y-6556428D01*
X29702380Y-6651666D01*
D11*
X51855714Y78810000D02*
X52855714Y78810000D01*
X51903333Y78810000D02*
X51855714Y78714761D01*
X51855714Y78524285D01*
X51903333Y78429047D01*
X51950952Y78381428D01*
X52046190Y78333809D01*
X52331904Y78333809D01*
X52427142Y78381428D01*
X52474761Y78429047D01*
X52522380Y78524285D01*
X52522380Y78714761D01*
X52474761Y78810000D01*
X52522380Y77762380D02*
X52474761Y77857619D01*
X52427142Y77905238D01*
X52331904Y77952857D01*
X52046190Y77952857D01*
X51950952Y77905238D01*
X51903333Y77857619D01*
X51855714Y77762380D01*
X51855714Y77619523D01*
X51903333Y77524285D01*
X51950952Y77476666D01*
X52046190Y77429047D01*
X52331904Y77429047D01*
X52427142Y77476666D01*
X52474761Y77524285D01*
X52522380Y77619523D01*
X52522380Y77762380D01*
X51855714Y77095714D02*
X52522380Y76905238D01*
X52046190Y76714761D01*
X52522380Y76524285D01*
X51855714Y76333809D01*
X52474761Y75571904D02*
X52522380Y75667142D01*
X52522380Y75857619D01*
X52474761Y75952857D01*
X52379523Y76000476D01*
X51998571Y76000476D01*
X51903333Y75952857D01*
X51855714Y75857619D01*
X51855714Y75667142D01*
X51903333Y75571904D01*
X51998571Y75524285D01*
X52093809Y75524285D01*
X52189047Y76000476D01*
X52522380Y75095714D02*
X51855714Y75095714D01*
X52046190Y75095714D02*
X51950952Y75048095D01*
X51903333Y75000476D01*
X51855714Y74905238D01*
X51855714Y74810000D01*
X52474761Y74095714D02*
X52522380Y74190952D01*
X52522380Y74381428D01*
X52474761Y74476666D01*
X52379523Y74524285D01*
X51998571Y74524285D01*
X51903333Y74476666D01*
X51855714Y74381428D01*
X51855714Y74190952D01*
X51903333Y74095714D01*
X51998571Y74048095D01*
X52093809Y74048095D01*
X52189047Y74524285D01*
X52522380Y73190952D02*
X51522380Y73190952D01*
X52474761Y73190952D02*
X52522380Y73286190D01*
X52522380Y73476666D01*
X52474761Y73571904D01*
X52427142Y73619523D01*
X52331904Y73667142D01*
X52046190Y73667142D01*
X51950952Y73619523D01*
X51903333Y73571904D01*
X51855714Y73476666D01*
X51855714Y73286190D01*
X51903333Y73190952D01*
X52522380Y71952857D02*
X51522380Y71952857D01*
X51903333Y71952857D02*
X51855714Y71857619D01*
X51855714Y71667142D01*
X51903333Y71571904D01*
X51950952Y71524285D01*
X52046190Y71476666D01*
X52331904Y71476666D01*
X52427142Y71524285D01*
X52474761Y71571904D01*
X52522380Y71667142D01*
X52522380Y71857619D01*
X52474761Y71952857D01*
X51855714Y71143333D02*
X52522380Y70905238D01*
X51855714Y70667142D02*
X52522380Y70905238D01*
X52760476Y71000476D01*
X52808095Y71048095D01*
X52855714Y71143333D01*
X52522380Y69381428D02*
X52474761Y69476666D01*
X52427142Y69524285D01*
X52331904Y69571904D01*
X52046190Y69571904D01*
X51950952Y69524285D01*
X51903333Y69476666D01*
X51855714Y69381428D01*
X51855714Y69238571D01*
X51903333Y69143333D01*
X51950952Y69095714D01*
X52046190Y69048095D01*
X52331904Y69048095D01*
X52427142Y69095714D01*
X52474761Y69143333D01*
X52522380Y69238571D01*
X52522380Y69381428D01*
X51855714Y68619523D02*
X52855714Y68619523D01*
X51903333Y68619523D02*
X51855714Y68524285D01*
X51855714Y68333809D01*
X51903333Y68238571D01*
X51950952Y68190952D01*
X52046190Y68143333D01*
X52331904Y68143333D01*
X52427142Y68190952D01*
X52474761Y68238571D01*
X52522380Y68333809D01*
X52522380Y68524285D01*
X52474761Y68619523D01*
X52474761Y67333809D02*
X52522380Y67429047D01*
X52522380Y67619523D01*
X52474761Y67714761D01*
X52379523Y67762380D01*
X51998571Y67762380D01*
X51903333Y67714761D01*
X51855714Y67619523D01*
X51855714Y67429047D01*
X51903333Y67333809D01*
X51998571Y67286190D01*
X52093809Y67286190D01*
X52189047Y67762380D01*
X51855714Y66857619D02*
X52522380Y66857619D01*
X51950952Y66857619D02*
X51903333Y66810000D01*
X51855714Y66714761D01*
X51855714Y66571904D01*
X51903333Y66476666D01*
X51998571Y66429047D01*
X52522380Y66429047D01*
X52474761Y66000476D02*
X52522380Y65905238D01*
X52522380Y65714761D01*
X52474761Y65619523D01*
X52379523Y65571904D01*
X52331904Y65571904D01*
X52236666Y65619523D01*
X52189047Y65714761D01*
X52189047Y65857619D01*
X52141428Y65952857D01*
X52046190Y66000476D01*
X51998571Y66000476D01*
X51903333Y65952857D01*
X51855714Y65857619D01*
X51855714Y65714761D01*
X51903333Y65619523D01*
X51855714Y65238571D02*
X52522380Y65000476D01*
X51855714Y64762380D02*
X52522380Y65000476D01*
X52760476Y65095714D01*
X52808095Y65143333D01*
X52855714Y65238571D01*
X51855714Y64381428D02*
X52522380Y64381428D01*
X51950952Y64381428D02*
X51903333Y64333809D01*
X51855714Y64238571D01*
X51855714Y64095714D01*
X51903333Y64000476D01*
X51998571Y63952857D01*
X52522380Y63952857D01*
X51855714Y63619523D02*
X51855714Y63238571D01*
X51522380Y63476666D02*
X52379523Y63476666D01*
X52474761Y63429047D01*
X52522380Y63333809D01*
X52522380Y63238571D01*
X52522380Y62905238D02*
X51522380Y62905238D01*
X52522380Y62476666D02*
X51998571Y62476666D01*
X51903333Y62524285D01*
X51855714Y62619523D01*
X51855714Y62762380D01*
X51903333Y62857619D01*
X51950952Y62905238D01*
X52474761Y61619523D02*
X52522380Y61714761D01*
X52522380Y61905238D01*
X52474761Y62000476D01*
X52379523Y62048095D01*
X51998571Y62048095D01*
X51903333Y62000476D01*
X51855714Y61905238D01*
X51855714Y61714761D01*
X51903333Y61619523D01*
X51998571Y61571904D01*
X52093809Y61571904D01*
X52189047Y62048095D01*
X52474761Y61190952D02*
X52522380Y61095714D01*
X52522380Y60905238D01*
X52474761Y60810000D01*
X52379523Y60762380D01*
X52331904Y60762380D01*
X52236666Y60810000D01*
X52189047Y60905238D01*
X52189047Y61048095D01*
X52141428Y61143333D01*
X52046190Y61190952D01*
X51998571Y61190952D01*
X51903333Y61143333D01*
X51855714Y61048095D01*
X51855714Y60905238D01*
X51903333Y60810000D01*
X52522380Y60333809D02*
X51855714Y60333809D01*
X51522380Y60333809D02*
X51570000Y60381428D01*
X51617619Y60333809D01*
X51570000Y60286190D01*
X51522380Y60333809D01*
X51617619Y60333809D01*
X51855714Y59952857D02*
X51855714Y59429047D01*
X52522380Y59952857D01*
X52522380Y59429047D01*
X52474761Y58667142D02*
X52522380Y58762380D01*
X52522380Y58952857D01*
X52474761Y59048095D01*
X52379523Y59095714D01*
X51998571Y59095714D01*
X51903333Y59048095D01*
X51855714Y58952857D01*
X51855714Y58762380D01*
X51903333Y58667142D01*
X51998571Y58619523D01*
X52093809Y58619523D01*
X52189047Y59095714D01*
X52522380Y58190952D02*
X51855714Y58190952D01*
X52046190Y58190952D02*
X51950952Y58143333D01*
X51903333Y58095714D01*
X51855714Y58000476D01*
X51855714Y57905238D01*
X52427142Y57571904D02*
X52474761Y57524285D01*
X52522380Y57571904D01*
X52474761Y57619523D01*
X52427142Y57571904D01*
X52522380Y57571904D01*
X52522380Y56667142D02*
X51522380Y56667142D01*
X52474761Y56667142D02*
X52522380Y56762380D01*
X52522380Y56952857D01*
X52474761Y57048095D01*
X52427142Y57095714D01*
X52331904Y57143333D01*
X52046190Y57143333D01*
X51950952Y57095714D01*
X51903333Y57048095D01*
X51855714Y56952857D01*
X51855714Y56762380D01*
X51903333Y56667142D01*
X52474761Y55810000D02*
X52522380Y55905238D01*
X52522380Y56095714D01*
X52474761Y56190952D01*
X52379523Y56238571D01*
X51998571Y56238571D01*
X51903333Y56190952D01*
X51855714Y56095714D01*
X51855714Y55905238D01*
X51903333Y55810000D01*
X51998571Y55762380D01*
X52093809Y55762380D01*
X52189047Y56238571D01*
%TO.C,R35*%
X52965285Y23768095D02*
X53231952Y24149047D01*
X53422428Y23768095D02*
X53422428Y24568095D01*
X53117666Y24568095D01*
X53041476Y24530000D01*
X53003380Y24491904D01*
X52965285Y24415714D01*
X52965285Y24301428D01*
X53003380Y24225238D01*
X53041476Y24187142D01*
X53117666Y24149047D01*
X53422428Y24149047D01*
X52698619Y24568095D02*
X52203380Y24568095D01*
X52470047Y24263333D01*
X52355761Y24263333D01*
X52279571Y24225238D01*
X52241476Y24187142D01*
X52203380Y24110952D01*
X52203380Y23920476D01*
X52241476Y23844285D01*
X52279571Y23806190D01*
X52355761Y23768095D01*
X52584333Y23768095D01*
X52660523Y23806190D01*
X52698619Y23844285D01*
X51479571Y24568095D02*
X51860523Y24568095D01*
X51898619Y24187142D01*
X51860523Y24225238D01*
X51784333Y24263333D01*
X51593857Y24263333D01*
X51517666Y24225238D01*
X51479571Y24187142D01*
X51441476Y24110952D01*
X51441476Y23920476D01*
X51479571Y23844285D01*
X51517666Y23806190D01*
X51593857Y23768095D01*
X51784333Y23768095D01*
X51860523Y23806190D01*
X51898619Y23844285D01*
%TO.C,R41*%
X53616904Y38614285D02*
X53235952Y38880952D01*
X53616904Y39071428D02*
X52816904Y39071428D01*
X52816904Y38766666D01*
X52855000Y38690476D01*
X52893095Y38652380D01*
X52969285Y38614285D01*
X53083571Y38614285D01*
X53159761Y38652380D01*
X53197857Y38690476D01*
X53235952Y38766666D01*
X53235952Y39071428D01*
X53083571Y37928571D02*
X53616904Y37928571D01*
X52778809Y38119047D02*
X53350238Y38309523D01*
X53350238Y37814285D01*
X53616904Y37090476D02*
X53616904Y37547619D01*
X53616904Y37319047D02*
X52816904Y37319047D01*
X52931190Y37395238D01*
X53007380Y37471428D01*
X53045476Y37547619D01*
%TO.C,R3*%
X30587904Y38233333D02*
X30206952Y38500000D01*
X30587904Y38690476D02*
X29787904Y38690476D01*
X29787904Y38385714D01*
X29826000Y38309523D01*
X29864095Y38271428D01*
X29940285Y38233333D01*
X30054571Y38233333D01*
X30130761Y38271428D01*
X30168857Y38309523D01*
X30206952Y38385714D01*
X30206952Y38690476D01*
X29787904Y37966666D02*
X29787904Y37471428D01*
X30092666Y37738095D01*
X30092666Y37623809D01*
X30130761Y37547619D01*
X30168857Y37509523D01*
X30245047Y37471428D01*
X30435523Y37471428D01*
X30511714Y37509523D01*
X30549809Y37547619D01*
X30587904Y37623809D01*
X30587904Y37852380D01*
X30549809Y37928571D01*
X30511714Y37966666D01*
%TO.C,R50*%
X36937904Y33534285D02*
X36556952Y33800952D01*
X36937904Y33991428D02*
X36137904Y33991428D01*
X36137904Y33686666D01*
X36176000Y33610476D01*
X36214095Y33572380D01*
X36290285Y33534285D01*
X36404571Y33534285D01*
X36480761Y33572380D01*
X36518857Y33610476D01*
X36556952Y33686666D01*
X36556952Y33991428D01*
X36137904Y32810476D02*
X36137904Y33191428D01*
X36518857Y33229523D01*
X36480761Y33191428D01*
X36442666Y33115238D01*
X36442666Y32924761D01*
X36480761Y32848571D01*
X36518857Y32810476D01*
X36595047Y32772380D01*
X36785523Y32772380D01*
X36861714Y32810476D01*
X36899809Y32848571D01*
X36937904Y32924761D01*
X36937904Y33115238D01*
X36899809Y33191428D01*
X36861714Y33229523D01*
X36137904Y32277142D02*
X36137904Y32200952D01*
X36176000Y32124761D01*
X36214095Y32086666D01*
X36290285Y32048571D01*
X36442666Y32010476D01*
X36633142Y32010476D01*
X36785523Y32048571D01*
X36861714Y32086666D01*
X36899809Y32124761D01*
X36937904Y32200952D01*
X36937904Y32277142D01*
X36899809Y32353333D01*
X36861714Y32391428D01*
X36785523Y32429523D01*
X36633142Y32467619D01*
X36442666Y32467619D01*
X36290285Y32429523D01*
X36214095Y32391428D01*
X36176000Y32353333D01*
X36137904Y32277142D01*
%TO.C,R6*%
X27285904Y38233333D02*
X26904952Y38500000D01*
X27285904Y38690476D02*
X26485904Y38690476D01*
X26485904Y38385714D01*
X26524000Y38309523D01*
X26562095Y38271428D01*
X26638285Y38233333D01*
X26752571Y38233333D01*
X26828761Y38271428D01*
X26866857Y38309523D01*
X26904952Y38385714D01*
X26904952Y38690476D01*
X26485904Y37547619D02*
X26485904Y37700000D01*
X26524000Y37776190D01*
X26562095Y37814285D01*
X26676380Y37890476D01*
X26828761Y37928571D01*
X27133523Y37928571D01*
X27209714Y37890476D01*
X27247809Y37852380D01*
X27285904Y37776190D01*
X27285904Y37623809D01*
X27247809Y37547619D01*
X27209714Y37509523D01*
X27133523Y37471428D01*
X26943047Y37471428D01*
X26866857Y37509523D01*
X26828761Y37547619D01*
X26790666Y37623809D01*
X26790666Y37776190D01*
X26828761Y37852380D01*
X26866857Y37890476D01*
X26943047Y37928571D01*
%TO.C,RV5*%
X31857904Y43021190D02*
X31476952Y43287857D01*
X31857904Y43478333D02*
X31057904Y43478333D01*
X31057904Y43173571D01*
X31096000Y43097380D01*
X31134095Y43059285D01*
X31210285Y43021190D01*
X31324571Y43021190D01*
X31400761Y43059285D01*
X31438857Y43097380D01*
X31476952Y43173571D01*
X31476952Y43478333D01*
X31057904Y42792619D02*
X31857904Y42525952D01*
X31057904Y42259285D01*
X31057904Y41611666D02*
X31057904Y41992619D01*
X31438857Y42030714D01*
X31400761Y41992619D01*
X31362666Y41916428D01*
X31362666Y41725952D01*
X31400761Y41649761D01*
X31438857Y41611666D01*
X31515047Y41573571D01*
X31705523Y41573571D01*
X31781714Y41611666D01*
X31819809Y41649761D01*
X31857904Y41725952D01*
X31857904Y41916428D01*
X31819809Y41992619D01*
X31781714Y42030714D01*
%TO.C,U5*%
X40487523Y6153095D02*
X40487523Y5505476D01*
X40449428Y5429285D01*
X40411333Y5391190D01*
X40335142Y5353095D01*
X40182761Y5353095D01*
X40106571Y5391190D01*
X40068476Y5429285D01*
X40030380Y5505476D01*
X40030380Y6153095D01*
X39268476Y6153095D02*
X39649428Y6153095D01*
X39687523Y5772142D01*
X39649428Y5810238D01*
X39573238Y5848333D01*
X39382761Y5848333D01*
X39306571Y5810238D01*
X39268476Y5772142D01*
X39230380Y5695952D01*
X39230380Y5505476D01*
X39268476Y5429285D01*
X39306571Y5391190D01*
X39382761Y5353095D01*
X39573238Y5353095D01*
X39649428Y5391190D01*
X39687523Y5429285D01*
%TO.C,R19*%
X47250285Y12338095D02*
X47516952Y12719047D01*
X47707428Y12338095D02*
X47707428Y13138095D01*
X47402666Y13138095D01*
X47326476Y13100000D01*
X47288380Y13061904D01*
X47250285Y12985714D01*
X47250285Y12871428D01*
X47288380Y12795238D01*
X47326476Y12757142D01*
X47402666Y12719047D01*
X47707428Y12719047D01*
X46488380Y12338095D02*
X46945523Y12338095D01*
X46716952Y12338095D02*
X46716952Y13138095D01*
X46793142Y13023809D01*
X46869333Y12947619D01*
X46945523Y12909523D01*
X46107428Y12338095D02*
X45955047Y12338095D01*
X45878857Y12376190D01*
X45840761Y12414285D01*
X45764571Y12528571D01*
X45726476Y12680952D01*
X45726476Y12985714D01*
X45764571Y13061904D01*
X45802666Y13100000D01*
X45878857Y13138095D01*
X46031238Y13138095D01*
X46107428Y13100000D01*
X46145523Y13061904D01*
X46183619Y12985714D01*
X46183619Y12795238D01*
X46145523Y12719047D01*
X46107428Y12680952D01*
X46031238Y12642857D01*
X45878857Y12642857D01*
X45802666Y12680952D01*
X45764571Y12719047D01*
X45726476Y12795238D01*
%TO.C,R52*%
X36937904Y38614285D02*
X36556952Y38880952D01*
X36937904Y39071428D02*
X36137904Y39071428D01*
X36137904Y38766666D01*
X36176000Y38690476D01*
X36214095Y38652380D01*
X36290285Y38614285D01*
X36404571Y38614285D01*
X36480761Y38652380D01*
X36518857Y38690476D01*
X36556952Y38766666D01*
X36556952Y39071428D01*
X36137904Y37890476D02*
X36137904Y38271428D01*
X36518857Y38309523D01*
X36480761Y38271428D01*
X36442666Y38195238D01*
X36442666Y38004761D01*
X36480761Y37928571D01*
X36518857Y37890476D01*
X36595047Y37852380D01*
X36785523Y37852380D01*
X36861714Y37890476D01*
X36899809Y37928571D01*
X36937904Y38004761D01*
X36937904Y38195238D01*
X36899809Y38271428D01*
X36861714Y38309523D01*
X36214095Y37547619D02*
X36176000Y37509523D01*
X36137904Y37433333D01*
X36137904Y37242857D01*
X36176000Y37166666D01*
X36214095Y37128571D01*
X36290285Y37090476D01*
X36366476Y37090476D01*
X36480761Y37128571D01*
X36937904Y37585714D01*
X36937904Y37090476D01*
%TO.C,R34*%
X37344285Y-3451904D02*
X37610952Y-3070952D01*
X37801428Y-3451904D02*
X37801428Y-2651904D01*
X37496666Y-2651904D01*
X37420476Y-2690000D01*
X37382380Y-2728095D01*
X37344285Y-2804285D01*
X37344285Y-2918571D01*
X37382380Y-2994761D01*
X37420476Y-3032857D01*
X37496666Y-3070952D01*
X37801428Y-3070952D01*
X37077619Y-2651904D02*
X36582380Y-2651904D01*
X36849047Y-2956666D01*
X36734761Y-2956666D01*
X36658571Y-2994761D01*
X36620476Y-3032857D01*
X36582380Y-3109047D01*
X36582380Y-3299523D01*
X36620476Y-3375714D01*
X36658571Y-3413809D01*
X36734761Y-3451904D01*
X36963333Y-3451904D01*
X37039523Y-3413809D01*
X37077619Y-3375714D01*
X35896666Y-2918571D02*
X35896666Y-3451904D01*
X36087142Y-2613809D02*
X36277619Y-3185238D01*
X35782380Y-3185238D01*
%TO.C,R49*%
X27031904Y30232285D02*
X26650952Y30498952D01*
X27031904Y30689428D02*
X26231904Y30689428D01*
X26231904Y30384666D01*
X26270000Y30308476D01*
X26308095Y30270380D01*
X26384285Y30232285D01*
X26498571Y30232285D01*
X26574761Y30270380D01*
X26612857Y30308476D01*
X26650952Y30384666D01*
X26650952Y30689428D01*
X26498571Y29546571D02*
X27031904Y29546571D01*
X26193809Y29737047D02*
X26765238Y29927523D01*
X26765238Y29432285D01*
X27031904Y29089428D02*
X27031904Y28937047D01*
X26993809Y28860857D01*
X26955714Y28822761D01*
X26841428Y28746571D01*
X26689047Y28708476D01*
X26384285Y28708476D01*
X26308095Y28746571D01*
X26270000Y28784666D01*
X26231904Y28860857D01*
X26231904Y29013238D01*
X26270000Y29089428D01*
X26308095Y29127523D01*
X26384285Y29165619D01*
X26574761Y29165619D01*
X26650952Y29127523D01*
X26689047Y29089428D01*
X26727142Y29013238D01*
X26727142Y28860857D01*
X26689047Y28784666D01*
X26650952Y28746571D01*
X26574761Y28708476D01*
%TO.C,C14*%
X50069714Y6229285D02*
X50107809Y6267380D01*
X50145904Y6381666D01*
X50145904Y6457857D01*
X50107809Y6572142D01*
X50031619Y6648333D01*
X49955428Y6686428D01*
X49803047Y6724523D01*
X49688761Y6724523D01*
X49536380Y6686428D01*
X49460190Y6648333D01*
X49384000Y6572142D01*
X49345904Y6457857D01*
X49345904Y6381666D01*
X49384000Y6267380D01*
X49422095Y6229285D01*
X50145904Y5467380D02*
X50145904Y5924523D01*
X50145904Y5695952D02*
X49345904Y5695952D01*
X49460190Y5772142D01*
X49536380Y5848333D01*
X49574476Y5924523D01*
X49612571Y4781666D02*
X50145904Y4781666D01*
X49307809Y4972142D02*
X49879238Y5162619D01*
X49879238Y4667380D01*
%TO.C,R23*%
X33788285Y12338095D02*
X34054952Y12719047D01*
X34245428Y12338095D02*
X34245428Y13138095D01*
X33940666Y13138095D01*
X33864476Y13100000D01*
X33826380Y13061904D01*
X33788285Y12985714D01*
X33788285Y12871428D01*
X33826380Y12795238D01*
X33864476Y12757142D01*
X33940666Y12719047D01*
X34245428Y12719047D01*
X33483523Y13061904D02*
X33445428Y13100000D01*
X33369238Y13138095D01*
X33178761Y13138095D01*
X33102571Y13100000D01*
X33064476Y13061904D01*
X33026380Y12985714D01*
X33026380Y12909523D01*
X33064476Y12795238D01*
X33521619Y12338095D01*
X33026380Y12338095D01*
X32759714Y13138095D02*
X32264476Y13138095D01*
X32531142Y12833333D01*
X32416857Y12833333D01*
X32340666Y12795238D01*
X32302571Y12757142D01*
X32264476Y12680952D01*
X32264476Y12490476D01*
X32302571Y12414285D01*
X32340666Y12376190D01*
X32416857Y12338095D01*
X32645428Y12338095D01*
X32721619Y12376190D01*
X32759714Y12414285D01*
%TO.C,R33*%
X47186785Y-1631904D02*
X47453452Y-1250952D01*
X47643928Y-1631904D02*
X47643928Y-831904D01*
X47339166Y-831904D01*
X47262976Y-870000D01*
X47224880Y-908095D01*
X47186785Y-984285D01*
X47186785Y-1098571D01*
X47224880Y-1174761D01*
X47262976Y-1212857D01*
X47339166Y-1250952D01*
X47643928Y-1250952D01*
X46920119Y-831904D02*
X46424880Y-831904D01*
X46691547Y-1136666D01*
X46577261Y-1136666D01*
X46501071Y-1174761D01*
X46462976Y-1212857D01*
X46424880Y-1289047D01*
X46424880Y-1479523D01*
X46462976Y-1555714D01*
X46501071Y-1593809D01*
X46577261Y-1631904D01*
X46805833Y-1631904D01*
X46882023Y-1593809D01*
X46920119Y-1555714D01*
X46158214Y-831904D02*
X45662976Y-831904D01*
X45929642Y-1136666D01*
X45815357Y-1136666D01*
X45739166Y-1174761D01*
X45701071Y-1212857D01*
X45662976Y-1289047D01*
X45662976Y-1479523D01*
X45701071Y-1555714D01*
X45739166Y-1593809D01*
X45815357Y-1631904D01*
X46043928Y-1631904D01*
X46120119Y-1593809D01*
X46158214Y-1555714D01*
%TO.C,U7*%
X40614523Y18218095D02*
X40614523Y17570476D01*
X40576428Y17494285D01*
X40538333Y17456190D01*
X40462142Y17418095D01*
X40309761Y17418095D01*
X40233571Y17456190D01*
X40195476Y17494285D01*
X40157380Y17570476D01*
X40157380Y18218095D01*
X39852619Y18218095D02*
X39319285Y18218095D01*
X39662142Y17418095D01*
%TO.C,R37*%
X46970904Y38614285D02*
X46589952Y38880952D01*
X46970904Y39071428D02*
X46170904Y39071428D01*
X46170904Y38766666D01*
X46209000Y38690476D01*
X46247095Y38652380D01*
X46323285Y38614285D01*
X46437571Y38614285D01*
X46513761Y38652380D01*
X46551857Y38690476D01*
X46589952Y38766666D01*
X46589952Y39071428D01*
X46170904Y38347619D02*
X46170904Y37852380D01*
X46475666Y38119047D01*
X46475666Y38004761D01*
X46513761Y37928571D01*
X46551857Y37890476D01*
X46628047Y37852380D01*
X46818523Y37852380D01*
X46894714Y37890476D01*
X46932809Y37928571D01*
X46970904Y38004761D01*
X46970904Y38233333D01*
X46932809Y38309523D01*
X46894714Y38347619D01*
X46170904Y37585714D02*
X46170904Y37052380D01*
X46970904Y37395238D01*
%TO.C,R47*%
X27438285Y20593095D02*
X27704952Y20974047D01*
X27895428Y20593095D02*
X27895428Y21393095D01*
X27590666Y21393095D01*
X27514476Y21355000D01*
X27476380Y21316904D01*
X27438285Y21240714D01*
X27438285Y21126428D01*
X27476380Y21050238D01*
X27514476Y21012142D01*
X27590666Y20974047D01*
X27895428Y20974047D01*
X26752571Y21126428D02*
X26752571Y20593095D01*
X26943047Y21431190D02*
X27133523Y20859761D01*
X26638285Y20859761D01*
X26409714Y21393095D02*
X25876380Y21393095D01*
X26219238Y20593095D01*
%TO.C,R32*%
X43694285Y-6457904D02*
X43960952Y-6076952D01*
X44151428Y-6457904D02*
X44151428Y-5657904D01*
X43846666Y-5657904D01*
X43770476Y-5696000D01*
X43732380Y-5734095D01*
X43694285Y-5810285D01*
X43694285Y-5924571D01*
X43732380Y-6000761D01*
X43770476Y-6038857D01*
X43846666Y-6076952D01*
X44151428Y-6076952D01*
X43427619Y-5657904D02*
X42932380Y-5657904D01*
X43199047Y-5962666D01*
X43084761Y-5962666D01*
X43008571Y-6000761D01*
X42970476Y-6038857D01*
X42932380Y-6115047D01*
X42932380Y-6305523D01*
X42970476Y-6381714D01*
X43008571Y-6419809D01*
X43084761Y-6457904D01*
X43313333Y-6457904D01*
X43389523Y-6419809D01*
X43427619Y-6381714D01*
X42627619Y-5734095D02*
X42589523Y-5696000D01*
X42513333Y-5657904D01*
X42322857Y-5657904D01*
X42246666Y-5696000D01*
X42208571Y-5734095D01*
X42170476Y-5810285D01*
X42170476Y-5886476D01*
X42208571Y-6000761D01*
X42665714Y-6457904D01*
X42170476Y-6457904D01*
%TO.C,R48*%
X35185285Y23768095D02*
X35451952Y24149047D01*
X35642428Y23768095D02*
X35642428Y24568095D01*
X35337666Y24568095D01*
X35261476Y24530000D01*
X35223380Y24491904D01*
X35185285Y24415714D01*
X35185285Y24301428D01*
X35223380Y24225238D01*
X35261476Y24187142D01*
X35337666Y24149047D01*
X35642428Y24149047D01*
X34499571Y24301428D02*
X34499571Y23768095D01*
X34690047Y24606190D02*
X34880523Y24034761D01*
X34385285Y24034761D01*
X33966238Y24225238D02*
X34042428Y24263333D01*
X34080523Y24301428D01*
X34118619Y24377619D01*
X34118619Y24415714D01*
X34080523Y24491904D01*
X34042428Y24530000D01*
X33966238Y24568095D01*
X33813857Y24568095D01*
X33737666Y24530000D01*
X33699571Y24491904D01*
X33661476Y24415714D01*
X33661476Y24377619D01*
X33699571Y24301428D01*
X33737666Y24263333D01*
X33813857Y24225238D01*
X33966238Y24225238D01*
X34042428Y24187142D01*
X34080523Y24149047D01*
X34118619Y24072857D01*
X34118619Y23920476D01*
X34080523Y23844285D01*
X34042428Y23806190D01*
X33966238Y23768095D01*
X33813857Y23768095D01*
X33737666Y23806190D01*
X33699571Y23844285D01*
X33661476Y23920476D01*
X33661476Y24072857D01*
X33699571Y24149047D01*
X33737666Y24187142D01*
X33813857Y24225238D01*
%TO.C,R24*%
X43160904Y42424285D02*
X42779952Y42690952D01*
X43160904Y42881428D02*
X42360904Y42881428D01*
X42360904Y42576666D01*
X42399000Y42500476D01*
X42437095Y42462380D01*
X42513285Y42424285D01*
X42627571Y42424285D01*
X42703761Y42462380D01*
X42741857Y42500476D01*
X42779952Y42576666D01*
X42779952Y42881428D01*
X42437095Y42119523D02*
X42399000Y42081428D01*
X42360904Y42005238D01*
X42360904Y41814761D01*
X42399000Y41738571D01*
X42437095Y41700476D01*
X42513285Y41662380D01*
X42589476Y41662380D01*
X42703761Y41700476D01*
X43160904Y42157619D01*
X43160904Y41662380D01*
X42627571Y40976666D02*
X43160904Y40976666D01*
X42322809Y41167142D02*
X42894238Y41357619D01*
X42894238Y40862380D01*
%TO.C,R28*%
X28454285Y52089095D02*
X28720952Y52470047D01*
X28911428Y52089095D02*
X28911428Y52889095D01*
X28606666Y52889095D01*
X28530476Y52851000D01*
X28492380Y52812904D01*
X28454285Y52736714D01*
X28454285Y52622428D01*
X28492380Y52546238D01*
X28530476Y52508142D01*
X28606666Y52470047D01*
X28911428Y52470047D01*
X28149523Y52812904D02*
X28111428Y52851000D01*
X28035238Y52889095D01*
X27844761Y52889095D01*
X27768571Y52851000D01*
X27730476Y52812904D01*
X27692380Y52736714D01*
X27692380Y52660523D01*
X27730476Y52546238D01*
X28187619Y52089095D01*
X27692380Y52089095D01*
X27235238Y52546238D02*
X27311428Y52584333D01*
X27349523Y52622428D01*
X27387619Y52698619D01*
X27387619Y52736714D01*
X27349523Y52812904D01*
X27311428Y52851000D01*
X27235238Y52889095D01*
X27082857Y52889095D01*
X27006666Y52851000D01*
X26968571Y52812904D01*
X26930476Y52736714D01*
X26930476Y52698619D01*
X26968571Y52622428D01*
X27006666Y52584333D01*
X27082857Y52546238D01*
X27235238Y52546238D01*
X27311428Y52508142D01*
X27349523Y52470047D01*
X27387619Y52393857D01*
X27387619Y52241476D01*
X27349523Y52165285D01*
X27311428Y52127190D01*
X27235238Y52089095D01*
X27082857Y52089095D01*
X27006666Y52127190D01*
X26968571Y52165285D01*
X26930476Y52241476D01*
X26930476Y52393857D01*
X26968571Y52470047D01*
X27006666Y52508142D01*
X27082857Y52546238D01*
%TO.C,R29*%
X48520285Y53613095D02*
X48786952Y53994047D01*
X48977428Y53613095D02*
X48977428Y54413095D01*
X48672666Y54413095D01*
X48596476Y54375000D01*
X48558380Y54336904D01*
X48520285Y54260714D01*
X48520285Y54146428D01*
X48558380Y54070238D01*
X48596476Y54032142D01*
X48672666Y53994047D01*
X48977428Y53994047D01*
X48215523Y54336904D02*
X48177428Y54375000D01*
X48101238Y54413095D01*
X47910761Y54413095D01*
X47834571Y54375000D01*
X47796476Y54336904D01*
X47758380Y54260714D01*
X47758380Y54184523D01*
X47796476Y54070238D01*
X48253619Y53613095D01*
X47758380Y53613095D01*
X47377428Y53613095D02*
X47225047Y53613095D01*
X47148857Y53651190D01*
X47110761Y53689285D01*
X47034571Y53803571D01*
X46996476Y53955952D01*
X46996476Y54260714D01*
X47034571Y54336904D01*
X47072666Y54375000D01*
X47148857Y54413095D01*
X47301238Y54413095D01*
X47377428Y54375000D01*
X47415523Y54336904D01*
X47453619Y54260714D01*
X47453619Y54070238D01*
X47415523Y53994047D01*
X47377428Y53955952D01*
X47301238Y53917857D01*
X47148857Y53917857D01*
X47072666Y53955952D01*
X47034571Y53994047D01*
X46996476Y54070238D01*
%TO.C,R16*%
X52266785Y-2986904D02*
X52533452Y-2605952D01*
X52723928Y-2986904D02*
X52723928Y-2186904D01*
X52419166Y-2186904D01*
X52342976Y-2225000D01*
X52304880Y-2263095D01*
X52266785Y-2339285D01*
X52266785Y-2453571D01*
X52304880Y-2529761D01*
X52342976Y-2567857D01*
X52419166Y-2605952D01*
X52723928Y-2605952D01*
X51504880Y-2986904D02*
X51962023Y-2986904D01*
X51733452Y-2986904D02*
X51733452Y-2186904D01*
X51809642Y-2301190D01*
X51885833Y-2377380D01*
X51962023Y-2415476D01*
X50819166Y-2186904D02*
X50971547Y-2186904D01*
X51047738Y-2225000D01*
X51085833Y-2263095D01*
X51162023Y-2377380D01*
X51200119Y-2529761D01*
X51200119Y-2834523D01*
X51162023Y-2910714D01*
X51123928Y-2948809D01*
X51047738Y-2986904D01*
X50895357Y-2986904D01*
X50819166Y-2948809D01*
X50781071Y-2910714D01*
X50742976Y-2834523D01*
X50742976Y-2644047D01*
X50781071Y-2567857D01*
X50819166Y-2529761D01*
X50895357Y-2491666D01*
X51047738Y-2491666D01*
X51123928Y-2529761D01*
X51162023Y-2567857D01*
X51200119Y-2644047D01*
%TO.C,C9*%
X33153333Y7279285D02*
X33191428Y7241190D01*
X33305714Y7203095D01*
X33381904Y7203095D01*
X33496190Y7241190D01*
X33572380Y7317380D01*
X33610476Y7393571D01*
X33648571Y7545952D01*
X33648571Y7660238D01*
X33610476Y7812619D01*
X33572380Y7888809D01*
X33496190Y7965000D01*
X33381904Y8003095D01*
X33305714Y8003095D01*
X33191428Y7965000D01*
X33153333Y7926904D01*
X32772380Y7203095D02*
X32620000Y7203095D01*
X32543809Y7241190D01*
X32505714Y7279285D01*
X32429523Y7393571D01*
X32391428Y7545952D01*
X32391428Y7850714D01*
X32429523Y7926904D01*
X32467619Y7965000D01*
X32543809Y8003095D01*
X32696190Y8003095D01*
X32772380Y7965000D01*
X32810476Y7926904D01*
X32848571Y7850714D01*
X32848571Y7660238D01*
X32810476Y7584047D01*
X32772380Y7545952D01*
X32696190Y7507857D01*
X32543809Y7507857D01*
X32467619Y7545952D01*
X32429523Y7584047D01*
X32391428Y7660238D01*
%TO.C,D5*%
X50340057Y38675714D02*
X49560057Y38675714D01*
X49560057Y38490000D01*
X49597200Y38378571D01*
X49671485Y38304285D01*
X49745771Y38267142D01*
X49894342Y38230000D01*
X50005771Y38230000D01*
X50154342Y38267142D01*
X50228628Y38304285D01*
X50302914Y38378571D01*
X50340057Y38490000D01*
X50340057Y38675714D01*
X49560057Y37524285D02*
X49560057Y37895714D01*
X49931485Y37932857D01*
X49894342Y37895714D01*
X49857200Y37821428D01*
X49857200Y37635714D01*
X49894342Y37561428D01*
X49931485Y37524285D01*
X50005771Y37487142D01*
X50191485Y37487142D01*
X50265771Y37524285D01*
X50302914Y37561428D01*
X50340057Y37635714D01*
X50340057Y37821428D01*
X50302914Y37895714D01*
X50265771Y37932857D01*
%TO.C,R40*%
X43922904Y33534285D02*
X43541952Y33800952D01*
X43922904Y33991428D02*
X43122904Y33991428D01*
X43122904Y33686666D01*
X43161000Y33610476D01*
X43199095Y33572380D01*
X43275285Y33534285D01*
X43389571Y33534285D01*
X43465761Y33572380D01*
X43503857Y33610476D01*
X43541952Y33686666D01*
X43541952Y33991428D01*
X43389571Y32848571D02*
X43922904Y32848571D01*
X43084809Y33039047D02*
X43656238Y33229523D01*
X43656238Y32734285D01*
X43122904Y32277142D02*
X43122904Y32200952D01*
X43161000Y32124761D01*
X43199095Y32086666D01*
X43275285Y32048571D01*
X43427666Y32010476D01*
X43618142Y32010476D01*
X43770523Y32048571D01*
X43846714Y32086666D01*
X43884809Y32124761D01*
X43922904Y32200952D01*
X43922904Y32277142D01*
X43884809Y32353333D01*
X43846714Y32391428D01*
X43770523Y32429523D01*
X43618142Y32467619D01*
X43427666Y32467619D01*
X43275285Y32429523D01*
X43199095Y32391428D01*
X43161000Y32353333D01*
X43122904Y32277142D01*
%TO.C,R38*%
X53701904Y29343285D02*
X53320952Y29609952D01*
X53701904Y29800428D02*
X52901904Y29800428D01*
X52901904Y29495666D01*
X52940000Y29419476D01*
X52978095Y29381380D01*
X53054285Y29343285D01*
X53168571Y29343285D01*
X53244761Y29381380D01*
X53282857Y29419476D01*
X53320952Y29495666D01*
X53320952Y29800428D01*
X52901904Y29076619D02*
X52901904Y28581380D01*
X53206666Y28848047D01*
X53206666Y28733761D01*
X53244761Y28657571D01*
X53282857Y28619476D01*
X53359047Y28581380D01*
X53549523Y28581380D01*
X53625714Y28619476D01*
X53663809Y28657571D01*
X53701904Y28733761D01*
X53701904Y28962333D01*
X53663809Y29038523D01*
X53625714Y29076619D01*
X53244761Y28124238D02*
X53206666Y28200428D01*
X53168571Y28238523D01*
X53092380Y28276619D01*
X53054285Y28276619D01*
X52978095Y28238523D01*
X52940000Y28200428D01*
X52901904Y28124238D01*
X52901904Y27971857D01*
X52940000Y27895666D01*
X52978095Y27857571D01*
X53054285Y27819476D01*
X53092380Y27819476D01*
X53168571Y27857571D01*
X53206666Y27895666D01*
X53244761Y27971857D01*
X53244761Y28124238D01*
X53282857Y28200428D01*
X53320952Y28238523D01*
X53397142Y28276619D01*
X53549523Y28276619D01*
X53625714Y28238523D01*
X53663809Y28200428D01*
X53701904Y28124238D01*
X53701904Y27971857D01*
X53663809Y27895666D01*
X53625714Y27857571D01*
X53549523Y27819476D01*
X53397142Y27819476D01*
X53320952Y27857571D01*
X53282857Y27895666D01*
X53244761Y27971857D01*
%TO.C,RV3*%
X52546190Y15894095D02*
X52812857Y16275047D01*
X53003333Y15894095D02*
X53003333Y16694095D01*
X52698571Y16694095D01*
X52622380Y16656000D01*
X52584285Y16617904D01*
X52546190Y16541714D01*
X52546190Y16427428D01*
X52584285Y16351238D01*
X52622380Y16313142D01*
X52698571Y16275047D01*
X53003333Y16275047D01*
X52317619Y16694095D02*
X52050952Y15894095D01*
X51784285Y16694095D01*
X51593809Y16694095D02*
X51098571Y16694095D01*
X51365238Y16389333D01*
X51250952Y16389333D01*
X51174761Y16351238D01*
X51136666Y16313142D01*
X51098571Y16236952D01*
X51098571Y16046476D01*
X51136666Y15970285D01*
X51174761Y15932190D01*
X51250952Y15894095D01*
X51479523Y15894095D01*
X51555714Y15932190D01*
X51593809Y15970285D01*
%TO.C,R46*%
X33762904Y38614285D02*
X33381952Y38880952D01*
X33762904Y39071428D02*
X32962904Y39071428D01*
X32962904Y38766666D01*
X33001000Y38690476D01*
X33039095Y38652380D01*
X33115285Y38614285D01*
X33229571Y38614285D01*
X33305761Y38652380D01*
X33343857Y38690476D01*
X33381952Y38766666D01*
X33381952Y39071428D01*
X33229571Y37928571D02*
X33762904Y37928571D01*
X32924809Y38119047D02*
X33496238Y38309523D01*
X33496238Y37814285D01*
X32962904Y37166666D02*
X32962904Y37319047D01*
X33001000Y37395238D01*
X33039095Y37433333D01*
X33153380Y37509523D01*
X33305761Y37547619D01*
X33610523Y37547619D01*
X33686714Y37509523D01*
X33724809Y37471428D01*
X33762904Y37395238D01*
X33762904Y37242857D01*
X33724809Y37166666D01*
X33686714Y37128571D01*
X33610523Y37090476D01*
X33420047Y37090476D01*
X33343857Y37128571D01*
X33305761Y37166666D01*
X33267666Y37242857D01*
X33267666Y37395238D01*
X33305761Y37471428D01*
X33343857Y37509523D01*
X33420047Y37547619D01*
%TO.C,C6*%
X34423333Y14573285D02*
X34461428Y14535190D01*
X34575714Y14497095D01*
X34651904Y14497095D01*
X34766190Y14535190D01*
X34842380Y14611380D01*
X34880476Y14687571D01*
X34918571Y14839952D01*
X34918571Y14954238D01*
X34880476Y15106619D01*
X34842380Y15182809D01*
X34766190Y15259000D01*
X34651904Y15297095D01*
X34575714Y15297095D01*
X34461428Y15259000D01*
X34423333Y15220904D01*
X33737619Y15297095D02*
X33890000Y15297095D01*
X33966190Y15259000D01*
X34004285Y15220904D01*
X34080476Y15106619D01*
X34118571Y14954238D01*
X34118571Y14649476D01*
X34080476Y14573285D01*
X34042380Y14535190D01*
X33966190Y14497095D01*
X33813809Y14497095D01*
X33737619Y14535190D01*
X33699523Y14573285D01*
X33661428Y14649476D01*
X33661428Y14839952D01*
X33699523Y14916142D01*
X33737619Y14954238D01*
X33813809Y14992333D01*
X33966190Y14992333D01*
X34042380Y14954238D01*
X34080476Y14916142D01*
X34118571Y14839952D01*
%TO.C,R26*%
X44557904Y46234285D02*
X44176952Y46500952D01*
X44557904Y46691428D02*
X43757904Y46691428D01*
X43757904Y46386666D01*
X43796000Y46310476D01*
X43834095Y46272380D01*
X43910285Y46234285D01*
X44024571Y46234285D01*
X44100761Y46272380D01*
X44138857Y46310476D01*
X44176952Y46386666D01*
X44176952Y46691428D01*
X43834095Y45929523D02*
X43796000Y45891428D01*
X43757904Y45815238D01*
X43757904Y45624761D01*
X43796000Y45548571D01*
X43834095Y45510476D01*
X43910285Y45472380D01*
X43986476Y45472380D01*
X44100761Y45510476D01*
X44557904Y45967619D01*
X44557904Y45472380D01*
X43757904Y44786666D02*
X43757904Y44939047D01*
X43796000Y45015238D01*
X43834095Y45053333D01*
X43948380Y45129523D01*
X44100761Y45167619D01*
X44405523Y45167619D01*
X44481714Y45129523D01*
X44519809Y45091428D01*
X44557904Y45015238D01*
X44557904Y44862857D01*
X44519809Y44786666D01*
X44481714Y44748571D01*
X44405523Y44710476D01*
X44215047Y44710476D01*
X44138857Y44748571D01*
X44100761Y44786666D01*
X44062666Y44862857D01*
X44062666Y45015238D01*
X44100761Y45091428D01*
X44138857Y45129523D01*
X44215047Y45167619D01*
%TO.C,U3*%
X40614523Y48063095D02*
X40614523Y47415476D01*
X40576428Y47339285D01*
X40538333Y47301190D01*
X40462142Y47263095D01*
X40309761Y47263095D01*
X40233571Y47301190D01*
X40195476Y47339285D01*
X40157380Y47415476D01*
X40157380Y48063095D01*
X39852619Y48063095D02*
X39357380Y48063095D01*
X39624047Y47758333D01*
X39509761Y47758333D01*
X39433571Y47720238D01*
X39395476Y47682142D01*
X39357380Y47605952D01*
X39357380Y47415476D01*
X39395476Y47339285D01*
X39433571Y47301190D01*
X39509761Y47263095D01*
X39738333Y47263095D01*
X39814523Y47301190D01*
X39852619Y47339285D01*
%TO.C,R21*%
X47986904Y50044285D02*
X47605952Y50310952D01*
X47986904Y50501428D02*
X47186904Y50501428D01*
X47186904Y50196666D01*
X47225000Y50120476D01*
X47263095Y50082380D01*
X47339285Y50044285D01*
X47453571Y50044285D01*
X47529761Y50082380D01*
X47567857Y50120476D01*
X47605952Y50196666D01*
X47605952Y50501428D01*
X47263095Y49739523D02*
X47225000Y49701428D01*
X47186904Y49625238D01*
X47186904Y49434761D01*
X47225000Y49358571D01*
X47263095Y49320476D01*
X47339285Y49282380D01*
X47415476Y49282380D01*
X47529761Y49320476D01*
X47986904Y49777619D01*
X47986904Y49282380D01*
X47986904Y48520476D02*
X47986904Y48977619D01*
X47986904Y48749047D02*
X47186904Y48749047D01*
X47301190Y48825238D01*
X47377380Y48901428D01*
X47415476Y48977619D01*
%TO.C,R36*%
X43922904Y38614285D02*
X43541952Y38880952D01*
X43922904Y39071428D02*
X43122904Y39071428D01*
X43122904Y38766666D01*
X43161000Y38690476D01*
X43199095Y38652380D01*
X43275285Y38614285D01*
X43389571Y38614285D01*
X43465761Y38652380D01*
X43503857Y38690476D01*
X43541952Y38766666D01*
X43541952Y39071428D01*
X43122904Y38347619D02*
X43122904Y37852380D01*
X43427666Y38119047D01*
X43427666Y38004761D01*
X43465761Y37928571D01*
X43503857Y37890476D01*
X43580047Y37852380D01*
X43770523Y37852380D01*
X43846714Y37890476D01*
X43884809Y37928571D01*
X43922904Y38004761D01*
X43922904Y38233333D01*
X43884809Y38309523D01*
X43846714Y38347619D01*
X43122904Y37166666D02*
X43122904Y37319047D01*
X43161000Y37395238D01*
X43199095Y37433333D01*
X43313380Y37509523D01*
X43465761Y37547619D01*
X43770523Y37547619D01*
X43846714Y37509523D01*
X43884809Y37471428D01*
X43922904Y37395238D01*
X43922904Y37242857D01*
X43884809Y37166666D01*
X43846714Y37128571D01*
X43770523Y37090476D01*
X43580047Y37090476D01*
X43503857Y37128571D01*
X43465761Y37166666D01*
X43427666Y37242857D01*
X43427666Y37395238D01*
X43465761Y37471428D01*
X43503857Y37509523D01*
X43580047Y37547619D01*
%TO.C,R15*%
X36302904Y44329285D02*
X35921952Y44595952D01*
X36302904Y44786428D02*
X35502904Y44786428D01*
X35502904Y44481666D01*
X35541000Y44405476D01*
X35579095Y44367380D01*
X35655285Y44329285D01*
X35769571Y44329285D01*
X35845761Y44367380D01*
X35883857Y44405476D01*
X35921952Y44481666D01*
X35921952Y44786428D01*
X36302904Y43567380D02*
X36302904Y44024523D01*
X36302904Y43795952D02*
X35502904Y43795952D01*
X35617190Y43872142D01*
X35693380Y43948333D01*
X35731476Y44024523D01*
X35502904Y42843571D02*
X35502904Y43224523D01*
X35883857Y43262619D01*
X35845761Y43224523D01*
X35807666Y43148333D01*
X35807666Y42957857D01*
X35845761Y42881666D01*
X35883857Y42843571D01*
X35960047Y42805476D01*
X36150523Y42805476D01*
X36226714Y42843571D01*
X36264809Y42881666D01*
X36302904Y42957857D01*
X36302904Y43148333D01*
X36264809Y43224523D01*
X36226714Y43262619D01*
%TO.C,RV4*%
X41878190Y24022095D02*
X42144857Y24403047D01*
X42335333Y24022095D02*
X42335333Y24822095D01*
X42030571Y24822095D01*
X41954380Y24784000D01*
X41916285Y24745904D01*
X41878190Y24669714D01*
X41878190Y24555428D01*
X41916285Y24479238D01*
X41954380Y24441142D01*
X42030571Y24403047D01*
X42335333Y24403047D01*
X41649619Y24822095D02*
X41382952Y24022095D01*
X41116285Y24822095D01*
X40506761Y24555428D02*
X40506761Y24022095D01*
X40697238Y24860190D02*
X40887714Y24288761D01*
X40392476Y24288761D01*
%TO.C,R51*%
X38614285Y24657095D02*
X38880952Y25038047D01*
X39071428Y24657095D02*
X39071428Y25457095D01*
X38766666Y25457095D01*
X38690476Y25419000D01*
X38652380Y25380904D01*
X38614285Y25304714D01*
X38614285Y25190428D01*
X38652380Y25114238D01*
X38690476Y25076142D01*
X38766666Y25038047D01*
X39071428Y25038047D01*
X37890476Y25457095D02*
X38271428Y25457095D01*
X38309523Y25076142D01*
X38271428Y25114238D01*
X38195238Y25152333D01*
X38004761Y25152333D01*
X37928571Y25114238D01*
X37890476Y25076142D01*
X37852380Y24999952D01*
X37852380Y24809476D01*
X37890476Y24733285D01*
X37928571Y24695190D01*
X38004761Y24657095D01*
X38195238Y24657095D01*
X38271428Y24695190D01*
X38309523Y24733285D01*
X37090476Y24657095D02*
X37547619Y24657095D01*
X37319047Y24657095D02*
X37319047Y25457095D01*
X37395238Y25342809D01*
X37471428Y25266619D01*
X37547619Y25228523D01*
%TO.C,R27*%
X48621904Y16643285D02*
X48240952Y16909952D01*
X48621904Y17100428D02*
X47821904Y17100428D01*
X47821904Y16795666D01*
X47860000Y16719476D01*
X47898095Y16681380D01*
X47974285Y16643285D01*
X48088571Y16643285D01*
X48164761Y16681380D01*
X48202857Y16719476D01*
X48240952Y16795666D01*
X48240952Y17100428D01*
X47898095Y16338523D02*
X47860000Y16300428D01*
X47821904Y16224238D01*
X47821904Y16033761D01*
X47860000Y15957571D01*
X47898095Y15919476D01*
X47974285Y15881380D01*
X48050476Y15881380D01*
X48164761Y15919476D01*
X48621904Y16376619D01*
X48621904Y15881380D01*
X47821904Y15614714D02*
X47821904Y15081380D01*
X48621904Y15424238D01*
%TO.C,R43*%
X47631285Y43707095D02*
X47897952Y44088047D01*
X48088428Y43707095D02*
X48088428Y44507095D01*
X47783666Y44507095D01*
X47707476Y44469000D01*
X47669380Y44430904D01*
X47631285Y44354714D01*
X47631285Y44240428D01*
X47669380Y44164238D01*
X47707476Y44126142D01*
X47783666Y44088047D01*
X48088428Y44088047D01*
X46945571Y44240428D02*
X46945571Y43707095D01*
X47136047Y44545190D02*
X47326523Y43973761D01*
X46831285Y43973761D01*
X46602714Y44507095D02*
X46107476Y44507095D01*
X46374142Y44202333D01*
X46259857Y44202333D01*
X46183666Y44164238D01*
X46145571Y44126142D01*
X46107476Y44049952D01*
X46107476Y43859476D01*
X46145571Y43783285D01*
X46183666Y43745190D01*
X46259857Y43707095D01*
X46488428Y43707095D01*
X46564619Y43745190D01*
X46602714Y43783285D01*
%TO.C,R39*%
X52584285Y43707095D02*
X52850952Y44088047D01*
X53041428Y43707095D02*
X53041428Y44507095D01*
X52736666Y44507095D01*
X52660476Y44469000D01*
X52622380Y44430904D01*
X52584285Y44354714D01*
X52584285Y44240428D01*
X52622380Y44164238D01*
X52660476Y44126142D01*
X52736666Y44088047D01*
X53041428Y44088047D01*
X52317619Y44507095D02*
X51822380Y44507095D01*
X52089047Y44202333D01*
X51974761Y44202333D01*
X51898571Y44164238D01*
X51860476Y44126142D01*
X51822380Y44049952D01*
X51822380Y43859476D01*
X51860476Y43783285D01*
X51898571Y43745190D01*
X51974761Y43707095D01*
X52203333Y43707095D01*
X52279523Y43745190D01*
X52317619Y43783285D01*
X51441428Y43707095D02*
X51289047Y43707095D01*
X51212857Y43745190D01*
X51174761Y43783285D01*
X51098571Y43897571D01*
X51060476Y44049952D01*
X51060476Y44354714D01*
X51098571Y44430904D01*
X51136666Y44469000D01*
X51212857Y44507095D01*
X51365238Y44507095D01*
X51441428Y44469000D01*
X51479523Y44430904D01*
X51517619Y44354714D01*
X51517619Y44164238D01*
X51479523Y44088047D01*
X51441428Y44049952D01*
X51365238Y44011857D01*
X51212857Y44011857D01*
X51136666Y44049952D01*
X51098571Y44088047D01*
X51060476Y44164238D01*
%TO.C,C11*%
X52584285Y47284285D02*
X52622380Y47246190D01*
X52736666Y47208095D01*
X52812857Y47208095D01*
X52927142Y47246190D01*
X53003333Y47322380D01*
X53041428Y47398571D01*
X53079523Y47550952D01*
X53079523Y47665238D01*
X53041428Y47817619D01*
X53003333Y47893809D01*
X52927142Y47970000D01*
X52812857Y48008095D01*
X52736666Y48008095D01*
X52622380Y47970000D01*
X52584285Y47931904D01*
X51822380Y47208095D02*
X52279523Y47208095D01*
X52050952Y47208095D02*
X52050952Y48008095D01*
X52127142Y47893809D01*
X52203333Y47817619D01*
X52279523Y47779523D01*
X51060476Y47208095D02*
X51517619Y47208095D01*
X51289047Y47208095D02*
X51289047Y48008095D01*
X51365238Y47893809D01*
X51441428Y47817619D01*
X51517619Y47779523D01*
%TO.C,J11*%
X40652619Y81464095D02*
X40652619Y80892666D01*
X40690714Y80778380D01*
X40766904Y80702190D01*
X40881190Y80664095D01*
X40957380Y80664095D01*
X39852619Y80664095D02*
X40309761Y80664095D01*
X40081190Y80664095D02*
X40081190Y81464095D01*
X40157380Y81349809D01*
X40233571Y81273619D01*
X40309761Y81235523D01*
X39090714Y80664095D02*
X39547857Y80664095D01*
X39319285Y80664095D02*
X39319285Y81464095D01*
X39395476Y81349809D01*
X39471666Y81273619D01*
X39547857Y81235523D01*
%TO.C,RV1*%
X31857904Y46831190D02*
X31476952Y47097857D01*
X31857904Y47288333D02*
X31057904Y47288333D01*
X31057904Y46983571D01*
X31096000Y46907380D01*
X31134095Y46869285D01*
X31210285Y46831190D01*
X31324571Y46831190D01*
X31400761Y46869285D01*
X31438857Y46907380D01*
X31476952Y46983571D01*
X31476952Y47288333D01*
X31057904Y46602619D02*
X31857904Y46335952D01*
X31057904Y46069285D01*
X31857904Y45383571D02*
X31857904Y45840714D01*
X31857904Y45612142D02*
X31057904Y45612142D01*
X31172190Y45688333D01*
X31248380Y45764523D01*
X31286476Y45840714D01*
%TO.C,U8*%
X32994523Y30918095D02*
X32994523Y30270476D01*
X32956428Y30194285D01*
X32918333Y30156190D01*
X32842142Y30118095D01*
X32689761Y30118095D01*
X32613571Y30156190D01*
X32575476Y30194285D01*
X32537380Y30270476D01*
X32537380Y30918095D01*
X32042142Y30575238D02*
X32118333Y30613333D01*
X32156428Y30651428D01*
X32194523Y30727619D01*
X32194523Y30765714D01*
X32156428Y30841904D01*
X32118333Y30880000D01*
X32042142Y30918095D01*
X31889761Y30918095D01*
X31813571Y30880000D01*
X31775476Y30841904D01*
X31737380Y30765714D01*
X31737380Y30727619D01*
X31775476Y30651428D01*
X31813571Y30613333D01*
X31889761Y30575238D01*
X32042142Y30575238D01*
X32118333Y30537142D01*
X32156428Y30499047D01*
X32194523Y30422857D01*
X32194523Y30270476D01*
X32156428Y30194285D01*
X32118333Y30156190D01*
X32042142Y30118095D01*
X31889761Y30118095D01*
X31813571Y30156190D01*
X31775476Y30194285D01*
X31737380Y30270476D01*
X31737380Y30422857D01*
X31775476Y30499047D01*
X31813571Y30537142D01*
X31889761Y30575238D01*
%TO.C,C4*%
X45853333Y20288285D02*
X45891428Y20250190D01*
X46005714Y20212095D01*
X46081904Y20212095D01*
X46196190Y20250190D01*
X46272380Y20326380D01*
X46310476Y20402571D01*
X46348571Y20554952D01*
X46348571Y20669238D01*
X46310476Y20821619D01*
X46272380Y20897809D01*
X46196190Y20974000D01*
X46081904Y21012095D01*
X46005714Y21012095D01*
X45891428Y20974000D01*
X45853333Y20935904D01*
X45167619Y20745428D02*
X45167619Y20212095D01*
X45358095Y21050190D02*
X45548571Y20478761D01*
X45053333Y20478761D01*
%TO.C,R9*%
X32645333Y53613095D02*
X32912000Y53994047D01*
X33102476Y53613095D02*
X33102476Y54413095D01*
X32797714Y54413095D01*
X32721523Y54375000D01*
X32683428Y54336904D01*
X32645333Y54260714D01*
X32645333Y54146428D01*
X32683428Y54070238D01*
X32721523Y54032142D01*
X32797714Y53994047D01*
X33102476Y53994047D01*
X32264380Y53613095D02*
X32112000Y53613095D01*
X32035809Y53651190D01*
X31997714Y53689285D01*
X31921523Y53803571D01*
X31883428Y53955952D01*
X31883428Y54260714D01*
X31921523Y54336904D01*
X31959619Y54375000D01*
X32035809Y54413095D01*
X32188190Y54413095D01*
X32264380Y54375000D01*
X32302476Y54336904D01*
X32340571Y54260714D01*
X32340571Y54070238D01*
X32302476Y53994047D01*
X32264380Y53955952D01*
X32188190Y53917857D01*
X32035809Y53917857D01*
X31959619Y53955952D01*
X31921523Y53994047D01*
X31883428Y54070238D01*
%TO.C,R17*%
X32873904Y50044285D02*
X32492952Y50310952D01*
X32873904Y50501428D02*
X32073904Y50501428D01*
X32073904Y50196666D01*
X32112000Y50120476D01*
X32150095Y50082380D01*
X32226285Y50044285D01*
X32340571Y50044285D01*
X32416761Y50082380D01*
X32454857Y50120476D01*
X32492952Y50196666D01*
X32492952Y50501428D01*
X32873904Y49282380D02*
X32873904Y49739523D01*
X32873904Y49510952D02*
X32073904Y49510952D01*
X32188190Y49587142D01*
X32264380Y49663333D01*
X32302476Y49739523D01*
X32073904Y49015714D02*
X32073904Y48482380D01*
X32873904Y48825238D01*
%TO.C,C5*%
X47631333Y58714285D02*
X47669428Y58676190D01*
X47783714Y58638095D01*
X47859904Y58638095D01*
X47974190Y58676190D01*
X48050380Y58752380D01*
X48088476Y58828571D01*
X48126571Y58980952D01*
X48126571Y59095238D01*
X48088476Y59247619D01*
X48050380Y59323809D01*
X47974190Y59400000D01*
X47859904Y59438095D01*
X47783714Y59438095D01*
X47669428Y59400000D01*
X47631333Y59361904D01*
X46907523Y59438095D02*
X47288476Y59438095D01*
X47326571Y59057142D01*
X47288476Y59095238D01*
X47212285Y59133333D01*
X47021809Y59133333D01*
X46945619Y59095238D01*
X46907523Y59057142D01*
X46869428Y58980952D01*
X46869428Y58790476D01*
X46907523Y58714285D01*
X46945619Y58676190D01*
X47021809Y58638095D01*
X47212285Y58638095D01*
X47288476Y58676190D01*
X47326571Y58714285D01*
%TO.C,U6*%
X48234523Y30918095D02*
X48234523Y30270476D01*
X48196428Y30194285D01*
X48158333Y30156190D01*
X48082142Y30118095D01*
X47929761Y30118095D01*
X47853571Y30156190D01*
X47815476Y30194285D01*
X47777380Y30270476D01*
X47777380Y30918095D01*
X47053571Y30918095D02*
X47205952Y30918095D01*
X47282142Y30880000D01*
X47320238Y30841904D01*
X47396428Y30727619D01*
X47434523Y30575238D01*
X47434523Y30270476D01*
X47396428Y30194285D01*
X47358333Y30156190D01*
X47282142Y30118095D01*
X47129761Y30118095D01*
X47053571Y30156190D01*
X47015476Y30194285D01*
X46977380Y30270476D01*
X46977380Y30460952D01*
X47015476Y30537142D01*
X47053571Y30575238D01*
X47129761Y30613333D01*
X47282142Y30613333D01*
X47358333Y30575238D01*
X47396428Y30537142D01*
X47434523Y30460952D01*
D13*
%TO.C,R35*%
X49622064Y25040000D02*
X48167936Y25040000D01*
X49622064Y23220000D02*
X48167936Y23220000D01*
%TO.C,R41*%
X50525000Y37372936D02*
X50525000Y38827064D01*
X52345000Y37372936D02*
X52345000Y38827064D01*
%TO.C,R3*%
X30840000Y37372936D02*
X30840000Y38827064D01*
X32660000Y37372936D02*
X32660000Y38827064D01*
%TO.C,R50*%
X37190000Y32292936D02*
X37190000Y33747064D01*
X39010000Y32292936D02*
X39010000Y33747064D01*
%TO.C,R6*%
X27665000Y37372936D02*
X27665000Y38827064D01*
X29485000Y37372936D02*
X29485000Y38827064D01*
%TO.C,RV5*%
X26040000Y44145000D02*
X26040000Y43545000D01*
X28940000Y40945000D02*
X26040000Y40945000D01*
X30540000Y44345000D02*
X30540000Y43645000D01*
X30040000Y42745000D02*
X30040000Y42345000D01*
X29840000Y44345000D02*
X30540000Y44345000D01*
X26040000Y40945000D02*
X26040000Y41545000D01*
X28940000Y44145000D02*
X26040000Y44145000D01*
%TO.C,U5*%
X40005000Y1280000D02*
X41955000Y1280000D01*
X40005000Y10150000D02*
X38055000Y10150000D01*
X40005000Y10150000D02*
X41955000Y10150000D01*
X40005000Y1280000D02*
X36555000Y1280000D01*
%TO.C,R19*%
X42452936Y13610000D02*
X43907064Y13610000D01*
X42452936Y11790000D02*
X43907064Y11790000D01*
%TO.C,R52*%
X39010000Y37372936D02*
X39010000Y38827064D01*
X37190000Y37372936D02*
X37190000Y38827064D01*
%TO.C,R34*%
X36102936Y-2180000D02*
X37557064Y-2180000D01*
X36102936Y-360000D02*
X37557064Y-360000D01*
%TO.C,R49*%
X25760000Y25307936D02*
X25760000Y26762064D01*
X27580000Y25307936D02*
X27580000Y26762064D01*
%TO.C,C14*%
X47701252Y4805000D02*
X46278748Y4805000D01*
X47701252Y6625000D02*
X46278748Y6625000D01*
%TO.C,R23*%
X36102936Y11790000D02*
X37557064Y11790000D01*
X36102936Y13610000D02*
X37557064Y13610000D01*
%TO.C,R33*%
X42452936Y-360000D02*
X43907064Y-360000D01*
X42452936Y-2180000D02*
X43907064Y-2180000D01*
%TO.C,U7*%
X40005000Y15220000D02*
X36555000Y15220000D01*
X40005000Y15220000D02*
X41955000Y15220000D01*
X40005000Y20340000D02*
X38055000Y20340000D01*
X40005000Y20340000D02*
X41955000Y20340000D01*
%TO.C,R37*%
X44175000Y37372936D02*
X44175000Y38827064D01*
X45995000Y37372936D02*
X45995000Y38827064D01*
%TO.C,R47*%
X31207064Y20045000D02*
X29752936Y20045000D01*
X31207064Y21865000D02*
X29752936Y21865000D01*
%TO.C,R32*%
X43907064Y-5355000D02*
X42452936Y-5355000D01*
X43907064Y-3535000D02*
X42452936Y-3535000D01*
%TO.C,R48*%
X30387936Y23220000D02*
X31842064Y23220000D01*
X30387936Y25040000D02*
X31842064Y25040000D01*
%TO.C,R24*%
X40732064Y42820000D02*
X39277936Y42820000D01*
X40732064Y41000000D02*
X39277936Y41000000D01*
%TO.C,R28*%
X27212936Y49890000D02*
X28667064Y49890000D01*
X27212936Y51710000D02*
X28667064Y51710000D01*
%TO.C,R29*%
X45177064Y54885000D02*
X43722936Y54885000D01*
X45177064Y53065000D02*
X43722936Y53065000D01*
%TO.C,R16*%
X52479564Y-5355000D02*
X51025436Y-5355000D01*
X52479564Y-3535000D02*
X51025436Y-3535000D01*
%TO.C,C9*%
X33731252Y6625000D02*
X32308748Y6625000D01*
X33731252Y4805000D02*
X32308748Y4805000D01*
%TO.C,D5*%
X49395000Y40385000D02*
X49395000Y36500000D01*
X47125000Y40385000D02*
X49395000Y40385000D01*
X47125000Y36500000D02*
X47125000Y40385000D01*
%TO.C,R40*%
X41000000Y33747064D02*
X41000000Y32292936D01*
X42820000Y33747064D02*
X42820000Y32292936D01*
%TO.C,R38*%
X52430000Y33112064D02*
X52430000Y31657936D01*
X54250000Y33112064D02*
X54250000Y31657936D01*
%TO.C,RV3*%
X50470000Y21585000D02*
X51070000Y21585000D01*
X53670000Y21585000D02*
X53070000Y21585000D01*
X53670000Y18685000D02*
X53670000Y21585000D01*
X50470000Y18685000D02*
X50470000Y21585000D01*
X53870000Y17085000D02*
X53170000Y17085000D01*
X53870000Y17785000D02*
X53870000Y17085000D01*
X52270000Y17585000D02*
X51870000Y17585000D01*
%TO.C,R46*%
X35835000Y37372936D02*
X35835000Y38827064D01*
X34015000Y37372936D02*
X34015000Y38827064D01*
%TO.C,C6*%
X33380000Y18491252D02*
X33380000Y17068748D01*
X35200000Y18491252D02*
X35200000Y17068748D01*
%TO.C,R26*%
X46262936Y46630000D02*
X47717064Y46630000D01*
X46262936Y44810000D02*
X47717064Y44810000D01*
%TO.C,U3*%
X40005000Y43190000D02*
X38055000Y43190000D01*
X40005000Y43190000D02*
X41955000Y43190000D01*
X40005000Y52060000D02*
X38055000Y52060000D01*
X40005000Y52060000D02*
X43455000Y52060000D01*
%TO.C,R21*%
X44810000Y50257064D02*
X44810000Y48802936D01*
X46630000Y50257064D02*
X46630000Y48802936D01*
%TO.C,R36*%
X42820000Y38827064D02*
X42820000Y37372936D01*
X41000000Y38827064D02*
X41000000Y37372936D01*
%TO.C,R15*%
X35200000Y43087936D02*
X35200000Y44542064D01*
X33380000Y43087936D02*
X33380000Y44542064D01*
%TO.C,RV4*%
X39802000Y26940000D02*
X39802000Y29840000D01*
X43202000Y26040000D02*
X43202000Y25340000D01*
X43002000Y26940000D02*
X43002000Y29840000D01*
X41602000Y25840000D02*
X41202000Y25840000D01*
X43202000Y25340000D02*
X42502000Y25340000D01*
X43002000Y29840000D02*
X42402000Y29840000D01*
X39802000Y29840000D02*
X40402000Y29840000D01*
%TO.C,R51*%
X37190000Y28667064D02*
X37190000Y27212936D01*
X39010000Y28667064D02*
X39010000Y27212936D01*
%TO.C,R27*%
X49170000Y20412064D02*
X49170000Y18957936D01*
X47350000Y20412064D02*
X47350000Y18957936D01*
%TO.C,R43*%
X47717064Y41635000D02*
X46262936Y41635000D01*
X47717064Y43455000D02*
X46262936Y43455000D01*
%TO.C,R39*%
X51342936Y41635000D02*
X52797064Y41635000D01*
X51342936Y43455000D02*
X52797064Y43455000D01*
%TO.C,C11*%
X52781252Y46630000D02*
X51358748Y46630000D01*
X52781252Y44810000D02*
X51358748Y44810000D01*
%TO.C,J11*%
X44955000Y78740000D02*
X45955000Y79240000D01*
X43255000Y82650000D02*
X36755000Y82650000D01*
X45955000Y79240000D02*
X45955000Y78240000D01*
X43255000Y67800000D02*
X43255000Y67800000D01*
X43255000Y67800000D02*
X44565000Y67800000D01*
X43255000Y57050000D02*
X43255000Y67800000D01*
X43255000Y71900000D02*
X43255000Y82650000D01*
X35445000Y55750000D02*
X44565000Y55750000D01*
X44565000Y83950000D02*
X35445000Y83950000D01*
X44565000Y71900000D02*
X43255000Y71900000D01*
X35445000Y83950000D02*
X35445000Y55750000D01*
X44565000Y55750000D02*
X44565000Y83950000D01*
X36755000Y57050000D02*
X43255000Y57050000D01*
X45955000Y78240000D02*
X44955000Y78740000D01*
X36755000Y82650000D02*
X36755000Y57050000D01*
%TO.C,RV1*%
X26040000Y48590000D02*
X26040000Y47990000D01*
X29840000Y48790000D02*
X30540000Y48790000D01*
X28940000Y45390000D02*
X26040000Y45390000D01*
X28940000Y48590000D02*
X26040000Y48590000D01*
X30040000Y47190000D02*
X30040000Y46790000D01*
X30540000Y48790000D02*
X30540000Y48090000D01*
X26040000Y45390000D02*
X26040000Y45990000D01*
%TO.C,U8*%
X32385000Y34915000D02*
X30435000Y34915000D01*
X32385000Y34915000D02*
X35835000Y34915000D01*
X32385000Y26045000D02*
X34335000Y26045000D01*
X32385000Y26045000D02*
X30435000Y26045000D01*
%TO.C,C4*%
X46630000Y18491252D02*
X46630000Y17068748D01*
X44810000Y18491252D02*
X44810000Y17068748D01*
%TO.C,R9*%
X36287064Y54885000D02*
X34832936Y54885000D01*
X36287064Y53065000D02*
X34832936Y53065000D01*
%TO.C,R17*%
X35200000Y50257064D02*
X35200000Y48802936D01*
X33380000Y50257064D02*
X33380000Y48802936D01*
%TO.C,C5*%
X48209252Y58060000D02*
X46786748Y58060000D01*
X48209252Y56240000D02*
X46786748Y56240000D01*
%TO.C,U6*%
X47625000Y34915000D02*
X49575000Y34915000D01*
X47625000Y26045000D02*
X49575000Y26045000D01*
X47625000Y26045000D02*
X44175000Y26045000D01*
X47625000Y34915000D02*
X45675000Y34915000D01*
%TD*%
M02*
