%TF.GenerationSoftware,KiCad,Pcbnew,6.0.4-6f826c9f35~116~ubuntu21.10.1*%
%TF.CreationDate,2022-06-29T09:01:03+02:00*%
%TF.ProjectId,mHz_oscillator,6d487a5f-6f73-4636-996c-6c61746f722e,rev?*%
%TF.SameCoordinates,Original*%
%TF.FileFunction,Soldermask,Bot*%
%TF.FilePolarity,Negative*%
%FSLAX46Y46*%
G04 Gerber Fmt 4.6, Leading zero omitted, Abs format (unit mm)*
G04 Created by KiCad (PCBNEW 6.0.4-6f826c9f35~116~ubuntu21.10.1) date 2022-06-29 09:01:03*
%MOMM*%
%LPD*%
G01*
G04 APERTURE LIST*
G04 Aperture macros list*
%AMRoundRect*
0 Rectangle with rounded corners*
0 $1 Rounding radius*
0 $2 $3 $4 $5 $6 $7 $8 $9 X,Y pos of 4 corners*
0 Add a 4 corners polygon primitive as box body*
4,1,4,$2,$3,$4,$5,$6,$7,$8,$9,$2,$3,0*
0 Add four circle primitives for the rounded corners*
1,1,$1+$1,$2,$3*
1,1,$1+$1,$4,$5*
1,1,$1+$1,$6,$7*
1,1,$1+$1,$8,$9*
0 Add four rect primitives between the rounded corners*
20,1,$1+$1,$2,$3,$4,$5,0*
20,1,$1+$1,$4,$5,$6,$7,0*
20,1,$1+$1,$6,$7,$8,$9,0*
20,1,$1+$1,$8,$9,$2,$3,0*%
G04 Aperture macros list end*
%ADD10RoundRect,0.250000X0.312500X0.625000X-0.312500X0.625000X-0.312500X-0.625000X0.312500X-0.625000X0*%
%ADD11RoundRect,0.250000X0.625000X-0.312500X0.625000X0.312500X-0.625000X0.312500X-0.625000X-0.312500X0*%
%ADD12R,1.200000X1.200000*%
%ADD13R,1.500000X1.600000*%
%ADD14RoundRect,0.150000X-0.825000X-0.150000X0.825000X-0.150000X0.825000X0.150000X-0.825000X0.150000X0*%
%ADD15R,1.700000X1.700000*%
%ADD16O,1.700000X1.700000*%
%ADD17RoundRect,0.250000X-0.312500X-0.625000X0.312500X-0.625000X0.312500X0.625000X-0.312500X0.625000X0*%
%ADD18RoundRect,0.250000X0.325000X0.650000X-0.325000X0.650000X-0.325000X-0.650000X0.325000X-0.650000X0*%
%ADD19RoundRect,0.250000X-0.625000X0.375000X-0.625000X-0.375000X0.625000X-0.375000X0.625000X0.375000X0*%
%ADD20RoundRect,0.250000X-0.625000X0.312500X-0.625000X-0.312500X0.625000X-0.312500X0.625000X0.312500X0*%
%ADD21R,1.600000X1.500000*%
%ADD22RoundRect,0.250000X-0.650000X0.325000X-0.650000X-0.325000X0.650000X-0.325000X0.650000X0.325000X0*%
%ADD23RoundRect,0.150000X0.825000X0.150000X-0.825000X0.150000X-0.825000X-0.150000X0.825000X-0.150000X0*%
%ADD24RoundRect,0.250000X0.600000X0.600000X-0.600000X0.600000X-0.600000X-0.600000X0.600000X-0.600000X0*%
%ADD25C,1.700000*%
G04 APERTURE END LIST*
D10*
%TO.C,R35*%
X50357500Y24130000D03*
X47432500Y24130000D03*
%TD*%
D11*
%TO.C,R41*%
X51435000Y36637500D03*
X51435000Y39562500D03*
%TD*%
%TO.C,R3*%
X31750000Y36637500D03*
X31750000Y39562500D03*
%TD*%
%TO.C,R50*%
X38100000Y31557500D03*
X38100000Y34482500D03*
%TD*%
%TO.C,R6*%
X28575000Y36637500D03*
X28575000Y39562500D03*
%TD*%
D12*
%TO.C,RV5*%
X29740000Y43545000D03*
D13*
X26490000Y42545000D03*
D12*
X29740000Y41545000D03*
%TD*%
D14*
%TO.C,U5*%
X37530000Y1905000D03*
X37530000Y3175000D03*
X37530000Y4445000D03*
X37530000Y5715000D03*
X37530000Y6985000D03*
X37530000Y8255000D03*
X37530000Y9525000D03*
X42480000Y9525000D03*
X42480000Y8255000D03*
X42480000Y6985000D03*
X42480000Y5715000D03*
X42480000Y4445000D03*
X42480000Y3175000D03*
X42480000Y1905000D03*
%TD*%
D15*
%TO.C,J6*%
X31065000Y61010000D03*
D16*
X31065000Y63550000D03*
X31065000Y66090000D03*
X31065000Y68630000D03*
X31065000Y71170000D03*
X31065000Y73710000D03*
%TD*%
D15*
%TO.C,J10*%
X48895000Y72385000D03*
D16*
X48895000Y69845000D03*
X48895000Y67305000D03*
X48895000Y64765000D03*
X48895000Y62225000D03*
%TD*%
D15*
%TO.C,J4*%
X27012500Y12065000D03*
D16*
X27012500Y9525000D03*
X27012500Y6985000D03*
X27012500Y4445000D03*
X27012500Y1905000D03*
X27012500Y-635000D03*
%TD*%
D15*
%TO.C,J8*%
X34930000Y22275000D03*
D16*
X37470000Y22275000D03*
X40010000Y22275000D03*
X42550000Y22275000D03*
X45090000Y22275000D03*
%TD*%
D15*
%TO.C,J2*%
X52997500Y-8255000D03*
D16*
X50457500Y-8255000D03*
X47917500Y-8255000D03*
X45377500Y-8255000D03*
X42837500Y-8255000D03*
X40297500Y-8255000D03*
%TD*%
D17*
%TO.C,R19*%
X41717500Y12700000D03*
X44642500Y12700000D03*
%TD*%
D11*
%TO.C,R52*%
X38100000Y36637500D03*
X38100000Y39562500D03*
%TD*%
D17*
%TO.C,R34*%
X35367500Y-1270000D03*
X38292500Y-1270000D03*
%TD*%
D11*
%TO.C,R49*%
X26670000Y24572500D03*
X26670000Y27497500D03*
%TD*%
D18*
%TO.C,C14*%
X48465000Y5715000D03*
X45515000Y5715000D03*
%TD*%
D17*
%TO.C,R23*%
X35367500Y12700000D03*
X38292500Y12700000D03*
%TD*%
%TO.C,R33*%
X41717500Y-1270000D03*
X44642500Y-1270000D03*
%TD*%
D14*
%TO.C,U7*%
X37530000Y15875000D03*
X37530000Y17145000D03*
X37530000Y18415000D03*
X37530000Y19685000D03*
X42480000Y19685000D03*
X42480000Y18415000D03*
X42480000Y17145000D03*
X42480000Y15875000D03*
%TD*%
D11*
%TO.C,R37*%
X45085000Y36637500D03*
X45085000Y39562500D03*
%TD*%
D10*
%TO.C,R47*%
X31942500Y20955000D03*
X29017500Y20955000D03*
%TD*%
%TO.C,R32*%
X44642500Y-4445000D03*
X41717500Y-4445000D03*
%TD*%
D17*
%TO.C,R48*%
X29652500Y24130000D03*
X32577500Y24130000D03*
%TD*%
D10*
%TO.C,R24*%
X41467500Y41910000D03*
X38542500Y41910000D03*
%TD*%
D17*
%TO.C,R28*%
X26477500Y50800000D03*
X29402500Y50800000D03*
%TD*%
D10*
%TO.C,R29*%
X45912500Y53975000D03*
X42987500Y53975000D03*
%TD*%
%TO.C,R16*%
X53215000Y-4445000D03*
X50290000Y-4445000D03*
%TD*%
D18*
%TO.C,C9*%
X34495000Y5715000D03*
X31545000Y5715000D03*
%TD*%
D19*
%TO.C,D5*%
X48260000Y39500000D03*
X48260000Y36700000D03*
%TD*%
D20*
%TO.C,R40*%
X41910000Y34482500D03*
X41910000Y31557500D03*
%TD*%
%TO.C,R38*%
X53340000Y33847500D03*
X53340000Y30922500D03*
%TD*%
D12*
%TO.C,RV3*%
X53070000Y17885000D03*
D21*
X52070000Y21135000D03*
D12*
X51070000Y17885000D03*
%TD*%
D11*
%TO.C,R46*%
X34925000Y36637500D03*
X34925000Y39562500D03*
%TD*%
D22*
%TO.C,C6*%
X34290000Y19255000D03*
X34290000Y16305000D03*
%TD*%
D17*
%TO.C,R26*%
X45527500Y45720000D03*
X48452500Y45720000D03*
%TD*%
D23*
%TO.C,U3*%
X42480000Y51435000D03*
X42480000Y50165000D03*
X42480000Y48895000D03*
X42480000Y47625000D03*
X42480000Y46355000D03*
X42480000Y45085000D03*
X42480000Y43815000D03*
X37530000Y43815000D03*
X37530000Y45085000D03*
X37530000Y46355000D03*
X37530000Y47625000D03*
X37530000Y48895000D03*
X37530000Y50165000D03*
X37530000Y51435000D03*
%TD*%
D20*
%TO.C,R21*%
X45720000Y50992500D03*
X45720000Y48067500D03*
%TD*%
%TO.C,R36*%
X41910000Y39562500D03*
X41910000Y36637500D03*
%TD*%
D11*
%TO.C,R15*%
X34290000Y42352500D03*
X34290000Y45277500D03*
%TD*%
D12*
%TO.C,RV4*%
X42402000Y26140000D03*
D21*
X41402000Y29390000D03*
D12*
X40402000Y26140000D03*
%TD*%
D20*
%TO.C,R51*%
X38100000Y29402500D03*
X38100000Y26477500D03*
%TD*%
%TO.C,R27*%
X48260000Y21147500D03*
X48260000Y18222500D03*
%TD*%
D10*
%TO.C,R43*%
X48452500Y42545000D03*
X45527500Y42545000D03*
%TD*%
D17*
%TO.C,R39*%
X50607500Y42545000D03*
X53532500Y42545000D03*
%TD*%
D18*
%TO.C,C11*%
X53545000Y45720000D03*
X50595000Y45720000D03*
%TD*%
D24*
%TO.C,J11*%
X41275000Y78740000D03*
D25*
X38735000Y78740000D03*
X41275000Y76200000D03*
X38735000Y76200000D03*
X41275000Y73660000D03*
X38735000Y73660000D03*
X41275000Y71120000D03*
X38735000Y71120000D03*
X41275000Y68580000D03*
X38735000Y68580000D03*
X41275000Y66040000D03*
X38735000Y66040000D03*
X41275000Y63500000D03*
X38735000Y63500000D03*
X41275000Y60960000D03*
X38735000Y60960000D03*
%TD*%
D12*
%TO.C,RV1*%
X29740000Y47990000D03*
D13*
X26490000Y46990000D03*
D12*
X29740000Y45990000D03*
%TD*%
D23*
%TO.C,U8*%
X34860000Y34290000D03*
X34860000Y33020000D03*
X34860000Y31750000D03*
X34860000Y30480000D03*
X34860000Y29210000D03*
X34860000Y27940000D03*
X34860000Y26670000D03*
X29910000Y26670000D03*
X29910000Y27940000D03*
X29910000Y29210000D03*
X29910000Y30480000D03*
X29910000Y31750000D03*
X29910000Y33020000D03*
X29910000Y34290000D03*
%TD*%
D22*
%TO.C,C4*%
X45720000Y19255000D03*
X45720000Y16305000D03*
%TD*%
D10*
%TO.C,R9*%
X37022500Y53975000D03*
X34097500Y53975000D03*
%TD*%
D20*
%TO.C,R17*%
X34290000Y50992500D03*
X34290000Y48067500D03*
%TD*%
D18*
%TO.C,C5*%
X48973000Y57150000D03*
X46023000Y57150000D03*
%TD*%
D14*
%TO.C,U6*%
X45150000Y26670000D03*
X45150000Y27940000D03*
X45150000Y29210000D03*
X45150000Y30480000D03*
X45150000Y31750000D03*
X45150000Y33020000D03*
X45150000Y34290000D03*
X50100000Y34290000D03*
X50100000Y33020000D03*
X50100000Y31750000D03*
X50100000Y30480000D03*
X50100000Y29210000D03*
X50100000Y27940000D03*
X50100000Y26670000D03*
%TD*%
M02*
