%TF.GenerationSoftware,KiCad,Pcbnew,6.0.4-6f826c9f35~116~ubuntu21.10.1*%
%TF.CreationDate,2022-06-29T09:01:03+02:00*%
%TF.ProjectId,mHz_oscillator,6d487a5f-6f73-4636-996c-6c61746f722e,rev?*%
%TF.SameCoordinates,Original*%
%TF.FileFunction,Soldermask,Top*%
%TF.FilePolarity,Negative*%
%FSLAX46Y46*%
G04 Gerber Fmt 4.6, Leading zero omitted, Abs format (unit mm)*
G04 Created by KiCad (PCBNEW 6.0.4-6f826c9f35~116~ubuntu21.10.1) date 2022-06-29 09:01:03*
%MOMM*%
%LPD*%
G01*
G04 APERTURE LIST*
G04 Aperture macros list*
%AMRoundRect*
0 Rectangle with rounded corners*
0 $1 Rounding radius*
0 $2 $3 $4 $5 $6 $7 $8 $9 X,Y pos of 4 corners*
0 Add a 4 corners polygon primitive as box body*
4,1,4,$2,$3,$4,$5,$6,$7,$8,$9,$2,$3,0*
0 Add four circle primitives for the rounded corners*
1,1,$1+$1,$2,$3*
1,1,$1+$1,$4,$5*
1,1,$1+$1,$6,$7*
1,1,$1+$1,$8,$9*
0 Add four rect primitives between the rounded corners*
20,1,$1+$1,$2,$3,$4,$5,0*
20,1,$1+$1,$4,$5,$6,$7,0*
20,1,$1+$1,$6,$7,$8,$9,0*
20,1,$1+$1,$8,$9,$2,$3,0*%
G04 Aperture macros list end*
%ADD10RoundRect,0.250000X-0.625000X0.375000X-0.625000X-0.375000X0.625000X-0.375000X0.625000X0.375000X0*%
%ADD11RoundRect,0.250000X0.312500X0.625000X-0.312500X0.625000X-0.312500X-0.625000X0.312500X-0.625000X0*%
%ADD12RoundRect,0.250000X-0.312500X-0.625000X0.312500X-0.625000X0.312500X0.625000X-0.312500X0.625000X0*%
%ADD13RoundRect,0.250000X0.325000X0.650000X-0.325000X0.650000X-0.325000X-0.650000X0.325000X-0.650000X0*%
%ADD14RoundRect,0.250000X-0.625000X0.312500X-0.625000X-0.312500X0.625000X-0.312500X0.625000X0.312500X0*%
%ADD15RoundRect,0.250000X0.625000X-0.375000X0.625000X0.375000X-0.625000X0.375000X-0.625000X-0.375000X0*%
%ADD16RoundRect,0.150000X-0.825000X-0.150000X0.825000X-0.150000X0.825000X0.150000X-0.825000X0.150000X0*%
%ADD17RoundRect,0.250000X0.650000X-0.325000X0.650000X0.325000X-0.650000X0.325000X-0.650000X-0.325000X0*%
%ADD18RoundRect,0.150000X0.825000X0.150000X-0.825000X0.150000X-0.825000X-0.150000X0.825000X-0.150000X0*%
%ADD19R,1.700000X1.700000*%
%ADD20O,1.700000X1.700000*%
%ADD21RoundRect,0.250000X-0.650000X0.325000X-0.650000X-0.325000X0.650000X-0.325000X0.650000X0.325000X0*%
%ADD22RoundRect,0.150000X-0.150000X0.587500X-0.150000X-0.587500X0.150000X-0.587500X0.150000X0.587500X0*%
%ADD23RoundRect,0.250000X-0.325000X-0.650000X0.325000X-0.650000X0.325000X0.650000X-0.325000X0.650000X0*%
%ADD24RoundRect,0.250000X0.625000X-0.312500X0.625000X0.312500X-0.625000X0.312500X-0.625000X-0.312500X0*%
%ADD25R,1.200000X1.200000*%
%ADD26R,1.500000X1.600000*%
%ADD27RoundRect,0.250000X0.375000X0.625000X-0.375000X0.625000X-0.375000X-0.625000X0.375000X-0.625000X0*%
%ADD28RoundRect,0.250000X-0.375000X-0.625000X0.375000X-0.625000X0.375000X0.625000X-0.375000X0.625000X0*%
%ADD29RoundRect,0.150000X-0.587500X-0.150000X0.587500X-0.150000X0.587500X0.150000X-0.587500X0.150000X0*%
%ADD30RoundRect,0.250000X0.600000X0.600000X-0.600000X0.600000X-0.600000X-0.600000X0.600000X-0.600000X0*%
%ADD31C,1.700000*%
G04 APERTURE END LIST*
D10*
%TO.C,D3*%
X48895000Y56645000D03*
X48895000Y53845000D03*
%TD*%
D11*
%TO.C,R20*%
X40197500Y43815000D03*
X37272500Y43815000D03*
%TD*%
D12*
%TO.C,R4*%
X41717500Y12700000D03*
X44642500Y12700000D03*
%TD*%
D13*
%TO.C,C1*%
X46765000Y25400000D03*
X43815000Y25400000D03*
%TD*%
D14*
%TO.C,R12*%
X49530000Y25400000D03*
X49530000Y22475000D03*
%TD*%
%TO.C,R5*%
X34290000Y70042500D03*
X34290000Y67117500D03*
%TD*%
%TO.C,R18*%
X52070000Y56707500D03*
X52070000Y53782500D03*
%TD*%
D15*
%TO.C,D1*%
X45085000Y67180000D03*
X45085000Y69980000D03*
%TD*%
D16*
%TO.C,U1*%
X37530000Y9525000D03*
X37530000Y8255000D03*
X37530000Y6985000D03*
X37530000Y5715000D03*
X37530000Y4445000D03*
X37530000Y3175000D03*
X37530000Y1905000D03*
X42480000Y1905000D03*
X42480000Y3175000D03*
X42480000Y4445000D03*
X42480000Y5715000D03*
X42480000Y6985000D03*
X42480000Y8255000D03*
X42480000Y9525000D03*
%TD*%
D17*
%TO.C,C8*%
X42545000Y49960000D03*
X42545000Y52910000D03*
%TD*%
D13*
%TO.C,C15*%
X52480000Y28575000D03*
X49530000Y28575000D03*
%TD*%
D18*
%TO.C,U4*%
X50800000Y43815000D03*
X50800000Y45085000D03*
X50800000Y46355000D03*
X50800000Y47625000D03*
X50800000Y48895000D03*
X50800000Y50165000D03*
X50800000Y51435000D03*
X45850000Y51435000D03*
X45850000Y50165000D03*
X45850000Y48895000D03*
X45850000Y47625000D03*
X45850000Y46355000D03*
X45850000Y45085000D03*
X45850000Y43815000D03*
%TD*%
D16*
%TO.C,U2*%
X29275000Y51435000D03*
X29275000Y50165000D03*
X29275000Y48895000D03*
X29275000Y47625000D03*
X29275000Y46355000D03*
X29275000Y45085000D03*
X29275000Y43815000D03*
X34225000Y43815000D03*
X34225000Y45085000D03*
X34225000Y46355000D03*
X34225000Y47625000D03*
X34225000Y48895000D03*
X34225000Y50165000D03*
X34225000Y51435000D03*
%TD*%
D12*
%TO.C,R22*%
X38542500Y57785000D03*
X41467500Y57785000D03*
%TD*%
D14*
%TO.C,R25*%
X45085000Y64327500D03*
X45085000Y61402500D03*
%TD*%
D15*
%TO.C,D6*%
X40640000Y31620000D03*
X40640000Y34420000D03*
%TD*%
D12*
%TO.C,R31*%
X37907500Y40640000D03*
X40832500Y40640000D03*
%TD*%
D19*
%TO.C,J6*%
X31065000Y61010000D03*
D20*
X31065000Y63550000D03*
X31065000Y66090000D03*
X31065000Y68630000D03*
X31065000Y71170000D03*
X31065000Y73710000D03*
%TD*%
D12*
%TO.C,R44*%
X41717500Y-1270000D03*
X44642500Y-1270000D03*
%TD*%
D13*
%TO.C,C12*%
X48465000Y5715000D03*
X45515000Y5715000D03*
%TD*%
D11*
%TO.C,R11*%
X49087500Y59055000D03*
X46162500Y59055000D03*
%TD*%
D21*
%TO.C,C2*%
X34290000Y64340000D03*
X34290000Y61390000D03*
%TD*%
D11*
%TO.C,R7*%
X52262500Y37465000D03*
X49337500Y37465000D03*
%TD*%
D13*
%TO.C,C10*%
X46560000Y31750000D03*
X43610000Y31750000D03*
%TD*%
D22*
%TO.C,Q1*%
X46670000Y55547500D03*
X44770000Y55547500D03*
X45720000Y53672500D03*
%TD*%
D14*
%TO.C,R53*%
X37465000Y34482500D03*
X37465000Y31557500D03*
%TD*%
D23*
%TO.C,C16*%
X34515000Y28575000D03*
X37465000Y28575000D03*
%TD*%
D19*
%TO.C,J10*%
X48895000Y72385000D03*
D20*
X48895000Y69845000D03*
X48895000Y67305000D03*
X48895000Y64765000D03*
X48895000Y62225000D03*
%TD*%
D24*
%TO.C,R14*%
X49530000Y31557500D03*
X49530000Y34482500D03*
%TD*%
D14*
%TO.C,R2*%
X31750000Y10987500D03*
X31750000Y8062500D03*
%TD*%
D12*
%TO.C,R8*%
X35367500Y12700000D03*
X38292500Y12700000D03*
%TD*%
D13*
%TO.C,C3*%
X34495000Y57785000D03*
X31545000Y57785000D03*
%TD*%
D17*
%TO.C,C18*%
X42545000Y44880000D03*
X42545000Y47830000D03*
%TD*%
D19*
%TO.C,J4*%
X27012500Y12065000D03*
D20*
X27012500Y9525000D03*
X27012500Y6985000D03*
X27012500Y4445000D03*
X27012500Y1905000D03*
X27012500Y-635000D03*
%TD*%
D23*
%TO.C,C19*%
X28370000Y28575000D03*
X31320000Y28575000D03*
%TD*%
D21*
%TO.C,C13*%
X37465000Y52910000D03*
X37465000Y49960000D03*
%TD*%
D12*
%TO.C,R30*%
X43622500Y40640000D03*
X46547500Y40640000D03*
%TD*%
D24*
%TO.C,R13*%
X40640000Y25207500D03*
X40640000Y28132500D03*
%TD*%
D19*
%TO.C,J8*%
X34930000Y22275000D03*
D20*
X37470000Y22275000D03*
X40010000Y22275000D03*
X42550000Y22275000D03*
X45090000Y22275000D03*
%TD*%
D14*
%TO.C,R42*%
X31750000Y3367500D03*
X31750000Y442500D03*
%TD*%
D25*
%TO.C,RV2*%
X46885000Y34560000D03*
D26*
X43635000Y35560000D03*
D25*
X46885000Y36560000D03*
%TD*%
D12*
%TO.C,R10*%
X34540000Y25400000D03*
X37465000Y25400000D03*
%TD*%
D13*
%TO.C,C7*%
X34495000Y5715000D03*
X31545000Y5715000D03*
%TD*%
D10*
%TO.C,D7*%
X34290000Y34420000D03*
X34290000Y31620000D03*
%TD*%
D24*
%TO.C,R1*%
X29210000Y38542500D03*
X29210000Y41467500D03*
%TD*%
D19*
%TO.C,J2*%
X52997500Y-8255000D03*
D20*
X50457500Y-8255000D03*
X47917500Y-8255000D03*
X45377500Y-8255000D03*
X42837500Y-8255000D03*
X40297500Y-8255000D03*
%TD*%
D27*
%TO.C,D4*%
X52200000Y40640000D03*
X49400000Y40640000D03*
%TD*%
D12*
%TO.C,R45*%
X35367500Y-1270000D03*
X38292500Y-1270000D03*
%TD*%
D28*
%TO.C,D2*%
X43815000Y28575000D03*
X46615000Y28575000D03*
%TD*%
D13*
%TO.C,C17*%
X34495000Y54610000D03*
X31545000Y54610000D03*
%TD*%
D29*
%TO.C,Q2*%
X37797500Y47940000D03*
X37797500Y46040000D03*
X39672500Y46990000D03*
%TD*%
D30*
%TO.C,J11*%
X41275000Y78740000D03*
D31*
X38735000Y78740000D03*
X41275000Y76200000D03*
X38735000Y76200000D03*
X41275000Y73660000D03*
X38735000Y73660000D03*
X41275000Y71120000D03*
X38735000Y71120000D03*
X41275000Y68580000D03*
X38735000Y68580000D03*
X41275000Y66040000D03*
X38735000Y66040000D03*
X41275000Y63500000D03*
X38735000Y63500000D03*
X41275000Y60960000D03*
X38735000Y60960000D03*
%TD*%
M02*
