M48
; DRILL file {KiCad 6.0.4-6f826c9f35~116~ubuntu21.10.1} date Mi 29 Jun 2022 09:01:00 CEST
; FORMAT={-:-/ absolute / inch / decimal}
; #@! TF.CreationDate,2022-06-29T09:01:00+02:00
; #@! TF.GenerationSoftware,Kicad,Pcbnew,6.0.4-6f826c9f35~116~ubuntu21.10.1
; #@! TF.FileFunction,Plated,1,2,PTH
FMAT,2
INCH
; #@! TA.AperFunction,Plated,PTH,ViaDrill
T1C0.0118
; #@! TA.AperFunction,Plated,PTH,ComponentDrill
T2C0.0394
%
G90
G05
T1
X1.03Y1.23
X1.07Y1.02
X1.0984Y1.78
X1.18Y1.35
X1.22Y1.2
X1.25Y1.79
X1.27Y1.63
X1.27Y0.68
X1.28Y1.38
X1.3Y2.15
X1.3188Y1.2397
X1.3231Y0.9679
X1.34Y1.49
X1.35Y2.64
X1.36Y0.81
X1.36Y0.22
X1.378Y1.5148
X1.39Y0.2798
X1.41Y2.24
X1.42Y1.62
X1.42Y0.98
X1.43Y1.58
X1.4306Y1.95
X1.4306Y0.25
X1.4345Y1.8998
X1.44Y2.62
X1.44Y2.18
X1.44Y1.43
X1.44Y1.18
X1.4776Y0.225
X1.48Y1.6206
X1.48Y1.11
X1.48Y1.7752
X1.5Y1.25
X1.52Y2.14
X1.5202Y1.95
X1.53Y2.21
X1.53Y1.8
X1.53Y0.97
X1.5375Y-0.1875
X1.54Y0.36
X1.5484Y1.2206
X1.56Y1.62
X1.56Y1.44
X1.56Y1.17
X1.56Y0.33
X1.56Y0.2798
X1.57Y0.67
X1.58Y1.89
X1.58Y0.57
X1.5806Y1.47
X1.5867Y1.7833
X1.5894Y0.27
X1.59Y1.66
X1.59Y1.5
X1.6Y2.33
X1.6Y1.41
X1.6Y0.18
X1.61Y1.92
X1.61Y1.85
X1.63Y1.5197
X1.66Y0.56
X1.67Y1.03
X1.67Y0.62
X1.6711Y1.6906
X1.6724Y0.225
X1.69Y1.17
X1.71Y1.33
X1.71Y1.06
X1.7174Y1.6
X1.72Y0.7
X1.73Y1.88
X1.73Y0.84
X1.73Y0.75
X1.74Y1.97
X1.74Y0.3553
X1.7576Y0.5
X1.7576Y-0.05
X1.76Y2.18
X1.77Y2.53
X1.78Y1.25
X1.78Y1.2
X1.7919Y0.225
X1.8Y1.7252
X1.8Y0.64
X1.82Y0.34
X1.8206Y1.48
X1.83Y1.6
X1.83Y1.5294
X1.85Y1.19
X1.87Y1.93
X1.87Y1.73
X1.87Y1.3
X1.87Y0.79
X1.88Y1.6
X1.94Y0.68
X1.9453Y1.4747
X1.9666Y1.1966
X1.97Y1.05
X1.99Y1.67
X1.9994Y1.5954
X2.0207Y1.0707
X2.05Y1.3706
X2.09Y0.75
X2.11Y1.15
T2
X1.0635Y0.475
X1.0635Y0.375
X1.0635Y0.275
X1.0635Y0.175
X1.0635Y0.075
X1.0635Y-0.025
X1.223Y2.902
X1.223Y2.802
X1.223Y2.702
X1.223Y2.602
X1.223Y2.502
X1.223Y2.402
X1.3752Y0.877
X1.4752Y0.877
X1.525Y3.1
X1.525Y3.0
X1.525Y2.9
X1.525Y2.8
X1.525Y2.7
X1.525Y2.6
X1.525Y2.5
X1.525Y2.4
X1.5752Y0.877
X1.5865Y-0.325
X1.625Y3.1
X1.625Y3.0
X1.625Y2.9
X1.625Y2.8
X1.625Y2.7
X1.625Y2.6
X1.625Y2.5
X1.625Y2.4
X1.6752Y0.877
X1.6865Y-0.325
X1.7752Y0.877
X1.7865Y-0.325
X1.8865Y-0.325
X1.925Y2.8498
X1.925Y2.7498
X1.925Y2.6498
X1.925Y2.5498
X1.925Y2.4498
X1.9865Y-0.325
X2.0865Y-0.325
T0
M30
